<svg width="200" height="200" xmlns="http://www.w3.org/2000/svg">
 <metadata id="metadata8">image/svg+xml</metadata>

 <g>
  <title>background</title>
  <rect fill="none" id="canvas_background" height="202" width="202" y="-1" x="-1"/>
 </g>
 <g>
  <title>Layer 1</title>
  <g fill-opacity="0.7" id="svg_50" stroke="null">
   <g id="svg_34" stroke="null">
    <g id="svg_33" stroke="null">
     <path fill="#612095" id="svg_32" d="m168.732384,121.593863c-0.565302,-1.325673 -2.098905,-1.94334 -3.428559,-1.376813l-10.813924,4.618571l-14.71071,-8.493921l19.223938,-8.212188c1.328429,-0.566527 1.944565,-2.101355 1.376813,-3.428559c-0.566527,-1.326898 -2.100436,-1.944565 -3.428559,-1.376813l-22.829191,9.75161l-10.249235,-5.917602l18.991815,-8.373878c0.94809,-0.417392 1.559327,-1.355071 1.559327,-2.391049c0,-1.035978 -0.611236,-1.973963 -1.559327,-2.391049l-18.991815,-8.373878l10.249235,-5.917602l22.829191,9.75161c0.334404,0.14301 0.682588,0.211912 1.024648,0.211912c1.014236,0 1.980394,-0.595925 2.403911,-1.588725c0.567752,-1.326898 -0.048691,-2.862032 -1.376813,-3.428559l-19.223938,-8.212188l14.71071,-8.493308l10.813924,4.618265c0.334404,0.14301 0.682588,0.211912 1.024648,0.211912c1.015767,0 1.980394,-0.595925 2.403911,-1.588725c0.567752,-1.326898 -0.048384,-2.862032 -1.376813,-3.428559l-7.20867,-3.07915l6.788828,-3.919447c1.25034,-0.722092 1.677838,-2.319697 0.956971,-3.570037c-0.723623,-1.25034 -2.323678,-1.680288 -3.570344,-0.956971l-6.789134,3.919753l0.937678,-7.781934c0.173633,-1.432853 -0.848565,-2.734334 -2.281419,-2.906742c-1.430404,-0.174858 -2.734334,0.847034 -2.906742,2.281419l-1.406824,11.673514l-14.711016,8.493308l2.50068,-20.755091c0.173633,-1.432853 -0.848565,-2.734334 -2.281419,-2.906742c-1.436834,-0.180064 -2.734334,0.847034 -2.906742,2.281419l-2.969825,24.646364l-10.248622,5.916989l2.243752,-20.635049c0.112387,-1.028323 -0.394119,-2.027553 -1.291375,-2.545696c-0.898175,-0.515386 -1.860658,-0.458121 -2.698811,0.15434l-16.596784,12.261783l0,-9.221218l19.708701,-14.895367c1.154796,-0.865102 1.312198,-2.503436 0.445872,-3.658232c-0.862652,-1.152346 -2.385843,-1.389675 -3.544314,-0.521817l-16.610565,12.542596l0,-19.598458l9.256129,-7.055861c1.154796,-0.865102 1.312198,-2.503436 0.445872,-3.658232c-0.862652,-1.152346 -2.384312,-1.389675 -3.544314,-0.521817l-6.157687,4.703091l0,-7.839506c0,-1.442959 -1.170107,-2.613066 -2.613066,-2.613066s-2.613066,1.170107 -2.613066,2.613066l0,7.839506l-6.422882,-4.703091c-1.154796,-0.867552 -2.86785,-0.630223 -3.734177,0.521817c-0.866327,1.154796 -0.519061,2.79313 0.635735,3.658232l9.521324,7.055861l0,19.59907l-16.875454,-12.542596c-1.157246,-0.867552 -2.869075,-0.630223 -3.734177,0.521817c-0.866327,1.154796 -0.519061,2.79313 0.635735,3.658232l19.973896,14.895367l0,9.221218l-16.899953,-12.261783c-0.835704,-0.611236 -2.028166,-0.669727 -2.92634,-0.15434c-0.89695,0.518142 -1.441122,1.517067 -1.329347,2.545696l2.225072,20.635049l-7.995683,-4.610609l-2.972887,-24.646058c-0.172714,-1.434078 -1.473582,-2.448621 -2.909192,-2.281419c-1.432853,0.172102 -2.456276,1.473582 -2.282337,2.906742l2.498536,20.754785l-16.973754,-9.799688l-1.406824,-11.673514c-0.170877,-1.432853 -1.478788,-2.440965 -2.906742,-2.281419c-1.432853,0.172102 -2.455051,1.473582 -2.281419,2.906742l0.937372,7.781934l-6.789134,-3.919753c-1.254321,-0.723317 -2.847945,-0.293369 -3.570037,0.956971c-0.720867,1.25034 -0.293369,2.847945 0.956971,3.570037l6.788828,3.919447l-7.207752,3.07915c-1.328122,0.566527 -1.944565,2.101661 -1.376813,3.428559c0.423517,0.9928 1.388144,1.588725 2.403911,1.588725c0.34206,0 0.690244,-0.068902 1.024648,-0.211912l10.813312,-4.618265l16.973754,9.799688l-19.224244,8.212495c-1.326898,0.566527 -1.94334,2.101355 -1.375588,3.429784c0.423517,0.991575 1.388144,1.587194 2.403911,1.587194c0.34206,0 0.690244,-0.068902 1.025873,-0.211912l22.82766,-9.751304l7.985884,4.610609l-18.991815,8.373878c-0.94809,0.417392 -1.559327,1.355071 -1.559327,2.391049c0,1.035978 0.611236,1.973963 1.559327,2.391049l18.991815,8.373878l-7.985884,4.610609l-22.82766,-9.751304c-1.333328,-0.567752 -2.864482,0.048384 -3.429784,1.375588c-0.567752,1.328429 0.048691,2.863257 1.375588,3.429784l19.224244,8.212495l-16.973754,9.799994l-10.813312,-4.618571c-1.328122,-0.566527 -2.862032,0.051141 -3.428559,1.376813c-0.567752,1.326898 0.048691,2.862032 1.376813,3.428559l7.208364,3.07915l-6.788828,3.919447c-1.25034,0.722092 -1.677838,2.319697 -0.956971,3.570037c0.484763,0.83846 1.362727,1.306686 2.266107,1.306686c0.44281,0 0.893275,-0.11208 1.30393,-0.349715l6.789134,-3.919753l-0.937372,7.781934c-0.173633,1.432853 0.848565,2.734334 2.281419,2.906742c0.105956,0.012862 0.211912,0.019293 0.316336,0.019293c1.302705,0 2.430859,-0.973507 2.590099,-2.300711l1.406824,-11.673514l16.973142,-9.799688l-2.499149,20.754785c-0.173633,1.432853 0.848565,2.734334 2.281419,2.906742c0.105956,0.012862 0.211912,0.019293 0.316336,0.019293c1.302705,0 2.430859,-0.973507 2.590099,-2.300405l2.9686,-24.646058l7.98619,-4.610609l-2.243752,20.635049c-0.112387,1.028323 0.394119,2.027553 1.291375,2.545696c0.8945,0.514161 2.165051,0.456896 3.001979,-0.15434l16.899953,-12.261783l0,11.834591l-20.011869,14.895367c-1.154796,0.865102 -1.464089,2.503436 -0.597762,3.658232c0.865102,1.154796 2.614904,1.392125 3.77215,0.521817l16.837482,-12.542596l0,16.986004l-9.559297,7.055861c-1.154796,0.865102 -1.464089,2.503436 -0.597762,3.658232c0.866327,1.152346 2.617354,1.392125 3.77215,0.521817l6.38491,-4.703091l0,7.839506c0,1.443265 1.170107,2.613066 2.613066,2.613066s2.613066,-1.170107 2.613066,-2.613066l0,-7.839506l6.119714,4.703091c0.470677,0.35339 0.944722,0.523042 1.489506,0.523042c0.794975,0 1.542178,-0.361046 2.054808,-1.044859c0.866633,-1.154796 0.765577,-2.79313 -0.389219,-3.658232l-9.275115,-7.055861l0,-16.986004l16.572592,12.542596c0.470983,0.35339 0.944722,0.523042 1.489506,0.523042c0.794975,0 1.542178,-0.361046 2.054808,-1.044859c0.866633,-1.154796 0.765577,-2.79313 -0.389219,-3.658232l-19.727687,-14.895367l0,-11.834591l16.596784,12.261783c0.458121,0.334404 0.92451,0.504056 1.46807,0.504056c0.450772,0 0.862958,-0.116061 1.268714,-0.349715c0.897256,-0.518142 1.384775,-1.517067 1.272388,-2.545696l-2.253245,-20.635049l10.244029,5.916989l2.967375,24.646364c0.159546,1.326898 1.286475,2.300405 2.58918,2.300405c0.104731,0 0.209768,-0.006431 0.315724,-0.019293c1.432853,-0.172102 2.454745,-1.473582 2.281112,-2.906742l-2.500986,-20.755091l14.711016,8.493308l1.406824,11.673514c0.159546,1.326898 1.287394,2.300711 2.590099,2.300711c0.104731,0 0.210687,-0.006431 0.316336,-0.019293c1.432853,-0.172408 2.455051,-1.473582 2.281419,-2.906742l-0.937678,-7.781934l6.789134,3.919753c0.412187,0.237329 0.861427,0.349409 1.30393,0.349409c0.903381,0 1.781344,-0.468227 2.266107,-1.306686c0.720867,-1.25034 0.293369,-2.847945 -0.956971,-3.570037l-6.788828,-3.919447l7.20867,-3.07915c1.329041,-0.566221 1.945177,-2.101355 1.377426,-3.428253zm-104.066068,-25.200336l17.070217,-7.526538l13.03624,7.526538l-13.036547,7.526538l-17.069911,-7.526538l0.000001,0zm33.023611,19.579165l-15.205272,11.021242l2.092474,-18.546555l13.112798,-7.526844l0,15.052157zm0,-24.105561l-13.112798,-7.52715l-2.092474,-18.546555l15.205272,11.021242l0,15.052463zm5.226439,-15.052463l14.902104,-11.021242l-1.941196,18.546555l-12.961214,7.52715l0,-15.052463l0.000306,0zm0,39.158024l0,-15.052157l12.961214,7.526844l1.941196,18.546555l-14.90241,-11.021242zm15.34767,-12.052627l-13.036853,-7.526538l13.036853,-7.526538l17.069911,7.526538l-17.069911,7.526538z" stroke="null"/>
    </g>
   </g>
  </g>
 </g>
</svg>