<svg width="512" height="512" xmlns="http://www.w3.org/2000/svg" xmlns:xlink="http://www.w3.org/1999/xlink">
 <defs>
  <rect fill="#60278e" id="p" width="8" height="8"/>
  <style type="text/css">@import url('https://fonts.googleapis.com/css?family=Ubuntu');</style>
 </defs>
 <g>
  <title>background</title>
  <rect fill="#612095" id="canvas_background" height="514" width="514" y="-1" x="-1"/>
 </g>
 <g>
  <title>Layer 1</title>
  <defs>
   <style type="text/css">
    <![CDATA[
    .outline { stroke:none; stroke-width:0 }
  ]]>
   </style>
   <g id="svg_4">
    <path id="svg_6" d="m-815.08979,23.26693l-143.72219,-381.08317l374.40909,-146.28413a187.20454,190.54158 90 0 1 143.72218,381.08317a187.20454,190.54158 90 0 1 -374.40908,146.28413z"/>
   </g>
   <g id="heart">
    <path d="m-765.94367,-6.17853l-143.72218,-381.08317l374.40909,-146.28413a187.20454,190.54158 90 0 1 143.72218,381.08317a187.20454,190.54158 90 0 1 -374.40909,146.28413z" id="svg_1"/>
   </g>
  </defs>
  <desc>a nearly perfect heart
	 made of two arcs and a right angle</desc>
  <metadata id="svg_19">image/svg+xml</metadata>
  <metadata id="svg_225">image/svg+xml</metadata>
  <defs>
   <clipPath clipPathUnits="userSpaceOnUse" id="svg_218">
    <path d="m3025056.75632,-2057697.95265l7824.543,0l0,-3259.811l-7824.543,0l0,3259.811z" id="svg_224"/>
   </clipPath>
   <clipPath clipPathUnits="userSpaceOnUse" id="svg_211">
    <path d="m3025056.75632,-2057697.95265l7824.543,0l0,-3259.811l-7824.543,0l0,3259.811z" id="svg_223"/>
   </clipPath>
  </defs>
  <g id="svg_8" stroke="null">
   <use x="3894.30962" y="-3457.73456" id="svg_7" transform="matrix(-0.08705242142095844,-0.08705242142095841,0.08705242142095841,-0.08705242142095844,70999586.57275113,-52595450.1181269) " fill="#ffffff" class="outline " xlink:href="#svg_4" stroke="null"/>
  </g>
  <g stroke="null" id="svg_15">
   <g stroke="null" id="svg_40">
    <g stroke="null" id="svg_114">
     <rect stroke="null" fill="none" id="svg_107" height="202" width="202" y="937.83561" x="-719.93503" transform="matrix(0.20099826868370657,0,0,0.20099826868370657,321.0360348741098,-51.22848146176776) "/>
     <g stroke="null" id="svg_113" transform="matrix(0.20099826868370657,0,0,0.20099826868370657,321.0360348741098,-51.22848146176776) ">
      <title>Layer 1</title>
      <g stroke="null" id="svg_112">
       <g stroke="null" id="svg_111">
        <g stroke="null" id="svg_110">
         <path stroke="null" fill="#ffffff" id="svg_109" d="m-550.20268,1060.42946c-0.5653,-1.32567 -2.0989,-1.94334 -3.42856,-1.37681l-10.81392,4.61858l-14.71071,-8.49392l19.22394,-8.21219c1.32843,-0.56652 1.94456,-2.10135 1.37681,-3.42856c-0.56653,-1.3269 -2.10043,-1.94456 -3.42856,-1.37681l-22.82919,9.75161l-10.24923,-5.9176l18.99181,-8.37388c0.94809,-0.41739 1.55933,-1.35507 1.55933,-2.39105c0,-1.03598 -0.61124,-1.97396 -1.55933,-2.39105l-18.99181,-8.37388l10.24923,-5.9176l22.82919,9.75161c0.33441,0.14301 0.68259,0.21191 1.02465,0.21191c1.01424,0 1.98039,-0.59592 2.40391,-1.58872c0.56775,-1.3269 -0.04869,-2.86203 -1.37681,-3.42856l-19.22394,-8.21219l14.71071,-8.49331l10.81392,4.61827c0.33441,0.14301 0.68259,0.21191 1.02465,0.21191c1.01577,0 1.9804,-0.59592 2.40391,-1.58872c0.56776,-1.3269 -0.04838,-2.86204 -1.37681,-3.42856l-7.20867,-3.07915l6.78883,-3.91945c1.25034,-0.72209 1.67784,-2.3197 0.95697,-3.57004c-0.72362,-1.25034 -2.32368,-1.68029 -3.57034,-0.95697l-6.78914,3.91975l0.93768,-7.78193c0.17363,-1.43285 -0.84857,-2.73433 -2.28142,-2.90674c-1.4304,-0.17486 -2.73433,0.84703 -2.90674,2.28142l-1.40683,11.67351l-14.71101,8.49331l2.50068,-20.75509c0.17363,-1.43285 -0.84857,-2.73434 -2.28142,-2.90674c-1.43683,-0.18007 -2.73433,0.84703 -2.90674,2.28142l-2.96983,24.64636l-10.24862,5.91699l2.24375,-20.63505c0.11239,-1.02832 -0.39412,-2.02755 -1.29137,-2.5457c-0.89818,-0.51538 -1.86066,-0.45812 -2.69881,0.15434l-16.59679,12.26179l0,-9.22122l19.7087,-14.89537c1.1548,-0.8651 1.3122,-2.50343 0.44588,-3.65823c-0.86266,-1.15235 -2.38585,-1.38968 -3.54432,-0.52182l-16.61056,12.5426l0,-19.59846l9.25613,-7.05586c1.15479,-0.8651 1.31219,-2.50344 0.44587,-3.65823c-0.86265,-1.15235 -2.38431,-1.38968 -3.54432,-0.52182l-6.15768,4.70309l0,-7.8395c0,-1.44296 -1.17011,-2.61307 -2.61307,-2.61307s-2.61307,1.17011 -2.61307,2.61307l0,7.8395l-6.42288,-4.70309c-1.15479,-0.86755 -2.86785,-0.63022 -3.73417,0.52182c-0.86633,1.15479 -0.51907,2.79313 0.63573,3.65823l9.52132,7.05586l0,19.59907l-16.87545,-12.5426c-1.15725,-0.86755 -2.86907,-0.63022 -3.73418,0.52182c-0.86632,1.1548 -0.51906,2.79313 0.63574,3.65823l19.97389,14.89537l0,9.22122l-16.89995,-12.26178c-0.8357,-0.61124 -2.02816,-0.66973 -2.92634,-0.15434c-0.89695,0.51814 -1.44112,1.51706 -1.32935,2.54569l2.22508,20.63505l-7.99569,-4.61061l-2.97288,-24.64606c-0.17272,-1.43407 -1.47359,-2.44862 -2.9092,-2.28142c-1.43285,0.17211 -2.45627,1.47359 -2.28233,2.90675l2.49853,20.75478l-16.97375,-9.79969l-1.40682,-11.67351c-0.17088,-1.43285 -1.47879,-2.44097 -2.90675,-2.28142c-1.43285,0.1721 -2.45505,1.47358 -2.28142,2.90674l0.93738,7.78194l-6.78914,-3.91976c-1.25432,-0.72331 -2.84794,-0.29337 -3.57003,0.95697c-0.72087,1.25034 -0.29337,2.84795 0.95697,3.57004l6.78882,3.91945l-7.20775,3.07915c-1.32812,0.56653 -1.94456,2.10166 -1.37681,3.42856c0.42352,0.9928 1.38814,1.58872 2.40391,1.58872c0.34206,0 0.69024,-0.0689 1.02465,-0.21191l10.81331,-4.61826l16.97375,9.79968l-19.22424,8.2125c-1.3269,0.56653 -1.94334,2.10135 -1.37559,3.42978c0.42352,0.99158 1.38815,1.5872 2.40391,1.5872c0.34206,0 0.69025,-0.06891 1.02588,-0.21192l22.82766,-9.7513l7.98588,4.61061l-18.99181,8.37388c-0.94809,0.41739 -1.55933,1.35507 -1.55933,2.39105c0,1.03597 0.61123,1.97396 1.55933,2.39105l18.99181,8.37387l-7.98588,4.61061l-22.82766,-9.7513c-1.33333,-0.56775 -2.86449,0.04838 -3.42979,1.37559c-0.56775,1.32843 0.04869,2.86325 1.37559,3.42978l19.22424,8.2125l-16.97375,9.79999l-10.81331,-4.61857c-1.32812,-0.56653 -2.86203,0.05114 -3.42856,1.37681c-0.56775,1.3269 0.04869,2.86203 1.37681,3.42856l7.20837,3.07915l-6.78883,3.91945c-1.25034,0.72209 -1.67784,2.31969 -0.95697,3.57003c0.48476,0.83846 1.36272,1.30669 2.2661,1.30669c0.44281,0 0.89328,-0.11208 1.30393,-0.34971l6.78914,-3.91976l-0.93737,7.78194c-0.17364,1.43285 0.84856,2.73433 2.28142,2.90674c0.10595,0.01286 0.21191,0.01929 0.31633,0.01929c1.30271,0 2.43086,-0.97351 2.5901,-2.30071l1.40682,-11.67351l16.97315,-9.79969l-2.49915,20.75478c-0.17364,1.43286 0.84856,2.73434 2.28142,2.90675c0.10595,0.01286 0.21191,0.01929 0.31633,0.01929c1.30271,0 2.43086,-0.97351 2.5901,-2.30041l2.9686,-24.64605l7.98619,-4.61061l-2.24375,20.63505c-0.11239,1.02832 0.39412,2.02755 1.29137,2.54569c0.8945,0.51416 2.16506,0.4569 3.00198,-0.15434l16.89996,-12.26178l0,11.83459l-20.01187,14.89536c-1.1548,0.8651 -1.46409,2.50343 -0.59776,3.65823c0.8651,1.1548 2.6149,1.39212 3.77215,0.52182l16.83748,-12.5426l0,16.98601l-9.5593,7.05585c-1.1548,0.86511 -1.46409,2.50344 -0.59776,3.65824c0.86633,1.15235 2.61735,1.39212 3.77215,0.52181l6.38491,-4.70309l0,7.83951c0,1.44326 1.17011,2.61306 2.61306,2.61306s2.61307,-1.1701 2.61307,-2.61306l0,-7.83951l6.11971,4.70309c0.47068,0.35339 0.94473,0.52305 1.48951,0.52305c0.79498,0 1.54218,-0.36105 2.05481,-1.04486c0.86663,-1.1548 0.76558,-2.79313 -0.38922,-3.65824l-9.27512,-7.05585l0,-16.98601l16.5726,12.5426c0.47098,0.35339 0.94472,0.52304 1.4895,0.52304c0.79498,0 1.54218,-0.36105 2.05481,-1.04486c0.86663,-1.1548 0.76558,-2.79313 -0.38922,-3.65823l-19.72769,-14.89536l0,-11.83459l16.59679,12.26178c0.45812,0.33441 0.92451,0.50406 1.46807,0.50406c0.45077,0 0.86296,-0.11606 1.26871,-0.34972c0.89726,-0.51814 1.38478,-1.51706 1.27239,-2.54569l-2.25324,-20.63505l10.24402,5.91699l2.96738,24.64636c0.15955,1.3269 1.28647,2.30041 2.58918,2.30041c0.10473,0 0.20977,-0.00643 0.31572,-0.0193c1.43286,-0.1721 2.45475,-1.47358 2.28112,-2.90674l-2.50099,-20.75509l14.71102,8.49331l1.40682,11.67351c0.15955,1.3269 1.28739,2.30071 2.5901,2.30071c0.10473,0 0.21069,-0.00643 0.31633,-0.01929c1.43286,-0.17241 2.45506,-1.47358 2.28142,-2.90674l-0.93767,-7.78194l6.78913,3.91976c0.41219,0.23733 0.86143,0.34941 1.30393,0.34941c0.90338,0 1.78134,-0.46823 2.26611,-1.30669c0.72086,-1.25034 0.29337,-2.84795 -0.95697,-3.57004l-6.78883,-3.91944l7.20867,-3.07915c1.32904,-0.56623 1.94517,-2.10136 1.37742,-3.42826l0,-0.00001zm-104.06606,-25.20032l17.07021,-7.52655l13.03624,7.52655l-13.03654,7.52654l-17.06992,-7.52654l0.00001,0zm33.02361,19.57916l-15.20527,11.02124l2.09247,-18.54655l13.1128,-7.52684l0,15.05215zm0,-24.10556l-13.1128,-7.52715l-2.09247,-18.54655l15.20527,11.02124l0,15.05246zm5.22644,-15.05246l14.9021,-11.02124l-1.9412,18.54655l-12.96121,7.52715l0,-15.05246l0.00031,0zm0,39.15802l0,-15.05215l12.96121,7.52684l1.9412,18.54655l-14.90241,-11.02124zm15.34767,-12.05263l-13.03686,-7.52653l13.03686,-7.52655l17.06991,7.52655l-17.06991,7.52653z"/>
        </g>
       </g>
      </g>
     </g>
    </g>
    <g stroke="null" id="svg_23">
     <rect stroke="null" fill="none" id="svg_2" height="202" width="202" y="1149.09557" x="-931.19499" transform="matrix(0.20099826868370657,0,0,0.20099826868370657,321.0360348741098,-51.22848146176776) "/>
    </g>
    <g stroke="null" id="svg_130">
     <rect stroke="null" fill="none" id="svg_123" height="202" width="202" y="942.3305" x="-149.08364" transform="matrix(0.20099826868370657,0,0,0.20099826868370657,321.0360348741098,-51.22848146176776) "/>
     <g stroke="null" id="svg_129" transform="matrix(0.20099826868370657,0,0,0.20099826868370657,321.0360348741098,-51.22848146176776) ">
      <title>Layer 1</title>
      <g stroke="null" id="svg_128">
       <g stroke="null" id="svg_127">
        <g stroke="null" id="svg_126">
         <path stroke="null" fill="#ffffff" id="svg_125" d="m20.64871,1064.92437c-0.5653,-1.32567 -2.0989,-1.94334 -3.42856,-1.37681l-10.81392,4.61857l-14.71071,-8.49392l19.22394,-8.21219c1.32843,-0.56652 1.94456,-2.10135 1.37681,-3.42856c-0.56653,-1.3269 -2.10043,-1.94456 -3.42856,-1.37681l-22.82919,9.75161l-10.24923,-5.9176l18.99181,-8.37388c0.94809,-0.41739 1.55933,-1.35507 1.55933,-2.39105c0,-1.03598 -0.61124,-1.97396 -1.55933,-2.39105l-18.99181,-8.37388l10.24923,-5.9176l22.82919,9.75161c0.33441,0.14301 0.68259,0.21191 1.02465,0.21191c1.01424,0 1.98039,-0.59592 2.40391,-1.58872c0.56775,-1.3269 -0.04869,-2.86203 -1.37681,-3.42856l-19.22394,-8.21219l14.71071,-8.49331l10.81392,4.61827c0.33441,0.14301 0.68259,0.21191 1.02465,0.21191c1.01577,0 1.9804,-0.59592 2.40391,-1.58872c0.56776,-1.3269 -0.04838,-2.86204 -1.37681,-3.42856l-7.20867,-3.07915l6.78883,-3.91945c1.25034,-0.72209 1.67784,-2.3197 0.95697,-3.57004c-0.72362,-1.25034 -2.32368,-1.68029 -3.57034,-0.95697l-6.78914,3.91975l0.93768,-7.78193c0.17363,-1.43285 -0.84857,-2.73433 -2.28142,-2.90674c-1.4304,-0.17486 -2.73433,0.84703 -2.90674,2.28142l-1.40683,11.67351l-14.71101,8.49331l2.50068,-20.75509c0.17363,-1.43285 -0.84857,-2.73434 -2.28142,-2.90674c-1.43683,-0.18007 -2.73433,0.84703 -2.90674,2.28142l-2.96983,24.64636l-10.24862,5.91699l2.24375,-20.63505c0.11239,-1.02832 -0.39412,-2.02755 -1.29137,-2.5457c-0.89818,-0.51538 -1.86066,-0.45812 -2.69881,0.15434l-16.59679,12.26179l0,-9.22122l19.7087,-14.89537c1.1548,-0.8651 1.3122,-2.50343 0.44588,-3.65823c-0.86266,-1.15235 -2.38585,-1.38968 -3.54432,-0.52182l-16.61056,12.5426l0,-19.59846l9.25613,-7.05586c1.15479,-0.8651 1.31219,-2.50344 0.44587,-3.65823c-0.86265,-1.15235 -2.38431,-1.38968 -3.54432,-0.52182l-6.15768,4.70309l0,-7.8395c0,-1.44296 -1.17011,-2.61307 -2.61307,-2.61307s-2.61307,1.17011 -2.61307,2.61307l0,7.8395l-6.42288,-4.70309c-1.15479,-0.86755 -2.86785,-0.63022 -3.73417,0.52182c-0.86633,1.15479 -0.51907,2.79313 0.63573,3.65823l9.52132,7.05586l0,19.59907l-16.87545,-12.5426c-1.15725,-0.86755 -2.86907,-0.63022 -3.73418,0.52182c-0.86632,1.1548 -0.51906,2.79313 0.63574,3.65823l19.97389,14.89537l0,9.22122l-16.89995,-12.26178c-0.8357,-0.61124 -2.02816,-0.66973 -2.92634,-0.15434c-0.89695,0.51814 -1.44112,1.51706 -1.32935,2.54569l2.22508,20.63505l-7.99569,-4.61061l-2.97288,-24.64606c-0.17272,-1.43407 -1.47359,-2.44862 -2.9092,-2.28142c-1.43285,0.17211 -2.45627,1.47359 -2.28233,2.90675l2.49853,20.75478l-16.97375,-9.79969l-1.40682,-11.67351c-0.17088,-1.43285 -1.47879,-2.44097 -2.90675,-2.28142c-1.43285,0.1721 -2.45505,1.47358 -2.28142,2.90674l0.93738,7.78194l-6.78914,-3.91976c-1.25432,-0.72331 -2.84794,-0.29337 -3.57003,0.95697c-0.72087,1.25034 -0.29337,2.84795 0.95697,3.57004l6.78882,3.91945l-7.20775,3.07915c-1.32812,0.56653 -1.94456,2.10166 -1.37681,3.42856c0.42352,0.9928 1.38814,1.58872 2.40391,1.58872c0.34206,0 0.69024,-0.0689 1.02465,-0.21191l10.81331,-4.61826l16.97375,9.79968l-19.22424,8.2125c-1.3269,0.56653 -1.94334,2.10135 -1.37559,3.42978c0.42352,0.99158 1.38815,1.5872 2.40391,1.5872c0.34206,0 0.69025,-0.06891 1.02588,-0.21192l22.82766,-9.7513l7.98588,4.61061l-18.99181,8.37388c-0.94809,0.41739 -1.55933,1.35507 -1.55933,2.39105c0,1.03597 0.61123,1.97396 1.55933,2.39105l18.99181,8.37387l-7.98588,4.61061l-22.82766,-9.7513c-1.33333,-0.56775 -2.86449,0.04838 -3.42979,1.37559c-0.56775,1.32843 0.04869,2.86325 1.37559,3.42978l19.22424,8.2125l-16.97375,9.79999l-10.81331,-4.61857c-1.32812,-0.56653 -2.86203,0.05114 -3.42856,1.37681c-0.56775,1.3269 0.04869,2.86203 1.37681,3.42856l7.20837,3.07915l-6.78883,3.91945c-1.25034,0.72209 -1.67784,2.31969 -0.95697,3.57003c0.48476,0.83846 1.36272,1.30669 2.2661,1.30669c0.44281,0 0.89328,-0.11208 1.30393,-0.34971l6.78914,-3.91976l-0.93737,7.78194c-0.17364,1.43285 0.84856,2.73433 2.28142,2.90674c0.10595,0.01286 0.21191,0.01929 0.31633,0.01929c1.30271,0 2.43086,-0.97351 2.5901,-2.30071l1.40682,-11.67351l16.97315,-9.79969l-2.49915,20.75478c-0.17364,1.43286 0.84856,2.73434 2.28142,2.90675c0.10595,0.01286 0.21191,0.01929 0.31633,0.01929c1.30271,0 2.43086,-0.97351 2.5901,-2.30041l2.9686,-24.64605l7.98619,-4.61061l-2.24375,20.63505c-0.11239,1.02832 0.39412,2.02755 1.29137,2.54569c0.8945,0.51416 2.16506,0.4569 3.00198,-0.15434l16.89996,-12.26178l0,11.83459l-20.01187,14.89537c-1.1548,0.8651 -1.46409,2.50343 -0.59776,3.65823c0.8651,1.15479 2.6149,1.39212 3.77215,0.52182l16.83748,-12.5426l0,16.986l-9.5593,7.05586c-1.1548,0.86511 -1.46409,2.50344 -0.59776,3.65824c0.86633,1.15234 2.61735,1.39212 3.77215,0.52181l6.38491,-4.70309l0,7.83951c0,1.44326 1.17011,2.61305 2.61306,2.61305s2.61307,-1.1701 2.61307,-2.61305l0,-7.83951l6.11971,4.70309c0.47068,0.35339 0.94473,0.52305 1.48951,0.52305c0.79498,0 1.54218,-0.36105 2.05481,-1.04486c0.86663,-1.1548 0.76558,-2.79313 -0.38922,-3.65824l-9.27512,-7.05586l0,-16.986l16.5726,12.5426c0.47098,0.35339 0.94472,0.52304 1.4895,0.52304c0.79498,0 1.54218,-0.36105 2.05481,-1.04486c0.86663,-1.1548 0.76558,-2.79313 -0.38922,-3.65823l-19.72769,-14.89537l0,-11.83459l16.59679,12.26178c0.45812,0.33441 0.92451,0.50406 1.46807,0.50406c0.45077,0 0.86296,-0.11606 1.26871,-0.34972c0.89726,-0.51814 1.38478,-1.51706 1.27239,-2.54569l-2.25324,-20.63505l10.24402,5.91699l2.96738,24.64636c0.15955,1.3269 1.28647,2.30041 2.58918,2.30041c0.10473,0 0.20977,-0.00643 0.31572,-0.0193c1.43286,-0.1721 2.45475,-1.47358 2.28112,-2.90674l-2.50099,-20.75509l14.71102,8.49331l1.40682,11.67351c0.15955,1.3269 1.28739,2.30071 2.5901,2.30071c0.10473,0 0.21069,-0.00643 0.31633,-0.01929c1.43286,-0.17241 2.45506,-1.47358 2.28142,-2.90674l-0.93767,-7.78194l6.78913,3.91976c0.41219,0.23733 0.86143,0.34941 1.30393,0.34941c0.90338,0 1.78134,-0.46823 2.26611,-1.30669c0.72086,-1.25034 0.29337,-2.84795 -0.95697,-3.57004l-6.78883,-3.91944l7.20867,-3.07915c1.32904,-0.56623 1.94517,-2.10136 1.37742,-3.42826zm-104.06606,-25.20033l17.07021,-7.52654l13.03624,7.52654l-13.03654,7.52654l-17.06992,-7.52654l0.00001,0zm33.02361,19.57916l-15.20527,11.02124l2.09247,-18.54655l13.1128,-7.52684l0,15.05215zm0,-24.10556l-13.1128,-7.52715l-2.09247,-18.54655l15.20527,11.02124l0,15.05246zm5.22644,-15.05246l14.9021,-11.02124l-1.9412,18.54655l-12.96121,7.52714l0,-15.05246l0.00031,0l0,0.00001zm0,39.15802l0,-15.05215l12.96121,7.52684l1.9412,18.54655l-14.90241,-11.02124zm15.34767,-12.05263l-13.03686,-7.52653l13.03686,-7.52654l17.06991,7.52654l-17.06991,7.52653z"/>
        </g>
       </g>
      </g>
     </g>
    </g>
    <g stroke="null" id="svg_138">
     <rect stroke="null" fill="none" id="svg_131" height="202" width="202" y="1153.59047" x="62.17632" transform="matrix(0.20099826868370657,0,0,0.20099826868370657,321.0360348741098,-51.22848146176776) "/>
     <g stroke="null" id="svg_137" transform="matrix(0.20099826868370657,0,0,0.20099826868370657,321.0360348741098,-51.22848146176776) ">
      <title>Layer 1</title>
      <g stroke="null" id="svg_136">
       <g stroke="null" id="svg_135">
        <g stroke="null" id="svg_134">
         <path stroke="null" fill="#ffffff" id="svg_133" d="m231.90868,1276.18432c-0.5653,-1.32567 -2.0989,-1.94334 -3.42856,-1.37681l-10.81392,4.61858l-14.71071,-8.49392l19.22394,-8.21219c1.32843,-0.56652 1.94456,-2.10135 1.37681,-3.42856c-0.56653,-1.3269 -2.10043,-1.94456 -3.42856,-1.37681l-22.82919,9.75161l-10.24923,-5.9176l18.99181,-8.37388c0.94809,-0.41739 1.55933,-1.35507 1.55933,-2.39105c0,-1.03598 -0.61124,-1.97396 -1.55933,-2.39105l-18.99181,-8.37388l10.24923,-5.9176l22.82919,9.75161c0.33441,0.14301 0.68259,0.21191 1.02465,0.21191c1.01424,0 1.98039,-0.59592 2.40391,-1.58872c0.56775,-1.3269 -0.04869,-2.86203 -1.37681,-3.42856l-19.22394,-8.21219l14.71071,-8.49331l10.81392,4.61827c0.33441,0.14301 0.68259,0.2119 1.02465,0.2119c1.01577,0 1.9804,-0.59591 2.40391,-1.58871c0.56776,-1.3269 -0.04838,-2.86204 -1.37681,-3.42857l-7.20867,-3.07915l6.78883,-3.91945c1.25034,-0.72209 1.67784,-2.3197 0.95697,-3.57004c-0.72362,-1.25034 -2.32368,-1.68029 -3.57034,-0.95697l-6.78914,3.91975l0.93768,-7.78193c0.17363,-1.43285 -0.84857,-2.73433 -2.28142,-2.90674c-1.4304,-0.17486 -2.73433,0.84703 -2.90674,2.28142l-1.40683,11.67351l-14.71101,8.49332l2.50068,-20.7551c0.17363,-1.43285 -0.84857,-2.73434 -2.28142,-2.90673c-1.43683,-0.18007 -2.73433,0.84702 -2.90674,2.28142l-2.96983,24.64635l-10.24862,5.91699l2.24375,-20.63505c0.11239,-1.02832 -0.39412,-2.02755 -1.29137,-2.5457c-0.89818,-0.51538 -1.86066,-0.45812 -2.69881,0.15434l-16.59679,12.2618l0,-9.22122l19.7087,-14.89537c1.1548,-0.8651 1.3122,-2.50343 0.44588,-3.65823c-0.86266,-1.15235 -2.38585,-1.38968 -3.54432,-0.52182l-16.61056,12.5426l0,-19.59846l9.25613,-7.05586c1.15479,-0.8651 1.31219,-2.50344 0.44587,-3.65823c-0.86265,-1.15235 -2.38431,-1.38968 -3.54432,-0.52182l-6.15768,4.70309l0,-7.8395c0,-1.44296 -1.17011,-2.61307 -2.61307,-2.61307s-2.61307,1.17011 -2.61307,2.61307l0,7.8395l-6.42288,-4.70309c-1.15479,-0.86755 -2.86785,-0.63022 -3.73417,0.52182c-0.86633,1.15479 -0.51907,2.79313 0.63573,3.65823l9.52132,7.05586l0,19.59907l-16.87545,-12.5426c-1.15725,-0.86755 -2.86907,-0.63022 -3.73418,0.52182c-0.86632,1.1548 -0.51906,2.79313 0.63574,3.65823l19.97389,14.89537l0,9.22122l-16.89995,-12.26178c-0.8357,-0.61124 -2.02816,-0.66974 -2.92634,-0.15435c-0.89695,0.51814 -1.44112,1.51706 -1.32935,2.54569l2.22508,20.63505l-7.99569,-4.6106l-2.97288,-24.64607c-0.17272,-1.43407 -1.47359,-2.44861 -2.9092,-2.28142c-1.43285,0.17211 -2.45627,1.4736 -2.28233,2.90676l2.49853,20.75478l-16.97375,-9.79969l-1.40682,-11.67352c-0.17088,-1.43284 -1.47879,-2.44097 -2.90675,-2.28142c-1.43285,0.1721 -2.45505,1.47358 -2.28142,2.90674l0.93738,7.78194l-6.78914,-3.91976c-1.25432,-0.72331 -2.84794,-0.29337 -3.57003,0.95697c-0.72087,1.25034 -0.29337,2.84795 0.95697,3.57004l6.78882,3.91945l-7.20775,3.07916c-1.32812,0.56653 -1.94456,2.10166 -1.37681,3.42856c0.42352,0.9928 1.38814,1.58872 2.40391,1.58872c0.34206,0 0.69024,-0.0689 1.02465,-0.21191l10.81331,-4.61826l16.97375,9.79968l-19.22424,8.2125c-1.3269,0.56653 -1.94334,2.10135 -1.37559,3.42978c0.42352,0.99158 1.38815,1.5872 2.40391,1.5872c0.34206,0 0.69025,-0.06891 1.02588,-0.21192l22.82766,-9.7513l7.98588,4.61061l-18.99181,8.37388c-0.94809,0.41739 -1.55933,1.35507 -1.55933,2.39105c0,1.03597 0.61123,1.97396 1.55933,2.39105l18.99181,8.37387l-7.98588,4.61061l-22.82766,-9.7513c-1.33333,-0.56775 -2.86449,0.04838 -3.42979,1.37559c-0.56775,1.32843 0.04869,2.86325 1.37559,3.42978l19.22424,8.2125l-16.97375,9.79999l-10.81331,-4.61857c-1.32812,-0.56653 -2.86203,0.05114 -3.42856,1.37681c-0.56775,1.3269 0.04869,2.86203 1.37681,3.42856l7.20837,3.07915l-6.78883,3.91945c-1.25034,0.72209 -1.67784,2.31969 -0.95697,3.57003c0.48476,0.83846 1.36272,1.30669 2.2661,1.30669c0.44281,0 0.89328,-0.11208 1.30393,-0.34971l6.78914,-3.91976l-0.93737,7.78194c-0.17364,1.43285 0.84856,2.73433 2.28142,2.90674c0.10595,0.01286 0.21191,0.01929 0.31633,0.01929c1.30271,0 2.43086,-0.97351 2.5901,-2.30071l1.40682,-11.67351l16.97315,-9.79969l-2.49915,20.75478c-0.17364,1.43286 0.84856,2.73434 2.28142,2.90675c0.10595,0.01286 0.21191,0.01929 0.31633,0.01929c1.30271,0 2.43086,-0.97351 2.5901,-2.30041l2.9686,-24.64605l7.98619,-4.61061l-2.24375,20.63505c-0.11239,1.02832 0.39412,2.02755 1.29137,2.54569c0.8945,0.51416 2.16506,0.4569 3.00198,-0.15434l16.89996,-12.26178l0,11.83459l-20.01187,14.89536c-1.1548,0.8651 -1.46409,2.50343 -0.59776,3.65823c0.8651,1.1548 2.6149,1.39212 3.77215,0.52182l16.83748,-12.5426l0,16.98601l-9.5593,7.05585c-1.1548,0.86511 -1.46409,2.50344 -0.59776,3.65824c0.86633,1.15235 2.61735,1.39212 3.77215,0.52181l6.38491,-4.70309l0,7.83951c0,1.44326 1.17011,2.61306 2.61306,2.61306s2.61307,-1.1701 2.61307,-2.61306l0,-7.83951l6.11971,4.70309c0.47068,0.35339 0.94473,0.52305 1.48951,0.52305c0.79498,0 1.54218,-0.36105 2.05481,-1.04486c0.86663,-1.1548 0.76558,-2.79313 -0.38922,-3.65824l-9.27512,-7.05585l0,-16.98601l16.5726,12.5426c0.47098,0.35339 0.94472,0.52304 1.4895,0.52304c0.79498,0 1.54218,-0.36105 2.05481,-1.04486c0.86663,-1.1548 0.76558,-2.79313 -0.38922,-3.65823l-19.72769,-14.89536l0,-11.83459l16.59679,12.26178c0.45812,0.33441 0.92451,0.50406 1.46807,0.50406c0.45077,0 0.86296,-0.11606 1.26871,-0.34972c0.89726,-0.51814 1.38478,-1.51706 1.27239,-2.54569l-2.25324,-20.63505l10.24402,5.91699l2.96738,24.64636c0.15955,1.3269 1.28647,2.30041 2.58918,2.30041c0.10473,0 0.20977,-0.00643 0.31572,-0.0193c1.43286,-0.1721 2.45475,-1.47358 2.28112,-2.90674l-2.50099,-20.75509l14.71102,8.49331l1.40682,11.67351c0.15955,1.3269 1.28739,2.30071 2.5901,2.30071c0.10473,0 0.21069,-0.00643 0.31633,-0.01929c1.43286,-0.17241 2.45506,-1.47358 2.28142,-2.90674l-0.93767,-7.78194l6.78913,3.91976c0.41219,0.23733 0.86143,0.34941 1.30393,0.34941c0.90338,0 1.78134,-0.46823 2.26611,-1.30669c0.72086,-1.25034 0.29337,-2.84795 -0.95697,-3.57004l-6.78883,-3.91944l7.20867,-3.07915c1.32904,-0.56623 1.94517,-2.10136 1.37742,-3.42826l0,-0.00001zm-104.06606,-25.20032l17.07021,-7.52655l13.03624,7.52655l-13.03654,7.52654l-17.06992,-7.52654l0.00001,0zm33.02361,19.57916l-15.20527,11.02124l2.09247,-18.54655l13.1128,-7.52684l0,15.05215zm0,-24.10556l-13.1128,-7.52715l-2.09247,-18.54655l15.20527,11.02124l0,15.05246zm5.22644,-15.05247l14.9021,-11.02124l-1.9412,18.54655l-12.96121,7.52715l0,-15.05246l0.00031,0zm0,39.15803l0,-15.05215l12.96121,7.52684l1.9412,18.54655l-14.90241,-11.02124zm15.34767,-12.05263l-13.03686,-7.52653l13.03686,-7.52655l17.06991,7.52655l-17.06991,7.52653z"/>
        </g>
       </g>
      </g>
     </g>
    </g>
    <g stroke="null" id="svg_22">
     <rect stroke="null" fill="none" id="svg_14" height="91.24978" width="91.24978" y="167.61872" x="12.13078"/>
    </g>
    <g stroke="null" id="svg_21" transform="matrix(0.20099826868370657,0,0,0.20099826868370657,321.0360348741098,-51.22848146176776) ">
     <title>Layer 1</title>
     <g stroke="null" id="svg_34">
      <g stroke="null" id="svg_33">
       <g stroke="null" id="svg_32">
        <path stroke="null" fill="#ffffff" id="svg_31" d="m-840.12305,1552.66384c-0.5653,-1.32567 -2.0989,-1.94334 -3.42856,-1.37681l-10.81392,4.61857l-14.71071,-8.49392l19.22394,-8.21219c1.32843,-0.56652 1.94456,-2.10135 1.37681,-3.42856c-0.56653,-1.3269 -2.10043,-1.94456 -3.42856,-1.37681l-22.82919,9.75161l-10.24923,-5.9176l18.99181,-8.37388c0.94809,-0.41739 1.55933,-1.35507 1.55933,-2.39105c0,-1.03598 -0.61124,-1.97396 -1.55933,-2.39105l-18.99181,-8.37388l10.24923,-5.9176l22.82919,9.75161c0.33441,0.14301 0.68259,0.21191 1.02465,0.21191c1.01424,0 1.98039,-0.59592 2.40391,-1.58872c0.56775,-1.3269 -0.04869,-2.86203 -1.37681,-3.42856l-19.22394,-8.21219l14.71071,-8.49331l10.81392,4.61827c0.33441,0.14301 0.68259,0.21191 1.02465,0.21191c1.01577,0 1.9804,-0.59592 2.40391,-1.58872c0.56776,-1.3269 -0.04838,-2.86204 -1.37681,-3.42856l-7.20867,-3.07915l6.78883,-3.91946c1.25034,-0.72209 1.67784,-2.3197 0.95697,-3.57004c-0.72362,-1.25034 -2.32368,-1.68029 -3.57034,-0.95697l-6.78914,3.91975l0.93768,-7.78193c0.17363,-1.43285 -0.84857,-2.73433 -2.28142,-2.90674c-1.4304,-0.17486 -2.73433,0.84703 -2.90674,2.28142l-1.40683,11.67352l-14.71101,8.49331l2.50068,-20.75509c0.17363,-1.43285 -0.84857,-2.73434 -2.28142,-2.90674c-1.43683,-0.18007 -2.73433,0.84703 -2.90674,2.28142l-2.96983,24.64636l-10.24862,5.91699l2.24375,-20.63506c0.11239,-1.02831 -0.39412,-2.02755 -1.29137,-2.54569c-0.89818,-0.51538 -1.86066,-0.45812 -2.69881,0.15434l-16.59679,12.26179l0,-9.22122l19.7087,-14.89537c1.1548,-0.8651 1.3122,-2.50343 0.44588,-3.65823c-0.86266,-1.15235 -2.38585,-1.38968 -3.54432,-0.52182l-16.61056,12.5426l0,-19.59846l9.25613,-7.05586c1.15479,-0.8651 1.31219,-2.50344 0.44587,-3.65823c-0.86265,-1.15235 -2.38431,-1.38968 -3.54432,-0.52182l-6.15768,4.70309l0,-7.8395c0,-1.44296 -1.17011,-2.61307 -2.61307,-2.61307s-2.61307,1.17011 -2.61307,2.61307l0,7.8395l-6.42288,-4.70309c-1.15479,-0.86755 -2.86785,-0.63022 -3.73417,0.52182c-0.86633,1.15479 -0.51907,2.79313 0.63573,3.65823l9.52132,7.05586l0,19.59907l-16.87545,-12.5426c-1.15725,-0.86755 -2.86907,-0.63022 -3.73418,0.52182c-0.86632,1.1548 -0.51906,2.79313 0.63574,3.65823l19.97389,14.89537l0,9.22122l-16.89995,-12.26178c-0.8357,-0.61124 -2.02816,-0.66973 -2.92634,-0.15434c-0.89695,0.51813 -1.44112,1.51705 -1.32935,2.54569l2.22508,20.63505l-7.99569,-4.61061l-2.97288,-24.64606c-0.17272,-1.43407 -1.47359,-2.44862 -2.9092,-2.28142c-1.43285,0.17211 -2.45627,1.47359 -2.28233,2.90675l2.49853,20.75478l-16.97375,-9.79969l-1.40682,-11.67351c-0.17088,-1.43285 -1.47879,-2.44098 -2.90675,-2.28142c-1.43285,0.1721 -2.45505,1.47358 -2.28142,2.90673l0.93738,7.78194l-6.78914,-3.91976c-1.25432,-0.72331 -2.84794,-0.29337 -3.57003,0.95697c-0.72087,1.25035 -0.29337,2.84796 0.95697,3.57005l6.78882,3.91945l-7.20775,3.07915c-1.32812,0.56653 -1.94456,2.10166 -1.37681,3.42856c0.42352,0.9928 1.38814,1.58872 2.40391,1.58872c0.34206,0 0.69024,-0.0689 1.02465,-0.21191l10.81331,-4.61826l16.97375,9.79968l-19.22424,8.2125c-1.3269,0.56653 -1.94334,2.10135 -1.37559,3.42978c0.42352,0.99158 1.38815,1.5872 2.40391,1.5872c0.34206,0 0.69025,-0.06891 1.02588,-0.21192l22.82766,-9.7513l7.98588,4.61061l-18.99181,8.37388c-0.94809,0.41739 -1.55933,1.35507 -1.55933,2.39105c0,1.03597 0.61123,1.97396 1.55933,2.39105l18.99181,8.37387l-7.98588,4.61061l-22.82766,-9.7513c-1.33333,-0.56775 -2.86449,0.04838 -3.42979,1.37559c-0.56775,1.32843 0.04869,2.86325 1.37559,3.42978l19.22424,8.2125l-16.97375,9.79999l-10.81331,-4.61857c-1.32812,-0.56653 -2.86203,0.05114 -3.42856,1.37681c-0.56775,1.3269 0.04869,2.86203 1.37681,3.42856l7.20837,3.07915l-6.78883,3.91945c-1.25034,0.72209 -1.67784,2.31969 -0.95697,3.57003c0.48476,0.83846 1.36272,1.30669 2.2661,1.30669c0.44281,0 0.89328,-0.11208 1.30393,-0.34971l6.78914,-3.91976l-0.93737,7.78194c-0.17364,1.43285 0.84856,2.73433 2.28142,2.90674c0.10595,0.01286 0.21191,0.01929 0.31633,0.01929c1.30271,0 2.43086,-0.97351 2.5901,-2.30071l1.40682,-11.67351l16.97315,-9.79969l-2.49915,20.75478c-0.17364,1.43286 0.84856,2.73434 2.28142,2.90675c0.10595,0.01286 0.21191,0.01929 0.31633,0.01929c1.30271,0 2.43086,-0.97351 2.5901,-2.30041l2.9686,-24.64605l7.98619,-4.61061l-2.24375,20.63505c-0.11239,1.02832 0.39412,2.02755 1.29137,2.54569c0.8945,0.51416 2.16506,0.4569 3.00198,-0.15434l16.89996,-12.26178l0,11.83459l-20.01187,14.89537c-1.1548,0.8651 -1.46409,2.50343 -0.59776,3.65823c0.8651,1.15479 2.6149,1.39212 3.77215,0.52182l16.83748,-12.5426l0,16.986l-9.5593,7.05586c-1.1548,0.86511 -1.46409,2.50344 -0.59776,3.65824c0.86633,1.15234 2.61735,1.39212 3.77215,0.52181l6.38491,-4.70309l0,7.83951c0,1.44326 1.17011,2.61305 2.61306,2.61305s2.61307,-1.1701 2.61307,-2.61305l0,-7.83951l6.11971,4.70309c0.47068,0.35339 0.94473,0.52305 1.48951,0.52305c0.79498,0 1.54218,-0.36105 2.05481,-1.04486c0.86663,-1.1548 0.76558,-2.79313 -0.38922,-3.65824l-9.27512,-7.05586l0,-16.986l16.5726,12.5426c0.47098,0.35339 0.94472,0.52304 1.4895,0.52304c0.79498,0 1.54218,-0.36105 2.05481,-1.04486c0.86663,-1.1548 0.76558,-2.79313 -0.38922,-3.65823l-19.72769,-14.89537l0,-11.83459l16.59679,12.26178c0.45812,0.33441 0.92451,0.50406 1.46807,0.50406c0.45077,0 0.86296,-0.11606 1.26871,-0.34972c0.89726,-0.51814 1.38478,-1.51706 1.27239,-2.54569l-2.25324,-20.63505l10.24402,5.91699l2.96738,24.64636c0.15955,1.3269 1.28647,2.30041 2.58918,2.30041c0.10473,0 0.20977,-0.00643 0.31572,-0.0193c1.43286,-0.1721 2.45475,-1.47358 2.28112,-2.90674l-2.50099,-20.75509l14.71102,8.49331l1.40682,11.67351c0.15955,1.3269 1.28739,2.30071 2.5901,2.30071c0.10473,0 0.21069,-0.00643 0.31633,-0.01929c1.43286,-0.17241 2.45506,-1.47358 2.28142,-2.90674l-0.93767,-7.78194l6.78913,3.91976c0.41219,0.23733 0.86143,0.34941 1.30393,0.34941c0.90338,0 1.78134,-0.46823 2.26611,-1.30669c0.72086,-1.25034 0.29337,-2.84795 -0.95697,-3.57004l-6.78883,-3.91944l7.20867,-3.07915c1.32904,-0.56623 1.94517,-2.10136 1.37742,-3.42826zm-104.06606,-25.20033l17.07021,-7.52654l13.03624,7.52654l-13.03654,7.52654l-17.06992,-7.52654l0.00001,0zm33.02361,19.57916l-15.20527,11.02124l2.09247,-18.54655l13.1128,-7.52684l0,15.05215zm0,-24.10556l-13.1128,-7.52715l-2.09247,-18.54655l15.20527,11.02124l0,15.05246zm5.22644,-15.05246l14.9021,-11.02124l-1.9412,18.54655l-12.96121,7.52714l0,-15.05246l0.00031,0l0,0.00001zm0,39.15802l0,-15.05215l12.96121,7.52684l1.9412,18.54655l-14.90241,-11.02124zm15.34767,-12.05263l-13.03686,-7.52653l13.03686,-7.52654l17.06991,7.52654l-17.06991,7.52653z"/>
       </g>
      </g>
     </g>
    </g>
    <g stroke="null" id="svg_122">
     <rect stroke="null" fill="none" id="svg_115" height="202" width="202" y="856.92754" x="-435.63305" transform="matrix(0.20099826868370657,0,0,0.20099826868370657,321.0360348741098,-51.22848146176776) "/>
     <g stroke="null" id="svg_121" transform="matrix(0.20099826868370657,0,0,0.20099826868370657,321.0360348741098,-51.22848146176776) ">
      <title>Layer 1</title>
      <g stroke="null" id="svg_120">
       <g stroke="null" id="svg_119">
        <g stroke="null" id="svg_118">
         <path stroke="null" fill="#ffffff" id="svg_117" d="m-265.90071,979.52139c-0.5653,-1.32566 -2.0989,-1.94334 -3.42856,-1.3768l-10.81392,4.61856l-14.71071,-8.49392l19.22394,-8.21218c1.32843,-0.56652 1.94456,-2.10136 1.37681,-3.42856c-0.56653,-1.3269 -2.10043,-1.94456 -3.42856,-1.37681l-22.82919,9.75161l-10.24923,-5.9176l18.99181,-8.37388c0.94809,-0.41739 1.55933,-1.35507 1.55933,-2.39105c0,-1.03598 -0.61124,-1.97396 -1.55933,-2.39105l-18.99181,-8.37388l10.24923,-5.9176l22.82919,9.75161c0.33441,0.14301 0.68259,0.21191 1.02465,0.21191c1.01424,0 1.98039,-0.59592 2.40391,-1.58872c0.56775,-1.3269 -0.04869,-2.86203 -1.37681,-3.42856l-19.22394,-8.21219l14.71071,-8.49331l10.81392,4.61827c0.33441,0.14301 0.68259,0.21191 1.02465,0.21191c1.01577,0 1.9804,-0.59592 2.40391,-1.58872c0.56776,-1.3269 -0.04838,-2.86204 -1.37681,-3.42856l-7.20867,-3.07915l6.78883,-3.91945c1.25034,-0.72209 1.67784,-2.3197 0.95697,-3.57004c-0.72362,-1.25034 -2.32368,-1.68029 -3.57034,-0.95697l-6.78914,3.91975l0.93768,-7.78193c0.17363,-1.43285 -0.84857,-2.73433 -2.28142,-2.90674c-1.4304,-0.17486 -2.73433,0.84703 -2.90674,2.28142l-1.40683,11.67351l-14.71101,8.49331l2.50068,-20.75509c0.17363,-1.43285 -0.84857,-2.73434 -2.28142,-2.90674c-1.43683,-0.18007 -2.73433,0.84703 -2.90674,2.28142l-2.96983,24.64636l-10.24862,5.91699l2.24375,-20.63505c0.11239,-1.02832 -0.39412,-2.02755 -1.29137,-2.5457c-0.89818,-0.51538 -1.86066,-0.45812 -2.69881,0.15434l-16.59679,12.26179l0,-9.22122l19.7087,-14.89537c1.1548,-0.8651 1.3122,-2.50343 0.44588,-3.65823c-0.86266,-1.15235 -2.38585,-1.38968 -3.54432,-0.52182l-16.61056,12.5426l0,-19.59846l9.25613,-7.05586c1.15479,-0.8651 1.31219,-2.50344 0.44587,-3.65823c-0.86265,-1.15235 -2.38431,-1.38968 -3.54432,-0.52182l-6.15768,4.70309l0,-7.8395c0,-1.44296 -1.17011,-2.61307 -2.61307,-2.61307s-2.61307,1.17011 -2.61307,2.61307l0,7.8395l-6.42288,-4.70309c-1.15479,-0.86755 -2.86785,-0.63022 -3.73417,0.52182c-0.86633,1.15479 -0.51907,2.79313 0.63573,3.65823l9.52132,7.05586l0,19.59907l-16.87545,-12.5426c-1.15725,-0.86755 -2.86907,-0.63022 -3.73418,0.52182c-0.86632,1.1548 -0.51906,2.79313 0.63574,3.65823l19.97389,14.89537l0,9.22122l-16.89995,-12.26178c-0.8357,-0.61124 -2.02816,-0.66973 -2.92634,-0.15434c-0.89695,0.51814 -1.44112,1.51706 -1.32935,2.54569l2.22508,20.63505l-7.99569,-4.61061l-2.97288,-24.64606c-0.17272,-1.43407 -1.47359,-2.44862 -2.9092,-2.28142c-1.43285,0.17211 -2.45627,1.47359 -2.28233,2.90675l2.49853,20.75478l-16.97375,-9.79969l-1.40682,-11.67351c-0.17088,-1.43285 -1.47879,-2.44097 -2.90675,-2.28142c-1.43285,0.1721 -2.45505,1.47358 -2.28142,2.90674l0.93738,7.78194l-6.78914,-3.91976c-1.25432,-0.72331 -2.84794,-0.29337 -3.57003,0.95697c-0.72087,1.25034 -0.29337,2.84795 0.95697,3.57004l6.78882,3.91945l-7.20775,3.07915c-1.32812,0.56653 -1.94456,2.10166 -1.37681,3.42856c0.42352,0.9928 1.38814,1.58872 2.40391,1.58872c0.34206,0 0.69024,-0.0689 1.02465,-0.21191l10.81331,-4.61826l16.97375,9.79968l-19.22424,8.2125c-1.3269,0.56653 -1.94334,2.10135 -1.37559,3.42978c0.42352,0.99158 1.38815,1.5872 2.40391,1.5872c0.34206,0 0.69025,-0.06891 1.02588,-0.21192l22.82766,-9.7513l7.98588,4.61061l-18.99181,8.37388c-0.94809,0.41739 -1.55933,1.35507 -1.55933,2.39105c0,1.03597 0.61123,1.97396 1.55933,2.39105l18.99181,8.37387l-7.98588,4.61061l-22.82766,-9.7513c-1.33333,-0.56775 -2.86449,0.04838 -3.42979,1.37559c-0.56775,1.32843 0.04869,2.86325 1.37559,3.42978l19.22424,8.2125l-16.97375,9.79999l-10.81331,-4.61857c-1.32812,-0.56653 -2.86203,0.05114 -3.42856,1.37681c-0.56775,1.3269 0.04869,2.86203 1.37681,3.42856l7.20837,3.07915l-6.78883,3.91945c-1.25034,0.72209 -1.67784,2.31969 -0.95697,3.57003c0.48476,0.83846 1.36272,1.30669 2.2661,1.30669c0.44281,0 0.89328,-0.11208 1.30393,-0.34971l6.78914,-3.91976l-0.93737,7.78194c-0.17364,1.43285 0.84856,2.73433 2.28142,2.90674c0.10595,0.01286 0.21191,0.01929 0.31633,0.01929c1.30271,0 2.43086,-0.97351 2.5901,-2.30071l1.40682,-11.67351l16.97315,-9.79969l-2.49915,20.75478c-0.17364,1.43286 0.84856,2.73434 2.28142,2.90675c0.10595,0.01286 0.21191,0.01929 0.31633,0.01929c1.30271,0 2.43086,-0.97351 2.5901,-2.30042l2.9686,-24.64604l7.98619,-4.61061l-2.24375,20.63505c-0.11239,1.02832 0.39412,2.02755 1.29137,2.54569c0.8945,0.51416 2.16506,0.4569 3.00198,-0.15434l16.89996,-12.26178l0,11.83459l-20.01187,14.89537c-1.1548,0.8651 -1.46409,2.50343 -0.59776,3.65823c0.8651,1.15479 2.6149,1.39212 3.77215,0.52182l16.83748,-12.5426l0,16.986l-9.5593,7.05586c-1.1548,0.86511 -1.46409,2.50344 -0.59776,3.65824c0.86633,1.15234 2.61735,1.39212 3.77215,0.52181l6.38491,-4.70309l0,7.83951c0,1.44326 1.17011,2.61306 2.61306,2.61306s2.61307,-1.1701 2.61307,-2.61306l0,-7.83951l6.11971,4.70309c0.47068,0.35339 0.94473,0.52305 1.48951,0.52305c0.79498,0 1.54218,-0.36105 2.05481,-1.04486c0.86663,-1.1548 0.76558,-2.79313 -0.38922,-3.65824l-9.27512,-7.05586l0,-16.986l16.5726,12.5426c0.47098,0.35339 0.94472,0.52304 1.4895,0.52304c0.79498,0 1.54218,-0.36105 2.05481,-1.04486c0.86663,-1.1548 0.76558,-2.79313 -0.38922,-3.65823l-19.72769,-14.89537l0,-11.83459l16.59679,12.26178c0.45812,0.33441 0.92451,0.50406 1.46807,0.50406c0.45077,0 0.86296,-0.11606 1.26871,-0.34972c0.89726,-0.51814 1.38478,-1.51706 1.27239,-2.54569l-2.25324,-20.63505l10.24402,5.91699l2.96738,24.64636c0.15955,1.3269 1.28647,2.30041 2.58918,2.30041c0.10473,0 0.20977,-0.00643 0.31572,-0.0193c1.43286,-0.1721 2.45475,-1.47358 2.28112,-2.90674l-2.50099,-20.75509l14.71102,8.49331l1.40682,11.67351c0.15955,1.3269 1.28739,2.30071 2.5901,2.30071c0.10473,0 0.21069,-0.00643 0.31633,-0.01929c1.43286,-0.17241 2.45506,-1.47358 2.28142,-2.90674l-0.93767,-7.78194l6.78913,3.91976c0.41219,0.23733 0.86143,0.34941 1.30393,0.34941c0.90338,0 1.78134,-0.46823 2.26611,-1.30669c0.72086,-1.25034 0.29337,-2.84795 -0.95697,-3.57004l-6.78883,-3.91944l7.20867,-3.07915c1.32904,-0.56623 1.94517,-2.10136 1.37742,-3.42826l0,-0.00001zm-104.06606,-25.20033l17.07021,-7.52653l13.03624,7.52653l-13.03654,7.52654l-17.06992,-7.52654l0.00001,0zm33.02361,19.57916l-15.20527,11.02125l2.09247,-18.54656l13.1128,-7.52684l0,15.05215zm0,-24.10555l-13.1128,-7.52715l-2.09247,-18.54656l15.20527,11.02125l0,15.05246zm5.22644,-15.05246l14.9021,-11.02125l-1.9412,18.54656l-12.96121,7.52715l0,-15.05246l0.00031,0zm0,39.15801l0,-15.05215l12.96121,7.52684l1.9412,18.54656l-14.90241,-11.02125zm15.34767,-12.05263l-13.03686,-7.52653l13.03686,-7.52653l17.06991,7.52653l-17.06991,7.52653z"/>
        </g>
       </g>
      </g>
     </g>
    </g>
    <g stroke="null" id="svg_146">
     <rect stroke="null" fill="none" id="svg_139" height="202" width="202" y="1432.27382" x="138.5895" transform="matrix(0.20099826868370657,0,0,0.20099826868370657,321.0360348741098,-51.22848146176776) "/>
     <g stroke="null" id="svg_145" transform="matrix(0.20099826868370657,0,0,0.20099826868370657,321.0360348741098,-51.22848146176776) ">
      <title>Layer 1</title>
      <g stroke="null" id="svg_144">
       <g stroke="null" id="svg_143">
        <g stroke="null" id="svg_142">
         <path stroke="null" fill="#ffffff" id="svg_141" d="m308.32186,1554.86768c-0.5653,-1.32567 -2.0989,-1.94334 -3.42856,-1.37681l-10.81392,4.61858l-14.71071,-8.49392l19.22394,-8.21219c1.32843,-0.56652 1.94456,-2.10135 1.37681,-3.42856c-0.56653,-1.3269 -2.10043,-1.94456 -3.42856,-1.37681l-22.82919,9.75161l-10.24923,-5.9176l18.99181,-8.37388c0.94809,-0.41739 1.55933,-1.35507 1.55933,-2.39105c0,-1.03598 -0.61124,-1.97396 -1.55933,-2.39105l-18.99181,-8.37388l10.24923,-5.9176l22.82919,9.75161c0.33441,0.14301 0.68259,0.21191 1.02465,0.21191c1.01424,0 1.98039,-0.59592 2.40391,-1.58872c0.56775,-1.3269 -0.04869,-2.86203 -1.37681,-3.42856l-19.22394,-8.21219l14.71071,-8.49331l10.81392,4.61826c0.33441,0.14302 0.68259,0.21191 1.02465,0.21191c1.01577,0 1.9804,-0.59591 2.40391,-1.58871c0.56776,-1.32691 -0.04838,-2.86204 -1.37681,-3.42857l-7.20867,-3.07915l6.78883,-3.91945c1.25034,-0.72209 1.67784,-2.3197 0.95697,-3.57004c-0.72362,-1.25034 -2.32368,-1.68029 -3.57034,-0.95697l-6.78914,3.91975l0.93768,-7.78193c0.17363,-1.43285 -0.84857,-2.73433 -2.28142,-2.90674c-1.4304,-0.17486 -2.73433,0.84703 -2.90674,2.28142l-1.40683,11.67351l-14.71101,8.49332l2.50068,-20.7551c0.17363,-1.43285 -0.84857,-2.73434 -2.28142,-2.90674c-1.43683,-0.18006 -2.73433,0.84703 -2.90674,2.28143l-2.96983,24.64635l-10.24862,5.91699l2.24375,-20.63505c0.11239,-1.02832 -0.39412,-2.02755 -1.29137,-2.5457c-0.89818,-0.51538 -1.86066,-0.45812 -2.69881,0.15434l-16.59679,12.2618l0,-9.22122l19.7087,-14.89537c1.1548,-0.8651 1.3122,-2.50343 0.44588,-3.65823c-0.86266,-1.15235 -2.38585,-1.38968 -3.54432,-0.52182l-16.61056,12.5426l0,-19.59846l9.25613,-7.05586c1.15479,-0.8651 1.31219,-2.50344 0.44587,-3.65823c-0.86265,-1.15235 -2.38431,-1.38968 -3.54432,-0.52182l-6.15768,4.70309l0,-7.8395c0,-1.44296 -1.17011,-2.61307 -2.61307,-2.61307s-2.61307,1.17011 -2.61307,2.61307l0,7.8395l-6.42288,-4.70309c-1.15479,-0.86755 -2.86785,-0.63022 -3.73417,0.52182c-0.86633,1.15479 -0.51907,2.79313 0.63573,3.65823l9.52132,7.05586l0,19.59907l-16.87545,-12.5426c-1.15725,-0.86755 -2.86907,-0.63022 -3.73418,0.52182c-0.86632,1.1548 -0.51906,2.79313 0.63574,3.65823l19.97389,14.89537l0,9.22122l-16.89995,-12.26178c-0.8357,-0.61124 -2.02816,-0.66974 -2.92634,-0.15435c-0.89695,0.51814 -1.44112,1.51706 -1.32935,2.54569l2.22508,20.63505l-7.99569,-4.6106l-2.97288,-24.64607c-0.17272,-1.43407 -1.47359,-2.44861 -2.9092,-2.28142c-1.43285,0.17211 -2.45627,1.4736 -2.28233,2.90676l2.49853,20.75478l-16.97375,-9.7997l-1.40682,-11.67351c-0.17088,-1.43285 -1.47879,-2.44097 -2.90675,-2.28142c-1.43285,0.1721 -2.45505,1.47358 -2.28142,2.90674l0.93738,7.78194l-6.78914,-3.91976c-1.25432,-0.72331 -2.84794,-0.29337 -3.57003,0.95697c-0.72087,1.25034 -0.29337,2.84795 0.95697,3.57004l6.78882,3.91945l-7.20775,3.07916c-1.32812,0.56653 -1.94456,2.10166 -1.37681,3.42856c0.42352,0.9928 1.38814,1.58872 2.40391,1.58872c0.34206,0 0.69024,-0.0689 1.02465,-0.21191l10.81331,-4.61826l16.97375,9.79968l-19.22424,8.2125c-1.3269,0.56653 -1.94334,2.10135 -1.37559,3.42978c0.42352,0.99158 1.38815,1.5872 2.40391,1.5872c0.34206,0 0.69025,-0.06891 1.02588,-0.21192l22.82766,-9.7513l7.98588,4.61061l-18.99181,8.37388c-0.94809,0.41739 -1.55933,1.35507 -1.55933,2.39105c0,1.03597 0.61123,1.97396 1.55933,2.39105l18.99181,8.37387l-7.98588,4.61061l-22.82766,-9.7513c-1.33333,-0.56775 -2.86449,0.04838 -3.42979,1.37559c-0.56775,1.32843 0.04869,2.86325 1.37559,3.42978l19.22424,8.2125l-16.97375,9.79999l-10.81331,-4.61857c-1.32812,-0.56653 -2.86203,0.05114 -3.42856,1.37681c-0.56775,1.3269 0.04869,2.86203 1.37681,3.42856l7.20837,3.07915l-6.78883,3.91945c-1.25034,0.72209 -1.67784,2.31969 -0.95697,3.57003c0.48476,0.83846 1.36272,1.30669 2.2661,1.30669c0.44281,0 0.89328,-0.11208 1.30393,-0.34971l6.78914,-3.91976l-0.93737,7.78194c-0.17364,1.43285 0.84856,2.73433 2.28142,2.90674c0.10595,0.01286 0.21191,0.01929 0.31633,0.01929c1.30271,0 2.43086,-0.97351 2.5901,-2.30071l1.40682,-11.67351l16.97315,-9.79969l-2.49915,20.75478c-0.17364,1.43286 0.84856,2.73434 2.28142,2.90675c0.10595,0.01286 0.21191,0.01929 0.31633,0.01929c1.30271,0 2.43086,-0.97351 2.5901,-2.30041l2.9686,-24.64605l7.98619,-4.61061l-2.24375,20.63505c-0.11239,1.02832 0.39412,2.02755 1.29137,2.54569c0.8945,0.51416 2.16506,0.4569 3.00198,-0.15434l16.89996,-12.26178l0,11.83459l-20.01187,14.89536c-1.1548,0.8651 -1.46409,2.50343 -0.59776,3.65823c0.8651,1.1548 2.6149,1.39212 3.77215,0.52182l16.83748,-12.5426l0,16.98601l-9.5593,7.05585c-1.1548,0.86511 -1.46409,2.50344 -0.59776,3.65824c0.86633,1.15235 2.61735,1.39212 3.77215,0.52181l6.38491,-4.70309l0,7.83951c0,1.44326 1.17011,2.61306 2.61306,2.61306s2.61307,-1.1701 2.61307,-2.61306l0,-7.83951l6.11971,4.70309c0.47068,0.35339 0.94473,0.52305 1.48951,0.52305c0.79498,0 1.54218,-0.36105 2.05481,-1.04486c0.86663,-1.1548 0.76558,-2.79313 -0.38922,-3.65824l-9.27512,-7.05585l0,-16.98601l16.5726,12.5426c0.47098,0.35339 0.94472,0.52304 1.4895,0.52304c0.79498,0 1.54218,-0.36105 2.05481,-1.04486c0.86663,-1.1548 0.76558,-2.79313 -0.38922,-3.65823l-19.72769,-14.89536l0,-11.83459l16.59679,12.26178c0.45812,0.33441 0.92451,0.50406 1.46807,0.50406c0.45077,0 0.86296,-0.11606 1.26871,-0.34972c0.89726,-0.51814 1.38478,-1.51706 1.27239,-2.54569l-2.25324,-20.63505l10.24402,5.91699l2.96738,24.64636c0.15955,1.3269 1.28647,2.30041 2.58918,2.30041c0.10473,0 0.20977,-0.00643 0.31572,-0.0193c1.43286,-0.1721 2.45475,-1.47358 2.28112,-2.90674l-2.50099,-20.75509l14.71102,8.49331l1.40682,11.67351c0.15955,1.3269 1.28739,2.30071 2.5901,2.30071c0.10473,0 0.21069,-0.00643 0.31633,-0.01929c1.43286,-0.17241 2.45506,-1.47358 2.28142,-2.90674l-0.93767,-7.78194l6.78913,3.91976c0.41219,0.23733 0.86143,0.34941 1.30393,0.34941c0.90338,0 1.78134,-0.46823 2.26611,-1.30669c0.72086,-1.25034 0.29337,-2.84795 -0.95697,-3.57004l-6.78883,-3.91944l7.20867,-3.07915c1.32904,-0.56623 1.94517,-2.10136 1.37742,-3.42826l0,-0.00001zm-104.06606,-25.20032l17.07021,-7.52655l13.03624,7.52655l-13.03654,7.52654l-17.06992,-7.52654l0.00001,0zm33.02361,19.57916l-15.20527,11.02124l2.09247,-18.54655l13.1128,-7.52684l0,15.05215zm0,-24.10556l-13.1128,-7.52715l-2.09247,-18.54655l15.20527,11.02124l0,15.05246zm5.22644,-15.05247l14.9021,-11.02124l-1.9412,18.54655l-12.96121,7.52715l0,-15.05246l0.00031,0zm0,39.15803l0,-15.05215l12.96121,7.52684l1.9412,18.54655l-14.90241,-11.02124zm15.34767,-12.05263l-13.03686,-7.52653l13.03686,-7.52655l17.06991,7.52655l-17.06991,7.52653z"/>
        </g>
       </g>
      </g>
     </g>
    </g>
    <g stroke="null" id="svg_154">
     <rect stroke="null" fill="none" id="svg_147" height="202" width="202" y="1728.93675" x="57.68143" transform="matrix(0.20099826868370657,0,0,0.20099826868370657,321.0360348741098,-51.22848146176776) "/>
     <g stroke="null" id="svg_153" transform="matrix(0.20099826868370657,0,0,0.20099826868370657,321.0360348741098,-51.22848146176776) ">
      <title>Layer 1</title>
      <g stroke="null" id="svg_152">
       <g stroke="null" id="svg_151">
        <g stroke="null" id="svg_150">
         <path stroke="null" fill="#ffffff" id="svg_149" d="m227.41378,1851.53061c-0.5653,-1.32567 -2.09889,-1.94334 -3.42855,-1.37681l-10.81393,4.61858l-14.7107,-8.49392l19.22393,-8.21219c1.32844,-0.56652 1.94457,-2.10135 1.37681,-3.42856c-0.56652,-1.3269 -2.10042,-1.94456 -3.42855,-1.37681l-22.8292,9.75161l-10.24923,-5.9176l18.99181,-8.37388c0.94809,-0.4174 1.55933,-1.35508 1.55933,-2.39105c0,-1.03599 -0.61123,-1.97396 -1.55933,-2.39105l-18.99181,-8.37388l10.24923,-5.9176l22.8292,9.75161c0.33441,0.14301 0.68259,0.21191 1.02464,0.21191c1.01424,0 1.9804,-0.59592 2.40391,-1.58872c0.56776,-1.3269 -0.04869,-2.86203 -1.37681,-3.42856l-19.22393,-8.21219l14.7107,-8.49331l10.81393,4.61826c0.33441,0.14301 0.68259,0.21191 1.02464,0.21191c1.01577,0 1.98041,-0.59592 2.40391,-1.58872c0.56776,-1.3269 -0.04837,-2.86203 -1.37681,-3.42856l-7.20866,-3.07915l6.78882,-3.91945c1.25035,-0.72209 1.67784,-2.3197 0.95697,-3.57004c-0.72362,-1.25034 -2.32368,-1.68029 -3.57034,-0.95697l-6.78914,3.91975l0.93768,-7.78193c0.17363,-1.43285 -0.84857,-2.73433 -2.28142,-2.90674c-1.4304,-0.17486 -2.73433,0.84703 -2.90674,2.28142l-1.40683,11.67351l-14.71101,8.49331l2.50068,-20.75509c0.17363,-1.43285 -0.84857,-2.73434 -2.28142,-2.90674c-1.43683,-0.18006 -2.73433,0.84703 -2.90674,2.28142l-2.96983,24.64636l-10.24862,5.91699l2.24375,-20.63505c0.11239,-1.02832 -0.39412,-2.02755 -1.29137,-2.5457c-0.89818,-0.51538 -1.86066,-0.45812 -2.69881,0.15434l-16.59679,12.26179l0,-9.22121l19.7087,-14.89537c1.1548,-0.8651 1.3122,-2.50343 0.44588,-3.65823c-0.86266,-1.15235 -2.38585,-1.38968 -3.54432,-0.52182l-16.61055,12.5426l0,-19.59846l9.25612,-7.05586c1.1548,-0.8651 1.31219,-2.50344 0.44588,-3.65823c-0.86266,-1.15235 -2.38432,-1.38968 -3.54432,-0.52182l-6.15768,4.70309l0,-7.8395c0,-1.44296 -1.17012,-2.61307 -2.61307,-2.61307s-2.61307,1.17011 -2.61307,2.61307l0,7.8395l-6.42288,-4.70309c-1.15479,-0.86755 -2.86785,-0.63022 -3.73417,0.52182c-0.86633,1.15479 -0.51907,2.79313 0.63573,3.65823l9.52132,7.05586l0,19.59907l-16.87545,-12.5426c-1.15725,-0.86755 -2.86907,-0.63022 -3.73419,0.52182c-0.86631,1.1548 -0.51905,2.79313 0.63575,3.65823l19.97389,14.89537l0,9.22122l-16.89995,-12.26179c-0.8357,-0.61123 -2.02816,-0.66973 -2.92634,-0.15434c-0.89695,0.51814 -1.44112,1.51706 -1.32935,2.54569l2.22508,20.63505l-7.99569,-4.61061l-2.97288,-24.64606c-0.17272,-1.43407 -1.47359,-2.44861 -2.9092,-2.28142c-1.43285,0.17211 -2.45627,1.47359 -2.28233,2.90676l2.49853,20.75478l-16.97375,-9.7997l-1.40683,-11.67351c-0.17088,-1.43285 -1.47879,-2.44097 -2.90674,-2.28142c-1.43286,0.1721 -2.45506,1.47358 -2.28143,2.90674l0.93738,7.78194l-6.78914,-3.91976c-1.25432,-0.72331 -2.84794,-0.29337 -3.57003,0.95697c-0.72087,1.25034 -0.29336,2.84795 0.95697,3.57004l6.78882,3.91945l-7.20775,3.07915c-1.32812,0.56654 -1.94456,2.10167 -1.37681,3.42857c0.42352,0.9928 1.38814,1.58872 2.40391,1.58872c0.34206,0 0.69024,-0.0689 1.02465,-0.21191l10.81331,-4.61826l16.97375,9.79968l-19.22424,8.2125c-1.3269,0.56653 -1.94334,2.10135 -1.37559,3.42978c0.42352,0.99158 1.38815,1.5872 2.40391,1.5872c0.34206,0 0.69025,-0.06891 1.02588,-0.21192l22.82766,-9.7513l7.98588,4.61061l-18.99181,8.37388c-0.94809,0.41739 -1.55933,1.35507 -1.55933,2.39105c0,1.03597 0.61123,1.97396 1.55933,2.39105l18.99181,8.37387l-7.98588,4.61061l-22.82766,-9.7513c-1.33333,-0.56775 -2.86449,0.04838 -3.42979,1.37559c-0.56775,1.32843 0.04869,2.86325 1.37559,3.42978l19.22424,8.2125l-16.97375,9.79999l-10.81331,-4.61857c-1.32812,-0.56653 -2.86203,0.05114 -3.42856,1.37681c-0.56775,1.3269 0.04869,2.86203 1.37681,3.42856l7.20837,3.07915l-6.78883,3.91945c-1.25034,0.72209 -1.67784,2.31969 -0.95697,3.57003c0.48476,0.83846 1.36272,1.30669 2.2661,1.30669c0.44281,0 0.89328,-0.11208 1.30394,-0.34971l6.78913,-3.91976l-0.93736,7.78194c-0.17364,1.43285 0.84856,2.73433 2.28142,2.90674c0.10595,0.01286 0.21191,0.01929 0.31633,0.01929c1.30271,0 2.43086,-0.97351 2.5901,-2.30071l1.40682,-11.67351l16.97315,-9.79969l-2.49915,20.75478c-0.17364,1.43286 0.84856,2.73434 2.28142,2.90675c0.10595,0.01286 0.21191,0.01929 0.31633,0.01929c1.30271,0 2.43086,-0.97351 2.5901,-2.30041l2.9686,-24.64605l7.98619,-4.61061l-2.24375,20.63505c-0.11239,1.02832 0.39412,2.02755 1.29137,2.54569c0.8945,0.51416 2.16506,0.4569 3.00198,-0.15434l16.89996,-12.26178l0,11.83458l-20.01187,14.89537c-1.1548,0.8651 -1.46409,2.50343 -0.59776,3.65823c0.8651,1.15479 2.6149,1.39212 3.77215,0.52182l16.83748,-12.5426l0,16.986l-9.5593,7.05586c-1.1548,0.86511 -1.46409,2.50344 -0.59776,3.65824c0.86633,1.15234 2.61735,1.39212 3.77215,0.52181l6.38491,-4.70309l0,7.83951c0,1.44326 1.17011,2.61306 2.61306,2.61306s2.61307,-1.1701 2.61307,-2.61306l0,-7.83951l6.11971,4.70309c0.47068,0.35339 0.94473,0.52305 1.48951,0.52305c0.79498,0 1.54218,-0.36105 2.05481,-1.04486c0.86663,-1.1548 0.76558,-2.79313 -0.38922,-3.65824l-9.27512,-7.05586l0,-16.986l16.5726,12.5426c0.47098,0.35339 0.94472,0.52304 1.4895,0.52304c0.79498,0 1.54218,-0.36105 2.05481,-1.04486c0.86663,-1.1548 0.76558,-2.79313 -0.38922,-3.65823l-19.72769,-14.89537l0,-11.83458l16.59678,12.26178c0.45812,0.33441 0.92452,0.50406 1.46808,0.50406c0.45077,0 0.86296,-0.11606 1.26871,-0.34972c0.89726,-0.51814 1.38478,-1.51706 1.27239,-2.54569l-2.25324,-20.63505l10.24402,5.91699l2.96738,24.64636c0.15955,1.3269 1.28647,2.30041 2.58918,2.30041c0.10473,0 0.20977,-0.00643 0.31572,-0.0193c1.43286,-0.1721 2.45475,-1.47358 2.28112,-2.90674l-2.50099,-20.75509l14.71102,8.49331l1.40682,11.67351c0.15955,1.3269 1.28739,2.30071 2.5901,2.30071c0.10473,0 0.21069,-0.00643 0.31633,-0.01929c1.43286,-0.17241 2.45506,-1.47358 2.28142,-2.90674l-0.93767,-7.78194l6.78913,3.91976c0.41219,0.23733 0.86143,0.34941 1.30393,0.34941c0.90338,0 1.78134,-0.46823 2.26611,-1.30669c0.72086,-1.25034 0.29337,-2.84795 -0.95697,-3.57004l-6.78883,-3.91944l7.20867,-3.07915c1.32904,-0.56623 1.94517,-2.10136 1.37742,-3.42826l-0.00001,0l0,-0.00001zm-104.06606,-25.20032l17.07021,-7.52655l13.03624,7.52655l-13.03653,7.52654l-17.06993,-7.52654l0.00001,0zm33.02361,19.57916l-15.20527,11.02124l2.09247,-18.54655l13.1128,-7.52684l0,15.05215zm0,-24.10556l-13.1128,-7.52715l-2.09247,-18.54655l15.20527,11.02124l0,15.05246zm5.22644,-15.05247l14.9021,-11.02124l-1.9412,18.54655l-12.96121,7.52715l0,-15.05246l0.00031,0zm0,39.15803l0,-15.05215l12.96122,7.52684l1.94119,18.54655l-14.90241,-11.02124zm15.34767,-12.05263l-13.03686,-7.52653l13.03686,-7.52655l17.06992,7.52655l-17.06992,7.52653z"/>
        </g>
       </g>
      </g>
     </g>
    </g>
    <g stroke="null" id="svg_162">
     <rect stroke="null" fill="none" id="svg_155" height="202" width="202" y="1931.20693" x="-153.57853" transform="matrix(0.20099826868370657,0,0,0.20099826868370657,321.0360348741098,-51.22848146176776) "/>
     <g stroke="null" id="svg_161" transform="matrix(0.20099826868370657,0,0,0.20099826868370657,321.0360348741098,-51.22848146176776) ">
      <title>Layer 1</title>
      <g stroke="null" id="svg_160">
       <g stroke="null" id="svg_159">
        <g stroke="null" id="svg_158">
         <path stroke="null" fill="#ffffff" id="svg_157" d="m16.15382,2053.8008c-0.5653,-1.32568 -2.0989,-1.94334 -3.42856,-1.37682l-10.81392,4.61857l-14.71071,-8.49391l19.22394,-8.21219c1.32843,-0.56652 1.94456,-2.10135 1.37681,-3.42856c-0.56653,-1.3269 -2.10043,-1.94456 -3.42856,-1.37681l-22.82919,9.75161l-10.24923,-5.9176l18.99181,-8.37388c0.94809,-0.4174 1.55933,-1.35508 1.55933,-2.39105c0,-1.03599 -0.61124,-1.97396 -1.55933,-2.39105l-18.99181,-8.37388l10.24923,-5.9176l22.82919,9.75161c0.33441,0.14301 0.68259,0.21191 1.02465,0.21191c1.01424,0 1.98039,-0.59592 2.40391,-1.58872c0.56775,-1.3269 -0.04869,-2.86203 -1.37681,-3.42856l-19.22394,-8.21219l14.71071,-8.49331l10.81392,4.61826c0.33441,0.14301 0.68259,0.21191 1.02465,0.21191c1.01577,0 1.9804,-0.59592 2.40391,-1.58872c0.56776,-1.3269 -0.04838,-2.86204 -1.37681,-3.42856l-7.20867,-3.07915l6.78883,-3.91945c1.25034,-0.72209 1.67784,-2.3197 0.95697,-3.57004c-0.72362,-1.25034 -2.32368,-1.68029 -3.57034,-0.95697l-6.78914,3.91975l0.93768,-7.78193c0.17363,-1.43285 -0.84857,-2.73433 -2.28142,-2.90674c-1.4304,-0.17486 -2.73433,0.84703 -2.90674,2.28142l-1.40683,11.67351l-14.71101,8.49331l2.50068,-20.75509c0.17363,-1.43285 -0.84857,-2.73434 -2.28142,-2.90674c-1.43683,-0.18006 -2.73433,0.84703 -2.90674,2.28142l-2.96983,24.64636l-10.24862,5.91699l2.24375,-20.63505c0.11239,-1.02832 -0.39412,-2.02755 -1.29137,-2.5457c-0.89818,-0.51538 -1.86066,-0.45812 -2.69881,0.15434l-16.59679,12.26179l0,-9.22121l19.7087,-14.89537c1.1548,-0.8651 1.3122,-2.50343 0.44588,-3.65823c-0.86266,-1.15235 -2.38585,-1.38968 -3.54432,-0.52182l-16.61056,12.5426l0,-19.59846l9.25613,-7.05586c1.15479,-0.8651 1.31219,-2.50344 0.44587,-3.65823c-0.86265,-1.15235 -2.38431,-1.38968 -3.54432,-0.52182l-6.15768,4.70309l0,-7.8395c0,-1.44296 -1.17011,-2.61307 -2.61307,-2.61307s-2.61307,1.17011 -2.61307,2.61307l0,7.8395l-6.42288,-4.70309c-1.15479,-0.86755 -2.86785,-0.63022 -3.73417,0.52182c-0.86633,1.15479 -0.51907,2.79313 0.63573,3.65823l9.52132,7.05586l0,19.59907l-16.87545,-12.5426c-1.15725,-0.86755 -2.86907,-0.63022 -3.73418,0.52182c-0.86632,1.1548 -0.51906,2.79313 0.63574,3.65823l19.97389,14.89537l0,9.22121l-16.89995,-12.26178c-0.8357,-0.61124 -2.02816,-0.66973 -2.92634,-0.15434c-0.89695,0.51814 -1.44112,1.51706 -1.32935,2.54569l2.22508,20.63505l-7.99569,-4.61061l-2.97288,-24.64606c-0.17272,-1.43407 -1.47359,-2.44861 -2.9092,-2.28142c-1.43285,0.17211 -2.45627,1.47359 -2.28233,2.90676l2.49853,20.75477l-16.97375,-9.79969l-1.40682,-11.67351c-0.17088,-1.43285 -1.47879,-2.44097 -2.90675,-2.28142c-1.43285,0.1721 -2.45505,1.47358 -2.28142,2.90674l0.93738,7.78194l-6.78914,-3.91976c-1.25432,-0.72331 -2.84794,-0.29337 -3.57003,0.95697c-0.72087,1.25034 -0.29337,2.84795 0.95697,3.57004l6.78882,3.91945l-7.20775,3.07915c-1.32812,0.56654 -1.94456,2.10166 -1.37681,3.42857c0.42352,0.9928 1.38814,1.58871 2.40391,1.58871c0.34206,0 0.69024,-0.0689 1.02465,-0.21191l10.81331,-4.61825l16.97375,9.79968l-19.22424,8.2125c-1.3269,0.56653 -1.94334,2.10135 -1.37559,3.42978c0.42352,0.99158 1.38815,1.5872 2.40391,1.5872c0.34206,0 0.69025,-0.06891 1.02588,-0.21192l22.82766,-9.7513l7.98588,4.61061l-18.99181,8.37388c-0.94809,0.41739 -1.55933,1.35507 -1.55933,2.39105c0,1.03597 0.61123,1.97396 1.55933,2.39105l18.99181,8.37387l-7.98588,4.61061l-22.82766,-9.7513c-1.33333,-0.56775 -2.86449,0.04838 -3.42979,1.37559c-0.56775,1.32843 0.04869,2.86325 1.37559,3.42978l19.22424,8.2125l-16.97375,9.79999l-10.81331,-4.61857c-1.32812,-0.56653 -2.86203,0.05114 -3.42856,1.37681c-0.56775,1.3269 0.04869,2.86203 1.37681,3.42856l7.20837,3.07915l-6.78883,3.91945c-1.25034,0.72209 -1.67784,2.31969 -0.95697,3.57003c0.48476,0.83846 1.36272,1.30669 2.2661,1.30669c0.44281,0 0.89328,-0.11208 1.30393,-0.34971l6.78914,-3.91977l-0.93737,7.78194c-0.17364,1.43285 0.84856,2.73433 2.28142,2.90674c0.10595,0.01286 0.21191,0.01929 0.31633,0.01929c1.30271,0 2.43086,-0.97351 2.5901,-2.30071l1.40682,-11.67351l16.97315,-9.79969l-2.49915,20.75479c-0.17364,1.43286 0.84856,2.73434 2.28142,2.90675c0.10595,0.01286 0.21191,0.01929 0.31633,0.01929c1.30271,0 2.43086,-0.97351 2.5901,-2.30041l2.9686,-24.64605l7.98619,-4.61061l-2.24375,20.63505c-0.11239,1.02832 0.39412,2.02755 1.29137,2.54569c0.8945,0.51416 2.16506,0.4569 3.00198,-0.15434l16.89996,-12.26178l0,11.83459l-20.01187,14.89537c-1.1548,0.8651 -1.46409,2.50343 -0.59776,3.65823c0.8651,1.15479 2.6149,1.39212 3.77215,0.52182l16.83748,-12.5426l0,16.986l-9.5593,7.05586c-1.1548,0.86511 -1.46409,2.50344 -0.59776,3.65824c0.86633,1.15234 2.61735,1.39212 3.77215,0.52181l6.38491,-4.70309l0,7.83951c0,1.44326 1.17011,2.61306 2.61306,2.61306s2.61307,-1.1701 2.61307,-2.61306l0,-7.83951l6.11971,4.70309c0.47068,0.35339 0.94473,0.52305 1.48951,0.52305c0.79498,0 1.54218,-0.36105 2.05481,-1.04486c0.86663,-1.1548 0.76558,-2.79313 -0.38922,-3.65824l-9.27512,-7.05586l0,-16.986l16.5726,12.5426c0.47098,0.35339 0.94472,0.52304 1.4895,0.52304c0.79498,0 1.54218,-0.36105 2.05481,-1.04486c0.86663,-1.1548 0.76558,-2.79313 -0.38922,-3.65823l-19.72769,-14.89537l0,-11.83459l16.59679,12.26178c0.45812,0.33441 0.92451,0.50406 1.46807,0.50406c0.45077,0 0.86296,-0.11606 1.26871,-0.34972c0.89726,-0.51814 1.38478,-1.51706 1.27239,-2.54569l-2.25324,-20.63505l10.24402,5.91699l2.96738,24.64636c0.15955,1.3269 1.28647,2.30041 2.58918,2.30041c0.10473,0 0.20977,-0.00643 0.31572,-0.0193c1.43286,-0.1721 2.45475,-1.47358 2.28112,-2.90674l-2.50099,-20.75509l14.71102,8.49331l1.40682,11.67351c0.15955,1.3269 1.28739,2.30071 2.5901,2.30071c0.10473,0 0.21069,-0.00643 0.31633,-0.01929c1.43286,-0.17241 2.45506,-1.47358 2.28142,-2.90674l-0.93767,-7.78194l6.78913,3.91976c0.41219,0.23733 0.86143,0.34941 1.30393,0.34941c0.90338,0 1.78134,-0.46823 2.26611,-1.30669c0.72086,-1.25034 0.29337,-2.84795 -0.95697,-3.57004l-6.78883,-3.91944l7.20867,-3.07915c1.32904,-0.56623 1.94517,-2.10136 1.37742,-3.42826zm-104.06606,-25.20033l17.07021,-7.52654l13.03624,7.52654l-13.03654,7.52654l-17.06992,-7.52654l0.00001,0zm33.02361,19.57916l-15.20527,11.02124l2.09247,-18.54655l13.1128,-7.52684l0,15.05215zm0,-24.10556l-13.1128,-7.52715l-2.09247,-18.54655l15.20527,11.02124l0,15.05246zm5.22644,-15.05246l14.9021,-11.02124l-1.9412,18.54655l-12.96121,7.52715l0,-15.05247l0.00031,0l0,0.00001zm0,39.15802l0,-15.05215l12.96121,7.52684l1.9412,18.54655l-14.90241,-11.02124zm15.34767,-12.05263l-13.03686,-7.52653l13.03686,-7.52654l17.06991,7.52654l-17.06991,7.52653z"/>
        </g>
       </g>
      </g>
     </g>
    </g>
    <g stroke="null" id="svg_170">
     <rect stroke="null" fill="none" id="svg_163" height="202" width="202" y="2007.6201" x="-435.63307" transform="matrix(0.20099826868370657,0,0,0.20099826868370657,321.0360348741098,-51.22848146176776) "/>
     <g stroke="null" id="svg_169" transform="matrix(0.20099826868370657,0,0,0.20099826868370657,321.0360348741098,-51.22848146176776) ">
      <title>Layer 1</title>
      <g stroke="null" id="svg_168">
       <g stroke="null" id="svg_167">
        <g stroke="null" id="svg_166">
         <path stroke="null" fill="#ffffff" id="svg_165" d="m-265.90072,2130.21398c-0.5653,-1.32568 -2.0989,-1.94334 -3.42856,-1.37682l-10.81392,4.61858l-14.71071,-8.49392l19.22394,-8.2122c1.32843,-0.56651 1.94456,-2.10134 1.37681,-3.42855c-0.56653,-1.3269 -2.10043,-1.94456 -3.42856,-1.37682l-22.82919,9.75161l-10.24923,-5.9176l18.99181,-8.37388c0.94809,-0.41739 1.55933,-1.35507 1.55933,-2.39105c0,-1.03598 -0.61124,-1.97396 -1.55933,-2.39105l-18.99181,-8.37388l10.24923,-5.9176l22.82919,9.75161c0.33441,0.14301 0.68259,0.21191 1.02465,0.21191c1.01424,0 1.98039,-0.59592 2.40391,-1.58872c0.56775,-1.3269 -0.04869,-2.86203 -1.37681,-3.42856l-19.22394,-8.21219l14.71071,-8.49331l10.81392,4.61827c0.33441,0.14301 0.68259,0.21191 1.02465,0.21191c1.01577,0 1.9804,-0.59592 2.40391,-1.58872c0.56776,-1.3269 -0.04838,-2.86204 -1.37681,-3.42856l-7.20867,-3.07915l6.78883,-3.91945c1.25034,-0.72209 1.67784,-2.3197 0.95697,-3.57004c-0.72362,-1.25034 -2.32368,-1.68029 -3.57034,-0.95697l-6.78914,3.91975l0.93768,-7.78193c0.17363,-1.43285 -0.84857,-2.73433 -2.28142,-2.90674c-1.4304,-0.17486 -2.73433,0.84703 -2.90674,2.28142l-1.40683,11.67351l-14.71101,8.49331l2.50068,-20.75509c0.17363,-1.43285 -0.84857,-2.73434 -2.28142,-2.90674c-1.43683,-0.18007 -2.73433,0.84703 -2.90674,2.28142l-2.96983,24.64636l-10.24862,5.91699l2.24375,-20.63505c0.11239,-1.02832 -0.39412,-2.02755 -1.29137,-2.5457c-0.89818,-0.51538 -1.86066,-0.45812 -2.69881,0.15434l-16.59679,12.26179l0,-9.22122l19.7087,-14.89537c1.1548,-0.8651 1.3122,-2.50343 0.44588,-3.65823c-0.86266,-1.15235 -2.38585,-1.38968 -3.54432,-0.52182l-16.61056,12.5426l0,-19.59846l9.25613,-7.05586c1.15479,-0.8651 1.31219,-2.50344 0.44587,-3.65823c-0.86265,-1.15235 -2.38431,-1.38968 -3.54432,-0.52182l-6.15768,4.70309l0,-7.8395c0,-1.44296 -1.17011,-2.61307 -2.61307,-2.61307s-2.61307,1.17011 -2.61307,2.61307l0,7.8395l-6.42288,-4.70309c-1.15479,-0.86755 -2.86785,-0.63022 -3.73417,0.52182c-0.86633,1.15479 -0.51907,2.79313 0.63573,3.65823l9.52132,7.05586l0,19.59907l-16.87545,-12.5426c-1.15725,-0.86755 -2.86907,-0.63022 -3.73418,0.52182c-0.86632,1.1548 -0.51906,2.79313 0.63574,3.65823l19.97389,14.89537l0,9.22122l-16.89995,-12.26178c-0.8357,-0.61124 -2.02816,-0.66973 -2.92634,-0.15434c-0.89695,0.51814 -1.44112,1.51706 -1.32935,2.54569l2.22508,20.63505l-7.99569,-4.61061l-2.97288,-24.64606c-0.17272,-1.43407 -1.47359,-2.44862 -2.9092,-2.28142c-1.43285,0.17211 -2.45627,1.47359 -2.28233,2.90675l2.49853,20.75478l-16.97375,-9.79969l-1.40682,-11.67351c-0.17088,-1.43285 -1.47879,-2.44097 -2.90675,-2.28142c-1.43285,0.1721 -2.45505,1.47358 -2.28142,2.90674l0.93738,7.78194l-6.78914,-3.91976c-1.25432,-0.72331 -2.84794,-0.29337 -3.57003,0.95697c-0.72087,1.25034 -0.29337,2.84795 0.95697,3.57004l6.78882,3.91945l-7.20775,3.07915c-1.32812,0.56653 -1.94456,2.10166 -1.37681,3.42856c0.42352,0.9928 1.38814,1.58872 2.40391,1.58872c0.34206,0 0.69024,-0.0689 1.02465,-0.21191l10.81331,-4.61826l16.97375,9.79968l-19.22424,8.2125c-1.3269,0.56653 -1.94334,2.10135 -1.37559,3.42978c0.42352,0.99158 1.38815,1.5872 2.40391,1.5872c0.34206,0 0.69025,-0.06891 1.02588,-0.21192l22.82766,-9.7513l7.98588,4.61061l-18.99181,8.37388c-0.94809,0.41739 -1.55933,1.35507 -1.55933,2.39105c0,1.03597 0.61123,1.97396 1.55933,2.39105l18.99181,8.37387l-7.98588,4.61061l-22.82766,-9.7513c-1.33333,-0.56775 -2.86449,0.04838 -3.42979,1.37559c-0.56775,1.32843 0.04869,2.86325 1.37559,3.42978l19.22424,8.2125l-16.97375,9.79999l-10.81331,-4.61857c-1.32812,-0.56653 -2.86203,0.05114 -3.42856,1.37681c-0.56775,1.3269 0.04869,2.86203 1.37681,3.42856l7.20837,3.07915l-6.78883,3.91945c-1.25034,0.72209 -1.67784,2.31969 -0.95697,3.57003c0.48476,0.83846 1.36272,1.30669 2.2661,1.30669c0.44281,0 0.89328,-0.11208 1.30393,-0.34971l6.78914,-3.91976l-0.93737,7.78194c-0.17364,1.43285 0.84856,2.73433 2.28142,2.90674c0.10595,0.01286 0.21191,0.01929 0.31633,0.01929c1.30271,0 2.43086,-0.97351 2.5901,-2.30071l1.40682,-11.67351l16.97315,-9.79969l-2.49915,20.75478c-0.17364,1.43286 0.84856,2.73434 2.28142,2.90675c0.10595,0.01286 0.21191,0.01929 0.31633,0.01929c1.30271,0 2.43086,-0.97351 2.5901,-2.30041l2.9686,-24.64605l7.98619,-4.61061l-2.24375,20.63505c-0.11239,1.02832 0.39412,2.02755 1.29137,2.54569c0.8945,0.51416 2.16506,0.4569 3.00198,-0.15434l16.89996,-12.26178l0,11.83459l-20.01187,14.89537c-1.1548,0.8651 -1.46409,2.50343 -0.59776,3.65823c0.8651,1.15479 2.6149,1.39212 3.77215,0.52182l16.83748,-12.5426l0,16.986l-9.5593,7.05586c-1.1548,0.86511 -1.46409,2.50344 -0.59776,3.65824c0.86633,1.15234 2.61735,1.39212 3.77215,0.52181l6.38491,-4.70309l0,7.83951c0,1.44326 1.17011,2.61306 2.61306,2.61306s2.61307,-1.1701 2.61307,-2.61306l0,-7.83951l6.11971,4.70309c0.47068,0.35339 0.94473,0.52305 1.48951,0.52305c0.79498,0 1.54218,-0.36105 2.05481,-1.04486c0.86663,-1.1548 0.76558,-2.79313 -0.38922,-3.65824l-9.27512,-7.05586l0,-16.986l16.5726,12.5426c0.47098,0.35339 0.94472,0.52304 1.4895,0.52304c0.79498,0 1.54218,-0.36105 2.05481,-1.04486c0.86663,-1.1548 0.76558,-2.79313 -0.38922,-3.65823l-19.72769,-14.89537l0,-11.83459l16.59679,12.26178c0.45812,0.33441 0.92451,0.50406 1.46807,0.50406c0.45077,0 0.86296,-0.11606 1.26871,-0.34972c0.89726,-0.51814 1.38478,-1.51706 1.27239,-2.54569l-2.25324,-20.63505l10.24402,5.91699l2.96738,24.64636c0.15955,1.3269 1.28647,2.30041 2.58918,2.30041c0.10473,0 0.20977,-0.00643 0.31572,-0.0193c1.43286,-0.1721 2.45475,-1.47358 2.28112,-2.90674l-2.50099,-20.75509l14.71102,8.49331l1.40682,11.67351c0.15955,1.3269 1.28739,2.30071 2.5901,2.30071c0.10473,0 0.21069,-0.00643 0.31633,-0.01929c1.43286,-0.17241 2.45506,-1.47358 2.28142,-2.90674l-0.93767,-7.78194l6.78913,3.91976c0.41219,0.23733 0.86143,0.34941 1.30393,0.34941c0.90338,0 1.78134,-0.46823 2.26611,-1.30669c0.72086,-1.25034 0.29337,-2.84795 -0.95697,-3.57004l-6.78883,-3.91944l7.20867,-3.07915c1.32904,-0.56623 1.94517,-2.10136 1.37742,-3.42826l0,0.00001zm-104.06606,-25.20034l17.07021,-7.52653l13.03624,7.52653l-13.03654,7.52654l-17.06992,-7.52654l0.00001,0zm33.02361,19.57917l-15.20527,11.02124l2.09247,-18.54655l13.1128,-7.52684l0,15.05215zm0,-24.10556l-13.1128,-7.52715l-2.09247,-18.54655l15.20527,11.02124l0,15.05246zm5.22644,-15.05246l14.9021,-11.02124l-1.9412,18.54655l-12.96121,7.52715l0,-15.05246l0.00031,0zm0,39.15802l0,-15.05215l12.96121,7.52684l1.9412,18.54655l-14.90241,-11.02124zm15.34767,-12.05263l-13.03686,-7.52654l13.03686,-7.52653l17.06991,7.52653l-17.06991,7.52654z"/>
        </g>
       </g>
      </g>
     </g>
    </g>
    <g stroke="null" id="svg_178">
     <rect stroke="null" fill="none" id="svg_171" height="202" width="202" y="1931.20693" x="-722.1825" transform="matrix(0.20099826868370657,0,0,0.20099826868370657,321.0360348741098,-51.22848146176776) "/>
     <g stroke="null" id="svg_177" transform="matrix(0.20099826868370657,0,0,0.20099826868370657,321.0360348741098,-51.22848146176776) ">
      <title>Layer 1</title>
      <g stroke="null" id="svg_176">
       <g stroke="null" id="svg_175">
        <g stroke="null" id="svg_174">
         <path stroke="null" fill="#ffffff" id="svg_173" d="m-552.45015,2053.8008c-0.5653,-1.32568 -2.0989,-1.94334 -3.42856,-1.37682l-10.81392,4.61857l-14.71071,-8.49391l19.22394,-8.21219c1.32843,-0.56652 1.94456,-2.10135 1.37681,-3.42856c-0.56653,-1.3269 -2.10043,-1.94456 -3.42856,-1.37681l-22.82919,9.75161l-10.24923,-5.9176l18.99181,-8.37388c0.94809,-0.4174 1.55933,-1.35508 1.55933,-2.39105c0,-1.03599 -0.61124,-1.97396 -1.55933,-2.39105l-18.99181,-8.37388l10.24923,-5.9176l22.82919,9.75161c0.33441,0.14301 0.68259,0.21191 1.02465,0.21191c1.01424,0 1.98039,-0.59592 2.40391,-1.58872c0.56775,-1.3269 -0.04869,-2.86203 -1.37681,-3.42856l-19.22394,-8.21219l14.71071,-8.49331l10.81392,4.61826c0.33441,0.14301 0.68259,0.21191 1.02465,0.21191c1.01577,0 1.9804,-0.59592 2.40391,-1.58872c0.56776,-1.3269 -0.04838,-2.86204 -1.37681,-3.42856l-7.20867,-3.07915l6.78883,-3.91945c1.25034,-0.72209 1.67784,-2.3197 0.95697,-3.57004c-0.72362,-1.25034 -2.32368,-1.68029 -3.57034,-0.95697l-6.78914,3.91975l0.93768,-7.78193c0.17363,-1.43285 -0.84857,-2.73433 -2.28142,-2.90674c-1.4304,-0.17486 -2.73433,0.84703 -2.90674,2.28142l-1.40683,11.67351l-14.71101,8.49331l2.50068,-20.75509c0.17363,-1.43285 -0.84857,-2.73434 -2.28142,-2.90674c-1.43683,-0.18006 -2.73433,0.84703 -2.90674,2.28142l-2.96983,24.64636l-10.24862,5.91699l2.24375,-20.63505c0.11239,-1.02832 -0.39412,-2.02755 -1.29137,-2.5457c-0.89818,-0.51538 -1.86066,-0.45812 -2.69881,0.15434l-16.59679,12.26179l0,-9.22121l19.7087,-14.89537c1.1548,-0.8651 1.3122,-2.50343 0.44588,-3.65823c-0.86266,-1.15235 -2.38585,-1.38968 -3.54432,-0.52182l-16.61056,12.5426l0,-19.59846l9.25613,-7.05586c1.15479,-0.8651 1.31219,-2.50344 0.44587,-3.65823c-0.86265,-1.15235 -2.38431,-1.38968 -3.54432,-0.52182l-6.15768,4.70309l0,-7.8395c0,-1.44296 -1.17011,-2.61307 -2.61307,-2.61307s-2.61307,1.17011 -2.61307,2.61307l0,7.8395l-6.42288,-4.70309c-1.15479,-0.86755 -2.86785,-0.63022 -3.73417,0.52182c-0.86633,1.15479 -0.51907,2.79313 0.63573,3.65823l9.52132,7.05586l0,19.59907l-16.87545,-12.5426c-1.15725,-0.86755 -2.86907,-0.63022 -3.73418,0.52182c-0.86632,1.1548 -0.51906,2.79313 0.63574,3.65823l19.97389,14.89537l0,9.22121l-16.89995,-12.26178c-0.8357,-0.61124 -2.02816,-0.66973 -2.92634,-0.15434c-0.89695,0.51814 -1.44112,1.51706 -1.32935,2.54569l2.22508,20.63505l-7.99569,-4.61061l-2.97288,-24.64606c-0.17272,-1.43407 -1.47359,-2.44861 -2.9092,-2.28142c-1.43285,0.17211 -2.45627,1.47359 -2.28233,2.90676l2.49853,20.75477l-16.97375,-9.79969l-1.40682,-11.67351c-0.17088,-1.43285 -1.47879,-2.44097 -2.90675,-2.28142c-1.43285,0.1721 -2.45505,1.47358 -2.28142,2.90674l0.93738,7.78194l-6.78914,-3.91976c-1.25432,-0.72331 -2.84794,-0.29337 -3.57003,0.95697c-0.72087,1.25034 -0.29337,2.84795 0.95697,3.57004l6.78882,3.91945l-7.20775,3.07915c-1.32812,0.56654 -1.94456,2.10166 -1.37681,3.42857c0.42352,0.9928 1.38814,1.58871 2.40391,1.58871c0.34206,0 0.69024,-0.0689 1.02465,-0.21191l10.81331,-4.61825l16.97375,9.79968l-19.22424,8.2125c-1.3269,0.56653 -1.94334,2.10135 -1.37559,3.42978c0.42352,0.99158 1.38815,1.5872 2.40391,1.5872c0.34206,0 0.69025,-0.06891 1.02588,-0.21192l22.82766,-9.7513l7.98588,4.61061l-18.99181,8.37388c-0.94809,0.41739 -1.55933,1.35507 -1.55933,2.39105c0,1.03597 0.61123,1.97396 1.55933,2.39105l18.99181,8.37387l-7.98588,4.61061l-22.82766,-9.7513c-1.33333,-0.56775 -2.86449,0.04838 -3.42979,1.37559c-0.56775,1.32843 0.04869,2.86325 1.37559,3.42978l19.22424,8.2125l-16.97375,9.79999l-10.81331,-4.61857c-1.32812,-0.56653 -2.86203,0.05114 -3.42856,1.37681c-0.56775,1.3269 0.04869,2.86203 1.37681,3.42856l7.20837,3.07915l-6.78883,3.91945c-1.25034,0.72209 -1.67784,2.31969 -0.95697,3.57003c0.48476,0.83846 1.36272,1.30669 2.2661,1.30669c0.44281,0 0.89328,-0.11208 1.30393,-0.34971l6.78914,-3.91977l-0.93737,7.78194c-0.17364,1.43285 0.84856,2.73433 2.28142,2.90674c0.10595,0.01286 0.21191,0.01929 0.31633,0.01929c1.30271,0 2.43086,-0.97351 2.5901,-2.30071l1.40682,-11.67351l16.97315,-9.79969l-2.49915,20.75479c-0.17364,1.43286 0.84856,2.73434 2.28142,2.90675c0.10595,0.01286 0.21191,0.01929 0.31633,0.01929c1.30271,0 2.43086,-0.97351 2.5901,-2.30041l2.9686,-24.64605l7.98619,-4.61061l-2.24375,20.63505c-0.11239,1.02832 0.39412,2.02755 1.29137,2.54569c0.8945,0.51416 2.16506,0.4569 3.00198,-0.15434l16.89996,-12.26178l0,11.83459l-20.01187,14.89537c-1.1548,0.8651 -1.46409,2.50343 -0.59776,3.65823c0.8651,1.15479 2.6149,1.39212 3.77215,0.52182l16.83748,-12.5426l0,16.986l-9.5593,7.05586c-1.1548,0.86511 -1.46409,2.50344 -0.59776,3.65824c0.86633,1.15234 2.61735,1.39212 3.77215,0.52181l6.38491,-4.70309l0,7.83951c0,1.44326 1.17011,2.61306 2.61306,2.61306s2.61307,-1.1701 2.61307,-2.61306l0,-7.83951l6.11971,4.70309c0.47068,0.35339 0.94473,0.52305 1.48951,0.52305c0.79498,0 1.54218,-0.36105 2.05481,-1.04486c0.86663,-1.1548 0.76558,-2.79313 -0.38922,-3.65824l-9.27512,-7.05586l0,-16.986l16.5726,12.5426c0.47098,0.35339 0.94472,0.52304 1.4895,0.52304c0.79498,0 1.54218,-0.36105 2.05481,-1.04486c0.86663,-1.1548 0.76558,-2.79313 -0.38922,-3.65823l-19.72769,-14.89537l0,-11.83459l16.59679,12.26178c0.45812,0.33441 0.92451,0.50406 1.46807,0.50406c0.45077,0 0.86296,-0.11606 1.26871,-0.34972c0.89726,-0.51814 1.38478,-1.51706 1.27239,-2.54569l-2.25324,-20.63505l10.24402,5.91699l2.96738,24.64636c0.15955,1.3269 1.28647,2.30041 2.58918,2.30041c0.10473,0 0.20977,-0.00643 0.31572,-0.0193c1.43286,-0.1721 2.45475,-1.47358 2.28112,-2.90674l-2.50099,-20.75509l14.71102,8.49331l1.40682,11.67351c0.15955,1.3269 1.28739,2.30071 2.5901,2.30071c0.10473,0 0.21069,-0.00643 0.31633,-0.01929c1.43286,-0.17241 2.45506,-1.47358 2.28142,-2.90674l-0.93767,-7.78194l6.78913,3.91976c0.41219,0.23733 0.86143,0.34941 1.30393,0.34941c0.90338,0 1.78134,-0.46823 2.26611,-1.30669c0.72086,-1.25034 0.29337,-2.84795 -0.95697,-3.57004l-6.78883,-3.91944l7.20867,-3.07915c1.32904,-0.56623 1.94517,-2.10136 1.37742,-3.42826zm-104.06606,-25.20033l17.07021,-7.52654l13.03624,7.52654l-13.03654,7.52654l-17.06992,-7.52654l0.00001,0zm33.02361,19.57916l-15.20527,11.02124l2.09247,-18.54655l13.1128,-7.52684l0,15.05215zm0,-24.10556l-13.1128,-7.52715l-2.09247,-18.54655l15.20527,11.02124l0,15.05246zm5.22644,-15.05246l14.9021,-11.02124l-1.9412,18.54655l-12.96121,7.52715l0,-15.05247l0.00031,0l0,0.00001zm0,39.15802l0,-15.05215l12.96121,7.52684l1.9412,18.54655l-14.90241,-11.02124zm15.34767,-12.05263l-13.03686,-7.52653l13.03686,-7.52654l17.06991,7.52654l-17.06991,7.52653z"/>
        </g>
       </g>
      </g>
     </g>
    </g>
    <g stroke="null" id="svg_186">
     <rect stroke="null" fill="none" id="svg_179" height="202" width="202" y="1728.93675" x="-931.19499" transform="matrix(0.20099826868370657,0,0,0.20099826868370657,321.0360348741098,-51.22848146176776) "/>
     <g stroke="null" id="svg_185" transform="matrix(0.20099826868370657,0,0,0.20099826868370657,321.0360348741098,-51.22848146176776) ">
      <title>Layer 1</title>
      <g stroke="null" id="svg_184">
       <g stroke="null" id="svg_183">
        <g stroke="null" id="svg_182">
         <path stroke="null" fill="#ffffff" id="svg_181" d="m-761.46265,1851.53061c-0.5653,-1.32567 -2.0989,-1.94334 -3.42856,-1.37681l-10.81392,4.61858l-14.71071,-8.49392l19.22394,-8.21219c1.32843,-0.56652 1.94456,-2.10135 1.37681,-3.42856c-0.56653,-1.3269 -2.10043,-1.94456 -3.42856,-1.37681l-22.82919,9.75161l-10.24923,-5.9176l18.99181,-8.37388c0.94809,-0.4174 1.55933,-1.35508 1.55933,-2.39105c0,-1.03599 -0.61124,-1.97396 -1.55933,-2.39105l-18.99181,-8.37388l10.24923,-5.9176l22.82919,9.75161c0.33441,0.14301 0.68259,0.21191 1.02465,0.21191c1.01424,0 1.98039,-0.59592 2.40391,-1.58872c0.56775,-1.3269 -0.04869,-2.86203 -1.37681,-3.42856l-19.22394,-8.21219l14.71071,-8.49331l10.81392,4.61826c0.33441,0.14301 0.68259,0.21191 1.02465,0.21191c1.01577,0 1.9804,-0.59592 2.40391,-1.58872c0.56776,-1.3269 -0.04838,-2.86203 -1.37681,-3.42856l-7.20867,-3.07915l6.78883,-3.91945c1.25034,-0.72209 1.67784,-2.3197 0.95697,-3.57004c-0.72362,-1.25034 -2.32368,-1.68029 -3.57034,-0.95697l-6.78914,3.91975l0.93768,-7.78193c0.17363,-1.43285 -0.84857,-2.73433 -2.28142,-2.90674c-1.4304,-0.17486 -2.73433,0.84703 -2.90674,2.28142l-1.40683,11.67351l-14.71101,8.49331l2.50068,-20.75509c0.17363,-1.43285 -0.84857,-2.73434 -2.28142,-2.90674c-1.43683,-0.18006 -2.73433,0.84703 -2.90674,2.28142l-2.96983,24.64636l-10.24862,5.91699l2.24375,-20.63505c0.11239,-1.02832 -0.39412,-2.02755 -1.29137,-2.5457c-0.89818,-0.51538 -1.86066,-0.45812 -2.69881,0.15434l-16.59679,12.26179l0,-9.22121l19.7087,-14.89537c1.1548,-0.8651 1.3122,-2.50343 0.44588,-3.65823c-0.86266,-1.15235 -2.38585,-1.38968 -3.54432,-0.52182l-16.61056,12.5426l0,-19.59846l9.25613,-7.05586c1.15479,-0.8651 1.31219,-2.50344 0.44587,-3.65823c-0.86265,-1.15235 -2.38431,-1.38968 -3.54432,-0.52182l-6.15768,4.70309l0,-7.8395c0,-1.44296 -1.17011,-2.61307 -2.61307,-2.61307s-2.61307,1.17011 -2.61307,2.61307l0,7.8395l-6.42288,-4.70309c-1.15479,-0.86755 -2.86785,-0.63022 -3.73417,0.52182c-0.86633,1.15479 -0.51907,2.79313 0.63573,3.65823l9.52132,7.05586l0,19.59907l-16.87545,-12.5426c-1.15725,-0.86755 -2.86907,-0.63022 -3.73418,0.52182c-0.86632,1.1548 -0.51906,2.79313 0.63574,3.65823l19.97389,14.89537l0,9.22122l-16.89995,-12.26179c-0.8357,-0.61123 -2.02816,-0.66973 -2.92634,-0.15434c-0.89695,0.51814 -1.44112,1.51706 -1.32935,2.54569l2.22508,20.63505l-7.99569,-4.61061l-2.97288,-24.64606c-0.17272,-1.43407 -1.47359,-2.44861 -2.9092,-2.28142c-1.43285,0.17211 -2.45627,1.47359 -2.28233,2.90676l2.49853,20.75478l-16.97375,-9.7997l-1.40682,-11.67351c-0.17088,-1.43285 -1.47879,-2.44097 -2.90675,-2.28142c-1.43285,0.1721 -2.45505,1.47358 -2.28142,2.90674l0.93738,7.78194l-6.78914,-3.91976c-1.25432,-0.72331 -2.84794,-0.29337 -3.57003,0.95697c-0.72087,1.25034 -0.29337,2.84795 0.95697,3.57004l6.78882,3.91945l-7.20775,3.07915c-1.32812,0.56654 -1.94456,2.10167 -1.37681,3.42857c0.42352,0.9928 1.38814,1.58872 2.40391,1.58872c0.34206,0 0.69024,-0.0689 1.02465,-0.21191l10.81331,-4.61826l16.97375,9.79968l-19.22424,8.2125c-1.3269,0.56653 -1.94334,2.10135 -1.37559,3.42978c0.42352,0.99158 1.38815,1.5872 2.40391,1.5872c0.34206,0 0.69025,-0.06891 1.02588,-0.21192l22.82766,-9.7513l7.98588,4.61061l-18.99181,8.37388c-0.94809,0.41739 -1.55933,1.35507 -1.55933,2.39105c0,1.03597 0.61123,1.97396 1.55933,2.39105l18.99181,8.37387l-7.98588,4.61061l-22.82766,-9.7513c-1.33333,-0.56775 -2.86449,0.04838 -3.42979,1.37559c-0.56775,1.32843 0.04869,2.86325 1.37559,3.42978l19.22424,8.2125l-16.97375,9.79999l-10.81331,-4.61857c-1.32812,-0.56653 -2.86203,0.05114 -3.42856,1.37681c-0.56775,1.3269 0.04869,2.86203 1.37681,3.42856l7.20837,3.07915l-6.78883,3.91945c-1.25034,0.72209 -1.67784,2.31969 -0.95697,3.57003c0.48476,0.83846 1.36272,1.30669 2.2661,1.30669c0.44281,0 0.89328,-0.11208 1.30393,-0.34971l6.78914,-3.91976l-0.93737,7.78194c-0.17364,1.43285 0.84856,2.73433 2.28142,2.90674c0.10595,0.01286 0.21191,0.01929 0.31633,0.01929c1.30271,0 2.43086,-0.97351 2.5901,-2.30071l1.40682,-11.67351l16.97315,-9.79969l-2.49915,20.75478c-0.17364,1.43286 0.84856,2.73434 2.28142,2.90675c0.10595,0.01286 0.21191,0.01929 0.31633,0.01929c1.30271,0 2.43086,-0.97351 2.5901,-2.30041l2.9686,-24.64605l7.98619,-4.61061l-2.24375,20.63505c-0.11239,1.02832 0.39412,2.02755 1.29137,2.54569c0.8945,0.51416 2.16506,0.4569 3.00198,-0.15434l16.89996,-12.26178l0,11.83458l-20.01187,14.89537c-1.1548,0.8651 -1.46409,2.50343 -0.59776,3.65823c0.8651,1.15479 2.6149,1.39212 3.77215,0.52182l16.83748,-12.5426l0,16.986l-9.5593,7.05586c-1.1548,0.86511 -1.46409,2.50344 -0.59776,3.65824c0.86633,1.15234 2.61735,1.39212 3.77215,0.52181l6.38491,-4.70309l0,7.83951c0,1.44326 1.17011,2.61306 2.61306,2.61306s2.61307,-1.1701 2.61307,-2.61306l0,-7.83951l6.11971,4.70309c0.47068,0.35339 0.94473,0.52305 1.48951,0.52305c0.79498,0 1.54218,-0.36105 2.05481,-1.04486c0.86663,-1.1548 0.76558,-2.79313 -0.38922,-3.65824l-9.27512,-7.05586l0,-16.986l16.5726,12.5426c0.47098,0.35339 0.94472,0.52304 1.4895,0.52304c0.79498,0 1.54218,-0.36105 2.05481,-1.04486c0.86663,-1.1548 0.76558,-2.79313 -0.38922,-3.65823l-19.72769,-14.89537l0,-11.83458l16.59679,12.26178c0.45812,0.33441 0.92451,0.50406 1.46807,0.50406c0.45077,0 0.86296,-0.11606 1.26871,-0.34972c0.89726,-0.51814 1.38478,-1.51706 1.27239,-2.54569l-2.25324,-20.63505l10.24402,5.91699l2.96738,24.64636c0.15955,1.3269 1.28647,2.30041 2.58918,2.30041c0.10473,0 0.20977,-0.00643 0.31572,-0.0193c1.43286,-0.1721 2.45475,-1.47358 2.28112,-2.90674l-2.50099,-20.75509l14.71102,8.49331l1.40682,11.67351c0.15955,1.3269 1.28739,2.30071 2.5901,2.30071c0.10473,0 0.21069,-0.00643 0.31633,-0.01929c1.43286,-0.17241 2.45506,-1.47358 2.28142,-2.90674l-0.93767,-7.78194l6.78913,3.91976c0.41219,0.23733 0.86143,0.34941 1.30393,0.34941c0.90338,0 1.78134,-0.46823 2.26611,-1.30669c0.72086,-1.25034 0.29337,-2.84795 -0.95697,-3.57004l-6.78883,-3.91944l7.20867,-3.07915c1.32904,-0.56623 1.94517,-2.10136 1.37742,-3.42826l0,-0.00001zm-104.06606,-25.20032l17.07021,-7.52655l13.03624,7.52655l-13.03654,7.52654l-17.06992,-7.52654l0.00001,0zm33.02361,19.57916l-15.20527,11.02124l2.09247,-18.54655l13.1128,-7.52684l0,15.05215zm0,-24.10556l-13.1128,-7.52715l-2.09247,-18.54655l15.20527,11.02124l0,15.05246zm5.22644,-15.05247l14.9021,-11.02124l-1.9412,18.54655l-12.96121,7.52715l0,-15.05246l0.00031,0zm0,39.15803l0,-15.05215l12.96121,7.52684l1.9412,18.54655l-14.90241,-11.02124zm15.34767,-12.05263l-13.03686,-7.52653l13.03686,-7.52655l17.06991,7.52655l-17.06991,7.52653z"/>
        </g>
       </g>
      </g>
     </g>
    </g>
    <g stroke="null" id="svg_26">
     <rect stroke="null" fill="none" id="svg_13" height="202" width="202" y="1153.59044" x="-931.19501" transform="matrix(0.20099826868370657,0,0,0.20099826868370657,321.0360348741098,-51.22848146176776) "/>
     <g stroke="null" id="svg_25" transform="matrix(0.20099826868370657,0,0,0.20099826868370657,321.0360348741098,-51.22848146176776) ">
      <title>Layer 1</title>
      <g stroke="null" id="svg_24">
       <g stroke="null" id="svg_20">
        <g stroke="null" id="svg_18">
         <path stroke="null" fill="#ffffff" id="svg_17" d="m-761.46266,1276.18429c-0.5653,-1.32567 -2.0989,-1.94334 -3.42856,-1.37681l-10.81392,4.61857l-14.71071,-8.49392l19.22394,-8.21219c1.32843,-0.56652 1.94456,-2.10135 1.37681,-3.42856c-0.56653,-1.3269 -2.10043,-1.94456 -3.42856,-1.37681l-22.82919,9.75161l-10.24923,-5.9176l18.99181,-8.37388c0.94809,-0.41739 1.55933,-1.35507 1.55933,-2.39105c0,-1.03598 -0.61124,-1.97396 -1.55933,-2.39105l-18.99181,-8.37388l10.24923,-5.9176l22.82919,9.75161c0.33441,0.14301 0.68259,0.21191 1.02465,0.21191c1.01424,0 1.98039,-0.59592 2.40391,-1.58872c0.56775,-1.3269 -0.04869,-2.86203 -1.37681,-3.42856l-19.22394,-8.21219l14.71071,-8.49331l10.81392,4.61827c0.33441,0.14301 0.68259,0.21191 1.02465,0.21191c1.01577,0 1.9804,-0.59592 2.40391,-1.58872c0.56776,-1.3269 -0.04838,-2.86204 -1.37681,-3.42856l-7.20867,-3.07915l6.78883,-3.91945c1.25034,-0.72209 1.67784,-2.3197 0.95697,-3.57004c-0.72362,-1.25034 -2.32368,-1.68029 -3.57034,-0.95697l-6.78914,3.91975l0.93768,-7.78193c0.17363,-1.43285 -0.84857,-2.73433 -2.28142,-2.90674c-1.4304,-0.17486 -2.73433,0.84703 -2.90674,2.28142l-1.40683,11.67351l-14.71101,8.49331l2.50068,-20.75509c0.17363,-1.43285 -0.84857,-2.73434 -2.28142,-2.90674c-1.43683,-0.18007 -2.73433,0.84703 -2.90674,2.28142l-2.96983,24.64636l-10.24862,5.91699l2.24375,-20.63505c0.11239,-1.02832 -0.39412,-2.02755 -1.29137,-2.5457c-0.89818,-0.51538 -1.86066,-0.45812 -2.69881,0.15434l-16.59679,12.26179l0,-9.22122l19.7087,-14.89537c1.1548,-0.8651 1.3122,-2.50343 0.44588,-3.65823c-0.86266,-1.15235 -2.38585,-1.38968 -3.54432,-0.52182l-16.61056,12.5426l0,-19.59846l9.25613,-7.05586c1.15479,-0.8651 1.31219,-2.50344 0.44587,-3.65823c-0.86265,-1.15235 -2.38431,-1.38968 -3.54432,-0.52182l-6.15768,4.70309l0,-7.8395c0,-1.44296 -1.17011,-2.61307 -2.61307,-2.61307s-2.61307,1.17011 -2.61307,2.61307l0,7.8395l-6.42288,-4.70309c-1.15479,-0.86755 -2.86785,-0.63022 -3.73417,0.52182c-0.86633,1.15479 -0.51907,2.79313 0.63573,3.65823l9.52132,7.05586l0,19.59907l-16.87545,-12.5426c-1.15725,-0.86755 -2.86907,-0.63022 -3.73418,0.52182c-0.86632,1.1548 -0.51906,2.79313 0.63574,3.65823l19.97389,14.89537l0,9.22122l-16.89995,-12.26178c-0.8357,-0.61124 -2.02816,-0.66973 -2.92634,-0.15434c-0.89695,0.51814 -1.44112,1.51706 -1.32935,2.54569l2.22508,20.63505l-7.99569,-4.61061l-2.97288,-24.64606c-0.17272,-1.43407 -1.47359,-2.44862 -2.9092,-2.28142c-1.43285,0.17211 -2.45627,1.47359 -2.28233,2.90675l2.49853,20.75478l-16.97375,-9.79969l-1.40682,-11.67351c-0.17088,-1.43285 -1.47879,-2.44097 -2.90675,-2.28142c-1.43285,0.1721 -2.45505,1.47358 -2.28142,2.90674l0.93738,7.78194l-6.78914,-3.91976c-1.25432,-0.72331 -2.84794,-0.29337 -3.57003,0.95697c-0.72087,1.25034 -0.29337,2.84795 0.95697,3.57004l6.78882,3.91945l-7.20775,3.07915c-1.32812,0.56653 -1.94456,2.10166 -1.37681,3.42856c0.42352,0.9928 1.38814,1.58872 2.40391,1.58872c0.34206,0 0.69024,-0.0689 1.02465,-0.21191l10.81331,-4.61826l16.97375,9.79968l-19.22424,8.2125c-1.3269,0.56653 -1.94334,2.10135 -1.37559,3.42978c0.42352,0.99158 1.38815,1.5872 2.40391,1.5872c0.34206,0 0.69025,-0.06891 1.02588,-0.21192l22.82766,-9.7513l7.98588,4.61061l-18.99181,8.37388c-0.94809,0.41739 -1.55933,1.35507 -1.55933,2.39105c0,1.03597 0.61123,1.97396 1.55933,2.39105l18.99181,8.37387l-7.98588,4.61061l-22.82766,-9.7513c-1.33333,-0.56775 -2.86449,0.04838 -3.42979,1.37559c-0.56775,1.32843 0.04869,2.86325 1.37559,3.42978l19.22424,8.2125l-16.97375,9.79999l-10.81331,-4.61857c-1.32812,-0.56653 -2.86203,0.05114 -3.42856,1.37681c-0.56775,1.3269 0.04869,2.86203 1.37681,3.42856l7.20837,3.07915l-6.78883,3.91945c-1.25034,0.72209 -1.67784,2.31969 -0.95697,3.57003c0.48476,0.83846 1.36272,1.30669 2.2661,1.30669c0.44281,0 0.89328,-0.11208 1.30393,-0.34971l6.78914,-3.91976l-0.93737,7.78194c-0.17364,1.43285 0.84856,2.73433 2.28142,2.90674c0.10595,0.01286 0.21191,0.01929 0.31633,0.01929c1.30271,0 2.43086,-0.97351 2.5901,-2.30071l1.40682,-11.67351l16.97315,-9.79969l-2.49915,20.75478c-0.17364,1.43286 0.84856,2.73434 2.28142,2.90675c0.10595,0.01286 0.21191,0.01929 0.31633,0.01929c1.30271,0 2.43086,-0.97351 2.5901,-2.30041l2.9686,-24.64605l7.98619,-4.61061l-2.24375,20.63505c-0.11239,1.02832 0.39412,2.02755 1.29137,2.54569c0.8945,0.51416 2.16506,0.4569 3.00198,-0.15434l16.89996,-12.26178l0,11.83459l-20.01187,14.89537c-1.1548,0.8651 -1.46409,2.50343 -0.59776,3.65823c0.8651,1.15479 2.6149,1.39212 3.77215,0.52182l16.83748,-12.5426l0,16.986l-9.5593,7.05586c-1.1548,0.86511 -1.46409,2.50344 -0.59776,3.65824c0.86633,1.15234 2.61735,1.39212 3.77215,0.52181l6.38491,-4.70309l0,7.83951c0,1.44326 1.17011,2.61306 2.61306,2.61306s2.61307,-1.1701 2.61307,-2.61306l0,-7.83951l6.11971,4.70309c0.47068,0.35339 0.94473,0.52305 1.48951,0.52305c0.79498,0 1.54218,-0.36105 2.05481,-1.04486c0.86663,-1.1548 0.76558,-2.79313 -0.38922,-3.65824l-9.27512,-7.05586l0,-16.986l16.5726,12.5426c0.47098,0.35339 0.94472,0.52304 1.4895,0.52304c0.79498,0 1.54218,-0.36105 2.05481,-1.04486c0.86663,-1.1548 0.76558,-2.79313 -0.38922,-3.65823l-19.72769,-14.89537l0,-11.83459l16.59679,12.26178c0.45812,0.33441 0.92451,0.50406 1.46807,0.50406c0.45077,0 0.86296,-0.11606 1.26871,-0.34972c0.89726,-0.51814 1.38478,-1.51706 1.27239,-2.54569l-2.25324,-20.63505l10.24402,5.91699l2.96738,24.64636c0.15955,1.3269 1.28647,2.30041 2.58918,2.30041c0.10473,0 0.20977,-0.00643 0.31572,-0.0193c1.43286,-0.1721 2.45475,-1.47358 2.28112,-2.90674l-2.50099,-20.75509l14.71102,8.49331l1.40682,11.67351c0.15955,1.3269 1.28739,2.30071 2.5901,2.30071c0.10473,0 0.21069,-0.00643 0.31633,-0.01929c1.43286,-0.17241 2.45506,-1.47358 2.28142,-2.90674l-0.93767,-7.78194l6.78913,3.91976c0.41219,0.23733 0.86143,0.34941 1.30393,0.34941c0.90338,0 1.78134,-0.46823 2.26611,-1.30669c0.72086,-1.25034 0.29337,-2.84795 -0.95697,-3.57004l-6.78883,-3.91944l7.20867,-3.07915c1.32904,-0.56623 1.94517,-2.10136 1.37742,-3.42826zm-104.06606,-25.20033l17.07021,-7.52654l13.03624,7.52654l-13.03654,7.52654l-17.06992,-7.52654l0.00001,0zm33.02361,19.57916l-15.20527,11.02124l2.09247,-18.54655l13.1128,-7.52684l0,15.05215zm0,-24.10556l-13.1128,-7.52715l-2.09247,-18.54655l15.20527,11.02124l0,15.05246zm5.22644,-15.05246l14.9021,-11.02124l-1.9412,18.54655l-12.96121,7.52715l0,-15.05246l0.00031,0zm0,39.15802l0,-15.05215l12.96121,7.52684l1.9412,18.54655l-14.90241,-11.02124zm15.34767,-12.05263l-13.03686,-7.52653l13.03686,-7.52654l17.06991,7.52654l-17.06991,7.52653z"/>
        </g>
       </g>
      </g>
     </g>
    </g>
   </g>
  </g>
  <metadata>government icon - symbolgovernmenticonsymbollawparliamentstatecapitolpresidentOpen Clip Art Librarymomo18 09 2005image/svg+xmlen</metadata>
  <defs>
   <style type="text/css">.fil0 {fill:#ffffff}</style>
  </defs>
  <!-- Created with the Wikimedia parliament diagram creator (http://tools.wmflabs.org/parliamentdiagram/parliamentinputform.html) -->
  <g stroke="null" id="svg_227">
   <g stroke="null" id="svg_36" transform="matrix(0.02017087182290248,0,0,-0.02017087182290248,-60840.94833179396,-41093.614434648225) ">
    <g stroke="null" id="svg_12">
     <g stroke="null" id="svg_11" clip-path="url(#svg_218)">
      <g stroke="null" id="svg_5">
       <path stroke="null" fill="#ffffff" fill-rule="nonzero" d="m3031959.14792,-2059892.67967l0,852.991l631.641,0l0,571.734l-631.641,0l0,770.002l-687.003,-108.812l0,-2095.136c0,-156.766 14.554,-299.7 43.804,-428.801c29.176,-129.101 80.686,-239.039 154.459,-329.669c73.772,-90.703 172.11,-161.377 295.09,-212.096c122.904,-50.718 278.158,-76.077 465.684,-76.077c147.545,0 272.035,12.32 373.474,36.885c101.434,24.568 193.651,53.745 276.643,87.605l-96.826,534.849c-64.549,-24.639 -136.016,-43.802 -214.399,-57.635c-78.383,-13.832 -154.459,-20.748 -228.234,-20.748c-153.74,0 -255.895,43.01 -306.615,129.101c-50.717,86.02 -76.077,201.287 -76.077,345.807" id="svg_3"/>
      </g>
      <g stroke="null" id="svg_10">
       <path stroke="null" fill="#ffffff" fill-rule="nonzero" d="m3027020.65183,-2060893.21485c126.652,267.208 251.502,545.295 374.408,834.26c122.906,288.965 239.615,574.832 350.274,857.674c110.658,282.768 212.527,553.074 305.679,810.917c93.151,257.769 175.497,488.594 247.108,692.405l-765.747,0c-60.084,-186.016 -126.723,-385.648 -199.92,-598.895c-73.195,-213.319 -147.688,-425.918 -223.621,-637.724c-75.934,-211.879 -149.562,-414.824 -220.74,-608.836c-71.179,-194.084 -136.81,-361.226 -196.822,-501.42c-63.686,141.132 -130.326,308.703 -199.92,502.788c-69.594,194.085 -142.357,397.029 -218.291,608.908c-75.933,211.808 -150.57,424.405 -223.765,637.726c-73.196,213.248 -139.692,412.447 -199.488,597.453l-793.051,0c67.865,-202.801 148.553,-433.339 241.921,-691.686c93.368,-258.345 195.669,-528.797 307.048,-811.277c111.307,-282.553 228.809,-568.132 352.579,-856.736c123.698,-288.677 249.125,-567.197 376.353,-835.557l685.995,0z" id="svg_9"/>
      </g>
     </g>
    </g>
    <g stroke="null" id="svg_27">
     <path stroke="null" fill="#ffffff" fill-rule="nonzero" d="m3031045.28366,-2057697.9553l-686.989,-108.809l0,-3086.437l687.001,0l0,3195.246l-0.012,0z" id="svg_16"/>
    </g>
    <g stroke="null" id="svg_35">
     <g stroke="null" id="svg_30" clip-path="url(#svg_211)">
      <g stroke="null" id="svg_29">
       <path stroke="null" fill="#ffffff" fill-rule="nonzero" d="m3029542.9614,-2059712.82615c0,-340.375 -275.93,-616.305 -616.305,-616.305c-340.378,0 -616.307,275.93 -616.307,616.305c0,340.375 275.929,616.305 616.307,616.305c340.375,0 616.305,-275.93 616.305,-616.305m623.352,0c0,687.555 -557.375,1244.938 -1244.934,1244.938c-283.448,0 -544.762,-94.743 -754.03,-254.266c-58.25,-155.531 -119.418,-315.219 -183.56,-479.125c-92.588,-236.656 -189.43,-475.438 -290.575,-716.367c97.679,-590.11 610.369,-1040.118 1228.165,-1040.118c687.559,0 1244.934,557.383 1244.934,1244.938" id="svg_28"/>
      </g>
     </g>
    </g>
   </g>
  </g>
  <use stroke="null" xlink:href="#svg_41" width="293.1" height="296.4" x="118.27003" y="-459.4201" transform="matrix(0.4127850556576201,0,0,-0.4127850556576201,146.72752387887488,127.49171752137514) " id="svg_45" fill="#ffffff"/>
 </g>
 <g>
  <title>Layer 1</title>
  <metadata transform="matrix(0.7281778130425351,0,0,0.7281778130425351,0,0) " id="svg_57">image/svg+xml</metadata>

  <g stroke="null" id="svg_59">
   <path stroke="#ffffff" fill="none" stroke-width="5.5" stroke-linecap="round" stroke-miterlimit="4" stroke-dashoffset="0" d="m229.805275,246.365557a29.814665,30.11391 0 0 1 -14.531662,-30.32562a29.814665,30.11391 0 0 1 22.406111,-24.958171a29.814665,30.11391 0 0 1 31.298859,11.648639a29.814665,30.11391 0 0 1 1.015801,33.675216" id="svg_56"/>
   <path stroke="#ffffff" fill="none" stroke-width="5.5" stroke-linecap="round" stroke-miterlimit="4" stroke-dashoffset="0" d="m228.610623,232.031142a19.04013,19.4569 0 0 1 3.2948,-24.59709a19.04013,19.4569 0 0 1 24.2631,-1.26555a19.04013,19.4569 0 0 1 5.72849,24.12645" id="svg_55"/>
   <g stroke="null" fill="#ffffff" id="svg_53" transform="matrix(3.8792253043105624,0,0,3.8792253043105624,-44.84531121358113,-3.2547585803795167) ">
    <path stroke="#ffffff" fill="none" id="svg_54" d="m74.729231,56.510583c-1.13384,0 -1.86133,0.72749 -1.86133,1.86133l0,10.30078a0.68672,0.68672 0 0 1 0,0.0039c-0.0021,0.49392 -0.34275,0.91413 -0.74805,1.0625c-0.40529,0.14838 -0.93531,0.04569 -1.25585,-0.33008a0.68672,0.68672 0 0 1 -0.002,-0.002c-1.01524,-1.19982 -2.10682,-1.89648 -2.63282,-1.89648c-0.64361,0 -1.05679,0.24924 -1.15234,0.39258a0.68672,0.68672 0 0 1 -0.0059,0.0078c-0.01576,0.02289 -0.03326,0.04815 -0.05273,0.07227c-0.1679,0.20987 -0.41339,0.64086 -0.10156,1.65429c0.15103,0.49086 0.66705,1.71166 1.36523,3.12305c0.69818,1.41139 1.58664,3.04746 2.50781,4.50195c0.66248,1.04085 1.32221,1.89064 1.89063,2.55469l0.0098,0.01172c0.00049,0.00057 0.0015,0.0014 0.002,0.002a0.68672,0.68672 0 0 1 0.03125,0.03711c1.07153,1.36376 1.95811,2.58999 2.00976,4.36523l11.77149,0c0.02061,-2.48724 0.5336,-4.48595 1.02148,-6.4375c0.49782,-1.99121 0.96485,-3.96941 0.96485,-6.42381l0,-3c0,-1.13385 -0.72748,-1.86133 -1.86133,-1.86133c-0.20508,0 -0.51953,0.06705 -0.74023,0.14063l0,-0.002c-0.5974,0.19935 -1.26129,-0.14051 -1.44727,-0.74219a0.68672,0.68672 0 0 1 0,-0.002c-0.27464,-0.89248 -0.8893,-1.39444 -1.8125,-1.39444c-0.34588,0 -0.58721,0.07469 -0.7168,0.17188c-0.52508,0.39361 -1.30094,0.24765 -1.64843,-0.3086l-0.00196,-0.00195c-0.31221,-0.49801 -0.84699,-0.86133 -1.5332,-0.86133c-0.21842,0 -0.34336,0.04153 -0.64063,0.14063c-0.71696,0.2381 -1.49685,-0.32265 -1.49804,-1.07813a0.68672,0.68672 0 0 1 0,-0.002l0,-4.19922c0,-1.13384 -0.72749,-1.86133 -1.86133,-1.86133l0,0.00005z"/>
   </g>
   <g stroke="null" fill="#00ffff" transform="matrix(3.8792253043105624,0,0,3.8792253043105624,158.2707001306334,-57.495740469781445) " id="svg_50"/>
   <g stroke="null" fill="#000000" transform="matrix(3.8792253043105624,0,0,3.8792253043105624,-44.374196188454505,-3.6656911656138105) " id="svg_51">
    <path fill="#ffffff" d="m74.623299,55.823083c-1.46987,0 -2.54883,1.07896 -2.54883,2.54883l0,10.30078a0.45146,0.45146 0 0 1 -0.79492,0.29102c-1.06922,-1.26363 -2.20723,-2.14063 -3.15625,-2.14063c-0.79956,0 -1.44005,0.27239 -1.72461,0.69922a0.45146,0.45146 0 0 1 -0.02344,0.03125c-0.30403,0.38004 -0.58479,1.10187 -0.2207,2.28516c0.36317,1.1803 2.07144,4.82611 3.94922,7.79101c0.68664,1.07901 1.37235,1.96176 1.96093,2.64844a0.45146,0.45146 0 0 1 0.01367,0.01367c1.10058,1.40073 1.89649,2.43948 1.89649,4.08008c0,0.19968 0.05878,0.32245 0.14258,0.40625c0.0838,0.0838 0.20656,0.14258 0.40625,0.14258l12,0c0.19968,0 0.32244,-0.05878 0.40625,-0.14258c0.0838,-0.0838 0.14257,-0.20657 0.14257,-0.40625c0,-2.4627 0.51453,-4.41357 1.01368,-6.41016c0.49915,-1.99659 0.98633,-4.04771 0.98633,-6.58984l0,-3c0,-1.46987 -1.07896,-2.54883 -2.54883,-2.54883c-0.32535,0 -0.68614,0.08548 -0.95703,0.17578a0.45146,0.45146 0 0 1 -0.57422,-0.29492c-0.34877,-1.13351 -1.26204,-1.88086 -2.46875,-1.88086c-0.43958,0 -0.8348,0.08997 -1.12891,0.31055a0.45146,0.45146 0 0 1 -0.65429,-0.12305c-0.42477,-0.67962 -1.18145,-1.1875 -2.11719,-1.1875c-0.32535,0 -0.55809,0.076 -0.85742,0.17578a0.45146,0.45146 0 0 1 -0.59375,-0.42773l0,-4.19922c0,-1.46987 -1.07896,-2.54883 -2.54883,-2.54883zm-0.09961,1.09766c0.40031,0 0.77872,0.14005 1.04492,0.40625c0.2662,0.2662 0.40625,0.64461 0.40625,1.04492l0,9c0,0.19969 0.05878,0.32245 0.14258,0.40625c0.0838,0.0838 0.20656,0.14258 0.40625,0.14258c0.19969,0 0.32245,-0.05878 0.40625,-0.14258c0.0838,-0.0838 0.14258,-0.20656 0.14258,-0.40625l0,-2c0,-0.40031 0.14005,-0.77872 0.40625,-1.04492c0.2662,-0.2662 0.64461,-0.40625 1.04492,-0.40625c0.40031,0 0.77872,0.14005 1.04492,0.40625c0.2662,0.2662 0.40625,0.64461 0.40625,1.04492l0,3c0,0.19969 0.05878,0.32245 0.14258,0.40625c0.0838,0.0838 0.20656,0.14258 0.40625,0.14258c0.19969,0 0.32245,-0.05878 0.40625,-0.14258c0.0838,-0.0838 0.14258,-0.20656 0.14258,-0.40625l0,-2c0,-0.40031 0.14005,-0.77872 0.40625,-1.04492c0.2662,-0.2662 0.64461,-0.40625 1.04492,-0.40625c0.40031,0 0.77872,0.14005 1.04492,0.40625c0.2662,0.2662 0.40625,0.64461 0.40625,1.04492l0,3c0,0.19969 0.05878,0.32245 0.14258,0.40625c0.0838,0.0838 0.20656,0.14258 0.40625,0.14258c0.19969,0 0.32245,-0.05878 0.40625,-0.14258c0.0838,-0.0838 0.14258,-0.20656 0.14258,-0.40625l0,-1c0,-0.40031 0.14005,-0.77872 0.40625,-1.04492c0.2662,-0.2662 0.64461,-0.40625 1.04492,-0.40625c0.40031,0 0.77872,0.14005 1.04492,0.40625c0.2662,0.2662 0.40625,0.64461 0.40625,1.04492l0,3c0,2.36542 -0.51453,4.31206 -1.01367,6.30859l0.0039,-0.01172c-0.40345,1.81553 -0.89283,3.57968 -0.99023,5.72266a0.45146,0.45146 0 0 1 -0.45117,0.43164l-10.09961,0a0.45146,0.45146 0 0 1 -0.44922,-0.39844c-0.18222,-1.54889 -1.08429,-2.5488 -2.18359,-3.74804a0.45146,0.45146 0 0 1 -0.0293,-0.0332c-0.58801,-0.78401 -1.20137,-1.50301 -1.82031,-2.53321l-0.002,-0.002c-0.00086,-0.0014 -0.0011,-0.0025 -0.002,-0.0039c-1.00726,-1.61214 -1.88628,-3.22127 -2.55469,-4.57031c-0.66931,-1.35084 -1.12388,-2.41582 -1.29492,-3.04297a0.45146,0.45146 0 0 1 -0.0078,-0.03125c-0.05341,-0.26704 -0.08399,-0.48727 -0.08399,-0.6875c0,-0.20022 -0.00082,-0.40933 0.20898,-0.61914c0.15661,-0.1566 0.33166,-0.19764 0.4668,-0.21679c0.13514,-0.01916 0.25186,-0.01563 0.35156,-0.01563c0.37913,0 0.65645,0.1799 0.98242,0.41992c0.32598,0.24002 0.67691,0.56858 1.03125,0.96875c0.70868,0.80034 1.43234,1.88654 1.90625,3.09765a0.45146,0.45146 0 0 1 0.03125,0.16407l0,0.80078c0,0.19968 0.05878,0.32245 0.14258,0.40625c0.0838,0.0838 0.20657,0.14258 0.40625,0.14258c0.19969,0 0.32245,-0.05878 0.40625,-0.14258c0.0838,-0.0838 0.14258,-0.20657 0.14258,-0.40625l0,-15c0,-0.40032 0.14005,-0.77872 0.40625,-1.04492c0.26629,-0.26616 0.6447,-0.40621 1.04501,-0.40621z" id="svg_52"/>
   </g>
  </g>
 </g>
</svg>