<svg width="512" height="512" xmlns="http://www.w3.org/2000/svg" xmlns:xlink="http://www.w3.org/1999/xlink">
 <defs>
  <rect height="8" width="8" id="p" fill="#60278e"/>
  <style type="text/css">@import url('https://fonts.googleapis.com/css?family=Ubuntu');</style>
 </defs>
 <g>
  <title>background</title>
  <rect x="-1" y="-1" width="514" height="514" id="canvas_background" fill="#612095"/>
 </g>
 <g>
  <title>Layer 1</title>
  <defs>
   <style type="text/css">
    <![CDATA[
    .outline { stroke:none; stroke-width:0 }
  ]]>
   </style>
   <g id="svg_4">
    <path d="m-815.08979,23.26693l-143.72219,-381.08317l374.40909,-146.28413a187.20454,190.54158 90 0 1 143.72218,381.08317a187.20454,190.54158 90 0 1 -374.40908,146.28413z" id="svg_6"/>
   </g>
   <g id="heart">
    <path id="svg_1" d="m-765.94367,-6.17853l-143.72218,-381.08317l374.40909,-146.28413a187.20454,190.54158 90 0 1 143.72218,381.08317a187.20454,190.54158 90 0 1 -374.40909,146.28413z"/>
   </g>
  </defs>
  <desc>a nearly perfect heart
	 made of two arcs and a right angle</desc>
  <metadata id="svg_19">image/svg+xml</metadata>
  <metadata id="svg_225">image/svg+xml</metadata>
  <defs>
   <clipPath id="svg_218" clipPathUnits="userSpaceOnUse">
    <path id="svg_224" d="m3025056.75632,-2057697.95265l7824.543,0l0,-3259.811l-7824.543,0l0,3259.811z"/>
   </clipPath>
   <clipPath id="svg_211" clipPathUnits="userSpaceOnUse">
    <path id="svg_223" d="m3025056.75632,-2057697.95265l7824.543,0l0,-3259.811l-7824.543,0l0,3259.811z"/>
   </clipPath>
  </defs>
  <g stroke="null" id="svg_8">
   <use stroke="null" xlink:href="#svg_4" class="outline " fill="#ffffff" transform="matrix(-0.08705242142095844,-0.08705242142095841,0.08705242142095841,-0.08705242142095844,70999586.57275113,-52595450.1181269) " id="svg_7" y="-3457.73456" x="3894.30962"/>
  </g>
  <g id="svg_15" stroke="null">
   <g id="svg_40" stroke="null">
    <g id="svg_114" stroke="null">
     <rect transform="matrix(0.20099826868370657,0,0,0.20099826868370657,321.0360348741098,-51.22848146176776) " x="-719.93503" y="937.83561" width="202" height="202" id="svg_107" fill="none" stroke="null"/>
     <g transform="matrix(0.20099826868370657,0,0,0.20099826868370657,321.0360348741098,-51.22848146176776) " id="svg_113" stroke="null">
      <title>Layer 1</title>
      <g id="svg_112" stroke="null">
       <g id="svg_111" stroke="null">
        <g id="svg_110" stroke="null">
         <path d="m-550.20268,1060.42946c-0.5653,-1.32567 -2.0989,-1.94334 -3.42856,-1.37681l-10.81392,4.61858l-14.71071,-8.49392l19.22394,-8.21219c1.32843,-0.56652 1.94456,-2.10135 1.37681,-3.42856c-0.56653,-1.3269 -2.10043,-1.94456 -3.42856,-1.37681l-22.82919,9.75161l-10.24923,-5.9176l18.99181,-8.37388c0.94809,-0.41739 1.55933,-1.35507 1.55933,-2.39105c0,-1.03598 -0.61124,-1.97396 -1.55933,-2.39105l-18.99181,-8.37388l10.24923,-5.9176l22.82919,9.75161c0.33441,0.14301 0.68259,0.21191 1.02465,0.21191c1.01424,0 1.98039,-0.59592 2.40391,-1.58872c0.56775,-1.3269 -0.04869,-2.86203 -1.37681,-3.42856l-19.22394,-8.21219l14.71071,-8.49331l10.81392,4.61827c0.33441,0.14301 0.68259,0.21191 1.02465,0.21191c1.01577,0 1.9804,-0.59592 2.40391,-1.58872c0.56776,-1.3269 -0.04838,-2.86204 -1.37681,-3.42856l-7.20867,-3.07915l6.78883,-3.91945c1.25034,-0.72209 1.67784,-2.3197 0.95697,-3.57004c-0.72362,-1.25034 -2.32368,-1.68029 -3.57034,-0.95697l-6.78914,3.91975l0.93768,-7.78193c0.17363,-1.43285 -0.84857,-2.73433 -2.28142,-2.90674c-1.4304,-0.17486 -2.73433,0.84703 -2.90674,2.28142l-1.40683,11.67351l-14.71101,8.49331l2.50068,-20.75509c0.17363,-1.43285 -0.84857,-2.73434 -2.28142,-2.90674c-1.43683,-0.18007 -2.73433,0.84703 -2.90674,2.28142l-2.96983,24.64636l-10.24862,5.91699l2.24375,-20.63505c0.11239,-1.02832 -0.39412,-2.02755 -1.29137,-2.5457c-0.89818,-0.51538 -1.86066,-0.45812 -2.69881,0.15434l-16.59679,12.26179l0,-9.22122l19.7087,-14.89537c1.1548,-0.8651 1.3122,-2.50343 0.44588,-3.65823c-0.86266,-1.15235 -2.38585,-1.38968 -3.54432,-0.52182l-16.61056,12.5426l0,-19.59846l9.25613,-7.05586c1.15479,-0.8651 1.31219,-2.50344 0.44587,-3.65823c-0.86265,-1.15235 -2.38431,-1.38968 -3.54432,-0.52182l-6.15768,4.70309l0,-7.8395c0,-1.44296 -1.17011,-2.61307 -2.61307,-2.61307s-2.61307,1.17011 -2.61307,2.61307l0,7.8395l-6.42288,-4.70309c-1.15479,-0.86755 -2.86785,-0.63022 -3.73417,0.52182c-0.86633,1.15479 -0.51907,2.79313 0.63573,3.65823l9.52132,7.05586l0,19.59907l-16.87545,-12.5426c-1.15725,-0.86755 -2.86907,-0.63022 -3.73418,0.52182c-0.86632,1.1548 -0.51906,2.79313 0.63574,3.65823l19.97389,14.89537l0,9.22122l-16.89995,-12.26178c-0.8357,-0.61124 -2.02816,-0.66973 -2.92634,-0.15434c-0.89695,0.51814 -1.44112,1.51706 -1.32935,2.54569l2.22508,20.63505l-7.99569,-4.61061l-2.97288,-24.64606c-0.17272,-1.43407 -1.47359,-2.44862 -2.9092,-2.28142c-1.43285,0.17211 -2.45627,1.47359 -2.28233,2.90675l2.49853,20.75478l-16.97375,-9.79969l-1.40682,-11.67351c-0.17088,-1.43285 -1.47879,-2.44097 -2.90675,-2.28142c-1.43285,0.1721 -2.45505,1.47358 -2.28142,2.90674l0.93738,7.78194l-6.78914,-3.91976c-1.25432,-0.72331 -2.84794,-0.29337 -3.57003,0.95697c-0.72087,1.25034 -0.29337,2.84795 0.95697,3.57004l6.78882,3.91945l-7.20775,3.07915c-1.32812,0.56653 -1.94456,2.10166 -1.37681,3.42856c0.42352,0.9928 1.38814,1.58872 2.40391,1.58872c0.34206,0 0.69024,-0.0689 1.02465,-0.21191l10.81331,-4.61826l16.97375,9.79968l-19.22424,8.2125c-1.3269,0.56653 -1.94334,2.10135 -1.37559,3.42978c0.42352,0.99158 1.38815,1.5872 2.40391,1.5872c0.34206,0 0.69025,-0.06891 1.02588,-0.21192l22.82766,-9.7513l7.98588,4.61061l-18.99181,8.37388c-0.94809,0.41739 -1.55933,1.35507 -1.55933,2.39105c0,1.03597 0.61123,1.97396 1.55933,2.39105l18.99181,8.37387l-7.98588,4.61061l-22.82766,-9.7513c-1.33333,-0.56775 -2.86449,0.04838 -3.42979,1.37559c-0.56775,1.32843 0.04869,2.86325 1.37559,3.42978l19.22424,8.2125l-16.97375,9.79999l-10.81331,-4.61857c-1.32812,-0.56653 -2.86203,0.05114 -3.42856,1.37681c-0.56775,1.3269 0.04869,2.86203 1.37681,3.42856l7.20837,3.07915l-6.78883,3.91945c-1.25034,0.72209 -1.67784,2.31969 -0.95697,3.57003c0.48476,0.83846 1.36272,1.30669 2.2661,1.30669c0.44281,0 0.89328,-0.11208 1.30393,-0.34971l6.78914,-3.91976l-0.93737,7.78194c-0.17364,1.43285 0.84856,2.73433 2.28142,2.90674c0.10595,0.01286 0.21191,0.01929 0.31633,0.01929c1.30271,0 2.43086,-0.97351 2.5901,-2.30071l1.40682,-11.67351l16.97315,-9.79969l-2.49915,20.75478c-0.17364,1.43286 0.84856,2.73434 2.28142,2.90675c0.10595,0.01286 0.21191,0.01929 0.31633,0.01929c1.30271,0 2.43086,-0.97351 2.5901,-2.30041l2.9686,-24.64605l7.98619,-4.61061l-2.24375,20.63505c-0.11239,1.02832 0.39412,2.02755 1.29137,2.54569c0.8945,0.51416 2.16506,0.4569 3.00198,-0.15434l16.89996,-12.26178l0,11.83459l-20.01187,14.89536c-1.1548,0.8651 -1.46409,2.50343 -0.59776,3.65823c0.8651,1.1548 2.6149,1.39212 3.77215,0.52182l16.83748,-12.5426l0,16.98601l-9.5593,7.05585c-1.1548,0.86511 -1.46409,2.50344 -0.59776,3.65824c0.86633,1.15235 2.61735,1.39212 3.77215,0.52181l6.38491,-4.70309l0,7.83951c0,1.44326 1.17011,2.61306 2.61306,2.61306s2.61307,-1.1701 2.61307,-2.61306l0,-7.83951l6.11971,4.70309c0.47068,0.35339 0.94473,0.52305 1.48951,0.52305c0.79498,0 1.54218,-0.36105 2.05481,-1.04486c0.86663,-1.1548 0.76558,-2.79313 -0.38922,-3.65824l-9.27512,-7.05585l0,-16.98601l16.5726,12.5426c0.47098,0.35339 0.94472,0.52304 1.4895,0.52304c0.79498,0 1.54218,-0.36105 2.05481,-1.04486c0.86663,-1.1548 0.76558,-2.79313 -0.38922,-3.65823l-19.72769,-14.89536l0,-11.83459l16.59679,12.26178c0.45812,0.33441 0.92451,0.50406 1.46807,0.50406c0.45077,0 0.86296,-0.11606 1.26871,-0.34972c0.89726,-0.51814 1.38478,-1.51706 1.27239,-2.54569l-2.25324,-20.63505l10.24402,5.91699l2.96738,24.64636c0.15955,1.3269 1.28647,2.30041 2.58918,2.30041c0.10473,0 0.20977,-0.00643 0.31572,-0.0193c1.43286,-0.1721 2.45475,-1.47358 2.28112,-2.90674l-2.50099,-20.75509l14.71102,8.49331l1.40682,11.67351c0.15955,1.3269 1.28739,2.30071 2.5901,2.30071c0.10473,0 0.21069,-0.00643 0.31633,-0.01929c1.43286,-0.17241 2.45506,-1.47358 2.28142,-2.90674l-0.93767,-7.78194l6.78913,3.91976c0.41219,0.23733 0.86143,0.34941 1.30393,0.34941c0.90338,0 1.78134,-0.46823 2.26611,-1.30669c0.72086,-1.25034 0.29337,-2.84795 -0.95697,-3.57004l-6.78883,-3.91944l7.20867,-3.07915c1.32904,-0.56623 1.94517,-2.10136 1.37742,-3.42826l0,-0.00001zm-104.06606,-25.20032l17.07021,-7.52655l13.03624,7.52655l-13.03654,7.52654l-17.06992,-7.52654l0.00001,0zm33.02361,19.57916l-15.20527,11.02124l2.09247,-18.54655l13.1128,-7.52684l0,15.05215zm0,-24.10556l-13.1128,-7.52715l-2.09247,-18.54655l15.20527,11.02124l0,15.05246zm5.22644,-15.05246l14.9021,-11.02124l-1.9412,18.54655l-12.96121,7.52715l0,-15.05246l0.00031,0zm0,39.15802l0,-15.05215l12.96121,7.52684l1.9412,18.54655l-14.90241,-11.02124zm15.34767,-12.05263l-13.03686,-7.52653l13.03686,-7.52655l17.06991,7.52655l-17.06991,7.52653z" id="svg_109" fill="#ffffff" stroke="null"/>
        </g>
       </g>
      </g>
     </g>
    </g>
    <g id="svg_23" stroke="null">
     <rect transform="matrix(0.20099826868370657,0,0,0.20099826868370657,321.0360348741098,-51.22848146176776) " x="-931.19499" y="1149.09557" width="202" height="202" id="svg_2" fill="none" stroke="null"/>
    </g>
    <g id="svg_130" stroke="null">
     <rect transform="matrix(0.20099826868370657,0,0,0.20099826868370657,321.0360348741098,-51.22848146176776) " x="-149.08364" y="942.3305" width="202" height="202" id="svg_123" fill="none" stroke="null"/>
     <g transform="matrix(0.20099826868370657,0,0,0.20099826868370657,321.0360348741098,-51.22848146176776) " id="svg_129" stroke="null">
      <title>Layer 1</title>
      <g id="svg_128" stroke="null">
       <g id="svg_127" stroke="null">
        <g id="svg_126" stroke="null">
         <path d="m20.64871,1064.92437c-0.5653,-1.32567 -2.0989,-1.94334 -3.42856,-1.37681l-10.81392,4.61857l-14.71071,-8.49392l19.22394,-8.21219c1.32843,-0.56652 1.94456,-2.10135 1.37681,-3.42856c-0.56653,-1.3269 -2.10043,-1.94456 -3.42856,-1.37681l-22.82919,9.75161l-10.24923,-5.9176l18.99181,-8.37388c0.94809,-0.41739 1.55933,-1.35507 1.55933,-2.39105c0,-1.03598 -0.61124,-1.97396 -1.55933,-2.39105l-18.99181,-8.37388l10.24923,-5.9176l22.82919,9.75161c0.33441,0.14301 0.68259,0.21191 1.02465,0.21191c1.01424,0 1.98039,-0.59592 2.40391,-1.58872c0.56775,-1.3269 -0.04869,-2.86203 -1.37681,-3.42856l-19.22394,-8.21219l14.71071,-8.49331l10.81392,4.61827c0.33441,0.14301 0.68259,0.21191 1.02465,0.21191c1.01577,0 1.9804,-0.59592 2.40391,-1.58872c0.56776,-1.3269 -0.04838,-2.86204 -1.37681,-3.42856l-7.20867,-3.07915l6.78883,-3.91945c1.25034,-0.72209 1.67784,-2.3197 0.95697,-3.57004c-0.72362,-1.25034 -2.32368,-1.68029 -3.57034,-0.95697l-6.78914,3.91975l0.93768,-7.78193c0.17363,-1.43285 -0.84857,-2.73433 -2.28142,-2.90674c-1.4304,-0.17486 -2.73433,0.84703 -2.90674,2.28142l-1.40683,11.67351l-14.71101,8.49331l2.50068,-20.75509c0.17363,-1.43285 -0.84857,-2.73434 -2.28142,-2.90674c-1.43683,-0.18007 -2.73433,0.84703 -2.90674,2.28142l-2.96983,24.64636l-10.24862,5.91699l2.24375,-20.63505c0.11239,-1.02832 -0.39412,-2.02755 -1.29137,-2.5457c-0.89818,-0.51538 -1.86066,-0.45812 -2.69881,0.15434l-16.59679,12.26179l0,-9.22122l19.7087,-14.89537c1.1548,-0.8651 1.3122,-2.50343 0.44588,-3.65823c-0.86266,-1.15235 -2.38585,-1.38968 -3.54432,-0.52182l-16.61056,12.5426l0,-19.59846l9.25613,-7.05586c1.15479,-0.8651 1.31219,-2.50344 0.44587,-3.65823c-0.86265,-1.15235 -2.38431,-1.38968 -3.54432,-0.52182l-6.15768,4.70309l0,-7.8395c0,-1.44296 -1.17011,-2.61307 -2.61307,-2.61307s-2.61307,1.17011 -2.61307,2.61307l0,7.8395l-6.42288,-4.70309c-1.15479,-0.86755 -2.86785,-0.63022 -3.73417,0.52182c-0.86633,1.15479 -0.51907,2.79313 0.63573,3.65823l9.52132,7.05586l0,19.59907l-16.87545,-12.5426c-1.15725,-0.86755 -2.86907,-0.63022 -3.73418,0.52182c-0.86632,1.1548 -0.51906,2.79313 0.63574,3.65823l19.97389,14.89537l0,9.22122l-16.89995,-12.26178c-0.8357,-0.61124 -2.02816,-0.66973 -2.92634,-0.15434c-0.89695,0.51814 -1.44112,1.51706 -1.32935,2.54569l2.22508,20.63505l-7.99569,-4.61061l-2.97288,-24.64606c-0.17272,-1.43407 -1.47359,-2.44862 -2.9092,-2.28142c-1.43285,0.17211 -2.45627,1.47359 -2.28233,2.90675l2.49853,20.75478l-16.97375,-9.79969l-1.40682,-11.67351c-0.17088,-1.43285 -1.47879,-2.44097 -2.90675,-2.28142c-1.43285,0.1721 -2.45505,1.47358 -2.28142,2.90674l0.93738,7.78194l-6.78914,-3.91976c-1.25432,-0.72331 -2.84794,-0.29337 -3.57003,0.95697c-0.72087,1.25034 -0.29337,2.84795 0.95697,3.57004l6.78882,3.91945l-7.20775,3.07915c-1.32812,0.56653 -1.94456,2.10166 -1.37681,3.42856c0.42352,0.9928 1.38814,1.58872 2.40391,1.58872c0.34206,0 0.69024,-0.0689 1.02465,-0.21191l10.81331,-4.61826l16.97375,9.79968l-19.22424,8.2125c-1.3269,0.56653 -1.94334,2.10135 -1.37559,3.42978c0.42352,0.99158 1.38815,1.5872 2.40391,1.5872c0.34206,0 0.69025,-0.06891 1.02588,-0.21192l22.82766,-9.7513l7.98588,4.61061l-18.99181,8.37388c-0.94809,0.41739 -1.55933,1.35507 -1.55933,2.39105c0,1.03597 0.61123,1.97396 1.55933,2.39105l18.99181,8.37387l-7.98588,4.61061l-22.82766,-9.7513c-1.33333,-0.56775 -2.86449,0.04838 -3.42979,1.37559c-0.56775,1.32843 0.04869,2.86325 1.37559,3.42978l19.22424,8.2125l-16.97375,9.79999l-10.81331,-4.61857c-1.32812,-0.56653 -2.86203,0.05114 -3.42856,1.37681c-0.56775,1.3269 0.04869,2.86203 1.37681,3.42856l7.20837,3.07915l-6.78883,3.91945c-1.25034,0.72209 -1.67784,2.31969 -0.95697,3.57003c0.48476,0.83846 1.36272,1.30669 2.2661,1.30669c0.44281,0 0.89328,-0.11208 1.30393,-0.34971l6.78914,-3.91976l-0.93737,7.78194c-0.17364,1.43285 0.84856,2.73433 2.28142,2.90674c0.10595,0.01286 0.21191,0.01929 0.31633,0.01929c1.30271,0 2.43086,-0.97351 2.5901,-2.30071l1.40682,-11.67351l16.97315,-9.79969l-2.49915,20.75478c-0.17364,1.43286 0.84856,2.73434 2.28142,2.90675c0.10595,0.01286 0.21191,0.01929 0.31633,0.01929c1.30271,0 2.43086,-0.97351 2.5901,-2.30041l2.9686,-24.64605l7.98619,-4.61061l-2.24375,20.63505c-0.11239,1.02832 0.39412,2.02755 1.29137,2.54569c0.8945,0.51416 2.16506,0.4569 3.00198,-0.15434l16.89996,-12.26178l0,11.83459l-20.01187,14.89537c-1.1548,0.8651 -1.46409,2.50343 -0.59776,3.65823c0.8651,1.15479 2.6149,1.39212 3.77215,0.52182l16.83748,-12.5426l0,16.986l-9.5593,7.05586c-1.1548,0.86511 -1.46409,2.50344 -0.59776,3.65824c0.86633,1.15234 2.61735,1.39212 3.77215,0.52181l6.38491,-4.70309l0,7.83951c0,1.44326 1.17011,2.61305 2.61306,2.61305s2.61307,-1.1701 2.61307,-2.61305l0,-7.83951l6.11971,4.70309c0.47068,0.35339 0.94473,0.52305 1.48951,0.52305c0.79498,0 1.54218,-0.36105 2.05481,-1.04486c0.86663,-1.1548 0.76558,-2.79313 -0.38922,-3.65824l-9.27512,-7.05586l0,-16.986l16.5726,12.5426c0.47098,0.35339 0.94472,0.52304 1.4895,0.52304c0.79498,0 1.54218,-0.36105 2.05481,-1.04486c0.86663,-1.1548 0.76558,-2.79313 -0.38922,-3.65823l-19.72769,-14.89537l0,-11.83459l16.59679,12.26178c0.45812,0.33441 0.92451,0.50406 1.46807,0.50406c0.45077,0 0.86296,-0.11606 1.26871,-0.34972c0.89726,-0.51814 1.38478,-1.51706 1.27239,-2.54569l-2.25324,-20.63505l10.24402,5.91699l2.96738,24.64636c0.15955,1.3269 1.28647,2.30041 2.58918,2.30041c0.10473,0 0.20977,-0.00643 0.31572,-0.0193c1.43286,-0.1721 2.45475,-1.47358 2.28112,-2.90674l-2.50099,-20.75509l14.71102,8.49331l1.40682,11.67351c0.15955,1.3269 1.28739,2.30071 2.5901,2.30071c0.10473,0 0.21069,-0.00643 0.31633,-0.01929c1.43286,-0.17241 2.45506,-1.47358 2.28142,-2.90674l-0.93767,-7.78194l6.78913,3.91976c0.41219,0.23733 0.86143,0.34941 1.30393,0.34941c0.90338,0 1.78134,-0.46823 2.26611,-1.30669c0.72086,-1.25034 0.29337,-2.84795 -0.95697,-3.57004l-6.78883,-3.91944l7.20867,-3.07915c1.32904,-0.56623 1.94517,-2.10136 1.37742,-3.42826zm-104.06606,-25.20033l17.07021,-7.52654l13.03624,7.52654l-13.03654,7.52654l-17.06992,-7.52654l0.00001,0zm33.02361,19.57916l-15.20527,11.02124l2.09247,-18.54655l13.1128,-7.52684l0,15.05215zm0,-24.10556l-13.1128,-7.52715l-2.09247,-18.54655l15.20527,11.02124l0,15.05246zm5.22644,-15.05246l14.9021,-11.02124l-1.9412,18.54655l-12.96121,7.52714l0,-15.05246l0.00031,0l0,0.00001zm0,39.15802l0,-15.05215l12.96121,7.52684l1.9412,18.54655l-14.90241,-11.02124zm15.34767,-12.05263l-13.03686,-7.52653l13.03686,-7.52654l17.06991,7.52654l-17.06991,7.52653z" id="svg_125" fill="#ffffff" stroke="null"/>
        </g>
       </g>
      </g>
     </g>
    </g>
    <g id="svg_138" stroke="null">
     <rect transform="matrix(0.20099826868370657,0,0,0.20099826868370657,321.0360348741098,-51.22848146176776) " x="62.17632" y="1153.59047" width="202" height="202" id="svg_131" fill="none" stroke="null"/>
     <g transform="matrix(0.20099826868370657,0,0,0.20099826868370657,321.0360348741098,-51.22848146176776) " id="svg_137" stroke="null">
      <title>Layer 1</title>
      <g id="svg_136" stroke="null">
       <g id="svg_135" stroke="null">
        <g id="svg_134" stroke="null">
         <path d="m231.90868,1276.18432c-0.5653,-1.32567 -2.0989,-1.94334 -3.42856,-1.37681l-10.81392,4.61858l-14.71071,-8.49392l19.22394,-8.21219c1.32843,-0.56652 1.94456,-2.10135 1.37681,-3.42856c-0.56653,-1.3269 -2.10043,-1.94456 -3.42856,-1.37681l-22.82919,9.75161l-10.24923,-5.9176l18.99181,-8.37388c0.94809,-0.41739 1.55933,-1.35507 1.55933,-2.39105c0,-1.03598 -0.61124,-1.97396 -1.55933,-2.39105l-18.99181,-8.37388l10.24923,-5.9176l22.82919,9.75161c0.33441,0.14301 0.68259,0.21191 1.02465,0.21191c1.01424,0 1.98039,-0.59592 2.40391,-1.58872c0.56775,-1.3269 -0.04869,-2.86203 -1.37681,-3.42856l-19.22394,-8.21219l14.71071,-8.49331l10.81392,4.61827c0.33441,0.14301 0.68259,0.2119 1.02465,0.2119c1.01577,0 1.9804,-0.59591 2.40391,-1.58871c0.56776,-1.3269 -0.04838,-2.86204 -1.37681,-3.42857l-7.20867,-3.07915l6.78883,-3.91945c1.25034,-0.72209 1.67784,-2.3197 0.95697,-3.57004c-0.72362,-1.25034 -2.32368,-1.68029 -3.57034,-0.95697l-6.78914,3.91975l0.93768,-7.78193c0.17363,-1.43285 -0.84857,-2.73433 -2.28142,-2.90674c-1.4304,-0.17486 -2.73433,0.84703 -2.90674,2.28142l-1.40683,11.67351l-14.71101,8.49332l2.50068,-20.7551c0.17363,-1.43285 -0.84857,-2.73434 -2.28142,-2.90673c-1.43683,-0.18007 -2.73433,0.84702 -2.90674,2.28142l-2.96983,24.64635l-10.24862,5.91699l2.24375,-20.63505c0.11239,-1.02832 -0.39412,-2.02755 -1.29137,-2.5457c-0.89818,-0.51538 -1.86066,-0.45812 -2.69881,0.15434l-16.59679,12.2618l0,-9.22122l19.7087,-14.89537c1.1548,-0.8651 1.3122,-2.50343 0.44588,-3.65823c-0.86266,-1.15235 -2.38585,-1.38968 -3.54432,-0.52182l-16.61056,12.5426l0,-19.59846l9.25613,-7.05586c1.15479,-0.8651 1.31219,-2.50344 0.44587,-3.65823c-0.86265,-1.15235 -2.38431,-1.38968 -3.54432,-0.52182l-6.15768,4.70309l0,-7.8395c0,-1.44296 -1.17011,-2.61307 -2.61307,-2.61307s-2.61307,1.17011 -2.61307,2.61307l0,7.8395l-6.42288,-4.70309c-1.15479,-0.86755 -2.86785,-0.63022 -3.73417,0.52182c-0.86633,1.15479 -0.51907,2.79313 0.63573,3.65823l9.52132,7.05586l0,19.59907l-16.87545,-12.5426c-1.15725,-0.86755 -2.86907,-0.63022 -3.73418,0.52182c-0.86632,1.1548 -0.51906,2.79313 0.63574,3.65823l19.97389,14.89537l0,9.22122l-16.89995,-12.26178c-0.8357,-0.61124 -2.02816,-0.66974 -2.92634,-0.15435c-0.89695,0.51814 -1.44112,1.51706 -1.32935,2.54569l2.22508,20.63505l-7.99569,-4.6106l-2.97288,-24.64607c-0.17272,-1.43407 -1.47359,-2.44861 -2.9092,-2.28142c-1.43285,0.17211 -2.45627,1.4736 -2.28233,2.90676l2.49853,20.75478l-16.97375,-9.79969l-1.40682,-11.67352c-0.17088,-1.43284 -1.47879,-2.44097 -2.90675,-2.28142c-1.43285,0.1721 -2.45505,1.47358 -2.28142,2.90674l0.93738,7.78194l-6.78914,-3.91976c-1.25432,-0.72331 -2.84794,-0.29337 -3.57003,0.95697c-0.72087,1.25034 -0.29337,2.84795 0.95697,3.57004l6.78882,3.91945l-7.20775,3.07916c-1.32812,0.56653 -1.94456,2.10166 -1.37681,3.42856c0.42352,0.9928 1.38814,1.58872 2.40391,1.58872c0.34206,0 0.69024,-0.0689 1.02465,-0.21191l10.81331,-4.61826l16.97375,9.79968l-19.22424,8.2125c-1.3269,0.56653 -1.94334,2.10135 -1.37559,3.42978c0.42352,0.99158 1.38815,1.5872 2.40391,1.5872c0.34206,0 0.69025,-0.06891 1.02588,-0.21192l22.82766,-9.7513l7.98588,4.61061l-18.99181,8.37388c-0.94809,0.41739 -1.55933,1.35507 -1.55933,2.39105c0,1.03597 0.61123,1.97396 1.55933,2.39105l18.99181,8.37387l-7.98588,4.61061l-22.82766,-9.7513c-1.33333,-0.56775 -2.86449,0.04838 -3.42979,1.37559c-0.56775,1.32843 0.04869,2.86325 1.37559,3.42978l19.22424,8.2125l-16.97375,9.79999l-10.81331,-4.61857c-1.32812,-0.56653 -2.86203,0.05114 -3.42856,1.37681c-0.56775,1.3269 0.04869,2.86203 1.37681,3.42856l7.20837,3.07915l-6.78883,3.91945c-1.25034,0.72209 -1.67784,2.31969 -0.95697,3.57003c0.48476,0.83846 1.36272,1.30669 2.2661,1.30669c0.44281,0 0.89328,-0.11208 1.30393,-0.34971l6.78914,-3.91976l-0.93737,7.78194c-0.17364,1.43285 0.84856,2.73433 2.28142,2.90674c0.10595,0.01286 0.21191,0.01929 0.31633,0.01929c1.30271,0 2.43086,-0.97351 2.5901,-2.30071l1.40682,-11.67351l16.97315,-9.79969l-2.49915,20.75478c-0.17364,1.43286 0.84856,2.73434 2.28142,2.90675c0.10595,0.01286 0.21191,0.01929 0.31633,0.01929c1.30271,0 2.43086,-0.97351 2.5901,-2.30041l2.9686,-24.64605l7.98619,-4.61061l-2.24375,20.63505c-0.11239,1.02832 0.39412,2.02755 1.29137,2.54569c0.8945,0.51416 2.16506,0.4569 3.00198,-0.15434l16.89996,-12.26178l0,11.83459l-20.01187,14.89536c-1.1548,0.8651 -1.46409,2.50343 -0.59776,3.65823c0.8651,1.1548 2.6149,1.39212 3.77215,0.52182l16.83748,-12.5426l0,16.98601l-9.5593,7.05585c-1.1548,0.86511 -1.46409,2.50344 -0.59776,3.65824c0.86633,1.15235 2.61735,1.39212 3.77215,0.52181l6.38491,-4.70309l0,7.83951c0,1.44326 1.17011,2.61306 2.61306,2.61306s2.61307,-1.1701 2.61307,-2.61306l0,-7.83951l6.11971,4.70309c0.47068,0.35339 0.94473,0.52305 1.48951,0.52305c0.79498,0 1.54218,-0.36105 2.05481,-1.04486c0.86663,-1.1548 0.76558,-2.79313 -0.38922,-3.65824l-9.27512,-7.05585l0,-16.98601l16.5726,12.5426c0.47098,0.35339 0.94472,0.52304 1.4895,0.52304c0.79498,0 1.54218,-0.36105 2.05481,-1.04486c0.86663,-1.1548 0.76558,-2.79313 -0.38922,-3.65823l-19.72769,-14.89536l0,-11.83459l16.59679,12.26178c0.45812,0.33441 0.92451,0.50406 1.46807,0.50406c0.45077,0 0.86296,-0.11606 1.26871,-0.34972c0.89726,-0.51814 1.38478,-1.51706 1.27239,-2.54569l-2.25324,-20.63505l10.24402,5.91699l2.96738,24.64636c0.15955,1.3269 1.28647,2.30041 2.58918,2.30041c0.10473,0 0.20977,-0.00643 0.31572,-0.0193c1.43286,-0.1721 2.45475,-1.47358 2.28112,-2.90674l-2.50099,-20.75509l14.71102,8.49331l1.40682,11.67351c0.15955,1.3269 1.28739,2.30071 2.5901,2.30071c0.10473,0 0.21069,-0.00643 0.31633,-0.01929c1.43286,-0.17241 2.45506,-1.47358 2.28142,-2.90674l-0.93767,-7.78194l6.78913,3.91976c0.41219,0.23733 0.86143,0.34941 1.30393,0.34941c0.90338,0 1.78134,-0.46823 2.26611,-1.30669c0.72086,-1.25034 0.29337,-2.84795 -0.95697,-3.57004l-6.78883,-3.91944l7.20867,-3.07915c1.32904,-0.56623 1.94517,-2.10136 1.37742,-3.42826l0,-0.00001zm-104.06606,-25.20032l17.07021,-7.52655l13.03624,7.52655l-13.03654,7.52654l-17.06992,-7.52654l0.00001,0zm33.02361,19.57916l-15.20527,11.02124l2.09247,-18.54655l13.1128,-7.52684l0,15.05215zm0,-24.10556l-13.1128,-7.52715l-2.09247,-18.54655l15.20527,11.02124l0,15.05246zm5.22644,-15.05247l14.9021,-11.02124l-1.9412,18.54655l-12.96121,7.52715l0,-15.05246l0.00031,0zm0,39.15803l0,-15.05215l12.96121,7.52684l1.9412,18.54655l-14.90241,-11.02124zm15.34767,-12.05263l-13.03686,-7.52653l13.03686,-7.52655l17.06991,7.52655l-17.06991,7.52653z" id="svg_133" fill="#ffffff" stroke="null"/>
        </g>
       </g>
      </g>
     </g>
    </g>
    <g id="svg_22" stroke="null">
     <rect x="12.13078" y="167.61872" width="91.24978" height="91.24978" id="svg_14" fill="none" stroke="null"/>
    </g>
    <g transform="matrix(0.20099826868370657,0,0,0.20099826868370657,321.0360348741098,-51.22848146176776) " id="svg_21" stroke="null">
     <title>Layer 1</title>
     <g id="svg_34" stroke="null">
      <g id="svg_33" stroke="null">
       <g id="svg_32" stroke="null">
        <path d="m-840.12305,1552.66384c-0.5653,-1.32567 -2.0989,-1.94334 -3.42856,-1.37681l-10.81392,4.61857l-14.71071,-8.49392l19.22394,-8.21219c1.32843,-0.56652 1.94456,-2.10135 1.37681,-3.42856c-0.56653,-1.3269 -2.10043,-1.94456 -3.42856,-1.37681l-22.82919,9.75161l-10.24923,-5.9176l18.99181,-8.37388c0.94809,-0.41739 1.55933,-1.35507 1.55933,-2.39105c0,-1.03598 -0.61124,-1.97396 -1.55933,-2.39105l-18.99181,-8.37388l10.24923,-5.9176l22.82919,9.75161c0.33441,0.14301 0.68259,0.21191 1.02465,0.21191c1.01424,0 1.98039,-0.59592 2.40391,-1.58872c0.56775,-1.3269 -0.04869,-2.86203 -1.37681,-3.42856l-19.22394,-8.21219l14.71071,-8.49331l10.81392,4.61827c0.33441,0.14301 0.68259,0.21191 1.02465,0.21191c1.01577,0 1.9804,-0.59592 2.40391,-1.58872c0.56776,-1.3269 -0.04838,-2.86204 -1.37681,-3.42856l-7.20867,-3.07915l6.78883,-3.91946c1.25034,-0.72209 1.67784,-2.3197 0.95697,-3.57004c-0.72362,-1.25034 -2.32368,-1.68029 -3.57034,-0.95697l-6.78914,3.91975l0.93768,-7.78193c0.17363,-1.43285 -0.84857,-2.73433 -2.28142,-2.90674c-1.4304,-0.17486 -2.73433,0.84703 -2.90674,2.28142l-1.40683,11.67352l-14.71101,8.49331l2.50068,-20.75509c0.17363,-1.43285 -0.84857,-2.73434 -2.28142,-2.90674c-1.43683,-0.18007 -2.73433,0.84703 -2.90674,2.28142l-2.96983,24.64636l-10.24862,5.91699l2.24375,-20.63506c0.11239,-1.02831 -0.39412,-2.02755 -1.29137,-2.54569c-0.89818,-0.51538 -1.86066,-0.45812 -2.69881,0.15434l-16.59679,12.26179l0,-9.22122l19.7087,-14.89537c1.1548,-0.8651 1.3122,-2.50343 0.44588,-3.65823c-0.86266,-1.15235 -2.38585,-1.38968 -3.54432,-0.52182l-16.61056,12.5426l0,-19.59846l9.25613,-7.05586c1.15479,-0.8651 1.31219,-2.50344 0.44587,-3.65823c-0.86265,-1.15235 -2.38431,-1.38968 -3.54432,-0.52182l-6.15768,4.70309l0,-7.8395c0,-1.44296 -1.17011,-2.61307 -2.61307,-2.61307s-2.61307,1.17011 -2.61307,2.61307l0,7.8395l-6.42288,-4.70309c-1.15479,-0.86755 -2.86785,-0.63022 -3.73417,0.52182c-0.86633,1.15479 -0.51907,2.79313 0.63573,3.65823l9.52132,7.05586l0,19.59907l-16.87545,-12.5426c-1.15725,-0.86755 -2.86907,-0.63022 -3.73418,0.52182c-0.86632,1.1548 -0.51906,2.79313 0.63574,3.65823l19.97389,14.89537l0,9.22122l-16.89995,-12.26178c-0.8357,-0.61124 -2.02816,-0.66973 -2.92634,-0.15434c-0.89695,0.51813 -1.44112,1.51705 -1.32935,2.54569l2.22508,20.63505l-7.99569,-4.61061l-2.97288,-24.64606c-0.17272,-1.43407 -1.47359,-2.44862 -2.9092,-2.28142c-1.43285,0.17211 -2.45627,1.47359 -2.28233,2.90675l2.49853,20.75478l-16.97375,-9.79969l-1.40682,-11.67351c-0.17088,-1.43285 -1.47879,-2.44098 -2.90675,-2.28142c-1.43285,0.1721 -2.45505,1.47358 -2.28142,2.90673l0.93738,7.78194l-6.78914,-3.91976c-1.25432,-0.72331 -2.84794,-0.29337 -3.57003,0.95697c-0.72087,1.25035 -0.29337,2.84796 0.95697,3.57005l6.78882,3.91945l-7.20775,3.07915c-1.32812,0.56653 -1.94456,2.10166 -1.37681,3.42856c0.42352,0.9928 1.38814,1.58872 2.40391,1.58872c0.34206,0 0.69024,-0.0689 1.02465,-0.21191l10.81331,-4.61826l16.97375,9.79968l-19.22424,8.2125c-1.3269,0.56653 -1.94334,2.10135 -1.37559,3.42978c0.42352,0.99158 1.38815,1.5872 2.40391,1.5872c0.34206,0 0.69025,-0.06891 1.02588,-0.21192l22.82766,-9.7513l7.98588,4.61061l-18.99181,8.37388c-0.94809,0.41739 -1.55933,1.35507 -1.55933,2.39105c0,1.03597 0.61123,1.97396 1.55933,2.39105l18.99181,8.37387l-7.98588,4.61061l-22.82766,-9.7513c-1.33333,-0.56775 -2.86449,0.04838 -3.42979,1.37559c-0.56775,1.32843 0.04869,2.86325 1.37559,3.42978l19.22424,8.2125l-16.97375,9.79999l-10.81331,-4.61857c-1.32812,-0.56653 -2.86203,0.05114 -3.42856,1.37681c-0.56775,1.3269 0.04869,2.86203 1.37681,3.42856l7.20837,3.07915l-6.78883,3.91945c-1.25034,0.72209 -1.67784,2.31969 -0.95697,3.57003c0.48476,0.83846 1.36272,1.30669 2.2661,1.30669c0.44281,0 0.89328,-0.11208 1.30393,-0.34971l6.78914,-3.91976l-0.93737,7.78194c-0.17364,1.43285 0.84856,2.73433 2.28142,2.90674c0.10595,0.01286 0.21191,0.01929 0.31633,0.01929c1.30271,0 2.43086,-0.97351 2.5901,-2.30071l1.40682,-11.67351l16.97315,-9.79969l-2.49915,20.75478c-0.17364,1.43286 0.84856,2.73434 2.28142,2.90675c0.10595,0.01286 0.21191,0.01929 0.31633,0.01929c1.30271,0 2.43086,-0.97351 2.5901,-2.30041l2.9686,-24.64605l7.98619,-4.61061l-2.24375,20.63505c-0.11239,1.02832 0.39412,2.02755 1.29137,2.54569c0.8945,0.51416 2.16506,0.4569 3.00198,-0.15434l16.89996,-12.26178l0,11.83459l-20.01187,14.89537c-1.1548,0.8651 -1.46409,2.50343 -0.59776,3.65823c0.8651,1.15479 2.6149,1.39212 3.77215,0.52182l16.83748,-12.5426l0,16.986l-9.5593,7.05586c-1.1548,0.86511 -1.46409,2.50344 -0.59776,3.65824c0.86633,1.15234 2.61735,1.39212 3.77215,0.52181l6.38491,-4.70309l0,7.83951c0,1.44326 1.17011,2.61305 2.61306,2.61305s2.61307,-1.1701 2.61307,-2.61305l0,-7.83951l6.11971,4.70309c0.47068,0.35339 0.94473,0.52305 1.48951,0.52305c0.79498,0 1.54218,-0.36105 2.05481,-1.04486c0.86663,-1.1548 0.76558,-2.79313 -0.38922,-3.65824l-9.27512,-7.05586l0,-16.986l16.5726,12.5426c0.47098,0.35339 0.94472,0.52304 1.4895,0.52304c0.79498,0 1.54218,-0.36105 2.05481,-1.04486c0.86663,-1.1548 0.76558,-2.79313 -0.38922,-3.65823l-19.72769,-14.89537l0,-11.83459l16.59679,12.26178c0.45812,0.33441 0.92451,0.50406 1.46807,0.50406c0.45077,0 0.86296,-0.11606 1.26871,-0.34972c0.89726,-0.51814 1.38478,-1.51706 1.27239,-2.54569l-2.25324,-20.63505l10.24402,5.91699l2.96738,24.64636c0.15955,1.3269 1.28647,2.30041 2.58918,2.30041c0.10473,0 0.20977,-0.00643 0.31572,-0.0193c1.43286,-0.1721 2.45475,-1.47358 2.28112,-2.90674l-2.50099,-20.75509l14.71102,8.49331l1.40682,11.67351c0.15955,1.3269 1.28739,2.30071 2.5901,2.30071c0.10473,0 0.21069,-0.00643 0.31633,-0.01929c1.43286,-0.17241 2.45506,-1.47358 2.28142,-2.90674l-0.93767,-7.78194l6.78913,3.91976c0.41219,0.23733 0.86143,0.34941 1.30393,0.34941c0.90338,0 1.78134,-0.46823 2.26611,-1.30669c0.72086,-1.25034 0.29337,-2.84795 -0.95697,-3.57004l-6.78883,-3.91944l7.20867,-3.07915c1.32904,-0.56623 1.94517,-2.10136 1.37742,-3.42826zm-104.06606,-25.20033l17.07021,-7.52654l13.03624,7.52654l-13.03654,7.52654l-17.06992,-7.52654l0.00001,0zm33.02361,19.57916l-15.20527,11.02124l2.09247,-18.54655l13.1128,-7.52684l0,15.05215zm0,-24.10556l-13.1128,-7.52715l-2.09247,-18.54655l15.20527,11.02124l0,15.05246zm5.22644,-15.05246l14.9021,-11.02124l-1.9412,18.54655l-12.96121,7.52714l0,-15.05246l0.00031,0l0,0.00001zm0,39.15802l0,-15.05215l12.96121,7.52684l1.9412,18.54655l-14.90241,-11.02124zm15.34767,-12.05263l-13.03686,-7.52653l13.03686,-7.52654l17.06991,7.52654l-17.06991,7.52653z" id="svg_31" fill="#ffffff" stroke="null"/>
       </g>
      </g>
     </g>
    </g>
    <g id="svg_122" stroke="null">
     <rect transform="matrix(0.20099826868370657,0,0,0.20099826868370657,321.0360348741098,-51.22848146176776) " x="-435.63305" y="856.92754" width="202" height="202" id="svg_115" fill="none" stroke="null"/>
     <g transform="matrix(0.20099826868370657,0,0,0.20099826868370657,321.0360348741098,-51.22848146176776) " id="svg_121" stroke="null">
      <title>Layer 1</title>
      <g id="svg_120" stroke="null">
       <g id="svg_119" stroke="null">
        <g id="svg_118" stroke="null">
         <path d="m-265.90071,979.52139c-0.5653,-1.32566 -2.0989,-1.94334 -3.42856,-1.3768l-10.81392,4.61856l-14.71071,-8.49392l19.22394,-8.21218c1.32843,-0.56652 1.94456,-2.10136 1.37681,-3.42856c-0.56653,-1.3269 -2.10043,-1.94456 -3.42856,-1.37681l-22.82919,9.75161l-10.24923,-5.9176l18.99181,-8.37388c0.94809,-0.41739 1.55933,-1.35507 1.55933,-2.39105c0,-1.03598 -0.61124,-1.97396 -1.55933,-2.39105l-18.99181,-8.37388l10.24923,-5.9176l22.82919,9.75161c0.33441,0.14301 0.68259,0.21191 1.02465,0.21191c1.01424,0 1.98039,-0.59592 2.40391,-1.58872c0.56775,-1.3269 -0.04869,-2.86203 -1.37681,-3.42856l-19.22394,-8.21219l14.71071,-8.49331l10.81392,4.61827c0.33441,0.14301 0.68259,0.21191 1.02465,0.21191c1.01577,0 1.9804,-0.59592 2.40391,-1.58872c0.56776,-1.3269 -0.04838,-2.86204 -1.37681,-3.42856l-7.20867,-3.07915l6.78883,-3.91945c1.25034,-0.72209 1.67784,-2.3197 0.95697,-3.57004c-0.72362,-1.25034 -2.32368,-1.68029 -3.57034,-0.95697l-6.78914,3.91975l0.93768,-7.78193c0.17363,-1.43285 -0.84857,-2.73433 -2.28142,-2.90674c-1.4304,-0.17486 -2.73433,0.84703 -2.90674,2.28142l-1.40683,11.67351l-14.71101,8.49331l2.50068,-20.75509c0.17363,-1.43285 -0.84857,-2.73434 -2.28142,-2.90674c-1.43683,-0.18007 -2.73433,0.84703 -2.90674,2.28142l-2.96983,24.64636l-10.24862,5.91699l2.24375,-20.63505c0.11239,-1.02832 -0.39412,-2.02755 -1.29137,-2.5457c-0.89818,-0.51538 -1.86066,-0.45812 -2.69881,0.15434l-16.59679,12.26179l0,-9.22122l19.7087,-14.89537c1.1548,-0.8651 1.3122,-2.50343 0.44588,-3.65823c-0.86266,-1.15235 -2.38585,-1.38968 -3.54432,-0.52182l-16.61056,12.5426l0,-19.59846l9.25613,-7.05586c1.15479,-0.8651 1.31219,-2.50344 0.44587,-3.65823c-0.86265,-1.15235 -2.38431,-1.38968 -3.54432,-0.52182l-6.15768,4.70309l0,-7.8395c0,-1.44296 -1.17011,-2.61307 -2.61307,-2.61307s-2.61307,1.17011 -2.61307,2.61307l0,7.8395l-6.42288,-4.70309c-1.15479,-0.86755 -2.86785,-0.63022 -3.73417,0.52182c-0.86633,1.15479 -0.51907,2.79313 0.63573,3.65823l9.52132,7.05586l0,19.59907l-16.87545,-12.5426c-1.15725,-0.86755 -2.86907,-0.63022 -3.73418,0.52182c-0.86632,1.1548 -0.51906,2.79313 0.63574,3.65823l19.97389,14.89537l0,9.22122l-16.89995,-12.26178c-0.8357,-0.61124 -2.02816,-0.66973 -2.92634,-0.15434c-0.89695,0.51814 -1.44112,1.51706 -1.32935,2.54569l2.22508,20.63505l-7.99569,-4.61061l-2.97288,-24.64606c-0.17272,-1.43407 -1.47359,-2.44862 -2.9092,-2.28142c-1.43285,0.17211 -2.45627,1.47359 -2.28233,2.90675l2.49853,20.75478l-16.97375,-9.79969l-1.40682,-11.67351c-0.17088,-1.43285 -1.47879,-2.44097 -2.90675,-2.28142c-1.43285,0.1721 -2.45505,1.47358 -2.28142,2.90674l0.93738,7.78194l-6.78914,-3.91976c-1.25432,-0.72331 -2.84794,-0.29337 -3.57003,0.95697c-0.72087,1.25034 -0.29337,2.84795 0.95697,3.57004l6.78882,3.91945l-7.20775,3.07915c-1.32812,0.56653 -1.94456,2.10166 -1.37681,3.42856c0.42352,0.9928 1.38814,1.58872 2.40391,1.58872c0.34206,0 0.69024,-0.0689 1.02465,-0.21191l10.81331,-4.61826l16.97375,9.79968l-19.22424,8.2125c-1.3269,0.56653 -1.94334,2.10135 -1.37559,3.42978c0.42352,0.99158 1.38815,1.5872 2.40391,1.5872c0.34206,0 0.69025,-0.06891 1.02588,-0.21192l22.82766,-9.7513l7.98588,4.61061l-18.99181,8.37388c-0.94809,0.41739 -1.55933,1.35507 -1.55933,2.39105c0,1.03597 0.61123,1.97396 1.55933,2.39105l18.99181,8.37387l-7.98588,4.61061l-22.82766,-9.7513c-1.33333,-0.56775 -2.86449,0.04838 -3.42979,1.37559c-0.56775,1.32843 0.04869,2.86325 1.37559,3.42978l19.22424,8.2125l-16.97375,9.79999l-10.81331,-4.61857c-1.32812,-0.56653 -2.86203,0.05114 -3.42856,1.37681c-0.56775,1.3269 0.04869,2.86203 1.37681,3.42856l7.20837,3.07915l-6.78883,3.91945c-1.25034,0.72209 -1.67784,2.31969 -0.95697,3.57003c0.48476,0.83846 1.36272,1.30669 2.2661,1.30669c0.44281,0 0.89328,-0.11208 1.30393,-0.34971l6.78914,-3.91976l-0.93737,7.78194c-0.17364,1.43285 0.84856,2.73433 2.28142,2.90674c0.10595,0.01286 0.21191,0.01929 0.31633,0.01929c1.30271,0 2.43086,-0.97351 2.5901,-2.30071l1.40682,-11.67351l16.97315,-9.79969l-2.49915,20.75478c-0.17364,1.43286 0.84856,2.73434 2.28142,2.90675c0.10595,0.01286 0.21191,0.01929 0.31633,0.01929c1.30271,0 2.43086,-0.97351 2.5901,-2.30042l2.9686,-24.64604l7.98619,-4.61061l-2.24375,20.63505c-0.11239,1.02832 0.39412,2.02755 1.29137,2.54569c0.8945,0.51416 2.16506,0.4569 3.00198,-0.15434l16.89996,-12.26178l0,11.83459l-20.01187,14.89537c-1.1548,0.8651 -1.46409,2.50343 -0.59776,3.65823c0.8651,1.15479 2.6149,1.39212 3.77215,0.52182l16.83748,-12.5426l0,16.986l-9.5593,7.05586c-1.1548,0.86511 -1.46409,2.50344 -0.59776,3.65824c0.86633,1.15234 2.61735,1.39212 3.77215,0.52181l6.38491,-4.70309l0,7.83951c0,1.44326 1.17011,2.61306 2.61306,2.61306s2.61307,-1.1701 2.61307,-2.61306l0,-7.83951l6.11971,4.70309c0.47068,0.35339 0.94473,0.52305 1.48951,0.52305c0.79498,0 1.54218,-0.36105 2.05481,-1.04486c0.86663,-1.1548 0.76558,-2.79313 -0.38922,-3.65824l-9.27512,-7.05586l0,-16.986l16.5726,12.5426c0.47098,0.35339 0.94472,0.52304 1.4895,0.52304c0.79498,0 1.54218,-0.36105 2.05481,-1.04486c0.86663,-1.1548 0.76558,-2.79313 -0.38922,-3.65823l-19.72769,-14.89537l0,-11.83459l16.59679,12.26178c0.45812,0.33441 0.92451,0.50406 1.46807,0.50406c0.45077,0 0.86296,-0.11606 1.26871,-0.34972c0.89726,-0.51814 1.38478,-1.51706 1.27239,-2.54569l-2.25324,-20.63505l10.24402,5.91699l2.96738,24.64636c0.15955,1.3269 1.28647,2.30041 2.58918,2.30041c0.10473,0 0.20977,-0.00643 0.31572,-0.0193c1.43286,-0.1721 2.45475,-1.47358 2.28112,-2.90674l-2.50099,-20.75509l14.71102,8.49331l1.40682,11.67351c0.15955,1.3269 1.28739,2.30071 2.5901,2.30071c0.10473,0 0.21069,-0.00643 0.31633,-0.01929c1.43286,-0.17241 2.45506,-1.47358 2.28142,-2.90674l-0.93767,-7.78194l6.78913,3.91976c0.41219,0.23733 0.86143,0.34941 1.30393,0.34941c0.90338,0 1.78134,-0.46823 2.26611,-1.30669c0.72086,-1.25034 0.29337,-2.84795 -0.95697,-3.57004l-6.78883,-3.91944l7.20867,-3.07915c1.32904,-0.56623 1.94517,-2.10136 1.37742,-3.42826l0,-0.00001zm-104.06606,-25.20033l17.07021,-7.52653l13.03624,7.52653l-13.03654,7.52654l-17.06992,-7.52654l0.00001,0zm33.02361,19.57916l-15.20527,11.02125l2.09247,-18.54656l13.1128,-7.52684l0,15.05215zm0,-24.10555l-13.1128,-7.52715l-2.09247,-18.54656l15.20527,11.02125l0,15.05246zm5.22644,-15.05246l14.9021,-11.02125l-1.9412,18.54656l-12.96121,7.52715l0,-15.05246l0.00031,0zm0,39.15801l0,-15.05215l12.96121,7.52684l1.9412,18.54656l-14.90241,-11.02125zm15.34767,-12.05263l-13.03686,-7.52653l13.03686,-7.52653l17.06991,7.52653l-17.06991,7.52653z" id="svg_117" fill="#ffffff" stroke="null"/>
        </g>
       </g>
      </g>
     </g>
    </g>
    <g id="svg_146" stroke="null">
     <rect transform="matrix(0.20099826868370657,0,0,0.20099826868370657,321.0360348741098,-51.22848146176776) " x="138.5895" y="1432.27382" width="202" height="202" id="svg_139" fill="none" stroke="null"/>
     <g transform="matrix(0.20099826868370657,0,0,0.20099826868370657,321.0360348741098,-51.22848146176776) " id="svg_145" stroke="null">
      <title>Layer 1</title>
      <g id="svg_144" stroke="null">
       <g id="svg_143" stroke="null">
        <g id="svg_142" stroke="null">
         <path d="m308.32186,1554.86768c-0.5653,-1.32567 -2.0989,-1.94334 -3.42856,-1.37681l-10.81392,4.61858l-14.71071,-8.49392l19.22394,-8.21219c1.32843,-0.56652 1.94456,-2.10135 1.37681,-3.42856c-0.56653,-1.3269 -2.10043,-1.94456 -3.42856,-1.37681l-22.82919,9.75161l-10.24923,-5.9176l18.99181,-8.37388c0.94809,-0.41739 1.55933,-1.35507 1.55933,-2.39105c0,-1.03598 -0.61124,-1.97396 -1.55933,-2.39105l-18.99181,-8.37388l10.24923,-5.9176l22.82919,9.75161c0.33441,0.14301 0.68259,0.21191 1.02465,0.21191c1.01424,0 1.98039,-0.59592 2.40391,-1.58872c0.56775,-1.3269 -0.04869,-2.86203 -1.37681,-3.42856l-19.22394,-8.21219l14.71071,-8.49331l10.81392,4.61826c0.33441,0.14302 0.68259,0.21191 1.02465,0.21191c1.01577,0 1.9804,-0.59591 2.40391,-1.58871c0.56776,-1.32691 -0.04838,-2.86204 -1.37681,-3.42857l-7.20867,-3.07915l6.78883,-3.91945c1.25034,-0.72209 1.67784,-2.3197 0.95697,-3.57004c-0.72362,-1.25034 -2.32368,-1.68029 -3.57034,-0.95697l-6.78914,3.91975l0.93768,-7.78193c0.17363,-1.43285 -0.84857,-2.73433 -2.28142,-2.90674c-1.4304,-0.17486 -2.73433,0.84703 -2.90674,2.28142l-1.40683,11.67351l-14.71101,8.49332l2.50068,-20.7551c0.17363,-1.43285 -0.84857,-2.73434 -2.28142,-2.90674c-1.43683,-0.18006 -2.73433,0.84703 -2.90674,2.28143l-2.96983,24.64635l-10.24862,5.91699l2.24375,-20.63505c0.11239,-1.02832 -0.39412,-2.02755 -1.29137,-2.5457c-0.89818,-0.51538 -1.86066,-0.45812 -2.69881,0.15434l-16.59679,12.2618l0,-9.22122l19.7087,-14.89537c1.1548,-0.8651 1.3122,-2.50343 0.44588,-3.65823c-0.86266,-1.15235 -2.38585,-1.38968 -3.54432,-0.52182l-16.61056,12.5426l0,-19.59846l9.25613,-7.05586c1.15479,-0.8651 1.31219,-2.50344 0.44587,-3.65823c-0.86265,-1.15235 -2.38431,-1.38968 -3.54432,-0.52182l-6.15768,4.70309l0,-7.8395c0,-1.44296 -1.17011,-2.61307 -2.61307,-2.61307s-2.61307,1.17011 -2.61307,2.61307l0,7.8395l-6.42288,-4.70309c-1.15479,-0.86755 -2.86785,-0.63022 -3.73417,0.52182c-0.86633,1.15479 -0.51907,2.79313 0.63573,3.65823l9.52132,7.05586l0,19.59907l-16.87545,-12.5426c-1.15725,-0.86755 -2.86907,-0.63022 -3.73418,0.52182c-0.86632,1.1548 -0.51906,2.79313 0.63574,3.65823l19.97389,14.89537l0,9.22122l-16.89995,-12.26178c-0.8357,-0.61124 -2.02816,-0.66974 -2.92634,-0.15435c-0.89695,0.51814 -1.44112,1.51706 -1.32935,2.54569l2.22508,20.63505l-7.99569,-4.6106l-2.97288,-24.64607c-0.17272,-1.43407 -1.47359,-2.44861 -2.9092,-2.28142c-1.43285,0.17211 -2.45627,1.4736 -2.28233,2.90676l2.49853,20.75478l-16.97375,-9.7997l-1.40682,-11.67351c-0.17088,-1.43285 -1.47879,-2.44097 -2.90675,-2.28142c-1.43285,0.1721 -2.45505,1.47358 -2.28142,2.90674l0.93738,7.78194l-6.78914,-3.91976c-1.25432,-0.72331 -2.84794,-0.29337 -3.57003,0.95697c-0.72087,1.25034 -0.29337,2.84795 0.95697,3.57004l6.78882,3.91945l-7.20775,3.07916c-1.32812,0.56653 -1.94456,2.10166 -1.37681,3.42856c0.42352,0.9928 1.38814,1.58872 2.40391,1.58872c0.34206,0 0.69024,-0.0689 1.02465,-0.21191l10.81331,-4.61826l16.97375,9.79968l-19.22424,8.2125c-1.3269,0.56653 -1.94334,2.10135 -1.37559,3.42978c0.42352,0.99158 1.38815,1.5872 2.40391,1.5872c0.34206,0 0.69025,-0.06891 1.02588,-0.21192l22.82766,-9.7513l7.98588,4.61061l-18.99181,8.37388c-0.94809,0.41739 -1.55933,1.35507 -1.55933,2.39105c0,1.03597 0.61123,1.97396 1.55933,2.39105l18.99181,8.37387l-7.98588,4.61061l-22.82766,-9.7513c-1.33333,-0.56775 -2.86449,0.04838 -3.42979,1.37559c-0.56775,1.32843 0.04869,2.86325 1.37559,3.42978l19.22424,8.2125l-16.97375,9.79999l-10.81331,-4.61857c-1.32812,-0.56653 -2.86203,0.05114 -3.42856,1.37681c-0.56775,1.3269 0.04869,2.86203 1.37681,3.42856l7.20837,3.07915l-6.78883,3.91945c-1.25034,0.72209 -1.67784,2.31969 -0.95697,3.57003c0.48476,0.83846 1.36272,1.30669 2.2661,1.30669c0.44281,0 0.89328,-0.11208 1.30393,-0.34971l6.78914,-3.91976l-0.93737,7.78194c-0.17364,1.43285 0.84856,2.73433 2.28142,2.90674c0.10595,0.01286 0.21191,0.01929 0.31633,0.01929c1.30271,0 2.43086,-0.97351 2.5901,-2.30071l1.40682,-11.67351l16.97315,-9.79969l-2.49915,20.75478c-0.17364,1.43286 0.84856,2.73434 2.28142,2.90675c0.10595,0.01286 0.21191,0.01929 0.31633,0.01929c1.30271,0 2.43086,-0.97351 2.5901,-2.30041l2.9686,-24.64605l7.98619,-4.61061l-2.24375,20.63505c-0.11239,1.02832 0.39412,2.02755 1.29137,2.54569c0.8945,0.51416 2.16506,0.4569 3.00198,-0.15434l16.89996,-12.26178l0,11.83459l-20.01187,14.89536c-1.1548,0.8651 -1.46409,2.50343 -0.59776,3.65823c0.8651,1.1548 2.6149,1.39212 3.77215,0.52182l16.83748,-12.5426l0,16.98601l-9.5593,7.05585c-1.1548,0.86511 -1.46409,2.50344 -0.59776,3.65824c0.86633,1.15235 2.61735,1.39212 3.77215,0.52181l6.38491,-4.70309l0,7.83951c0,1.44326 1.17011,2.61306 2.61306,2.61306s2.61307,-1.1701 2.61307,-2.61306l0,-7.83951l6.11971,4.70309c0.47068,0.35339 0.94473,0.52305 1.48951,0.52305c0.79498,0 1.54218,-0.36105 2.05481,-1.04486c0.86663,-1.1548 0.76558,-2.79313 -0.38922,-3.65824l-9.27512,-7.05585l0,-16.98601l16.5726,12.5426c0.47098,0.35339 0.94472,0.52304 1.4895,0.52304c0.79498,0 1.54218,-0.36105 2.05481,-1.04486c0.86663,-1.1548 0.76558,-2.79313 -0.38922,-3.65823l-19.72769,-14.89536l0,-11.83459l16.59679,12.26178c0.45812,0.33441 0.92451,0.50406 1.46807,0.50406c0.45077,0 0.86296,-0.11606 1.26871,-0.34972c0.89726,-0.51814 1.38478,-1.51706 1.27239,-2.54569l-2.25324,-20.63505l10.24402,5.91699l2.96738,24.64636c0.15955,1.3269 1.28647,2.30041 2.58918,2.30041c0.10473,0 0.20977,-0.00643 0.31572,-0.0193c1.43286,-0.1721 2.45475,-1.47358 2.28112,-2.90674l-2.50099,-20.75509l14.71102,8.49331l1.40682,11.67351c0.15955,1.3269 1.28739,2.30071 2.5901,2.30071c0.10473,0 0.21069,-0.00643 0.31633,-0.01929c1.43286,-0.17241 2.45506,-1.47358 2.28142,-2.90674l-0.93767,-7.78194l6.78913,3.91976c0.41219,0.23733 0.86143,0.34941 1.30393,0.34941c0.90338,0 1.78134,-0.46823 2.26611,-1.30669c0.72086,-1.25034 0.29337,-2.84795 -0.95697,-3.57004l-6.78883,-3.91944l7.20867,-3.07915c1.32904,-0.56623 1.94517,-2.10136 1.37742,-3.42826l0,-0.00001zm-104.06606,-25.20032l17.07021,-7.52655l13.03624,7.52655l-13.03654,7.52654l-17.06992,-7.52654l0.00001,0zm33.02361,19.57916l-15.20527,11.02124l2.09247,-18.54655l13.1128,-7.52684l0,15.05215zm0,-24.10556l-13.1128,-7.52715l-2.09247,-18.54655l15.20527,11.02124l0,15.05246zm5.22644,-15.05247l14.9021,-11.02124l-1.9412,18.54655l-12.96121,7.52715l0,-15.05246l0.00031,0zm0,39.15803l0,-15.05215l12.96121,7.52684l1.9412,18.54655l-14.90241,-11.02124zm15.34767,-12.05263l-13.03686,-7.52653l13.03686,-7.52655l17.06991,7.52655l-17.06991,7.52653z" id="svg_141" fill="#ffffff" stroke="null"/>
        </g>
       </g>
      </g>
     </g>
    </g>
    <g id="svg_154" stroke="null">
     <rect transform="matrix(0.20099826868370657,0,0,0.20099826868370657,321.0360348741098,-51.22848146176776) " x="57.68143" y="1728.93675" width="202" height="202" id="svg_147" fill="none" stroke="null"/>
     <g transform="matrix(0.20099826868370657,0,0,0.20099826868370657,321.0360348741098,-51.22848146176776) " id="svg_153" stroke="null">
      <title>Layer 1</title>
      <g id="svg_152" stroke="null">
       <g id="svg_151" stroke="null">
        <g id="svg_150" stroke="null">
         <path d="m227.41378,1851.53061c-0.5653,-1.32567 -2.09889,-1.94334 -3.42855,-1.37681l-10.81393,4.61858l-14.7107,-8.49392l19.22393,-8.21219c1.32844,-0.56652 1.94457,-2.10135 1.37681,-3.42856c-0.56652,-1.3269 -2.10042,-1.94456 -3.42855,-1.37681l-22.8292,9.75161l-10.24923,-5.9176l18.99181,-8.37388c0.94809,-0.4174 1.55933,-1.35508 1.55933,-2.39105c0,-1.03599 -0.61123,-1.97396 -1.55933,-2.39105l-18.99181,-8.37388l10.24923,-5.9176l22.8292,9.75161c0.33441,0.14301 0.68259,0.21191 1.02464,0.21191c1.01424,0 1.9804,-0.59592 2.40391,-1.58872c0.56776,-1.3269 -0.04869,-2.86203 -1.37681,-3.42856l-19.22393,-8.21219l14.7107,-8.49331l10.81393,4.61826c0.33441,0.14301 0.68259,0.21191 1.02464,0.21191c1.01577,0 1.98041,-0.59592 2.40391,-1.58872c0.56776,-1.3269 -0.04837,-2.86203 -1.37681,-3.42856l-7.20866,-3.07915l6.78882,-3.91945c1.25035,-0.72209 1.67784,-2.3197 0.95697,-3.57004c-0.72362,-1.25034 -2.32368,-1.68029 -3.57034,-0.95697l-6.78914,3.91975l0.93768,-7.78193c0.17363,-1.43285 -0.84857,-2.73433 -2.28142,-2.90674c-1.4304,-0.17486 -2.73433,0.84703 -2.90674,2.28142l-1.40683,11.67351l-14.71101,8.49331l2.50068,-20.75509c0.17363,-1.43285 -0.84857,-2.73434 -2.28142,-2.90674c-1.43683,-0.18006 -2.73433,0.84703 -2.90674,2.28142l-2.96983,24.64636l-10.24862,5.91699l2.24375,-20.63505c0.11239,-1.02832 -0.39412,-2.02755 -1.29137,-2.5457c-0.89818,-0.51538 -1.86066,-0.45812 -2.69881,0.15434l-16.59679,12.26179l0,-9.22121l19.7087,-14.89537c1.1548,-0.8651 1.3122,-2.50343 0.44588,-3.65823c-0.86266,-1.15235 -2.38585,-1.38968 -3.54432,-0.52182l-16.61055,12.5426l0,-19.59846l9.25612,-7.05586c1.1548,-0.8651 1.31219,-2.50344 0.44588,-3.65823c-0.86266,-1.15235 -2.38432,-1.38968 -3.54432,-0.52182l-6.15768,4.70309l0,-7.8395c0,-1.44296 -1.17012,-2.61307 -2.61307,-2.61307s-2.61307,1.17011 -2.61307,2.61307l0,7.8395l-6.42288,-4.70309c-1.15479,-0.86755 -2.86785,-0.63022 -3.73417,0.52182c-0.86633,1.15479 -0.51907,2.79313 0.63573,3.65823l9.52132,7.05586l0,19.59907l-16.87545,-12.5426c-1.15725,-0.86755 -2.86907,-0.63022 -3.73419,0.52182c-0.86631,1.1548 -0.51905,2.79313 0.63575,3.65823l19.97389,14.89537l0,9.22122l-16.89995,-12.26179c-0.8357,-0.61123 -2.02816,-0.66973 -2.92634,-0.15434c-0.89695,0.51814 -1.44112,1.51706 -1.32935,2.54569l2.22508,20.63505l-7.99569,-4.61061l-2.97288,-24.64606c-0.17272,-1.43407 -1.47359,-2.44861 -2.9092,-2.28142c-1.43285,0.17211 -2.45627,1.47359 -2.28233,2.90676l2.49853,20.75478l-16.97375,-9.7997l-1.40683,-11.67351c-0.17088,-1.43285 -1.47879,-2.44097 -2.90674,-2.28142c-1.43286,0.1721 -2.45506,1.47358 -2.28143,2.90674l0.93738,7.78194l-6.78914,-3.91976c-1.25432,-0.72331 -2.84794,-0.29337 -3.57003,0.95697c-0.72087,1.25034 -0.29336,2.84795 0.95697,3.57004l6.78882,3.91945l-7.20775,3.07915c-1.32812,0.56654 -1.94456,2.10167 -1.37681,3.42857c0.42352,0.9928 1.38814,1.58872 2.40391,1.58872c0.34206,0 0.69024,-0.0689 1.02465,-0.21191l10.81331,-4.61826l16.97375,9.79968l-19.22424,8.2125c-1.3269,0.56653 -1.94334,2.10135 -1.37559,3.42978c0.42352,0.99158 1.38815,1.5872 2.40391,1.5872c0.34206,0 0.69025,-0.06891 1.02588,-0.21192l22.82766,-9.7513l7.98588,4.61061l-18.99181,8.37388c-0.94809,0.41739 -1.55933,1.35507 -1.55933,2.39105c0,1.03597 0.61123,1.97396 1.55933,2.39105l18.99181,8.37387l-7.98588,4.61061l-22.82766,-9.7513c-1.33333,-0.56775 -2.86449,0.04838 -3.42979,1.37559c-0.56775,1.32843 0.04869,2.86325 1.37559,3.42978l19.22424,8.2125l-16.97375,9.79999l-10.81331,-4.61857c-1.32812,-0.56653 -2.86203,0.05114 -3.42856,1.37681c-0.56775,1.3269 0.04869,2.86203 1.37681,3.42856l7.20837,3.07915l-6.78883,3.91945c-1.25034,0.72209 -1.67784,2.31969 -0.95697,3.57003c0.48476,0.83846 1.36272,1.30669 2.2661,1.30669c0.44281,0 0.89328,-0.11208 1.30394,-0.34971l6.78913,-3.91976l-0.93736,7.78194c-0.17364,1.43285 0.84856,2.73433 2.28142,2.90674c0.10595,0.01286 0.21191,0.01929 0.31633,0.01929c1.30271,0 2.43086,-0.97351 2.5901,-2.30071l1.40682,-11.67351l16.97315,-9.79969l-2.49915,20.75478c-0.17364,1.43286 0.84856,2.73434 2.28142,2.90675c0.10595,0.01286 0.21191,0.01929 0.31633,0.01929c1.30271,0 2.43086,-0.97351 2.5901,-2.30041l2.9686,-24.64605l7.98619,-4.61061l-2.24375,20.63505c-0.11239,1.02832 0.39412,2.02755 1.29137,2.54569c0.8945,0.51416 2.16506,0.4569 3.00198,-0.15434l16.89996,-12.26178l0,11.83458l-20.01187,14.89537c-1.1548,0.8651 -1.46409,2.50343 -0.59776,3.65823c0.8651,1.15479 2.6149,1.39212 3.77215,0.52182l16.83748,-12.5426l0,16.986l-9.5593,7.05586c-1.1548,0.86511 -1.46409,2.50344 -0.59776,3.65824c0.86633,1.15234 2.61735,1.39212 3.77215,0.52181l6.38491,-4.70309l0,7.83951c0,1.44326 1.17011,2.61306 2.61306,2.61306s2.61307,-1.1701 2.61307,-2.61306l0,-7.83951l6.11971,4.70309c0.47068,0.35339 0.94473,0.52305 1.48951,0.52305c0.79498,0 1.54218,-0.36105 2.05481,-1.04486c0.86663,-1.1548 0.76558,-2.79313 -0.38922,-3.65824l-9.27512,-7.05586l0,-16.986l16.5726,12.5426c0.47098,0.35339 0.94472,0.52304 1.4895,0.52304c0.79498,0 1.54218,-0.36105 2.05481,-1.04486c0.86663,-1.1548 0.76558,-2.79313 -0.38922,-3.65823l-19.72769,-14.89537l0,-11.83458l16.59678,12.26178c0.45812,0.33441 0.92452,0.50406 1.46808,0.50406c0.45077,0 0.86296,-0.11606 1.26871,-0.34972c0.89726,-0.51814 1.38478,-1.51706 1.27239,-2.54569l-2.25324,-20.63505l10.24402,5.91699l2.96738,24.64636c0.15955,1.3269 1.28647,2.30041 2.58918,2.30041c0.10473,0 0.20977,-0.00643 0.31572,-0.0193c1.43286,-0.1721 2.45475,-1.47358 2.28112,-2.90674l-2.50099,-20.75509l14.71102,8.49331l1.40682,11.67351c0.15955,1.3269 1.28739,2.30071 2.5901,2.30071c0.10473,0 0.21069,-0.00643 0.31633,-0.01929c1.43286,-0.17241 2.45506,-1.47358 2.28142,-2.90674l-0.93767,-7.78194l6.78913,3.91976c0.41219,0.23733 0.86143,0.34941 1.30393,0.34941c0.90338,0 1.78134,-0.46823 2.26611,-1.30669c0.72086,-1.25034 0.29337,-2.84795 -0.95697,-3.57004l-6.78883,-3.91944l7.20867,-3.07915c1.32904,-0.56623 1.94517,-2.10136 1.37742,-3.42826l-0.00001,0l0,-0.00001zm-104.06606,-25.20032l17.07021,-7.52655l13.03624,7.52655l-13.03653,7.52654l-17.06993,-7.52654l0.00001,0zm33.02361,19.57916l-15.20527,11.02124l2.09247,-18.54655l13.1128,-7.52684l0,15.05215zm0,-24.10556l-13.1128,-7.52715l-2.09247,-18.54655l15.20527,11.02124l0,15.05246zm5.22644,-15.05247l14.9021,-11.02124l-1.9412,18.54655l-12.96121,7.52715l0,-15.05246l0.00031,0zm0,39.15803l0,-15.05215l12.96122,7.52684l1.94119,18.54655l-14.90241,-11.02124zm15.34767,-12.05263l-13.03686,-7.52653l13.03686,-7.52655l17.06992,7.52655l-17.06992,7.52653z" id="svg_149" fill="#ffffff" stroke="null"/>
        </g>
       </g>
      </g>
     </g>
    </g>
    <g id="svg_162" stroke="null">
     <rect transform="matrix(0.20099826868370657,0,0,0.20099826868370657,321.0360348741098,-51.22848146176776) " x="-153.57853" y="1931.20693" width="202" height="202" id="svg_155" fill="none" stroke="null"/>
     <g transform="matrix(0.20099826868370657,0,0,0.20099826868370657,321.0360348741098,-51.22848146176776) " id="svg_161" stroke="null">
      <title>Layer 1</title>
      <g id="svg_160" stroke="null">
       <g id="svg_159" stroke="null">
        <g id="svg_158" stroke="null">
         <path d="m16.15382,2053.8008c-0.5653,-1.32568 -2.0989,-1.94334 -3.42856,-1.37682l-10.81392,4.61857l-14.71071,-8.49391l19.22394,-8.21219c1.32843,-0.56652 1.94456,-2.10135 1.37681,-3.42856c-0.56653,-1.3269 -2.10043,-1.94456 -3.42856,-1.37681l-22.82919,9.75161l-10.24923,-5.9176l18.99181,-8.37388c0.94809,-0.4174 1.55933,-1.35508 1.55933,-2.39105c0,-1.03599 -0.61124,-1.97396 -1.55933,-2.39105l-18.99181,-8.37388l10.24923,-5.9176l22.82919,9.75161c0.33441,0.14301 0.68259,0.21191 1.02465,0.21191c1.01424,0 1.98039,-0.59592 2.40391,-1.58872c0.56775,-1.3269 -0.04869,-2.86203 -1.37681,-3.42856l-19.22394,-8.21219l14.71071,-8.49331l10.81392,4.61826c0.33441,0.14301 0.68259,0.21191 1.02465,0.21191c1.01577,0 1.9804,-0.59592 2.40391,-1.58872c0.56776,-1.3269 -0.04838,-2.86204 -1.37681,-3.42856l-7.20867,-3.07915l6.78883,-3.91945c1.25034,-0.72209 1.67784,-2.3197 0.95697,-3.57004c-0.72362,-1.25034 -2.32368,-1.68029 -3.57034,-0.95697l-6.78914,3.91975l0.93768,-7.78193c0.17363,-1.43285 -0.84857,-2.73433 -2.28142,-2.90674c-1.4304,-0.17486 -2.73433,0.84703 -2.90674,2.28142l-1.40683,11.67351l-14.71101,8.49331l2.50068,-20.75509c0.17363,-1.43285 -0.84857,-2.73434 -2.28142,-2.90674c-1.43683,-0.18006 -2.73433,0.84703 -2.90674,2.28142l-2.96983,24.64636l-10.24862,5.91699l2.24375,-20.63505c0.11239,-1.02832 -0.39412,-2.02755 -1.29137,-2.5457c-0.89818,-0.51538 -1.86066,-0.45812 -2.69881,0.15434l-16.59679,12.26179l0,-9.22121l19.7087,-14.89537c1.1548,-0.8651 1.3122,-2.50343 0.44588,-3.65823c-0.86266,-1.15235 -2.38585,-1.38968 -3.54432,-0.52182l-16.61056,12.5426l0,-19.59846l9.25613,-7.05586c1.15479,-0.8651 1.31219,-2.50344 0.44587,-3.65823c-0.86265,-1.15235 -2.38431,-1.38968 -3.54432,-0.52182l-6.15768,4.70309l0,-7.8395c0,-1.44296 -1.17011,-2.61307 -2.61307,-2.61307s-2.61307,1.17011 -2.61307,2.61307l0,7.8395l-6.42288,-4.70309c-1.15479,-0.86755 -2.86785,-0.63022 -3.73417,0.52182c-0.86633,1.15479 -0.51907,2.79313 0.63573,3.65823l9.52132,7.05586l0,19.59907l-16.87545,-12.5426c-1.15725,-0.86755 -2.86907,-0.63022 -3.73418,0.52182c-0.86632,1.1548 -0.51906,2.79313 0.63574,3.65823l19.97389,14.89537l0,9.22121l-16.89995,-12.26178c-0.8357,-0.61124 -2.02816,-0.66973 -2.92634,-0.15434c-0.89695,0.51814 -1.44112,1.51706 -1.32935,2.54569l2.22508,20.63505l-7.99569,-4.61061l-2.97288,-24.64606c-0.17272,-1.43407 -1.47359,-2.44861 -2.9092,-2.28142c-1.43285,0.17211 -2.45627,1.47359 -2.28233,2.90676l2.49853,20.75477l-16.97375,-9.79969l-1.40682,-11.67351c-0.17088,-1.43285 -1.47879,-2.44097 -2.90675,-2.28142c-1.43285,0.1721 -2.45505,1.47358 -2.28142,2.90674l0.93738,7.78194l-6.78914,-3.91976c-1.25432,-0.72331 -2.84794,-0.29337 -3.57003,0.95697c-0.72087,1.25034 -0.29337,2.84795 0.95697,3.57004l6.78882,3.91945l-7.20775,3.07915c-1.32812,0.56654 -1.94456,2.10166 -1.37681,3.42857c0.42352,0.9928 1.38814,1.58871 2.40391,1.58871c0.34206,0 0.69024,-0.0689 1.02465,-0.21191l10.81331,-4.61825l16.97375,9.79968l-19.22424,8.2125c-1.3269,0.56653 -1.94334,2.10135 -1.37559,3.42978c0.42352,0.99158 1.38815,1.5872 2.40391,1.5872c0.34206,0 0.69025,-0.06891 1.02588,-0.21192l22.82766,-9.7513l7.98588,4.61061l-18.99181,8.37388c-0.94809,0.41739 -1.55933,1.35507 -1.55933,2.39105c0,1.03597 0.61123,1.97396 1.55933,2.39105l18.99181,8.37387l-7.98588,4.61061l-22.82766,-9.7513c-1.33333,-0.56775 -2.86449,0.04838 -3.42979,1.37559c-0.56775,1.32843 0.04869,2.86325 1.37559,3.42978l19.22424,8.2125l-16.97375,9.79999l-10.81331,-4.61857c-1.32812,-0.56653 -2.86203,0.05114 -3.42856,1.37681c-0.56775,1.3269 0.04869,2.86203 1.37681,3.42856l7.20837,3.07915l-6.78883,3.91945c-1.25034,0.72209 -1.67784,2.31969 -0.95697,3.57003c0.48476,0.83846 1.36272,1.30669 2.2661,1.30669c0.44281,0 0.89328,-0.11208 1.30393,-0.34971l6.78914,-3.91977l-0.93737,7.78194c-0.17364,1.43285 0.84856,2.73433 2.28142,2.90674c0.10595,0.01286 0.21191,0.01929 0.31633,0.01929c1.30271,0 2.43086,-0.97351 2.5901,-2.30071l1.40682,-11.67351l16.97315,-9.79969l-2.49915,20.75479c-0.17364,1.43286 0.84856,2.73434 2.28142,2.90675c0.10595,0.01286 0.21191,0.01929 0.31633,0.01929c1.30271,0 2.43086,-0.97351 2.5901,-2.30041l2.9686,-24.64605l7.98619,-4.61061l-2.24375,20.63505c-0.11239,1.02832 0.39412,2.02755 1.29137,2.54569c0.8945,0.51416 2.16506,0.4569 3.00198,-0.15434l16.89996,-12.26178l0,11.83459l-20.01187,14.89537c-1.1548,0.8651 -1.46409,2.50343 -0.59776,3.65823c0.8651,1.15479 2.6149,1.39212 3.77215,0.52182l16.83748,-12.5426l0,16.986l-9.5593,7.05586c-1.1548,0.86511 -1.46409,2.50344 -0.59776,3.65824c0.86633,1.15234 2.61735,1.39212 3.77215,0.52181l6.38491,-4.70309l0,7.83951c0,1.44326 1.17011,2.61306 2.61306,2.61306s2.61307,-1.1701 2.61307,-2.61306l0,-7.83951l6.11971,4.70309c0.47068,0.35339 0.94473,0.52305 1.48951,0.52305c0.79498,0 1.54218,-0.36105 2.05481,-1.04486c0.86663,-1.1548 0.76558,-2.79313 -0.38922,-3.65824l-9.27512,-7.05586l0,-16.986l16.5726,12.5426c0.47098,0.35339 0.94472,0.52304 1.4895,0.52304c0.79498,0 1.54218,-0.36105 2.05481,-1.04486c0.86663,-1.1548 0.76558,-2.79313 -0.38922,-3.65823l-19.72769,-14.89537l0,-11.83459l16.59679,12.26178c0.45812,0.33441 0.92451,0.50406 1.46807,0.50406c0.45077,0 0.86296,-0.11606 1.26871,-0.34972c0.89726,-0.51814 1.38478,-1.51706 1.27239,-2.54569l-2.25324,-20.63505l10.24402,5.91699l2.96738,24.64636c0.15955,1.3269 1.28647,2.30041 2.58918,2.30041c0.10473,0 0.20977,-0.00643 0.31572,-0.0193c1.43286,-0.1721 2.45475,-1.47358 2.28112,-2.90674l-2.50099,-20.75509l14.71102,8.49331l1.40682,11.67351c0.15955,1.3269 1.28739,2.30071 2.5901,2.30071c0.10473,0 0.21069,-0.00643 0.31633,-0.01929c1.43286,-0.17241 2.45506,-1.47358 2.28142,-2.90674l-0.93767,-7.78194l6.78913,3.91976c0.41219,0.23733 0.86143,0.34941 1.30393,0.34941c0.90338,0 1.78134,-0.46823 2.26611,-1.30669c0.72086,-1.25034 0.29337,-2.84795 -0.95697,-3.57004l-6.78883,-3.91944l7.20867,-3.07915c1.32904,-0.56623 1.94517,-2.10136 1.37742,-3.42826zm-104.06606,-25.20033l17.07021,-7.52654l13.03624,7.52654l-13.03654,7.52654l-17.06992,-7.52654l0.00001,0zm33.02361,19.57916l-15.20527,11.02124l2.09247,-18.54655l13.1128,-7.52684l0,15.05215zm0,-24.10556l-13.1128,-7.52715l-2.09247,-18.54655l15.20527,11.02124l0,15.05246zm5.22644,-15.05246l14.9021,-11.02124l-1.9412,18.54655l-12.96121,7.52715l0,-15.05247l0.00031,0l0,0.00001zm0,39.15802l0,-15.05215l12.96121,7.52684l1.9412,18.54655l-14.90241,-11.02124zm15.34767,-12.05263l-13.03686,-7.52653l13.03686,-7.52654l17.06991,7.52654l-17.06991,7.52653z" id="svg_157" fill="#ffffff" stroke="null"/>
        </g>
       </g>
      </g>
     </g>
    </g>
    <g id="svg_170" stroke="null">
     <rect transform="matrix(0.20099826868370657,0,0,0.20099826868370657,321.0360348741098,-51.22848146176776) " x="-435.63307" y="2007.6201" width="202" height="202" id="svg_163" fill="none" stroke="null"/>
     <g transform="matrix(0.20099826868370657,0,0,0.20099826868370657,321.0360348741098,-51.22848146176776) " id="svg_169" stroke="null">
      <title>Layer 1</title>
      <g id="svg_168" stroke="null">
       <g id="svg_167" stroke="null">
        <g id="svg_166" stroke="null">
         <path d="m-265.90072,2130.21398c-0.5653,-1.32568 -2.0989,-1.94334 -3.42856,-1.37682l-10.81392,4.61858l-14.71071,-8.49392l19.22394,-8.2122c1.32843,-0.56651 1.94456,-2.10134 1.37681,-3.42855c-0.56653,-1.3269 -2.10043,-1.94456 -3.42856,-1.37682l-22.82919,9.75161l-10.24923,-5.9176l18.99181,-8.37388c0.94809,-0.41739 1.55933,-1.35507 1.55933,-2.39105c0,-1.03598 -0.61124,-1.97396 -1.55933,-2.39105l-18.99181,-8.37388l10.24923,-5.9176l22.82919,9.75161c0.33441,0.14301 0.68259,0.21191 1.02465,0.21191c1.01424,0 1.98039,-0.59592 2.40391,-1.58872c0.56775,-1.3269 -0.04869,-2.86203 -1.37681,-3.42856l-19.22394,-8.21219l14.71071,-8.49331l10.81392,4.61827c0.33441,0.14301 0.68259,0.21191 1.02465,0.21191c1.01577,0 1.9804,-0.59592 2.40391,-1.58872c0.56776,-1.3269 -0.04838,-2.86204 -1.37681,-3.42856l-7.20867,-3.07915l6.78883,-3.91945c1.25034,-0.72209 1.67784,-2.3197 0.95697,-3.57004c-0.72362,-1.25034 -2.32368,-1.68029 -3.57034,-0.95697l-6.78914,3.91975l0.93768,-7.78193c0.17363,-1.43285 -0.84857,-2.73433 -2.28142,-2.90674c-1.4304,-0.17486 -2.73433,0.84703 -2.90674,2.28142l-1.40683,11.67351l-14.71101,8.49331l2.50068,-20.75509c0.17363,-1.43285 -0.84857,-2.73434 -2.28142,-2.90674c-1.43683,-0.18007 -2.73433,0.84703 -2.90674,2.28142l-2.96983,24.64636l-10.24862,5.91699l2.24375,-20.63505c0.11239,-1.02832 -0.39412,-2.02755 -1.29137,-2.5457c-0.89818,-0.51538 -1.86066,-0.45812 -2.69881,0.15434l-16.59679,12.26179l0,-9.22122l19.7087,-14.89537c1.1548,-0.8651 1.3122,-2.50343 0.44588,-3.65823c-0.86266,-1.15235 -2.38585,-1.38968 -3.54432,-0.52182l-16.61056,12.5426l0,-19.59846l9.25613,-7.05586c1.15479,-0.8651 1.31219,-2.50344 0.44587,-3.65823c-0.86265,-1.15235 -2.38431,-1.38968 -3.54432,-0.52182l-6.15768,4.70309l0,-7.8395c0,-1.44296 -1.17011,-2.61307 -2.61307,-2.61307s-2.61307,1.17011 -2.61307,2.61307l0,7.8395l-6.42288,-4.70309c-1.15479,-0.86755 -2.86785,-0.63022 -3.73417,0.52182c-0.86633,1.15479 -0.51907,2.79313 0.63573,3.65823l9.52132,7.05586l0,19.59907l-16.87545,-12.5426c-1.15725,-0.86755 -2.86907,-0.63022 -3.73418,0.52182c-0.86632,1.1548 -0.51906,2.79313 0.63574,3.65823l19.97389,14.89537l0,9.22122l-16.89995,-12.26178c-0.8357,-0.61124 -2.02816,-0.66973 -2.92634,-0.15434c-0.89695,0.51814 -1.44112,1.51706 -1.32935,2.54569l2.22508,20.63505l-7.99569,-4.61061l-2.97288,-24.64606c-0.17272,-1.43407 -1.47359,-2.44862 -2.9092,-2.28142c-1.43285,0.17211 -2.45627,1.47359 -2.28233,2.90675l2.49853,20.75478l-16.97375,-9.79969l-1.40682,-11.67351c-0.17088,-1.43285 -1.47879,-2.44097 -2.90675,-2.28142c-1.43285,0.1721 -2.45505,1.47358 -2.28142,2.90674l0.93738,7.78194l-6.78914,-3.91976c-1.25432,-0.72331 -2.84794,-0.29337 -3.57003,0.95697c-0.72087,1.25034 -0.29337,2.84795 0.95697,3.57004l6.78882,3.91945l-7.20775,3.07915c-1.32812,0.56653 -1.94456,2.10166 -1.37681,3.42856c0.42352,0.9928 1.38814,1.58872 2.40391,1.58872c0.34206,0 0.69024,-0.0689 1.02465,-0.21191l10.81331,-4.61826l16.97375,9.79968l-19.22424,8.2125c-1.3269,0.56653 -1.94334,2.10135 -1.37559,3.42978c0.42352,0.99158 1.38815,1.5872 2.40391,1.5872c0.34206,0 0.69025,-0.06891 1.02588,-0.21192l22.82766,-9.7513l7.98588,4.61061l-18.99181,8.37388c-0.94809,0.41739 -1.55933,1.35507 -1.55933,2.39105c0,1.03597 0.61123,1.97396 1.55933,2.39105l18.99181,8.37387l-7.98588,4.61061l-22.82766,-9.7513c-1.33333,-0.56775 -2.86449,0.04838 -3.42979,1.37559c-0.56775,1.32843 0.04869,2.86325 1.37559,3.42978l19.22424,8.2125l-16.97375,9.79999l-10.81331,-4.61857c-1.32812,-0.56653 -2.86203,0.05114 -3.42856,1.37681c-0.56775,1.3269 0.04869,2.86203 1.37681,3.42856l7.20837,3.07915l-6.78883,3.91945c-1.25034,0.72209 -1.67784,2.31969 -0.95697,3.57003c0.48476,0.83846 1.36272,1.30669 2.2661,1.30669c0.44281,0 0.89328,-0.11208 1.30393,-0.34971l6.78914,-3.91976l-0.93737,7.78194c-0.17364,1.43285 0.84856,2.73433 2.28142,2.90674c0.10595,0.01286 0.21191,0.01929 0.31633,0.01929c1.30271,0 2.43086,-0.97351 2.5901,-2.30071l1.40682,-11.67351l16.97315,-9.79969l-2.49915,20.75478c-0.17364,1.43286 0.84856,2.73434 2.28142,2.90675c0.10595,0.01286 0.21191,0.01929 0.31633,0.01929c1.30271,0 2.43086,-0.97351 2.5901,-2.30041l2.9686,-24.64605l7.98619,-4.61061l-2.24375,20.63505c-0.11239,1.02832 0.39412,2.02755 1.29137,2.54569c0.8945,0.51416 2.16506,0.4569 3.00198,-0.15434l16.89996,-12.26178l0,11.83459l-20.01187,14.89537c-1.1548,0.8651 -1.46409,2.50343 -0.59776,3.65823c0.8651,1.15479 2.6149,1.39212 3.77215,0.52182l16.83748,-12.5426l0,16.986l-9.5593,7.05586c-1.1548,0.86511 -1.46409,2.50344 -0.59776,3.65824c0.86633,1.15234 2.61735,1.39212 3.77215,0.52181l6.38491,-4.70309l0,7.83951c0,1.44326 1.17011,2.61306 2.61306,2.61306s2.61307,-1.1701 2.61307,-2.61306l0,-7.83951l6.11971,4.70309c0.47068,0.35339 0.94473,0.52305 1.48951,0.52305c0.79498,0 1.54218,-0.36105 2.05481,-1.04486c0.86663,-1.1548 0.76558,-2.79313 -0.38922,-3.65824l-9.27512,-7.05586l0,-16.986l16.5726,12.5426c0.47098,0.35339 0.94472,0.52304 1.4895,0.52304c0.79498,0 1.54218,-0.36105 2.05481,-1.04486c0.86663,-1.1548 0.76558,-2.79313 -0.38922,-3.65823l-19.72769,-14.89537l0,-11.83459l16.59679,12.26178c0.45812,0.33441 0.92451,0.50406 1.46807,0.50406c0.45077,0 0.86296,-0.11606 1.26871,-0.34972c0.89726,-0.51814 1.38478,-1.51706 1.27239,-2.54569l-2.25324,-20.63505l10.24402,5.91699l2.96738,24.64636c0.15955,1.3269 1.28647,2.30041 2.58918,2.30041c0.10473,0 0.20977,-0.00643 0.31572,-0.0193c1.43286,-0.1721 2.45475,-1.47358 2.28112,-2.90674l-2.50099,-20.75509l14.71102,8.49331l1.40682,11.67351c0.15955,1.3269 1.28739,2.30071 2.5901,2.30071c0.10473,0 0.21069,-0.00643 0.31633,-0.01929c1.43286,-0.17241 2.45506,-1.47358 2.28142,-2.90674l-0.93767,-7.78194l6.78913,3.91976c0.41219,0.23733 0.86143,0.34941 1.30393,0.34941c0.90338,0 1.78134,-0.46823 2.26611,-1.30669c0.72086,-1.25034 0.29337,-2.84795 -0.95697,-3.57004l-6.78883,-3.91944l7.20867,-3.07915c1.32904,-0.56623 1.94517,-2.10136 1.37742,-3.42826l0,0.00001zm-104.06606,-25.20034l17.07021,-7.52653l13.03624,7.52653l-13.03654,7.52654l-17.06992,-7.52654l0.00001,0zm33.02361,19.57917l-15.20527,11.02124l2.09247,-18.54655l13.1128,-7.52684l0,15.05215zm0,-24.10556l-13.1128,-7.52715l-2.09247,-18.54655l15.20527,11.02124l0,15.05246zm5.22644,-15.05246l14.9021,-11.02124l-1.9412,18.54655l-12.96121,7.52715l0,-15.05246l0.00031,0zm0,39.15802l0,-15.05215l12.96121,7.52684l1.9412,18.54655l-14.90241,-11.02124zm15.34767,-12.05263l-13.03686,-7.52654l13.03686,-7.52653l17.06991,7.52653l-17.06991,7.52654z" id="svg_165" fill="#ffffff" stroke="null"/>
        </g>
       </g>
      </g>
     </g>
    </g>
    <g id="svg_178" stroke="null">
     <rect transform="matrix(0.20099826868370657,0,0,0.20099826868370657,321.0360348741098,-51.22848146176776) " x="-722.1825" y="1931.20693" width="202" height="202" id="svg_171" fill="none" stroke="null"/>
     <g transform="matrix(0.20099826868370657,0,0,0.20099826868370657,321.0360348741098,-51.22848146176776) " id="svg_177" stroke="null">
      <title>Layer 1</title>
      <g id="svg_176" stroke="null">
       <g id="svg_175" stroke="null">
        <g id="svg_174" stroke="null">
         <path d="m-552.45015,2053.8008c-0.5653,-1.32568 -2.0989,-1.94334 -3.42856,-1.37682l-10.81392,4.61857l-14.71071,-8.49391l19.22394,-8.21219c1.32843,-0.56652 1.94456,-2.10135 1.37681,-3.42856c-0.56653,-1.3269 -2.10043,-1.94456 -3.42856,-1.37681l-22.82919,9.75161l-10.24923,-5.9176l18.99181,-8.37388c0.94809,-0.4174 1.55933,-1.35508 1.55933,-2.39105c0,-1.03599 -0.61124,-1.97396 -1.55933,-2.39105l-18.99181,-8.37388l10.24923,-5.9176l22.82919,9.75161c0.33441,0.14301 0.68259,0.21191 1.02465,0.21191c1.01424,0 1.98039,-0.59592 2.40391,-1.58872c0.56775,-1.3269 -0.04869,-2.86203 -1.37681,-3.42856l-19.22394,-8.21219l14.71071,-8.49331l10.81392,4.61826c0.33441,0.14301 0.68259,0.21191 1.02465,0.21191c1.01577,0 1.9804,-0.59592 2.40391,-1.58872c0.56776,-1.3269 -0.04838,-2.86204 -1.37681,-3.42856l-7.20867,-3.07915l6.78883,-3.91945c1.25034,-0.72209 1.67784,-2.3197 0.95697,-3.57004c-0.72362,-1.25034 -2.32368,-1.68029 -3.57034,-0.95697l-6.78914,3.91975l0.93768,-7.78193c0.17363,-1.43285 -0.84857,-2.73433 -2.28142,-2.90674c-1.4304,-0.17486 -2.73433,0.84703 -2.90674,2.28142l-1.40683,11.67351l-14.71101,8.49331l2.50068,-20.75509c0.17363,-1.43285 -0.84857,-2.73434 -2.28142,-2.90674c-1.43683,-0.18006 -2.73433,0.84703 -2.90674,2.28142l-2.96983,24.64636l-10.24862,5.91699l2.24375,-20.63505c0.11239,-1.02832 -0.39412,-2.02755 -1.29137,-2.5457c-0.89818,-0.51538 -1.86066,-0.45812 -2.69881,0.15434l-16.59679,12.26179l0,-9.22121l19.7087,-14.89537c1.1548,-0.8651 1.3122,-2.50343 0.44588,-3.65823c-0.86266,-1.15235 -2.38585,-1.38968 -3.54432,-0.52182l-16.61056,12.5426l0,-19.59846l9.25613,-7.05586c1.15479,-0.8651 1.31219,-2.50344 0.44587,-3.65823c-0.86265,-1.15235 -2.38431,-1.38968 -3.54432,-0.52182l-6.15768,4.70309l0,-7.8395c0,-1.44296 -1.17011,-2.61307 -2.61307,-2.61307s-2.61307,1.17011 -2.61307,2.61307l0,7.8395l-6.42288,-4.70309c-1.15479,-0.86755 -2.86785,-0.63022 -3.73417,0.52182c-0.86633,1.15479 -0.51907,2.79313 0.63573,3.65823l9.52132,7.05586l0,19.59907l-16.87545,-12.5426c-1.15725,-0.86755 -2.86907,-0.63022 -3.73418,0.52182c-0.86632,1.1548 -0.51906,2.79313 0.63574,3.65823l19.97389,14.89537l0,9.22121l-16.89995,-12.26178c-0.8357,-0.61124 -2.02816,-0.66973 -2.92634,-0.15434c-0.89695,0.51814 -1.44112,1.51706 -1.32935,2.54569l2.22508,20.63505l-7.99569,-4.61061l-2.97288,-24.64606c-0.17272,-1.43407 -1.47359,-2.44861 -2.9092,-2.28142c-1.43285,0.17211 -2.45627,1.47359 -2.28233,2.90676l2.49853,20.75477l-16.97375,-9.79969l-1.40682,-11.67351c-0.17088,-1.43285 -1.47879,-2.44097 -2.90675,-2.28142c-1.43285,0.1721 -2.45505,1.47358 -2.28142,2.90674l0.93738,7.78194l-6.78914,-3.91976c-1.25432,-0.72331 -2.84794,-0.29337 -3.57003,0.95697c-0.72087,1.25034 -0.29337,2.84795 0.95697,3.57004l6.78882,3.91945l-7.20775,3.07915c-1.32812,0.56654 -1.94456,2.10166 -1.37681,3.42857c0.42352,0.9928 1.38814,1.58871 2.40391,1.58871c0.34206,0 0.69024,-0.0689 1.02465,-0.21191l10.81331,-4.61825l16.97375,9.79968l-19.22424,8.2125c-1.3269,0.56653 -1.94334,2.10135 -1.37559,3.42978c0.42352,0.99158 1.38815,1.5872 2.40391,1.5872c0.34206,0 0.69025,-0.06891 1.02588,-0.21192l22.82766,-9.7513l7.98588,4.61061l-18.99181,8.37388c-0.94809,0.41739 -1.55933,1.35507 -1.55933,2.39105c0,1.03597 0.61123,1.97396 1.55933,2.39105l18.99181,8.37387l-7.98588,4.61061l-22.82766,-9.7513c-1.33333,-0.56775 -2.86449,0.04838 -3.42979,1.37559c-0.56775,1.32843 0.04869,2.86325 1.37559,3.42978l19.22424,8.2125l-16.97375,9.79999l-10.81331,-4.61857c-1.32812,-0.56653 -2.86203,0.05114 -3.42856,1.37681c-0.56775,1.3269 0.04869,2.86203 1.37681,3.42856l7.20837,3.07915l-6.78883,3.91945c-1.25034,0.72209 -1.67784,2.31969 -0.95697,3.57003c0.48476,0.83846 1.36272,1.30669 2.2661,1.30669c0.44281,0 0.89328,-0.11208 1.30393,-0.34971l6.78914,-3.91977l-0.93737,7.78194c-0.17364,1.43285 0.84856,2.73433 2.28142,2.90674c0.10595,0.01286 0.21191,0.01929 0.31633,0.01929c1.30271,0 2.43086,-0.97351 2.5901,-2.30071l1.40682,-11.67351l16.97315,-9.79969l-2.49915,20.75479c-0.17364,1.43286 0.84856,2.73434 2.28142,2.90675c0.10595,0.01286 0.21191,0.01929 0.31633,0.01929c1.30271,0 2.43086,-0.97351 2.5901,-2.30041l2.9686,-24.64605l7.98619,-4.61061l-2.24375,20.63505c-0.11239,1.02832 0.39412,2.02755 1.29137,2.54569c0.8945,0.51416 2.16506,0.4569 3.00198,-0.15434l16.89996,-12.26178l0,11.83459l-20.01187,14.89537c-1.1548,0.8651 -1.46409,2.50343 -0.59776,3.65823c0.8651,1.15479 2.6149,1.39212 3.77215,0.52182l16.83748,-12.5426l0,16.986l-9.5593,7.05586c-1.1548,0.86511 -1.46409,2.50344 -0.59776,3.65824c0.86633,1.15234 2.61735,1.39212 3.77215,0.52181l6.38491,-4.70309l0,7.83951c0,1.44326 1.17011,2.61306 2.61306,2.61306s2.61307,-1.1701 2.61307,-2.61306l0,-7.83951l6.11971,4.70309c0.47068,0.35339 0.94473,0.52305 1.48951,0.52305c0.79498,0 1.54218,-0.36105 2.05481,-1.04486c0.86663,-1.1548 0.76558,-2.79313 -0.38922,-3.65824l-9.27512,-7.05586l0,-16.986l16.5726,12.5426c0.47098,0.35339 0.94472,0.52304 1.4895,0.52304c0.79498,0 1.54218,-0.36105 2.05481,-1.04486c0.86663,-1.1548 0.76558,-2.79313 -0.38922,-3.65823l-19.72769,-14.89537l0,-11.83459l16.59679,12.26178c0.45812,0.33441 0.92451,0.50406 1.46807,0.50406c0.45077,0 0.86296,-0.11606 1.26871,-0.34972c0.89726,-0.51814 1.38478,-1.51706 1.27239,-2.54569l-2.25324,-20.63505l10.24402,5.91699l2.96738,24.64636c0.15955,1.3269 1.28647,2.30041 2.58918,2.30041c0.10473,0 0.20977,-0.00643 0.31572,-0.0193c1.43286,-0.1721 2.45475,-1.47358 2.28112,-2.90674l-2.50099,-20.75509l14.71102,8.49331l1.40682,11.67351c0.15955,1.3269 1.28739,2.30071 2.5901,2.30071c0.10473,0 0.21069,-0.00643 0.31633,-0.01929c1.43286,-0.17241 2.45506,-1.47358 2.28142,-2.90674l-0.93767,-7.78194l6.78913,3.91976c0.41219,0.23733 0.86143,0.34941 1.30393,0.34941c0.90338,0 1.78134,-0.46823 2.26611,-1.30669c0.72086,-1.25034 0.29337,-2.84795 -0.95697,-3.57004l-6.78883,-3.91944l7.20867,-3.07915c1.32904,-0.56623 1.94517,-2.10136 1.37742,-3.42826zm-104.06606,-25.20033l17.07021,-7.52654l13.03624,7.52654l-13.03654,7.52654l-17.06992,-7.52654l0.00001,0zm33.02361,19.57916l-15.20527,11.02124l2.09247,-18.54655l13.1128,-7.52684l0,15.05215zm0,-24.10556l-13.1128,-7.52715l-2.09247,-18.54655l15.20527,11.02124l0,15.05246zm5.22644,-15.05246l14.9021,-11.02124l-1.9412,18.54655l-12.96121,7.52715l0,-15.05247l0.00031,0l0,0.00001zm0,39.15802l0,-15.05215l12.96121,7.52684l1.9412,18.54655l-14.90241,-11.02124zm15.34767,-12.05263l-13.03686,-7.52653l13.03686,-7.52654l17.06991,7.52654l-17.06991,7.52653z" id="svg_173" fill="#ffffff" stroke="null"/>
        </g>
       </g>
      </g>
     </g>
    </g>
    <g id="svg_186" stroke="null">
     <rect transform="matrix(0.20099826868370657,0,0,0.20099826868370657,321.0360348741098,-51.22848146176776) " x="-931.19499" y="1728.93675" width="202" height="202" id="svg_179" fill="none" stroke="null"/>
     <g transform="matrix(0.20099826868370657,0,0,0.20099826868370657,321.0360348741098,-51.22848146176776) " id="svg_185" stroke="null">
      <title>Layer 1</title>
      <g id="svg_184" stroke="null">
       <g id="svg_183" stroke="null">
        <g id="svg_182" stroke="null">
         <path d="m-761.46265,1851.53061c-0.5653,-1.32567 -2.0989,-1.94334 -3.42856,-1.37681l-10.81392,4.61858l-14.71071,-8.49392l19.22394,-8.21219c1.32843,-0.56652 1.94456,-2.10135 1.37681,-3.42856c-0.56653,-1.3269 -2.10043,-1.94456 -3.42856,-1.37681l-22.82919,9.75161l-10.24923,-5.9176l18.99181,-8.37388c0.94809,-0.4174 1.55933,-1.35508 1.55933,-2.39105c0,-1.03599 -0.61124,-1.97396 -1.55933,-2.39105l-18.99181,-8.37388l10.24923,-5.9176l22.82919,9.75161c0.33441,0.14301 0.68259,0.21191 1.02465,0.21191c1.01424,0 1.98039,-0.59592 2.40391,-1.58872c0.56775,-1.3269 -0.04869,-2.86203 -1.37681,-3.42856l-19.22394,-8.21219l14.71071,-8.49331l10.81392,4.61826c0.33441,0.14301 0.68259,0.21191 1.02465,0.21191c1.01577,0 1.9804,-0.59592 2.40391,-1.58872c0.56776,-1.3269 -0.04838,-2.86203 -1.37681,-3.42856l-7.20867,-3.07915l6.78883,-3.91945c1.25034,-0.72209 1.67784,-2.3197 0.95697,-3.57004c-0.72362,-1.25034 -2.32368,-1.68029 -3.57034,-0.95697l-6.78914,3.91975l0.93768,-7.78193c0.17363,-1.43285 -0.84857,-2.73433 -2.28142,-2.90674c-1.4304,-0.17486 -2.73433,0.84703 -2.90674,2.28142l-1.40683,11.67351l-14.71101,8.49331l2.50068,-20.75509c0.17363,-1.43285 -0.84857,-2.73434 -2.28142,-2.90674c-1.43683,-0.18006 -2.73433,0.84703 -2.90674,2.28142l-2.96983,24.64636l-10.24862,5.91699l2.24375,-20.63505c0.11239,-1.02832 -0.39412,-2.02755 -1.29137,-2.5457c-0.89818,-0.51538 -1.86066,-0.45812 -2.69881,0.15434l-16.59679,12.26179l0,-9.22121l19.7087,-14.89537c1.1548,-0.8651 1.3122,-2.50343 0.44588,-3.65823c-0.86266,-1.15235 -2.38585,-1.38968 -3.54432,-0.52182l-16.61056,12.5426l0,-19.59846l9.25613,-7.05586c1.15479,-0.8651 1.31219,-2.50344 0.44587,-3.65823c-0.86265,-1.15235 -2.38431,-1.38968 -3.54432,-0.52182l-6.15768,4.70309l0,-7.8395c0,-1.44296 -1.17011,-2.61307 -2.61307,-2.61307s-2.61307,1.17011 -2.61307,2.61307l0,7.8395l-6.42288,-4.70309c-1.15479,-0.86755 -2.86785,-0.63022 -3.73417,0.52182c-0.86633,1.15479 -0.51907,2.79313 0.63573,3.65823l9.52132,7.05586l0,19.59907l-16.87545,-12.5426c-1.15725,-0.86755 -2.86907,-0.63022 -3.73418,0.52182c-0.86632,1.1548 -0.51906,2.79313 0.63574,3.65823l19.97389,14.89537l0,9.22122l-16.89995,-12.26179c-0.8357,-0.61123 -2.02816,-0.66973 -2.92634,-0.15434c-0.89695,0.51814 -1.44112,1.51706 -1.32935,2.54569l2.22508,20.63505l-7.99569,-4.61061l-2.97288,-24.64606c-0.17272,-1.43407 -1.47359,-2.44861 -2.9092,-2.28142c-1.43285,0.17211 -2.45627,1.47359 -2.28233,2.90676l2.49853,20.75478l-16.97375,-9.7997l-1.40682,-11.67351c-0.17088,-1.43285 -1.47879,-2.44097 -2.90675,-2.28142c-1.43285,0.1721 -2.45505,1.47358 -2.28142,2.90674l0.93738,7.78194l-6.78914,-3.91976c-1.25432,-0.72331 -2.84794,-0.29337 -3.57003,0.95697c-0.72087,1.25034 -0.29337,2.84795 0.95697,3.57004l6.78882,3.91945l-7.20775,3.07915c-1.32812,0.56654 -1.94456,2.10167 -1.37681,3.42857c0.42352,0.9928 1.38814,1.58872 2.40391,1.58872c0.34206,0 0.69024,-0.0689 1.02465,-0.21191l10.81331,-4.61826l16.97375,9.79968l-19.22424,8.2125c-1.3269,0.56653 -1.94334,2.10135 -1.37559,3.42978c0.42352,0.99158 1.38815,1.5872 2.40391,1.5872c0.34206,0 0.69025,-0.06891 1.02588,-0.21192l22.82766,-9.7513l7.98588,4.61061l-18.99181,8.37388c-0.94809,0.41739 -1.55933,1.35507 -1.55933,2.39105c0,1.03597 0.61123,1.97396 1.55933,2.39105l18.99181,8.37387l-7.98588,4.61061l-22.82766,-9.7513c-1.33333,-0.56775 -2.86449,0.04838 -3.42979,1.37559c-0.56775,1.32843 0.04869,2.86325 1.37559,3.42978l19.22424,8.2125l-16.97375,9.79999l-10.81331,-4.61857c-1.32812,-0.56653 -2.86203,0.05114 -3.42856,1.37681c-0.56775,1.3269 0.04869,2.86203 1.37681,3.42856l7.20837,3.07915l-6.78883,3.91945c-1.25034,0.72209 -1.67784,2.31969 -0.95697,3.57003c0.48476,0.83846 1.36272,1.30669 2.2661,1.30669c0.44281,0 0.89328,-0.11208 1.30393,-0.34971l6.78914,-3.91976l-0.93737,7.78194c-0.17364,1.43285 0.84856,2.73433 2.28142,2.90674c0.10595,0.01286 0.21191,0.01929 0.31633,0.01929c1.30271,0 2.43086,-0.97351 2.5901,-2.30071l1.40682,-11.67351l16.97315,-9.79969l-2.49915,20.75478c-0.17364,1.43286 0.84856,2.73434 2.28142,2.90675c0.10595,0.01286 0.21191,0.01929 0.31633,0.01929c1.30271,0 2.43086,-0.97351 2.5901,-2.30041l2.9686,-24.64605l7.98619,-4.61061l-2.24375,20.63505c-0.11239,1.02832 0.39412,2.02755 1.29137,2.54569c0.8945,0.51416 2.16506,0.4569 3.00198,-0.15434l16.89996,-12.26178l0,11.83458l-20.01187,14.89537c-1.1548,0.8651 -1.46409,2.50343 -0.59776,3.65823c0.8651,1.15479 2.6149,1.39212 3.77215,0.52182l16.83748,-12.5426l0,16.986l-9.5593,7.05586c-1.1548,0.86511 -1.46409,2.50344 -0.59776,3.65824c0.86633,1.15234 2.61735,1.39212 3.77215,0.52181l6.38491,-4.70309l0,7.83951c0,1.44326 1.17011,2.61306 2.61306,2.61306s2.61307,-1.1701 2.61307,-2.61306l0,-7.83951l6.11971,4.70309c0.47068,0.35339 0.94473,0.52305 1.48951,0.52305c0.79498,0 1.54218,-0.36105 2.05481,-1.04486c0.86663,-1.1548 0.76558,-2.79313 -0.38922,-3.65824l-9.27512,-7.05586l0,-16.986l16.5726,12.5426c0.47098,0.35339 0.94472,0.52304 1.4895,0.52304c0.79498,0 1.54218,-0.36105 2.05481,-1.04486c0.86663,-1.1548 0.76558,-2.79313 -0.38922,-3.65823l-19.72769,-14.89537l0,-11.83458l16.59679,12.26178c0.45812,0.33441 0.92451,0.50406 1.46807,0.50406c0.45077,0 0.86296,-0.11606 1.26871,-0.34972c0.89726,-0.51814 1.38478,-1.51706 1.27239,-2.54569l-2.25324,-20.63505l10.24402,5.91699l2.96738,24.64636c0.15955,1.3269 1.28647,2.30041 2.58918,2.30041c0.10473,0 0.20977,-0.00643 0.31572,-0.0193c1.43286,-0.1721 2.45475,-1.47358 2.28112,-2.90674l-2.50099,-20.75509l14.71102,8.49331l1.40682,11.67351c0.15955,1.3269 1.28739,2.30071 2.5901,2.30071c0.10473,0 0.21069,-0.00643 0.31633,-0.01929c1.43286,-0.17241 2.45506,-1.47358 2.28142,-2.90674l-0.93767,-7.78194l6.78913,3.91976c0.41219,0.23733 0.86143,0.34941 1.30393,0.34941c0.90338,0 1.78134,-0.46823 2.26611,-1.30669c0.72086,-1.25034 0.29337,-2.84795 -0.95697,-3.57004l-6.78883,-3.91944l7.20867,-3.07915c1.32904,-0.56623 1.94517,-2.10136 1.37742,-3.42826l0,-0.00001zm-104.06606,-25.20032l17.07021,-7.52655l13.03624,7.52655l-13.03654,7.52654l-17.06992,-7.52654l0.00001,0zm33.02361,19.57916l-15.20527,11.02124l2.09247,-18.54655l13.1128,-7.52684l0,15.05215zm0,-24.10556l-13.1128,-7.52715l-2.09247,-18.54655l15.20527,11.02124l0,15.05246zm5.22644,-15.05247l14.9021,-11.02124l-1.9412,18.54655l-12.96121,7.52715l0,-15.05246l0.00031,0zm0,39.15803l0,-15.05215l12.96121,7.52684l1.9412,18.54655l-14.90241,-11.02124zm15.34767,-12.05263l-13.03686,-7.52653l13.03686,-7.52655l17.06991,7.52655l-17.06991,7.52653z" id="svg_181" fill="#ffffff" stroke="null"/>
        </g>
       </g>
      </g>
     </g>
    </g>
    <g id="svg_26" stroke="null">
     <rect transform="matrix(0.20099826868370657,0,0,0.20099826868370657,321.0360348741098,-51.22848146176776) " x="-931.19501" y="1153.59044" width="202" height="202" id="svg_13" fill="none" stroke="null"/>
     <g transform="matrix(0.20099826868370657,0,0,0.20099826868370657,321.0360348741098,-51.22848146176776) " id="svg_25" stroke="null">
      <title>Layer 1</title>
      <g id="svg_24" stroke="null">
       <g id="svg_20" stroke="null">
        <g id="svg_18" stroke="null">
         <path d="m-761.46266,1276.18429c-0.5653,-1.32567 -2.0989,-1.94334 -3.42856,-1.37681l-10.81392,4.61857l-14.71071,-8.49392l19.22394,-8.21219c1.32843,-0.56652 1.94456,-2.10135 1.37681,-3.42856c-0.56653,-1.3269 -2.10043,-1.94456 -3.42856,-1.37681l-22.82919,9.75161l-10.24923,-5.9176l18.99181,-8.37388c0.94809,-0.41739 1.55933,-1.35507 1.55933,-2.39105c0,-1.03598 -0.61124,-1.97396 -1.55933,-2.39105l-18.99181,-8.37388l10.24923,-5.9176l22.82919,9.75161c0.33441,0.14301 0.68259,0.21191 1.02465,0.21191c1.01424,0 1.98039,-0.59592 2.40391,-1.58872c0.56775,-1.3269 -0.04869,-2.86203 -1.37681,-3.42856l-19.22394,-8.21219l14.71071,-8.49331l10.81392,4.61827c0.33441,0.14301 0.68259,0.21191 1.02465,0.21191c1.01577,0 1.9804,-0.59592 2.40391,-1.58872c0.56776,-1.3269 -0.04838,-2.86204 -1.37681,-3.42856l-7.20867,-3.07915l6.78883,-3.91945c1.25034,-0.72209 1.67784,-2.3197 0.95697,-3.57004c-0.72362,-1.25034 -2.32368,-1.68029 -3.57034,-0.95697l-6.78914,3.91975l0.93768,-7.78193c0.17363,-1.43285 -0.84857,-2.73433 -2.28142,-2.90674c-1.4304,-0.17486 -2.73433,0.84703 -2.90674,2.28142l-1.40683,11.67351l-14.71101,8.49331l2.50068,-20.75509c0.17363,-1.43285 -0.84857,-2.73434 -2.28142,-2.90674c-1.43683,-0.18007 -2.73433,0.84703 -2.90674,2.28142l-2.96983,24.64636l-10.24862,5.91699l2.24375,-20.63505c0.11239,-1.02832 -0.39412,-2.02755 -1.29137,-2.5457c-0.89818,-0.51538 -1.86066,-0.45812 -2.69881,0.15434l-16.59679,12.26179l0,-9.22122l19.7087,-14.89537c1.1548,-0.8651 1.3122,-2.50343 0.44588,-3.65823c-0.86266,-1.15235 -2.38585,-1.38968 -3.54432,-0.52182l-16.61056,12.5426l0,-19.59846l9.25613,-7.05586c1.15479,-0.8651 1.31219,-2.50344 0.44587,-3.65823c-0.86265,-1.15235 -2.38431,-1.38968 -3.54432,-0.52182l-6.15768,4.70309l0,-7.8395c0,-1.44296 -1.17011,-2.61307 -2.61307,-2.61307s-2.61307,1.17011 -2.61307,2.61307l0,7.8395l-6.42288,-4.70309c-1.15479,-0.86755 -2.86785,-0.63022 -3.73417,0.52182c-0.86633,1.15479 -0.51907,2.79313 0.63573,3.65823l9.52132,7.05586l0,19.59907l-16.87545,-12.5426c-1.15725,-0.86755 -2.86907,-0.63022 -3.73418,0.52182c-0.86632,1.1548 -0.51906,2.79313 0.63574,3.65823l19.97389,14.89537l0,9.22122l-16.89995,-12.26178c-0.8357,-0.61124 -2.02816,-0.66973 -2.92634,-0.15434c-0.89695,0.51814 -1.44112,1.51706 -1.32935,2.54569l2.22508,20.63505l-7.99569,-4.61061l-2.97288,-24.64606c-0.17272,-1.43407 -1.47359,-2.44862 -2.9092,-2.28142c-1.43285,0.17211 -2.45627,1.47359 -2.28233,2.90675l2.49853,20.75478l-16.97375,-9.79969l-1.40682,-11.67351c-0.17088,-1.43285 -1.47879,-2.44097 -2.90675,-2.28142c-1.43285,0.1721 -2.45505,1.47358 -2.28142,2.90674l0.93738,7.78194l-6.78914,-3.91976c-1.25432,-0.72331 -2.84794,-0.29337 -3.57003,0.95697c-0.72087,1.25034 -0.29337,2.84795 0.95697,3.57004l6.78882,3.91945l-7.20775,3.07915c-1.32812,0.56653 -1.94456,2.10166 -1.37681,3.42856c0.42352,0.9928 1.38814,1.58872 2.40391,1.58872c0.34206,0 0.69024,-0.0689 1.02465,-0.21191l10.81331,-4.61826l16.97375,9.79968l-19.22424,8.2125c-1.3269,0.56653 -1.94334,2.10135 -1.37559,3.42978c0.42352,0.99158 1.38815,1.5872 2.40391,1.5872c0.34206,0 0.69025,-0.06891 1.02588,-0.21192l22.82766,-9.7513l7.98588,4.61061l-18.99181,8.37388c-0.94809,0.41739 -1.55933,1.35507 -1.55933,2.39105c0,1.03597 0.61123,1.97396 1.55933,2.39105l18.99181,8.37387l-7.98588,4.61061l-22.82766,-9.7513c-1.33333,-0.56775 -2.86449,0.04838 -3.42979,1.37559c-0.56775,1.32843 0.04869,2.86325 1.37559,3.42978l19.22424,8.2125l-16.97375,9.79999l-10.81331,-4.61857c-1.32812,-0.56653 -2.86203,0.05114 -3.42856,1.37681c-0.56775,1.3269 0.04869,2.86203 1.37681,3.42856l7.20837,3.07915l-6.78883,3.91945c-1.25034,0.72209 -1.67784,2.31969 -0.95697,3.57003c0.48476,0.83846 1.36272,1.30669 2.2661,1.30669c0.44281,0 0.89328,-0.11208 1.30393,-0.34971l6.78914,-3.91976l-0.93737,7.78194c-0.17364,1.43285 0.84856,2.73433 2.28142,2.90674c0.10595,0.01286 0.21191,0.01929 0.31633,0.01929c1.30271,0 2.43086,-0.97351 2.5901,-2.30071l1.40682,-11.67351l16.97315,-9.79969l-2.49915,20.75478c-0.17364,1.43286 0.84856,2.73434 2.28142,2.90675c0.10595,0.01286 0.21191,0.01929 0.31633,0.01929c1.30271,0 2.43086,-0.97351 2.5901,-2.30041l2.9686,-24.64605l7.98619,-4.61061l-2.24375,20.63505c-0.11239,1.02832 0.39412,2.02755 1.29137,2.54569c0.8945,0.51416 2.16506,0.4569 3.00198,-0.15434l16.89996,-12.26178l0,11.83459l-20.01187,14.89537c-1.1548,0.8651 -1.46409,2.50343 -0.59776,3.65823c0.8651,1.15479 2.6149,1.39212 3.77215,0.52182l16.83748,-12.5426l0,16.986l-9.5593,7.05586c-1.1548,0.86511 -1.46409,2.50344 -0.59776,3.65824c0.86633,1.15234 2.61735,1.39212 3.77215,0.52181l6.38491,-4.70309l0,7.83951c0,1.44326 1.17011,2.61306 2.61306,2.61306s2.61307,-1.1701 2.61307,-2.61306l0,-7.83951l6.11971,4.70309c0.47068,0.35339 0.94473,0.52305 1.48951,0.52305c0.79498,0 1.54218,-0.36105 2.05481,-1.04486c0.86663,-1.1548 0.76558,-2.79313 -0.38922,-3.65824l-9.27512,-7.05586l0,-16.986l16.5726,12.5426c0.47098,0.35339 0.94472,0.52304 1.4895,0.52304c0.79498,0 1.54218,-0.36105 2.05481,-1.04486c0.86663,-1.1548 0.76558,-2.79313 -0.38922,-3.65823l-19.72769,-14.89537l0,-11.83459l16.59679,12.26178c0.45812,0.33441 0.92451,0.50406 1.46807,0.50406c0.45077,0 0.86296,-0.11606 1.26871,-0.34972c0.89726,-0.51814 1.38478,-1.51706 1.27239,-2.54569l-2.25324,-20.63505l10.24402,5.91699l2.96738,24.64636c0.15955,1.3269 1.28647,2.30041 2.58918,2.30041c0.10473,0 0.20977,-0.00643 0.31572,-0.0193c1.43286,-0.1721 2.45475,-1.47358 2.28112,-2.90674l-2.50099,-20.75509l14.71102,8.49331l1.40682,11.67351c0.15955,1.3269 1.28739,2.30071 2.5901,2.30071c0.10473,0 0.21069,-0.00643 0.31633,-0.01929c1.43286,-0.17241 2.45506,-1.47358 2.28142,-2.90674l-0.93767,-7.78194l6.78913,3.91976c0.41219,0.23733 0.86143,0.34941 1.30393,0.34941c0.90338,0 1.78134,-0.46823 2.26611,-1.30669c0.72086,-1.25034 0.29337,-2.84795 -0.95697,-3.57004l-6.78883,-3.91944l7.20867,-3.07915c1.32904,-0.56623 1.94517,-2.10136 1.37742,-3.42826zm-104.06606,-25.20033l17.07021,-7.52654l13.03624,7.52654l-13.03654,7.52654l-17.06992,-7.52654l0.00001,0zm33.02361,19.57916l-15.20527,11.02124l2.09247,-18.54655l13.1128,-7.52684l0,15.05215zm0,-24.10556l-13.1128,-7.52715l-2.09247,-18.54655l15.20527,11.02124l0,15.05246zm5.22644,-15.05246l14.9021,-11.02124l-1.9412,18.54655l-12.96121,7.52715l0,-15.05246l0.00031,0zm0,39.15802l0,-15.05215l12.96121,7.52684l1.9412,18.54655l-14.90241,-11.02124zm15.34767,-12.05263l-13.03686,-7.52653l13.03686,-7.52654l17.06991,7.52654l-17.06991,7.52653z" id="svg_17" fill="#ffffff" stroke="null"/>
        </g>
       </g>
      </g>
     </g>
    </g>
   </g>
  </g>
  <metadata>government icon - symbolgovernmenticonsymbollawparliamentstatecapitolpresidentOpen Clip Art Librarymomo18 09 2005image/svg+xmlen</metadata>
  <defs>
   <style type="text/css">.fil0 {fill:#ffffff}</style>
  </defs>
  <!-- Created with the Wikimedia parliament diagram creator (http://tools.wmflabs.org/parliamentdiagram/parliamentinputform.html) -->
  <g id="svg_227" stroke="null">
   <g transform="matrix(0.02017087182290248,0,0,-0.02017087182290248,-60840.94833179396,-41093.614434648225) " id="svg_36" stroke="null">
    <g id="svg_12" stroke="null">
     <g clip-path="url(#svg_218)" id="svg_11" stroke="null">
      <g id="svg_5" stroke="null">
       <path id="svg_3" d="m3031959.14792,-2059892.67967l0,852.991l631.641,0l0,571.734l-631.641,0l0,770.002l-687.003,-108.812l0,-2095.136c0,-156.766 14.554,-299.7 43.804,-428.801c29.176,-129.101 80.686,-239.039 154.459,-329.669c73.772,-90.703 172.11,-161.377 295.09,-212.096c122.904,-50.718 278.158,-76.077 465.684,-76.077c147.545,0 272.035,12.32 373.474,36.885c101.434,24.568 193.651,53.745 276.643,87.605l-96.826,534.849c-64.549,-24.639 -136.016,-43.802 -214.399,-57.635c-78.383,-13.832 -154.459,-20.748 -228.234,-20.748c-153.74,0 -255.895,43.01 -306.615,129.101c-50.717,86.02 -76.077,201.287 -76.077,345.807" fill-rule="nonzero" fill="#ffffff" stroke="null"/>
      </g>
      <g id="svg_10" stroke="null">
       <path id="svg_9" d="m3027020.65183,-2060893.21485c126.652,267.208 251.502,545.295 374.408,834.26c122.906,288.965 239.615,574.832 350.274,857.674c110.658,282.768 212.527,553.074 305.679,810.917c93.151,257.769 175.497,488.594 247.108,692.405l-765.747,0c-60.084,-186.016 -126.723,-385.648 -199.92,-598.895c-73.195,-213.319 -147.688,-425.918 -223.621,-637.724c-75.934,-211.879 -149.562,-414.824 -220.74,-608.836c-71.179,-194.084 -136.81,-361.226 -196.822,-501.42c-63.686,141.132 -130.326,308.703 -199.92,502.788c-69.594,194.085 -142.357,397.029 -218.291,608.908c-75.933,211.808 -150.57,424.405 -223.765,637.726c-73.196,213.248 -139.692,412.447 -199.488,597.453l-793.051,0c67.865,-202.801 148.553,-433.339 241.921,-691.686c93.368,-258.345 195.669,-528.797 307.048,-811.277c111.307,-282.553 228.809,-568.132 352.579,-856.736c123.698,-288.677 249.125,-567.197 376.353,-835.557l685.995,0z" fill-rule="nonzero" fill="#ffffff" stroke="null"/>
      </g>
     </g>
    </g>
    <g id="svg_27" stroke="null">
     <path id="svg_16" d="m3031045.28366,-2057697.9553l-686.989,-108.809l0,-3086.437l687.001,0l0,3195.246l-0.012,0z" fill-rule="nonzero" fill="#ffffff" stroke="null"/>
    </g>
    <g id="svg_35" stroke="null">
     <g clip-path="url(#svg_211)" id="svg_30" stroke="null">
      <g id="svg_29" stroke="null">
       <path id="svg_28" d="m3029542.9614,-2059712.82615c0,-340.375 -275.93,-616.305 -616.305,-616.305c-340.378,0 -616.307,275.93 -616.307,616.305c0,340.375 275.929,616.305 616.307,616.305c340.375,0 616.305,-275.93 616.305,-616.305m623.352,0c0,687.555 -557.375,1244.938 -1244.934,1244.938c-283.448,0 -544.762,-94.743 -754.03,-254.266c-58.25,-155.531 -119.418,-315.219 -183.56,-479.125c-92.588,-236.656 -189.43,-475.438 -290.575,-716.367c97.679,-590.11 610.369,-1040.118 1228.165,-1040.118c687.559,0 1244.934,557.383 1244.934,1244.938" fill-rule="nonzero" fill="#ffffff" stroke="null"/>
      </g>
     </g>
    </g>
   </g>
  </g>
  <use fill="#ffffff" id="svg_45" transform="matrix(0.4127850556576201,0,0,-0.4127850556576201,146.72752387887488,127.49171752137514) " y="-459.4201" x="118.27003" height="296.4" width="293.1" xlink:href="#svg_41" stroke="null"/>
 </g>
 <g>
  <title>Layer 1</title>
  <g stroke="null" id="svg_64">
   <g stroke="null" transform="matrix(0.3560183784412985,0,0,0.3560183784412985,-78.29710632307678,-78.15263312823919) " id="svg_42">
    <g stroke="null" id="svg_44">
     <g stroke="null" id="svg_46">
      <path stroke="null" fill="#ffffff" id="svg_47" d="m1062.653822,1068.468973c0,-25.114 -20.432,-45.547 -45.546,-45.547c-25.115,0 -45.547,20.433 -45.547,45.547c0,5.321 0.913,10.506 2.658,15.379l-85.397,0l0,-143.662c6.9,-9.4 11.22,-20.803 11.9,-33.164l44.672,-44.667l33.011,0l0,60.455l-9.546,0l0,20l19.044,0l-0.067,31.942l29.273,17.175l29.273,-17.175l-0.067,-31.942l19.044,0l0,-20l-9.547,0l0,-60.455l6.344,0c21.505,0 39,-17.495 39,-39s-17.495,-39 -39,-39l-117.1,0c-8.856,-7.148 -19.796,-11.039 -31.335,-11.039c-13.354,0 -25.911,5.2 -35.354,14.644l-55.81,55.802c-26.32,7.164 -45.736,31.262 -45.736,59.821c0,13.683 4.464,26.337 12,36.604l0,163.662l38.847,0l61.153,0l202.333,0l0,-20l-31.158,0c1.745,-4.873 2.658,-10.059 2.658,-15.38zm-45.547,-99.729l-9.249,-5.427l0.039,-18.503l18.419,0l0.039,18.503l-9.248,5.427zm18.704,-46.596l-37.407,0l0,-59.789l37.407,0l0,59.789zm-75.801,-117.789l102.144,0c10.476,0 19,8.524 19,19c0,10.477 -8.523,19 -19,19l-6.344,0l-77.407,0l-18.423,0c2.452,-5.959 3.74,-12.399 3.74,-19.037c0.001,-6.611 -1.277,-13.024 -3.71,-18.963zm-91.189,279.495l-41.154,0l0,-0.002l-18.846,0l0,-125.993c3.661,2.026 7.523,3.668 11.524,4.916c0.042,0.013 0.084,0.026 0.126,0.039c1.836,0.568 3.702,1.051 5.592,1.447c0.162,0.034 0.323,0.068 0.486,0.102c0.891,0.179 1.787,0.341 2.689,0.481c0.161,0.025 0.324,0.046 0.486,0.07c0.806,0.119 1.615,0.222 2.428,0.31c0.164,0.018 0.327,0.039 0.492,0.055c0.903,0.09 1.81,0.157 2.72,0.208c0.207,0.011 0.414,0.02 0.622,0.03c0.943,0.042 1.888,0.072 2.837,0.072c0.949,0 1.894,-0.029 2.836,-0.072c0.208,-0.01 0.415,-0.019 0.622,-0.03c0.91,-0.05 1.817,-0.118 2.719,-0.208c0.165,-0.016 0.329,-0.038 0.493,-0.055c0.812,-0.087 1.62,-0.19 2.425,-0.309c0.163,-0.024 0.326,-0.045 0.489,-0.07c0.901,-0.14 1.796,-0.302 2.686,-0.481c0.164,-0.033 0.326,-0.068 0.489,-0.102c1.889,-0.396 3.753,-0.878 5.588,-1.446c0.043,-0.013 0.086,-0.026 0.128,-0.04c4.001,-1.247 7.863,-2.89 11.523,-4.915l0,125.993zm-13.346,-141.717c-0.151,0.063 -0.297,0.131 -0.446,0.193c-0.438,0.184 -0.883,0.355 -1.328,0.524c-0.249,0.095 -0.497,0.189 -0.747,0.279c-0.39,0.14 -0.784,0.271 -1.179,0.399c-0.317,0.103 -0.635,0.203 -0.955,0.298c-0.353,0.105 -0.708,0.207 -1.065,0.303c-0.372,0.1 -0.746,0.193 -1.121,0.283c-0.323,0.078 -0.647,0.155 -0.973,0.225c-0.416,0.089 -0.835,0.168 -1.255,0.245c-0.299,0.055 -0.596,0.112 -0.897,0.161c-0.458,0.074 -0.92,0.133 -1.382,0.192c-0.272,0.034 -0.542,0.075 -0.816,0.104c-0.515,0.055 -1.033,0.092 -1.551,0.128c-0.228,0.016 -0.454,0.04 -0.682,0.052c-0.749,0.04 -1.501,0.062 -2.256,0.062s-1.507,-0.022 -2.256,-0.062c-0.229,-0.012 -0.455,-0.037 -0.682,-0.052c-0.518,-0.036 -1.036,-0.074 -1.551,-0.128c-0.274,-0.029 -0.544,-0.07 -0.816,-0.104c-0.462,-0.059 -0.924,-0.118 -1.382,-0.192c-0.301,-0.048 -0.599,-0.106 -0.898,-0.161c-0.42,-0.077 -0.839,-0.156 -1.255,-0.245c-0.327,-0.07 -0.651,-0.147 -0.974,-0.225c-0.375,-0.09 -0.748,-0.183 -1.12,-0.283c-0.357,-0.096 -0.713,-0.198 -1.066,-0.303c-0.319,-0.095 -0.637,-0.195 -0.953,-0.297c-0.396,-0.129 -0.79,-0.26 -1.18,-0.4c-0.25,-0.089 -0.497,-0.184 -0.745,-0.278c-0.447,-0.17 -0.892,-0.341 -1.331,-0.526c-0.147,-0.062 -0.292,-0.128 -0.438,-0.191c-14.9,-6.459 -25.352,-21.305 -25.352,-38.551c0,-20.107 14.206,-36.952 33.107,-41.043c0.66,-0.142 1.323,-0.269 1.987,-0.379c0.055,-0.009 0.109,-0.021 0.165,-0.029c0.721,-0.117 1.445,-0.215 2.169,-0.295c0.021,-0.002 0.041,-0.006 0.062,-0.008c0.706,-0.077 1.412,-0.132 2.118,-0.173c0.05,-0.003 0.099,-0.009 0.149,-0.011c0.749,-0.041 1.497,-0.062 2.244,-0.062c22.81,0 41.643,18.557 41.981,41.365l0.013,0.875c-0.097,17.143 -10.513,31.88 -25.343,38.31zm26.873,-82.694c-8.557,-8.443 -19.15,-14.104 -30.657,-16.524l40.817,-40.813c5.667,-5.666 13.2,-8.786 21.213,-8.786c8.014,0 15.547,3.12 21.213,8.787c5.667,5.666 8.787,13.2 8.787,21.215c0,8.014 -3.121,15.548 -8.788,21.214l-37.837,37.833c-3.104,-8.545 -8.094,-16.361 -14.748,-22.926zm155.47,223.988l-41.42,0c-3.14,-4.328 -4.836,-9.519 -4.836,-14.958c-0.001,-14.087 11.459,-25.547 25.546,-25.547c14.086,0 25.546,11.46 25.546,25.547c0,5.439 -1.696,10.63 -4.836,14.958z"/>
      <circle stroke="null" fill="#ffffff" id="svg_48" r="14" cy="903.581973" cx="838.819822"/>
     </g>
    </g>
   </g>
   <g stroke="null" transform="matrix(0.3560183784412985,0,0,0.3560183784412985,-78.29710632307678,-78.15263312823919) " id="svg_49"/>
   <g stroke="null" transform="matrix(0.3560183784412985,0,0,0.3560183784412985,-78.29710632307678,-78.15263312823919) " id="svg_50"/>
   <g stroke="null" transform="matrix(0.3560183784412985,0,0,0.3560183784412985,-78.29710632307678,-78.15263312823919) " id="svg_51"/>
   <g stroke="null" transform="matrix(0.3560183784412985,0,0,0.3560183784412985,-78.29710632307678,-78.15263312823919) " id="svg_52"/>
   <g stroke="null" transform="matrix(0.3560183784412985,0,0,0.3560183784412985,-78.29710632307678,-78.15263312823919) " id="svg_53"/>
   <g stroke="null" transform="matrix(0.3560183784412985,0,0,0.3560183784412985,-78.29710632307678,-78.15263312823919) " id="svg_54"/>
   <g stroke="null" transform="matrix(0.3560183784412985,0,0,0.3560183784412985,-78.29710632307678,-78.15263312823919) " id="svg_55"/>
   <g stroke="null" transform="matrix(0.3560183784412985,0,0,0.3560183784412985,-78.29710632307678,-78.15263312823919) " id="svg_56"/>
   <g stroke="null" transform="matrix(0.3560183784412985,0,0,0.3560183784412985,-78.29710632307678,-78.15263312823919) " id="svg_57"/>
   <g stroke="null" transform="matrix(0.3560183784412985,0,0,0.3560183784412985,-78.29710632307678,-78.15263312823919) " id="svg_58"/>
   <g stroke="null" transform="matrix(0.3560183784412985,0,0,0.3560183784412985,-78.29710632307678,-78.15263312823919) " id="svg_59"/>
   <g stroke="null" transform="matrix(0.3560183784412985,0,0,0.3560183784412985,-78.29710632307678,-78.15263312823919) " id="svg_60"/>
   <g stroke="null" transform="matrix(0.3560183784412985,0,0,0.3560183784412985,-78.29710632307678,-78.15263312823919) " id="svg_61"/>
   <g stroke="null" transform="matrix(0.3560183784412985,0,0,0.3560183784412985,-78.29710632307678,-78.15263312823919) " id="svg_62"/>
   <g stroke="null" transform="matrix(0.3560183784412985,0,0,0.3560183784412985,-78.29710632307678,-78.15263312823919) " id="svg_63"/>
  </g>
 </g>
</svg>