<svg width="256" height="256" xmlns="http://www.w3.org/2000/svg">
 <metadata id="metadata8">image/svg+xml</metadata>

 <g>
  <title>background</title>
  <rect fill="none" id="canvas_background" height="258" width="258" y="-1" x="-1"/>
 </g>
 <g>
  <title>Layer 1</title>
  <rect rx="10" stroke-dasharray="5,5" id="svg_8" height="230" width="230" y="13" x="13" stroke-width="3" stroke="#ffffff" fill="none"/>
  <rect fill-opacity="0.7" transform="rotate(-21 144.33332824707045,172.16661071777352) " id="svg_7" height="58.999205" width="182.997535" y="142.667002" x="52.834566" stroke-width="1.5" fill="#ffffff"/>
  <rect fill-opacity="0.7" transform="rotate(-21 111.00024414062507,85.50057220458987) " id="svg_1" height="58.999205" width="182.997535" y="56.00097" x="19.501476" stroke-width="1.5" fill="#ffffff"/>
  <rect fill-opacity="0.7" transform="rotate(-21 150.99992370605477,98.83380889892578) " id="svg_4" height="58.999205" width="182.997535" y="69.334206" x="59.501184" stroke-width="1.5" fill="#ffffff"/>
  <rect fill-opacity="0.7" transform="rotate(-21 104.33362579345705,132.1669006347656) " id="svg_5" height="58.999205" width="182.997535" y="102.667295" x="12.834858" stroke-width="1.5" fill="#ffffff"/>
  <rect stroke="null" fill-opacity="0.7" transform="rotate(-21 137.66671752929707,158.83337402343756) " id="svg_6" height="58.999205" width="182.997535" y="129.333767" x="46.167948" stroke-width="1.5" fill="#ffffff"/>
  <g id="g10" transform="matrix(0.028524214624017323,0,0,-0.026572510053491875,1115.3182461639421,262.3381260825467) ">
   <g id="g12" transform="translate(0.75,-0.75) scale(0.10000000149011612) ">
    <g id="g14" transform="translate(7437.5947265625,187.50238037109375) scale(4.800310134887695) ">
     <path fill="#654698" fill-rule="nonzero" d="m-67428.375586,9317.536973l0,1776.94l1315.8,0l0,1191.05l-1315.8,0l0,1604.07l-1431.2,-226.68l0,-4364.59c0,-326.56 30.3,-624.34 91.2,-893.28c60.8,-268.94 168.1,-497.966 321.8,-686.767c153.7,-188.946 358.6,-336.165 614.7,-441.825c256.1,-105.6608 579.5,-158.4902 970.2,-158.4902c307.3,0 566.7,25.6648 778,76.8285c211.3,51.1837 403.4,111.9717 576.3,182.5087l-201.7,1114.195c-134.5,-51.33 -283.4,-91.24 -446.7,-120.07c-163.3,-28.81 -321.7,-43.21 -475.4,-43.21c-320.3,0 -533.1,89.58 -638.7,268.94c-105.7,179.2 -158.5,419.31 -158.5,720.38" id="path16"/>
    </g>
    <g id="g18" transform="translate(7437.5947265625,187.50238037109375) scale(1.9998799562454224) ">
     <path fill="#654698" fill-rule="nonzero" d="m-186542.31925,17361.913937c633.3,1336.128 1257.6,2726.618 1872.1,4171.558c614.6,1444.89 1198.2,2874.32 1751.5,4288.61c553.4,1413.96 1062.7,2765.56 1528.5,4054.86c465.8,1288.9 877.5,2443.1 1235.6,3462.2l-3828.9,0c-300.5,-930.1 -633.7,-1928.3 -999.7,-2994.6c-366,-1066.7 -738.5,-2129.8 -1118.2,-3188.9c-379.69,-1059.39 -747.87,-2074.21 -1103.74,-3044.31c-355.92,-970.46 -684.09,-1806.27 -984.21,-2507.26c-318.42,705.69 -651.64,1543.6 -999.66,2514.11c-347.97,970.46 -711.79,1985.27 -1091.52,3044.76c-379.67,1059 -752.89,2122.1 -1118.87,3188.8c-366,1066.3 -698.5,2062.3 -997.5,2987.4l-3965.5,0c339.345,-1014 742.811,-2166.8 1209.68,-3458.6c466.87,-1291.8 978.4,-2644.2 1535.33,-4056.66c556.57,-1412.84 1144.12,-2840.82 1763.01,-4283.96c618.54,-1443.44 1245.68,-2836.13 1881.87,-4178.008l3430.21,0" id="path20"/>
    </g>
    <g id="g22" transform="translate(7437.5947265625,187.50238037109375) scale(3.673949956893921) ">
     <path fill="#654698" fill-rule="nonzero" d="m-90588.029907,18147.855734l-1869.9,-296.16l0,-8400.876l1869.9,0l0,8697.036l0,0" id="path24"/>
    </g>
    <g id="g26" transform="translate(7437.5947265625,187.50238037109375) scale(3.134700059890747) ">
     <path fill="#654698" fill-rule="nonzero" d="m-110964.04541,14842.133702c0,-1085.84 -880.3,-1966.09 -1966.1,-1966.09c-1085.9,0 -1966.1,880.25 -1966.1,1966.09c0,1085.82 880.2,1966.06 1966.1,1966.06c1085.8,0 1966.1,-880.24 1966.1,-1966.06m1988.5,0c0,2193.35 -1778.1,3971.46 -3971.5,3971.46c-904.2,0 -1737.8,-302.23 -2405.41,-811.12c-185.82,-496.16 -380.96,-1005.59 -585.58,-1528.48c-295.34,-754.93 -604.3,-1516.66 -926.94,-2285.25c311.61,-1882.51 1947.13,-3318.09 3917.93,-3318.09c2193.4,0 3971.5,1778.1 3971.5,3971.48" id="path28"/>
    </g>
   </g>
  </g>
  <g fill-opacity="0.7" id="svg_31">
   <g transform="matrix(0.06250090897413774,0,0,0.06250090897413774,0,0) " id="svg_13">
    <g id="svg_14">
     <path fill="#612095" id="svg_15" d="m1472.435792,3170.235459c-1.846,-4.329 -6.854,-6.346 -11.196,-4.496l-35.313,15.082l-48.038,-27.737l62.776,-26.817c4.338,-1.85 6.35,-6.862 4.496,-11.196c-1.85,-4.333 -6.859,-6.35 -11.196,-4.496l-74.549,31.844l-33.469,-19.324l62.018,-27.345c3.096,-1.363 5.092,-4.425 5.092,-7.808c0,-3.383 -1.996,-6.446 -5.092,-7.808l-62.018,-27.345l33.469,-19.324l74.549,31.844c1.092,0.467 2.229,0.692 3.346,0.692c3.312,0 6.467,-1.946 7.85,-5.188c1.854,-4.333 -0.159,-9.346 -4.496,-11.196l-62.776,-26.817l48.038,-27.735l35.313,15.081c1.092,0.467 2.229,0.692 3.346,0.692c3.317,0 6.467,-1.946 7.85,-5.188c1.854,-4.333 -0.158,-9.346 -4.496,-11.196l-23.54,-10.055l22.169,-12.799c4.083,-2.358 5.479,-7.575 3.125,-11.658c-2.363,-4.083 -7.588,-5.487 -11.659,-3.125l-22.17,12.8l3.062,-25.412c0.567,-4.679 -2.771,-8.929 -7.45,-9.492c-4.671,-0.571 -8.929,2.766 -9.492,7.45l-4.594,38.12l-48.039,27.735l8.166,-67.776c0.567,-4.679 -2.771,-8.929 -7.45,-9.492c-4.692,-0.588 -8.929,2.766 -9.492,7.45l-9.698,80.483l-33.467,19.322l7.327,-67.384c0.367,-3.358 -1.287,-6.621 -4.217,-8.313c-2.933,-1.683 -6.076,-1.496 -8.813,0.504l-54.197,40.041l0,-30.112l64.359,-48.641c3.771,-2.825 4.285,-8.175 1.456,-11.946c-2.817,-3.763 -7.791,-4.538 -11.574,-1.704l-54.242,40.958l0,-63.999l30.226,-23.041c3.771,-2.825 4.285,-8.175 1.456,-11.946c-2.817,-3.763 -7.786,-4.538 -11.574,-1.704l-20.108,15.358l0,-25.6c0,-4.712 -3.821,-8.533 -8.533,-8.533s-8.533,3.821 -8.533,8.533l0,25.6l-20.974,-15.358c-3.771,-2.833 -9.365,-2.058 -12.194,1.704c-2.829,3.771 -1.695,9.121 2.076,11.946l31.092,23.041l0,64.001l-55.107,-40.958c-3.779,-2.833 -9.369,-2.058 -12.194,1.704c-2.829,3.771 -1.695,9.121 2.076,11.946l65.225,48.641l0,30.112l-55.187,-40.041c-2.729,-1.996 -6.623,-2.187 -9.556,-0.504c-2.929,1.692 -4.706,4.954 -4.341,8.313l7.266,67.384l-26.11,-15.056l-9.708,-80.482c-0.564,-4.683 -4.812,-7.996 -9.5,-7.45c-4.679,0.562 -8.021,4.812 -7.453,9.492l8.159,67.775l-55.428,-32.001l-4.594,-38.12c-0.558,-4.679 -4.829,-7.971 -9.492,-7.45c-4.679,0.562 -8.017,4.812 -7.45,9.492l3.061,25.412l-22.17,-12.8c-4.096,-2.362 -9.3,-0.958 -11.658,3.125c-2.354,4.083 -0.958,9.3 3.125,11.658l22.169,12.799l-23.537,10.055c-4.337,1.85 -6.35,6.863 -4.496,11.196c1.383,3.242 4.533,5.188 7.85,5.188c1.117,0 2.254,-0.225 3.346,-0.692l35.311,-15.081l55.428,32.001l-62.777,26.818c-4.333,1.85 -6.346,6.862 -4.492,11.2c1.383,3.238 4.533,5.183 7.85,5.183c1.117,0 2.254,-0.225 3.35,-0.692l74.544,-31.843l26.078,15.056l-62.018,27.345c-3.096,1.363 -5.092,4.425 -5.092,7.808c0,3.383 1.996,6.446 5.092,7.808l62.018,27.345l-26.078,15.056l-74.544,-31.843c-4.354,-1.854 -9.354,0.158 -11.2,4.492c-1.854,4.338 0.159,9.35 4.492,11.2l62.777,26.818l-55.428,32.002l-35.311,-15.082c-4.337,-1.85 -9.346,0.167 -11.196,4.496c-1.854,4.333 0.159,9.346 4.496,11.196l23.539,10.055l-22.169,12.799c-4.083,2.358 -5.479,7.575 -3.125,11.658c1.583,2.738 4.45,4.267 7.4,4.267c1.446,0 2.917,-0.366 4.258,-1.142l22.17,-12.8l-3.061,25.412c-0.567,4.679 2.771,8.929 7.45,9.492c0.346,0.042 0.692,0.063 1.033,0.063c4.254,0 7.938,-3.179 8.458,-7.513l4.594,-38.12l55.426,-32.001l-8.161,67.775c-0.567,4.679 2.771,8.929 7.45,9.492c0.346,0.042 0.692,0.063 1.033,0.063c4.254,0 7.938,-3.179 8.458,-7.512l9.694,-80.482l26.079,-15.056l-7.327,67.384c-0.367,3.358 1.287,6.621 4.217,8.313c2.921,1.679 7.07,1.492 9.803,-0.504l55.187,-40.041l0,38.646l-65.349,48.641c-3.771,2.825 -4.781,8.175 -1.952,11.946c2.825,3.771 8.539,4.546 12.318,1.704l54.983,-40.958l0,55.468l-31.216,23.041c-3.771,2.825 -4.781,8.175 -1.952,11.946c2.829,3.763 8.547,4.546 12.318,1.704l20.85,-15.358l0,25.6c0,4.713 3.821,8.533 8.533,8.533s8.533,-3.821 8.533,-8.533l0,-25.6l19.984,15.358c1.537,1.154 3.085,1.708 4.864,1.708c2.596,0 5.036,-1.179 6.71,-3.412c2.83,-3.771 2.5,-9.121 -1.271,-11.946l-30.288,-23.041l0,-55.468l54.118,40.958c1.538,1.154 3.085,1.708 4.864,1.708c2.596,0 5.036,-1.179 6.71,-3.412c2.83,-3.771 2.5,-9.121 -1.271,-11.946l-64.421,-48.641l0,-38.646l54.197,40.041c1.496,1.092 3.019,1.646 4.794,1.646c1.472,0 2.818,-0.379 4.143,-1.142c2.93,-1.692 4.522,-4.954 4.155,-8.313l-7.358,-67.384l33.452,19.322l9.69,80.483c0.521,4.333 4.201,7.512 8.455,7.512c0.342,0 0.685,-0.021 1.031,-0.063c4.679,-0.562 8.016,-4.812 7.449,-9.492l-8.167,-67.776l48.039,27.735l4.594,38.12c0.521,4.333 4.204,7.513 8.458,7.513c0.342,0 0.688,-0.021 1.033,-0.063c4.679,-0.563 8.017,-4.812 7.45,-9.492l-3.062,-25.412l22.17,12.8c1.346,0.775 2.813,1.141 4.258,1.141c2.95,0 5.817,-1.529 7.4,-4.267c2.354,-4.083 0.958,-9.3 -3.125,-11.658l-22.169,-12.799l23.54,-10.055c4.34,-1.849 6.352,-6.862 4.498,-11.195zm-339.829,-82.292l55.743,-24.578l42.57,24.578l-42.571,24.578l-55.742,-24.578zm107.839,63.936l-49.653,35.99l6.833,-60.564l42.82,-24.579l0,49.153zm0,-78.717l-42.82,-24.58l-6.833,-60.564l49.653,35.99l0,49.154zm17.067,-49.154l48.663,-35.99l-6.339,60.564l-42.325,24.58l0,-49.154l0.001,0zm0,127.871l0,-49.153l42.325,24.579l6.339,60.564l-48.664,-35.99zm50.118,-39.358l-42.572,-24.578l42.572,-24.578l55.742,24.578l-55.742,24.578z"/>
    </g>
   </g>
   <g transform="matrix(0.06250090897413774,0,0,0.06250090897413774,0,0) " id="svg_16"/>
   <g transform="matrix(0.06250090897413774,0,0,0.06250090897413774,0,0) " id="svg_17"/>
   <g transform="matrix(0.06250090897413774,0,0,0.06250090897413774,0,0) " id="svg_18"/>
   <g transform="matrix(0.06250090897413774,0,0,0.06250090897413774,0,0) " id="svg_19"/>
   <g transform="matrix(0.06250090897413774,0,0,0.06250090897413774,0,0) " id="svg_20"/>
   <g transform="matrix(0.06250090897413774,0,0,0.06250090897413774,0,0) " id="svg_21"/>
   <g transform="matrix(0.06250090897413774,0,0,0.06250090897413774,0,0) " id="svg_22"/>
   <g transform="matrix(0.06250090897413774,0,0,0.06250090897413774,0,0) " id="svg_23"/>
   <g transform="matrix(0.06250090897413774,0,0,0.06250090897413774,0,0) " id="svg_24"/>
   <g transform="matrix(0.06250090897413774,0,0,0.06250090897413774,0,0) " id="svg_25"/>
   <g transform="matrix(0.06250090897413774,0,0,0.06250090897413774,0,0) " id="svg_26"/>
   <g transform="matrix(0.06250090897413774,0,0,0.06250090897413774,0,0) " id="svg_27"/>
   <g transform="matrix(0.06250090897413774,0,0,0.06250090897413774,0,0) " id="svg_28"/>
   <g transform="matrix(0.06250090897413774,0,0,0.06250090897413774,0,0) " id="svg_29"/>
   <g transform="matrix(0.06250090897413774,0,0,0.06250090897413774,0,0) " id="svg_30"/>
  </g>
  <g fill-opacity="0.7" id="svg_50">
   <g transform="matrix(0.06250090897413774,0,0,0.06250090897413774,0,0) " id="svg_34">
    <g id="svg_33">
     <path fill="#612095" id="svg_32" d="m2352.414392,1490.276314c-1.846,-4.329 -6.854,-6.346 -11.196,-4.496l-35.313,15.082l-48.038,-27.737l62.776,-26.817c4.338,-1.85 6.35,-6.862 4.496,-11.196c-1.85,-4.333 -6.859,-6.35 -11.196,-4.496l-74.549,31.844l-33.469,-19.324l62.018,-27.345c3.096,-1.363 5.092,-4.425 5.092,-7.808c0,-3.383 -1.996,-6.446 -5.092,-7.808l-62.018,-27.345l33.469,-19.324l74.549,31.844c1.092,0.467 2.229,0.692 3.346,0.692c3.312,0 6.467,-1.946 7.85,-5.188c1.854,-4.333 -0.159,-9.346 -4.496,-11.196l-62.776,-26.817l48.038,-27.735l35.313,15.081c1.092,0.467 2.229,0.692 3.346,0.692c3.317,0 6.467,-1.946 7.85,-5.188c1.854,-4.333 -0.158,-9.346 -4.496,-11.196l-23.54,-10.055l22.169,-12.799c4.083,-2.358 5.479,-7.575 3.125,-11.658c-2.363,-4.083 -7.588,-5.487 -11.659,-3.125l-22.17,12.8l3.062,-25.412c0.567,-4.679 -2.771,-8.929 -7.45,-9.492c-4.671,-0.571 -8.929,2.766 -9.492,7.45l-4.594,38.12l-48.039,27.735l8.166,-67.776c0.567,-4.679 -2.771,-8.929 -7.45,-9.492c-4.692,-0.588 -8.929,2.766 -9.492,7.45l-9.698,80.483l-33.467,19.322l7.327,-67.384c0.367,-3.358 -1.287,-6.621 -4.217,-8.313c-2.933,-1.683 -6.076,-1.496 -8.813,0.504l-54.197,40.041l0,-30.112l64.359,-48.641c3.771,-2.825 4.285,-8.175 1.456,-11.946c-2.817,-3.763 -7.791,-4.538 -11.574,-1.704l-54.242,40.958l0,-63.999l30.226,-23.041c3.771,-2.825 4.285,-8.175 1.456,-11.946c-2.817,-3.763 -7.786,-4.538 -11.574,-1.704l-20.108,15.358l0,-25.6c0,-4.712 -3.821,-8.533 -8.533,-8.533s-8.533,3.821 -8.533,8.533l0,25.6l-20.974,-15.358c-3.771,-2.833 -9.365,-2.058 -12.194,1.704c-2.829,3.771 -1.695,9.121 2.076,11.946l31.092,23.041l0,64.001l-55.107,-40.958c-3.779,-2.833 -9.369,-2.058 -12.194,1.704c-2.829,3.771 -1.695,9.121 2.076,11.946l65.225,48.641l0,30.112l-55.187,-40.041c-2.729,-1.996 -6.623,-2.187 -9.556,-0.504c-2.929,1.692 -4.706,4.954 -4.341,8.313l7.266,67.384l-26.11,-15.056l-9.708,-80.482c-0.564,-4.683 -4.812,-7.996 -9.5,-7.45c-4.679,0.562 -8.021,4.812 -7.453,9.492l8.159,67.775l-55.428,-32.001l-4.594,-38.12c-0.558,-4.679 -4.829,-7.971 -9.492,-7.45c-4.679,0.562 -8.017,4.812 -7.45,9.492l3.061,25.412l-22.17,-12.8c-4.096,-2.362 -9.3,-0.958 -11.658,3.125c-2.354,4.083 -0.958,9.3 3.125,11.658l22.169,12.799l-23.537,10.055c-4.337,1.85 -6.35,6.863 -4.496,11.196c1.383,3.242 4.533,5.188 7.85,5.188c1.117,0 2.254,-0.225 3.346,-0.692l35.311,-15.081l55.428,32.001l-62.777,26.818c-4.333,1.85 -6.346,6.862 -4.492,11.2c1.383,3.238 4.533,5.183 7.85,5.183c1.117,0 2.254,-0.225 3.35,-0.692l74.544,-31.843l26.078,15.056l-62.018,27.345c-3.096,1.363 -5.092,4.425 -5.092,7.808c0,3.383 1.996,6.446 5.092,7.808l62.018,27.345l-26.078,15.056l-74.544,-31.843c-4.354,-1.854 -9.354,0.158 -11.2,4.492c-1.854,4.338 0.159,9.35 4.492,11.2l62.777,26.818l-55.428,32.002l-35.311,-15.082c-4.337,-1.85 -9.346,0.167 -11.196,4.496c-1.854,4.333 0.159,9.346 4.496,11.196l23.539,10.055l-22.169,12.799c-4.083,2.358 -5.479,7.575 -3.125,11.658c1.583,2.738 4.45,4.267 7.4,4.267c1.446,0 2.917,-0.366 4.258,-1.142l22.17,-12.8l-3.061,25.412c-0.567,4.679 2.771,8.929 7.45,9.492c0.346,0.042 0.692,0.063 1.033,0.063c4.254,0 7.938,-3.179 8.458,-7.513l4.594,-38.12l55.426,-32.001l-8.161,67.775c-0.567,4.679 2.771,8.929 7.45,9.492c0.346,0.042 0.692,0.063 1.033,0.063c4.254,0 7.938,-3.179 8.458,-7.512l9.694,-80.482l26.079,-15.056l-7.327,67.384c-0.367,3.358 1.287,6.621 4.217,8.313c2.921,1.679 7.07,1.492 9.803,-0.504l55.187,-40.041l0,38.646l-65.349,48.641c-3.771,2.825 -4.781,8.175 -1.952,11.946c2.825,3.771 8.539,4.546 12.318,1.704l54.983,-40.958l0,55.468l-31.216,23.041c-3.771,2.825 -4.781,8.175 -1.952,11.946c2.829,3.763 8.547,4.546 12.318,1.704l20.85,-15.358l0,25.6c0,4.713 3.821,8.533 8.533,8.533s8.533,-3.821 8.533,-8.533l0,-25.6l19.984,15.358c1.537,1.154 3.085,1.708 4.864,1.708c2.596,0 5.036,-1.179 6.71,-3.412c2.83,-3.771 2.5,-9.121 -1.271,-11.946l-30.288,-23.041l0,-55.468l54.118,40.958c1.538,1.154 3.085,1.708 4.864,1.708c2.596,0 5.036,-1.179 6.71,-3.412c2.83,-3.771 2.5,-9.121 -1.271,-11.946l-64.421,-48.641l0,-38.646l54.197,40.041c1.496,1.092 3.019,1.646 4.794,1.646c1.472,0 2.818,-0.379 4.143,-1.142c2.93,-1.692 4.522,-4.954 4.155,-8.313l-7.358,-67.384l33.452,19.322l9.69,80.483c0.521,4.333 4.201,7.512 8.455,7.512c0.342,0 0.685,-0.021 1.031,-0.063c4.679,-0.562 8.016,-4.812 7.449,-9.492l-8.167,-67.776l48.039,27.735l4.594,38.12c0.521,4.333 4.204,7.513 8.458,7.513c0.342,0 0.688,-0.021 1.033,-0.063c4.679,-0.563 8.017,-4.812 7.45,-9.492l-3.062,-25.412l22.17,12.8c1.346,0.775 2.813,1.141 4.258,1.141c2.95,0 5.817,-1.529 7.4,-4.267c2.354,-4.083 0.958,-9.3 -3.125,-11.658l-22.169,-12.799l23.54,-10.055c4.34,-1.849 6.352,-6.862 4.498,-11.195zm-339.829,-82.292l55.743,-24.578l42.57,24.578l-42.571,24.578l-55.742,-24.578zm107.839,63.936l-49.653,35.99l6.833,-60.564l42.82,-24.579l0,49.153zm0,-78.717l-42.82,-24.58l-6.833,-60.564l49.653,35.99l0,49.154zm17.067,-49.154l48.663,-35.99l-6.339,60.564l-42.325,24.58l0,-49.154l0.001,0zm0,127.871l0,-49.153l42.325,24.579l6.339,60.564l-48.664,-35.99zm50.118,-39.358l-42.572,-24.578l42.572,-24.578l55.742,24.578l-55.742,24.578z"/>
    </g>
   </g>
   <g transform="matrix(0.06250090897413774,0,0,0.06250090897413774,0,0) " id="svg_35"/>
   <g transform="matrix(0.06250090897413774,0,0,0.06250090897413774,0,0) " id="svg_36"/>
   <g transform="matrix(0.06250090897413774,0,0,0.06250090897413774,0,0) " id="svg_37"/>
   <g transform="matrix(0.06250090897413774,0,0,0.06250090897413774,0,0) " id="svg_38"/>
   <g transform="matrix(0.06250090897413774,0,0,0.06250090897413774,0,0) " id="svg_39"/>
   <g transform="matrix(0.06250090897413774,0,0,0.06250090897413774,0,0) " id="svg_40"/>
   <g transform="matrix(0.06250090897413774,0,0,0.06250090897413774,0,0) " id="svg_41"/>
   <g transform="matrix(0.06250090897413774,0,0,0.06250090897413774,0,0) " id="svg_42"/>
   <g transform="matrix(0.06250090897413774,0,0,0.06250090897413774,0,0) " id="svg_43"/>
   <g transform="matrix(0.06250090897413774,0,0,0.06250090897413774,0,0) " id="svg_44"/>
   <g transform="matrix(0.06250090897413774,0,0,0.06250090897413774,0,0) " id="svg_45"/>
   <g transform="matrix(0.06250090897413774,0,0,0.06250090897413774,0,0) " id="svg_46"/>
   <g transform="matrix(0.06250090897413774,0,0,0.06250090897413774,0,0) " id="svg_47"/>
   <g transform="matrix(0.06250090897413774,0,0,0.06250090897413774,0,0) " id="svg_48"/>
   <g transform="matrix(0.06250090897413774,0,0,0.06250090897413774,0,0) " id="svg_49"/>
  </g>
  <g fill-opacity="0.7" id="svg_69">
   <g transform="matrix(0.06250090897413774,0,0,0.06250090897413774,0,0) " id="svg_53">
    <g id="svg_52">
     <path fill="#612095" id="svg_51" d="m2672.40661,2770.245186c-1.846,-4.329 -6.854,-6.346 -11.196,-4.496l-35.313,15.082l-48.038,-27.737l62.776,-26.817c4.338,-1.85 6.35,-6.862 4.496,-11.196c-1.85,-4.333 -6.859,-6.35 -11.196,-4.496l-74.549,31.844l-33.469,-19.324l62.018,-27.345c3.096,-1.363 5.092,-4.425 5.092,-7.808c0,-3.383 -1.996,-6.446 -5.092,-7.808l-62.018,-27.345l33.469,-19.324l74.549,31.844c1.092,0.467 2.229,0.692 3.346,0.692c3.312,0 6.467,-1.946 7.85,-5.188c1.854,-4.333 -0.159,-9.346 -4.496,-11.196l-62.776,-26.817l48.038,-27.735l35.313,15.081c1.092,0.467 2.229,0.692 3.346,0.692c3.317,0 6.467,-1.946 7.85,-5.188c1.854,-4.333 -0.158,-9.346 -4.496,-11.196l-23.54,-10.055l22.169,-12.799c4.083,-2.358 5.479,-7.575 3.125,-11.658c-2.363,-4.083 -7.588,-5.487 -11.659,-3.125l-22.17,12.8l3.062,-25.412c0.567,-4.679 -2.771,-8.929 -7.45,-9.492c-4.671,-0.571 -8.929,2.766 -9.492,7.45l-4.594,38.12l-48.039,27.735l8.166,-67.776c0.567,-4.679 -2.771,-8.929 -7.45,-9.492c-4.692,-0.588 -8.929,2.766 -9.492,7.45l-9.698,80.483l-33.467,19.322l7.327,-67.384c0.367,-3.358 -1.287,-6.621 -4.217,-8.313c-2.933,-1.683 -6.076,-1.496 -8.813,0.504l-54.197,40.041l0,-30.112l64.359,-48.641c3.771,-2.825 4.285,-8.175 1.456,-11.946c-2.817,-3.763 -7.791,-4.538 -11.574,-1.704l-54.242,40.958l0,-63.999l30.226,-23.041c3.771,-2.825 4.285,-8.175 1.456,-11.946c-2.817,-3.763 -7.786,-4.538 -11.574,-1.704l-20.108,15.358l0,-25.6c0,-4.712 -3.821,-8.533 -8.533,-8.533s-8.533,3.821 -8.533,8.533l0,25.6l-20.974,-15.358c-3.771,-2.833 -9.365,-2.058 -12.194,1.704c-2.829,3.771 -1.695,9.121 2.076,11.946l31.092,23.041l0,64.001l-55.107,-40.958c-3.779,-2.833 -9.369,-2.058 -12.194,1.704c-2.829,3.771 -1.695,9.121 2.076,11.946l65.225,48.641l0,30.112l-55.187,-40.041c-2.729,-1.996 -6.623,-2.187 -9.556,-0.504c-2.929,1.692 -4.706,4.954 -4.341,8.313l7.266,67.384l-26.11,-15.056l-9.708,-80.482c-0.564,-4.683 -4.812,-7.996 -9.5,-7.45c-4.679,0.562 -8.021,4.812 -7.453,9.492l8.159,67.775l-55.428,-32.001l-4.594,-38.12c-0.558,-4.679 -4.829,-7.971 -9.492,-7.45c-4.679,0.562 -8.017,4.812 -7.45,9.492l3.061,25.412l-22.17,-12.8c-4.096,-2.362 -9.3,-0.958 -11.658,3.125c-2.354,4.083 -0.958,9.3 3.125,11.658l22.169,12.799l-23.537,10.055c-4.337,1.85 -6.35,6.863 -4.496,11.196c1.383,3.242 4.533,5.188 7.85,5.188c1.117,0 2.254,-0.225 3.346,-0.692l35.311,-15.081l55.428,32.001l-62.777,26.818c-4.333,1.85 -6.346,6.862 -4.492,11.2c1.383,3.238 4.533,5.183 7.85,5.183c1.117,0 2.254,-0.225 3.35,-0.692l74.544,-31.843l26.078,15.056l-62.018,27.345c-3.096,1.363 -5.092,4.425 -5.092,7.808c0,3.383 1.996,6.446 5.092,7.808l62.018,27.345l-26.078,15.056l-74.544,-31.843c-4.354,-1.854 -9.354,0.158 -11.2,4.492c-1.854,4.338 0.159,9.35 4.492,11.2l62.777,26.818l-55.428,32.002l-35.311,-15.082c-4.337,-1.85 -9.346,0.167 -11.196,4.496c-1.854,4.333 0.159,9.346 4.496,11.196l23.539,10.055l-22.169,12.799c-4.083,2.358 -5.479,7.575 -3.125,11.658c1.583,2.738 4.45,4.267 7.4,4.267c1.446,0 2.917,-0.366 4.258,-1.142l22.17,-12.8l-3.061,25.412c-0.567,4.679 2.771,8.929 7.45,9.492c0.346,0.042 0.692,0.063 1.033,0.063c4.254,0 7.938,-3.179 8.458,-7.513l4.594,-38.12l55.426,-32.001l-8.161,67.775c-0.567,4.679 2.771,8.929 7.45,9.492c0.346,0.042 0.692,0.063 1.033,0.063c4.254,0 7.938,-3.179 8.458,-7.512l9.694,-80.482l26.079,-15.056l-7.327,67.384c-0.367,3.358 1.287,6.621 4.217,8.313c2.921,1.679 7.07,1.492 9.803,-0.504l55.187,-40.041l0,38.646l-65.349,48.641c-3.771,2.825 -4.781,8.175 -1.952,11.946c2.825,3.771 8.539,4.546 12.318,1.704l54.983,-40.958l0,55.468l-31.216,23.041c-3.771,2.825 -4.781,8.175 -1.952,11.946c2.829,3.763 8.547,4.546 12.318,1.704l20.85,-15.358l0,25.6c0,4.713 3.821,8.533 8.533,8.533s8.533,-3.821 8.533,-8.533l0,-25.6l19.984,15.358c1.537,1.154 3.085,1.708 4.864,1.708c2.596,0 5.036,-1.179 6.71,-3.412c2.83,-3.771 2.5,-9.121 -1.271,-11.946l-30.288,-23.041l0,-55.468l54.118,40.958c1.538,1.154 3.085,1.708 4.864,1.708c2.596,0 5.036,-1.179 6.71,-3.412c2.83,-3.771 2.5,-9.121 -1.271,-11.946l-64.421,-48.641l0,-38.646l54.197,40.041c1.496,1.092 3.019,1.646 4.794,1.646c1.472,0 2.818,-0.379 4.143,-1.142c2.93,-1.692 4.522,-4.954 4.155,-8.313l-7.358,-67.384l33.452,19.322l9.69,80.483c0.521,4.333 4.201,7.512 8.455,7.512c0.342,0 0.685,-0.021 1.031,-0.063c4.679,-0.562 8.016,-4.812 7.449,-9.492l-8.167,-67.776l48.039,27.735l4.594,38.12c0.521,4.333 4.204,7.513 8.458,7.513c0.342,0 0.688,-0.021 1.033,-0.063c4.679,-0.563 8.017,-4.812 7.45,-9.492l-3.062,-25.412l22.17,12.8c1.346,0.775 2.813,1.141 4.258,1.141c2.95,0 5.817,-1.529 7.4,-4.267c2.354,-4.083 0.958,-9.3 -3.125,-11.658l-22.169,-12.799l23.54,-10.055c4.34,-1.849 6.352,-6.862 4.498,-11.195zm-339.829,-82.292l55.743,-24.578l42.57,24.578l-42.571,24.578l-55.742,-24.578zm107.839,63.936l-49.653,35.99l6.833,-60.564l42.82,-24.579l0,49.153zm0,-78.717l-42.82,-24.58l-6.833,-60.564l49.653,35.99l0,49.154zm17.067,-49.154l48.663,-35.99l-6.339,60.564l-42.325,24.58l0,-49.154l0.001,0zm0,127.871l0,-49.153l42.325,24.579l6.339,60.564l-48.664,-35.99zm50.118,-39.358l-42.572,-24.578l42.572,-24.578l55.742,24.578l-55.742,24.578z"/>
    </g>
   </g>
   <g transform="matrix(0.06250090897413774,0,0,0.06250090897413774,0,0) " id="svg_54"/>
   <g transform="matrix(0.06250090897413774,0,0,0.06250090897413774,0,0) " id="svg_55"/>
   <g transform="matrix(0.06250090897413774,0,0,0.06250090897413774,0,0) " id="svg_56"/>
   <g transform="matrix(0.06250090897413774,0,0,0.06250090897413774,0,0) " id="svg_57"/>
   <g transform="matrix(0.06250090897413774,0,0,0.06250090897413774,0,0) " id="svg_58"/>
   <g transform="matrix(0.06250090897413774,0,0,0.06250090897413774,0,0) " id="svg_59"/>
   <g transform="matrix(0.06250090897413774,0,0,0.06250090897413774,0,0) " id="svg_60"/>
   <g transform="matrix(0.06250090897413774,0,0,0.06250090897413774,0,0) " id="svg_61"/>
   <g transform="matrix(0.06250090897413774,0,0,0.06250090897413774,0,0) " id="svg_62"/>
   <g transform="matrix(0.06250090897413774,0,0,0.06250090897413774,0,0) " id="svg_63"/>
   <g transform="matrix(0.06250090897413774,0,0,0.06250090897413774,0,0) " id="svg_64"/>
   <g transform="matrix(0.06250090897413774,0,0,0.06250090897413774,0,0) " id="svg_65"/>
   <g transform="matrix(0.06250090897413774,0,0,0.06250090897413774,0,0) " id="svg_66"/>
   <g transform="matrix(0.06250090897413774,0,0,0.06250090897413774,0,0) " id="svg_67"/>
   <g transform="matrix(0.06250090897413774,0,0,0.06250090897413774,0,0) " id="svg_68"/>
  </g>
  <g fill-opacity="0.7" id="svg_88">
   <g transform="matrix(0.06250090897413774,0,0,0.06250090897413774,0,0) " id="svg_72">
    <g id="svg_71">
     <path fill="#612095" id="svg_70" d="m3152.394937,850.291878c-1.846,-4.329 -6.854,-6.346 -11.196,-4.496l-35.313,15.082l-48.038,-27.737l62.776,-26.817c4.338,-1.85 6.35,-6.862 4.496,-11.196c-1.85,-4.333 -6.859,-6.35 -11.196,-4.496l-74.549,31.844l-33.469,-19.324l62.018,-27.345c3.096,-1.363 5.092,-4.425 5.092,-7.808c0,-3.383 -1.996,-6.446 -5.092,-7.808l-62.018,-27.345l33.469,-19.324l74.549,31.844c1.092,0.467 2.229,0.692 3.346,0.692c3.312,0 6.467,-1.946 7.85,-5.188c1.854,-4.333 -0.159,-9.346 -4.496,-11.196l-62.776,-26.817l48.038,-27.735l35.313,15.081c1.092,0.467 2.229,0.692 3.346,0.692c3.317,0 6.467,-1.946 7.85,-5.188c1.854,-4.333 -0.158,-9.346 -4.496,-11.196l-23.54,-10.055l22.169,-12.799c4.083,-2.358 5.479,-7.575 3.125,-11.658c-2.363,-4.083 -7.588,-5.487 -11.659,-3.125l-22.17,12.8l3.062,-25.412c0.567,-4.679 -2.771,-8.929 -7.45,-9.492c-4.671,-0.571 -8.929,2.766 -9.492,7.45l-4.594,38.12l-48.039,27.735l8.166,-67.776c0.567,-4.679 -2.771,-8.929 -7.45,-9.492c-4.692,-0.588 -8.929,2.766 -9.492,7.45l-9.698,80.483l-33.467,19.322l7.327,-67.384c0.367,-3.358 -1.287,-6.621 -4.217,-8.313c-2.933,-1.683 -6.076,-1.496 -8.813,0.504l-54.197,40.041l0,-30.112l64.359,-48.641c3.771,-2.825 4.285,-8.175 1.456,-11.946c-2.817,-3.763 -7.791,-4.538 -11.574,-1.704l-54.242,40.958l0,-63.999l30.226,-23.041c3.771,-2.825 4.285,-8.175 1.456,-11.946c-2.817,-3.763 -7.786,-4.538 -11.574,-1.704l-20.108,15.358l0,-25.6c0,-4.712 -3.821,-8.533 -8.533,-8.533s-8.533,3.821 -8.533,8.533l0,25.6l-20.974,-15.358c-3.771,-2.833 -9.365,-2.058 -12.194,1.704c-2.829,3.771 -1.695,9.121 2.076,11.946l31.092,23.041l0,64.001l-55.107,-40.958c-3.779,-2.833 -9.369,-2.058 -12.194,1.704c-2.829,3.771 -1.695,9.121 2.076,11.946l65.225,48.641l0,30.112l-55.187,-40.041c-2.729,-1.996 -6.623,-2.187 -9.556,-0.504c-2.929,1.692 -4.706,4.954 -4.341,8.313l7.266,67.384l-26.11,-15.056l-9.708,-80.482c-0.564,-4.683 -4.812,-7.996 -9.5,-7.45c-4.679,0.562 -8.021,4.812 -7.453,9.492l8.159,67.775l-55.428,-32.001l-4.594,-38.12c-0.558,-4.679 -4.829,-7.971 -9.492,-7.45c-4.679,0.562 -8.017,4.812 -7.45,9.492l3.061,25.412l-22.17,-12.8c-4.096,-2.362 -9.3,-0.958 -11.658,3.125c-2.354,4.083 -0.958,9.3 3.125,11.658l22.169,12.799l-23.537,10.055c-4.337,1.85 -6.35,6.863 -4.496,11.196c1.383,3.242 4.533,5.188 7.85,5.188c1.117,0 2.254,-0.225 3.346,-0.692l35.311,-15.081l55.428,32.001l-62.777,26.818c-4.333,1.85 -6.346,6.862 -4.492,11.2c1.383,3.238 4.533,5.183 7.85,5.183c1.117,0 2.254,-0.225 3.35,-0.692l74.544,-31.843l26.078,15.056l-62.018,27.345c-3.096,1.363 -5.092,4.425 -5.092,7.808c0,3.383 1.996,6.446 5.092,7.808l62.018,27.345l-26.078,15.056l-74.544,-31.843c-4.354,-1.854 -9.354,0.158 -11.2,4.492c-1.854,4.338 0.159,9.35 4.492,11.2l62.777,26.818l-55.428,32.002l-35.311,-15.082c-4.337,-1.85 -9.346,0.167 -11.196,4.496c-1.854,4.333 0.159,9.346 4.496,11.196l23.539,10.055l-22.169,12.799c-4.083,2.358 -5.479,7.575 -3.125,11.658c1.583,2.738 4.45,4.267 7.4,4.267c1.446,0 2.917,-0.366 4.258,-1.142l22.17,-12.8l-3.061,25.412c-0.567,4.679 2.771,8.929 7.45,9.492c0.346,0.042 0.692,0.063 1.033,0.063c4.254,0 7.938,-3.179 8.458,-7.513l4.594,-38.12l55.426,-32.001l-8.161,67.775c-0.567,4.679 2.771,8.929 7.45,9.492c0.346,0.042 0.692,0.063 1.033,0.063c4.254,0 7.938,-3.179 8.458,-7.512l9.694,-80.482l26.079,-15.056l-7.327,67.384c-0.367,3.358 1.287,6.621 4.217,8.313c2.921,1.679 7.07,1.492 9.803,-0.504l55.187,-40.041l0,38.646l-65.349,48.641c-3.771,2.825 -4.781,8.175 -1.952,11.946c2.825,3.771 8.539,4.546 12.318,1.704l54.983,-40.958l0,55.468l-31.216,23.041c-3.771,2.825 -4.781,8.175 -1.952,11.946c2.829,3.763 8.547,4.546 12.318,1.704l20.85,-15.358l0,25.6c0,4.713 3.821,8.533 8.533,8.533s8.533,-3.821 8.533,-8.533l0,-25.6l19.984,15.358c1.537,1.154 3.085,1.708 4.864,1.708c2.596,0 5.036,-1.179 6.71,-3.412c2.83,-3.771 2.5,-9.121 -1.271,-11.946l-30.288,-23.041l0,-55.468l54.118,40.958c1.538,1.154 3.085,1.708 4.864,1.708c2.596,0 5.036,-1.179 6.71,-3.412c2.83,-3.771 2.5,-9.121 -1.271,-11.946l-64.421,-48.641l0,-38.646l54.197,40.041c1.496,1.092 3.019,1.646 4.794,1.646c1.472,0 2.818,-0.379 4.143,-1.142c2.93,-1.692 4.522,-4.954 4.155,-8.313l-7.358,-67.384l33.452,19.322l9.69,80.483c0.521,4.333 4.201,7.512 8.455,7.512c0.342,0 0.685,-0.021 1.031,-0.063c4.679,-0.562 8.016,-4.812 7.449,-9.492l-8.167,-67.776l48.039,27.735l4.594,38.12c0.521,4.333 4.204,7.513 8.458,7.513c0.342,0 0.688,-0.021 1.033,-0.063c4.679,-0.563 8.017,-4.812 7.45,-9.492l-3.062,-25.412l22.17,12.8c1.346,0.775 2.813,1.141 4.258,1.141c2.95,0 5.817,-1.529 7.4,-4.267c2.354,-4.083 0.958,-9.3 -3.125,-11.658l-22.169,-12.799l23.54,-10.055c4.34,-1.849 6.352,-6.862 4.498,-11.195zm-339.829,-82.292l55.743,-24.578l42.57,24.578l-42.571,24.578l-55.742,-24.578zm107.839,63.936l-49.653,35.99l6.833,-60.564l42.82,-24.579l0,49.153zm0,-78.717l-42.82,-24.58l-6.833,-60.564l49.653,35.99l0,49.154zm17.067,-49.154l48.663,-35.99l-6.339,60.564l-42.325,24.58l0,-49.154l0.001,0zm0,127.871l0,-49.153l42.325,24.579l6.339,60.564l-48.664,-35.99zm50.118,-39.358l-42.572,-24.578l42.572,-24.578l55.742,24.578l-55.742,24.578z"/>
    </g>
   </g>
   <g transform="matrix(0.06250090897413774,0,0,0.06250090897413774,0,0) " id="svg_73"/>
   <g transform="matrix(0.06250090897413774,0,0,0.06250090897413774,0,0) " id="svg_74"/>
   <g transform="matrix(0.06250090897413774,0,0,0.06250090897413774,0,0) " id="svg_75"/>
   <g transform="matrix(0.06250090897413774,0,0,0.06250090897413774,0,0) " id="svg_76"/>
   <g transform="matrix(0.06250090897413774,0,0,0.06250090897413774,0,0) " id="svg_77"/>
   <g transform="matrix(0.06250090897413774,0,0,0.06250090897413774,0,0) " id="svg_78"/>
   <g transform="matrix(0.06250090897413774,0,0,0.06250090897413774,0,0) " id="svg_79"/>
   <g transform="matrix(0.06250090897413774,0,0,0.06250090897413774,0,0) " id="svg_80"/>
   <g transform="matrix(0.06250090897413774,0,0,0.06250090897413774,0,0) " id="svg_81"/>
   <g transform="matrix(0.06250090897413774,0,0,0.06250090897413774,0,0) " id="svg_82"/>
   <g transform="matrix(0.06250090897413774,0,0,0.06250090897413774,0,0) " id="svg_83"/>
   <g transform="matrix(0.06250090897413774,0,0,0.06250090897413774,0,0) " id="svg_84"/>
   <g transform="matrix(0.06250090897413774,0,0,0.06250090897413774,0,0) " id="svg_85"/>
   <g transform="matrix(0.06250090897413774,0,0,0.06250090897413774,0,0) " id="svg_86"/>
   <g transform="matrix(0.06250090897413774,0,0,0.06250090897413774,0,0) " id="svg_87"/>
  </g>
 </g>
</svg>