<svg width="512" height="512" xmlns="http://www.w3.org/2000/svg" xmlns:xlink="http://www.w3.org/1999/xlink">
 <defs>
  <rect fill="#60278e" id="p" width="8" height="8"/>
  <style type="text/css">@import url('https://fonts.googleapis.com/css?family=Ubuntu');</style>
 </defs>
 <g>
  <title>background</title>
  <rect fill="#612095" id="canvas_background" height="514" width="514" y="-1" x="-1"/>
 </g>
 <g>
  <title>Layer 1</title>
  <defs>
   <style type="text/css">
    <![CDATA[
    .outline { stroke:none; stroke-width:0 }
  ]]>
   </style>
   <g id="svg_4">
    <path id="svg_6" d="m-815.08979,23.26693l-143.72219,-381.08317l374.40909,-146.28413a187.20454,190.54158 90 0 1 143.72218,381.08317a187.20454,190.54158 90 0 1 -374.40908,146.28413z"/>
   </g>
   <g id="heart">
    <path d="m-765.94367,-6.17853l-143.72218,-381.08317l374.40909,-146.28413a187.20454,190.54158 90 0 1 143.72218,381.08317a187.20454,190.54158 90 0 1 -374.40909,146.28413z" id="svg_1"/>
   </g>
  </defs>
  <desc>a nearly perfect heart
	 made of two arcs and a right angle</desc>
  <metadata id="svg_19">image/svg+xml</metadata>
  <metadata id="svg_225">image/svg+xml</metadata>
  <defs>
   <clipPath clipPathUnits="userSpaceOnUse" id="svg_218">
    <path d="m3025056.75632,-2057697.95265l7824.543,0l0,-3259.811l-7824.543,0l0,3259.811z" id="svg_224"/>
   </clipPath>
   <clipPath clipPathUnits="userSpaceOnUse" id="svg_211">
    <path d="m3025056.75632,-2057697.95265l7824.543,0l0,-3259.811l-7824.543,0l0,3259.811z" id="svg_223"/>
   </clipPath>
  </defs>
  <g id="svg_8" stroke="null">
   <use x="3894.30962" y="-3457.73456" id="svg_7" transform="matrix(-0.08705242142095844,-0.08705242142095841,0.08705242142095841,-0.08705242142095844,70999586.57275113,-52595450.1181269) " fill="#ffffff" class="outline " xlink:href="#svg_4" stroke="null"/>
  </g>
  <g stroke="null" id="svg_15">
   <g stroke="null" id="svg_40">
    <g stroke="null" id="svg_114">
     <rect stroke="null" fill="none" id="svg_107" height="202" width="202" y="937.83561" x="-719.93503" transform="matrix(0.20099826868370657,0,0,0.20099826868370657,321.0360348741098,-51.22848146176776) "/>
     <g stroke="null" id="svg_113" transform="matrix(0.20099826868370657,0,0,0.20099826868370657,321.0360348741098,-51.22848146176776) ">
      <title>Layer 1</title>
      <g stroke="null" id="svg_112">
       <g stroke="null" id="svg_111">
        <g stroke="null" id="svg_110">
         <path stroke="null" fill="#ffffff" id="svg_109" d="m-550.20268,1060.42946c-0.5653,-1.32567 -2.0989,-1.94334 -3.42856,-1.37681l-10.81392,4.61858l-14.71071,-8.49392l19.22394,-8.21219c1.32843,-0.56652 1.94456,-2.10135 1.37681,-3.42856c-0.56653,-1.3269 -2.10043,-1.94456 -3.42856,-1.37681l-22.82919,9.75161l-10.24923,-5.9176l18.99181,-8.37388c0.94809,-0.41739 1.55933,-1.35507 1.55933,-2.39105c0,-1.03598 -0.61124,-1.97396 -1.55933,-2.39105l-18.99181,-8.37388l10.24923,-5.9176l22.82919,9.75161c0.33441,0.14301 0.68259,0.21191 1.02465,0.21191c1.01424,0 1.98039,-0.59592 2.40391,-1.58872c0.56775,-1.3269 -0.04869,-2.86203 -1.37681,-3.42856l-19.22394,-8.21219l14.71071,-8.49331l10.81392,4.61827c0.33441,0.14301 0.68259,0.21191 1.02465,0.21191c1.01577,0 1.9804,-0.59592 2.40391,-1.58872c0.56776,-1.3269 -0.04838,-2.86204 -1.37681,-3.42856l-7.20867,-3.07915l6.78883,-3.91945c1.25034,-0.72209 1.67784,-2.3197 0.95697,-3.57004c-0.72362,-1.25034 -2.32368,-1.68029 -3.57034,-0.95697l-6.78914,3.91975l0.93768,-7.78193c0.17363,-1.43285 -0.84857,-2.73433 -2.28142,-2.90674c-1.4304,-0.17486 -2.73433,0.84703 -2.90674,2.28142l-1.40683,11.67351l-14.71101,8.49331l2.50068,-20.75509c0.17363,-1.43285 -0.84857,-2.73434 -2.28142,-2.90674c-1.43683,-0.18007 -2.73433,0.84703 -2.90674,2.28142l-2.96983,24.64636l-10.24862,5.91699l2.24375,-20.63505c0.11239,-1.02832 -0.39412,-2.02755 -1.29137,-2.5457c-0.89818,-0.51538 -1.86066,-0.45812 -2.69881,0.15434l-16.59679,12.26179l0,-9.22122l19.7087,-14.89537c1.1548,-0.8651 1.3122,-2.50343 0.44588,-3.65823c-0.86266,-1.15235 -2.38585,-1.38968 -3.54432,-0.52182l-16.61056,12.5426l0,-19.59846l9.25613,-7.05586c1.15479,-0.8651 1.31219,-2.50344 0.44587,-3.65823c-0.86265,-1.15235 -2.38431,-1.38968 -3.54432,-0.52182l-6.15768,4.70309l0,-7.8395c0,-1.44296 -1.17011,-2.61307 -2.61307,-2.61307s-2.61307,1.17011 -2.61307,2.61307l0,7.8395l-6.42288,-4.70309c-1.15479,-0.86755 -2.86785,-0.63022 -3.73417,0.52182c-0.86633,1.15479 -0.51907,2.79313 0.63573,3.65823l9.52132,7.05586l0,19.59907l-16.87545,-12.5426c-1.15725,-0.86755 -2.86907,-0.63022 -3.73418,0.52182c-0.86632,1.1548 -0.51906,2.79313 0.63574,3.65823l19.97389,14.89537l0,9.22122l-16.89995,-12.26178c-0.8357,-0.61124 -2.02816,-0.66973 -2.92634,-0.15434c-0.89695,0.51814 -1.44112,1.51706 -1.32935,2.54569l2.22508,20.63505l-7.99569,-4.61061l-2.97288,-24.64606c-0.17272,-1.43407 -1.47359,-2.44862 -2.9092,-2.28142c-1.43285,0.17211 -2.45627,1.47359 -2.28233,2.90675l2.49853,20.75478l-16.97375,-9.79969l-1.40682,-11.67351c-0.17088,-1.43285 -1.47879,-2.44097 -2.90675,-2.28142c-1.43285,0.1721 -2.45505,1.47358 -2.28142,2.90674l0.93738,7.78194l-6.78914,-3.91976c-1.25432,-0.72331 -2.84794,-0.29337 -3.57003,0.95697c-0.72087,1.25034 -0.29337,2.84795 0.95697,3.57004l6.78882,3.91945l-7.20775,3.07915c-1.32812,0.56653 -1.94456,2.10166 -1.37681,3.42856c0.42352,0.9928 1.38814,1.58872 2.40391,1.58872c0.34206,0 0.69024,-0.0689 1.02465,-0.21191l10.81331,-4.61826l16.97375,9.79968l-19.22424,8.2125c-1.3269,0.56653 -1.94334,2.10135 -1.37559,3.42978c0.42352,0.99158 1.38815,1.5872 2.40391,1.5872c0.34206,0 0.69025,-0.06891 1.02588,-0.21192l22.82766,-9.7513l7.98588,4.61061l-18.99181,8.37388c-0.94809,0.41739 -1.55933,1.35507 -1.55933,2.39105c0,1.03597 0.61123,1.97396 1.55933,2.39105l18.99181,8.37387l-7.98588,4.61061l-22.82766,-9.7513c-1.33333,-0.56775 -2.86449,0.04838 -3.42979,1.37559c-0.56775,1.32843 0.04869,2.86325 1.37559,3.42978l19.22424,8.2125l-16.97375,9.79999l-10.81331,-4.61857c-1.32812,-0.56653 -2.86203,0.05114 -3.42856,1.37681c-0.56775,1.3269 0.04869,2.86203 1.37681,3.42856l7.20837,3.07915l-6.78883,3.91945c-1.25034,0.72209 -1.67784,2.31969 -0.95697,3.57003c0.48476,0.83846 1.36272,1.30669 2.2661,1.30669c0.44281,0 0.89328,-0.11208 1.30393,-0.34971l6.78914,-3.91976l-0.93737,7.78194c-0.17364,1.43285 0.84856,2.73433 2.28142,2.90674c0.10595,0.01286 0.21191,0.01929 0.31633,0.01929c1.30271,0 2.43086,-0.97351 2.5901,-2.30071l1.40682,-11.67351l16.97315,-9.79969l-2.49915,20.75478c-0.17364,1.43286 0.84856,2.73434 2.28142,2.90675c0.10595,0.01286 0.21191,0.01929 0.31633,0.01929c1.30271,0 2.43086,-0.97351 2.5901,-2.30041l2.9686,-24.64605l7.98619,-4.61061l-2.24375,20.63505c-0.11239,1.02832 0.39412,2.02755 1.29137,2.54569c0.8945,0.51416 2.16506,0.4569 3.00198,-0.15434l16.89996,-12.26178l0,11.83459l-20.01187,14.89536c-1.1548,0.8651 -1.46409,2.50343 -0.59776,3.65823c0.8651,1.1548 2.6149,1.39212 3.77215,0.52182l16.83748,-12.5426l0,16.98601l-9.5593,7.05585c-1.1548,0.86511 -1.46409,2.50344 -0.59776,3.65824c0.86633,1.15235 2.61735,1.39212 3.77215,0.52181l6.38491,-4.70309l0,7.83951c0,1.44326 1.17011,2.61306 2.61306,2.61306s2.61307,-1.1701 2.61307,-2.61306l0,-7.83951l6.11971,4.70309c0.47068,0.35339 0.94473,0.52305 1.48951,0.52305c0.79498,0 1.54218,-0.36105 2.05481,-1.04486c0.86663,-1.1548 0.76558,-2.79313 -0.38922,-3.65824l-9.27512,-7.05585l0,-16.98601l16.5726,12.5426c0.47098,0.35339 0.94472,0.52304 1.4895,0.52304c0.79498,0 1.54218,-0.36105 2.05481,-1.04486c0.86663,-1.1548 0.76558,-2.79313 -0.38922,-3.65823l-19.72769,-14.89536l0,-11.83459l16.59679,12.26178c0.45812,0.33441 0.92451,0.50406 1.46807,0.50406c0.45077,0 0.86296,-0.11606 1.26871,-0.34972c0.89726,-0.51814 1.38478,-1.51706 1.27239,-2.54569l-2.25324,-20.63505l10.24402,5.91699l2.96738,24.64636c0.15955,1.3269 1.28647,2.30041 2.58918,2.30041c0.10473,0 0.20977,-0.00643 0.31572,-0.0193c1.43286,-0.1721 2.45475,-1.47358 2.28112,-2.90674l-2.50099,-20.75509l14.71102,8.49331l1.40682,11.67351c0.15955,1.3269 1.28739,2.30071 2.5901,2.30071c0.10473,0 0.21069,-0.00643 0.31633,-0.01929c1.43286,-0.17241 2.45506,-1.47358 2.28142,-2.90674l-0.93767,-7.78194l6.78913,3.91976c0.41219,0.23733 0.86143,0.34941 1.30393,0.34941c0.90338,0 1.78134,-0.46823 2.26611,-1.30669c0.72086,-1.25034 0.29337,-2.84795 -0.95697,-3.57004l-6.78883,-3.91944l7.20867,-3.07915c1.32904,-0.56623 1.94517,-2.10136 1.37742,-3.42826l0,-0.00001zm-104.06606,-25.20032l17.07021,-7.52655l13.03624,7.52655l-13.03654,7.52654l-17.06992,-7.52654l0.00001,0zm33.02361,19.57916l-15.20527,11.02124l2.09247,-18.54655l13.1128,-7.52684l0,15.05215zm0,-24.10556l-13.1128,-7.52715l-2.09247,-18.54655l15.20527,11.02124l0,15.05246zm5.22644,-15.05246l14.9021,-11.02124l-1.9412,18.54655l-12.96121,7.52715l0,-15.05246l0.00031,0zm0,39.15802l0,-15.05215l12.96121,7.52684l1.9412,18.54655l-14.90241,-11.02124zm15.34767,-12.05263l-13.03686,-7.52653l13.03686,-7.52655l17.06991,7.52655l-17.06991,7.52653z"/>
        </g>
       </g>
      </g>
     </g>
    </g>
    <g stroke="null" id="svg_23">
     <rect stroke="null" fill="none" id="svg_2" height="202" width="202" y="1149.09557" x="-931.19499" transform="matrix(0.20099826868370657,0,0,0.20099826868370657,321.0360348741098,-51.22848146176776) "/>
    </g>
    <g stroke="null" id="svg_130">
     <rect stroke="null" fill="none" id="svg_123" height="202" width="202" y="942.3305" x="-149.08364" transform="matrix(0.20099826868370657,0,0,0.20099826868370657,321.0360348741098,-51.22848146176776) "/>
     <g stroke="null" id="svg_129" transform="matrix(0.20099826868370657,0,0,0.20099826868370657,321.0360348741098,-51.22848146176776) ">
      <title>Layer 1</title>
      <g stroke="null" id="svg_128">
       <g stroke="null" id="svg_127">
        <g stroke="null" id="svg_126">
         <path stroke="null" fill="#ffffff" id="svg_125" d="m20.64871,1064.92437c-0.5653,-1.32567 -2.0989,-1.94334 -3.42856,-1.37681l-10.81392,4.61857l-14.71071,-8.49392l19.22394,-8.21219c1.32843,-0.56652 1.94456,-2.10135 1.37681,-3.42856c-0.56653,-1.3269 -2.10043,-1.94456 -3.42856,-1.37681l-22.82919,9.75161l-10.24923,-5.9176l18.99181,-8.37388c0.94809,-0.41739 1.55933,-1.35507 1.55933,-2.39105c0,-1.03598 -0.61124,-1.97396 -1.55933,-2.39105l-18.99181,-8.37388l10.24923,-5.9176l22.82919,9.75161c0.33441,0.14301 0.68259,0.21191 1.02465,0.21191c1.01424,0 1.98039,-0.59592 2.40391,-1.58872c0.56775,-1.3269 -0.04869,-2.86203 -1.37681,-3.42856l-19.22394,-8.21219l14.71071,-8.49331l10.81392,4.61827c0.33441,0.14301 0.68259,0.21191 1.02465,0.21191c1.01577,0 1.9804,-0.59592 2.40391,-1.58872c0.56776,-1.3269 -0.04838,-2.86204 -1.37681,-3.42856l-7.20867,-3.07915l6.78883,-3.91945c1.25034,-0.72209 1.67784,-2.3197 0.95697,-3.57004c-0.72362,-1.25034 -2.32368,-1.68029 -3.57034,-0.95697l-6.78914,3.91975l0.93768,-7.78193c0.17363,-1.43285 -0.84857,-2.73433 -2.28142,-2.90674c-1.4304,-0.17486 -2.73433,0.84703 -2.90674,2.28142l-1.40683,11.67351l-14.71101,8.49331l2.50068,-20.75509c0.17363,-1.43285 -0.84857,-2.73434 -2.28142,-2.90674c-1.43683,-0.18007 -2.73433,0.84703 -2.90674,2.28142l-2.96983,24.64636l-10.24862,5.91699l2.24375,-20.63505c0.11239,-1.02832 -0.39412,-2.02755 -1.29137,-2.5457c-0.89818,-0.51538 -1.86066,-0.45812 -2.69881,0.15434l-16.59679,12.26179l0,-9.22122l19.7087,-14.89537c1.1548,-0.8651 1.3122,-2.50343 0.44588,-3.65823c-0.86266,-1.15235 -2.38585,-1.38968 -3.54432,-0.52182l-16.61056,12.5426l0,-19.59846l9.25613,-7.05586c1.15479,-0.8651 1.31219,-2.50344 0.44587,-3.65823c-0.86265,-1.15235 -2.38431,-1.38968 -3.54432,-0.52182l-6.15768,4.70309l0,-7.8395c0,-1.44296 -1.17011,-2.61307 -2.61307,-2.61307s-2.61307,1.17011 -2.61307,2.61307l0,7.8395l-6.42288,-4.70309c-1.15479,-0.86755 -2.86785,-0.63022 -3.73417,0.52182c-0.86633,1.15479 -0.51907,2.79313 0.63573,3.65823l9.52132,7.05586l0,19.59907l-16.87545,-12.5426c-1.15725,-0.86755 -2.86907,-0.63022 -3.73418,0.52182c-0.86632,1.1548 -0.51906,2.79313 0.63574,3.65823l19.97389,14.89537l0,9.22122l-16.89995,-12.26178c-0.8357,-0.61124 -2.02816,-0.66973 -2.92634,-0.15434c-0.89695,0.51814 -1.44112,1.51706 -1.32935,2.54569l2.22508,20.63505l-7.99569,-4.61061l-2.97288,-24.64606c-0.17272,-1.43407 -1.47359,-2.44862 -2.9092,-2.28142c-1.43285,0.17211 -2.45627,1.47359 -2.28233,2.90675l2.49853,20.75478l-16.97375,-9.79969l-1.40682,-11.67351c-0.17088,-1.43285 -1.47879,-2.44097 -2.90675,-2.28142c-1.43285,0.1721 -2.45505,1.47358 -2.28142,2.90674l0.93738,7.78194l-6.78914,-3.91976c-1.25432,-0.72331 -2.84794,-0.29337 -3.57003,0.95697c-0.72087,1.25034 -0.29337,2.84795 0.95697,3.57004l6.78882,3.91945l-7.20775,3.07915c-1.32812,0.56653 -1.94456,2.10166 -1.37681,3.42856c0.42352,0.9928 1.38814,1.58872 2.40391,1.58872c0.34206,0 0.69024,-0.0689 1.02465,-0.21191l10.81331,-4.61826l16.97375,9.79968l-19.22424,8.2125c-1.3269,0.56653 -1.94334,2.10135 -1.37559,3.42978c0.42352,0.99158 1.38815,1.5872 2.40391,1.5872c0.34206,0 0.69025,-0.06891 1.02588,-0.21192l22.82766,-9.7513l7.98588,4.61061l-18.99181,8.37388c-0.94809,0.41739 -1.55933,1.35507 -1.55933,2.39105c0,1.03597 0.61123,1.97396 1.55933,2.39105l18.99181,8.37387l-7.98588,4.61061l-22.82766,-9.7513c-1.33333,-0.56775 -2.86449,0.04838 -3.42979,1.37559c-0.56775,1.32843 0.04869,2.86325 1.37559,3.42978l19.22424,8.2125l-16.97375,9.79999l-10.81331,-4.61857c-1.32812,-0.56653 -2.86203,0.05114 -3.42856,1.37681c-0.56775,1.3269 0.04869,2.86203 1.37681,3.42856l7.20837,3.07915l-6.78883,3.91945c-1.25034,0.72209 -1.67784,2.31969 -0.95697,3.57003c0.48476,0.83846 1.36272,1.30669 2.2661,1.30669c0.44281,0 0.89328,-0.11208 1.30393,-0.34971l6.78914,-3.91976l-0.93737,7.78194c-0.17364,1.43285 0.84856,2.73433 2.28142,2.90674c0.10595,0.01286 0.21191,0.01929 0.31633,0.01929c1.30271,0 2.43086,-0.97351 2.5901,-2.30071l1.40682,-11.67351l16.97315,-9.79969l-2.49915,20.75478c-0.17364,1.43286 0.84856,2.73434 2.28142,2.90675c0.10595,0.01286 0.21191,0.01929 0.31633,0.01929c1.30271,0 2.43086,-0.97351 2.5901,-2.30041l2.9686,-24.64605l7.98619,-4.61061l-2.24375,20.63505c-0.11239,1.02832 0.39412,2.02755 1.29137,2.54569c0.8945,0.51416 2.16506,0.4569 3.00198,-0.15434l16.89996,-12.26178l0,11.83459l-20.01187,14.89537c-1.1548,0.8651 -1.46409,2.50343 -0.59776,3.65823c0.8651,1.15479 2.6149,1.39212 3.77215,0.52182l16.83748,-12.5426l0,16.986l-9.5593,7.05586c-1.1548,0.86511 -1.46409,2.50344 -0.59776,3.65824c0.86633,1.15234 2.61735,1.39212 3.77215,0.52181l6.38491,-4.70309l0,7.83951c0,1.44326 1.17011,2.61305 2.61306,2.61305s2.61307,-1.1701 2.61307,-2.61305l0,-7.83951l6.11971,4.70309c0.47068,0.35339 0.94473,0.52305 1.48951,0.52305c0.79498,0 1.54218,-0.36105 2.05481,-1.04486c0.86663,-1.1548 0.76558,-2.79313 -0.38922,-3.65824l-9.27512,-7.05586l0,-16.986l16.5726,12.5426c0.47098,0.35339 0.94472,0.52304 1.4895,0.52304c0.79498,0 1.54218,-0.36105 2.05481,-1.04486c0.86663,-1.1548 0.76558,-2.79313 -0.38922,-3.65823l-19.72769,-14.89537l0,-11.83459l16.59679,12.26178c0.45812,0.33441 0.92451,0.50406 1.46807,0.50406c0.45077,0 0.86296,-0.11606 1.26871,-0.34972c0.89726,-0.51814 1.38478,-1.51706 1.27239,-2.54569l-2.25324,-20.63505l10.24402,5.91699l2.96738,24.64636c0.15955,1.3269 1.28647,2.30041 2.58918,2.30041c0.10473,0 0.20977,-0.00643 0.31572,-0.0193c1.43286,-0.1721 2.45475,-1.47358 2.28112,-2.90674l-2.50099,-20.75509l14.71102,8.49331l1.40682,11.67351c0.15955,1.3269 1.28739,2.30071 2.5901,2.30071c0.10473,0 0.21069,-0.00643 0.31633,-0.01929c1.43286,-0.17241 2.45506,-1.47358 2.28142,-2.90674l-0.93767,-7.78194l6.78913,3.91976c0.41219,0.23733 0.86143,0.34941 1.30393,0.34941c0.90338,0 1.78134,-0.46823 2.26611,-1.30669c0.72086,-1.25034 0.29337,-2.84795 -0.95697,-3.57004l-6.78883,-3.91944l7.20867,-3.07915c1.32904,-0.56623 1.94517,-2.10136 1.37742,-3.42826zm-104.06606,-25.20033l17.07021,-7.52654l13.03624,7.52654l-13.03654,7.52654l-17.06992,-7.52654l0.00001,0zm33.02361,19.57916l-15.20527,11.02124l2.09247,-18.54655l13.1128,-7.52684l0,15.05215zm0,-24.10556l-13.1128,-7.52715l-2.09247,-18.54655l15.20527,11.02124l0,15.05246zm5.22644,-15.05246l14.9021,-11.02124l-1.9412,18.54655l-12.96121,7.52714l0,-15.05246l0.00031,0l0,0.00001zm0,39.15802l0,-15.05215l12.96121,7.52684l1.9412,18.54655l-14.90241,-11.02124zm15.34767,-12.05263l-13.03686,-7.52653l13.03686,-7.52654l17.06991,7.52654l-17.06991,7.52653z"/>
        </g>
       </g>
      </g>
     </g>
    </g>
    <g stroke="null" id="svg_138">
     <rect stroke="null" fill="none" id="svg_131" height="202" width="202" y="1153.59047" x="62.17632" transform="matrix(0.20099826868370657,0,0,0.20099826868370657,321.0360348741098,-51.22848146176776) "/>
     <g stroke="null" id="svg_137" transform="matrix(0.20099826868370657,0,0,0.20099826868370657,321.0360348741098,-51.22848146176776) ">
      <title>Layer 1</title>
      <g stroke="null" id="svg_136">
       <g stroke="null" id="svg_135">
        <g stroke="null" id="svg_134">
         <path stroke="null" fill="#ffffff" id="svg_133" d="m231.90868,1276.18432c-0.5653,-1.32567 -2.0989,-1.94334 -3.42856,-1.37681l-10.81392,4.61858l-14.71071,-8.49392l19.22394,-8.21219c1.32843,-0.56652 1.94456,-2.10135 1.37681,-3.42856c-0.56653,-1.3269 -2.10043,-1.94456 -3.42856,-1.37681l-22.82919,9.75161l-10.24923,-5.9176l18.99181,-8.37388c0.94809,-0.41739 1.55933,-1.35507 1.55933,-2.39105c0,-1.03598 -0.61124,-1.97396 -1.55933,-2.39105l-18.99181,-8.37388l10.24923,-5.9176l22.82919,9.75161c0.33441,0.14301 0.68259,0.21191 1.02465,0.21191c1.01424,0 1.98039,-0.59592 2.40391,-1.58872c0.56775,-1.3269 -0.04869,-2.86203 -1.37681,-3.42856l-19.22394,-8.21219l14.71071,-8.49331l10.81392,4.61827c0.33441,0.14301 0.68259,0.2119 1.02465,0.2119c1.01577,0 1.9804,-0.59591 2.40391,-1.58871c0.56776,-1.3269 -0.04838,-2.86204 -1.37681,-3.42857l-7.20867,-3.07915l6.78883,-3.91945c1.25034,-0.72209 1.67784,-2.3197 0.95697,-3.57004c-0.72362,-1.25034 -2.32368,-1.68029 -3.57034,-0.95697l-6.78914,3.91975l0.93768,-7.78193c0.17363,-1.43285 -0.84857,-2.73433 -2.28142,-2.90674c-1.4304,-0.17486 -2.73433,0.84703 -2.90674,2.28142l-1.40683,11.67351l-14.71101,8.49332l2.50068,-20.7551c0.17363,-1.43285 -0.84857,-2.73434 -2.28142,-2.90673c-1.43683,-0.18007 -2.73433,0.84702 -2.90674,2.28142l-2.96983,24.64635l-10.24862,5.91699l2.24375,-20.63505c0.11239,-1.02832 -0.39412,-2.02755 -1.29137,-2.5457c-0.89818,-0.51538 -1.86066,-0.45812 -2.69881,0.15434l-16.59679,12.2618l0,-9.22122l19.7087,-14.89537c1.1548,-0.8651 1.3122,-2.50343 0.44588,-3.65823c-0.86266,-1.15235 -2.38585,-1.38968 -3.54432,-0.52182l-16.61056,12.5426l0,-19.59846l9.25613,-7.05586c1.15479,-0.8651 1.31219,-2.50344 0.44587,-3.65823c-0.86265,-1.15235 -2.38431,-1.38968 -3.54432,-0.52182l-6.15768,4.70309l0,-7.8395c0,-1.44296 -1.17011,-2.61307 -2.61307,-2.61307s-2.61307,1.17011 -2.61307,2.61307l0,7.8395l-6.42288,-4.70309c-1.15479,-0.86755 -2.86785,-0.63022 -3.73417,0.52182c-0.86633,1.15479 -0.51907,2.79313 0.63573,3.65823l9.52132,7.05586l0,19.59907l-16.87545,-12.5426c-1.15725,-0.86755 -2.86907,-0.63022 -3.73418,0.52182c-0.86632,1.1548 -0.51906,2.79313 0.63574,3.65823l19.97389,14.89537l0,9.22122l-16.89995,-12.26178c-0.8357,-0.61124 -2.02816,-0.66974 -2.92634,-0.15435c-0.89695,0.51814 -1.44112,1.51706 -1.32935,2.54569l2.22508,20.63505l-7.99569,-4.6106l-2.97288,-24.64607c-0.17272,-1.43407 -1.47359,-2.44861 -2.9092,-2.28142c-1.43285,0.17211 -2.45627,1.4736 -2.28233,2.90676l2.49853,20.75478l-16.97375,-9.79969l-1.40682,-11.67352c-0.17088,-1.43284 -1.47879,-2.44097 -2.90675,-2.28142c-1.43285,0.1721 -2.45505,1.47358 -2.28142,2.90674l0.93738,7.78194l-6.78914,-3.91976c-1.25432,-0.72331 -2.84794,-0.29337 -3.57003,0.95697c-0.72087,1.25034 -0.29337,2.84795 0.95697,3.57004l6.78882,3.91945l-7.20775,3.07916c-1.32812,0.56653 -1.94456,2.10166 -1.37681,3.42856c0.42352,0.9928 1.38814,1.58872 2.40391,1.58872c0.34206,0 0.69024,-0.0689 1.02465,-0.21191l10.81331,-4.61826l16.97375,9.79968l-19.22424,8.2125c-1.3269,0.56653 -1.94334,2.10135 -1.37559,3.42978c0.42352,0.99158 1.38815,1.5872 2.40391,1.5872c0.34206,0 0.69025,-0.06891 1.02588,-0.21192l22.82766,-9.7513l7.98588,4.61061l-18.99181,8.37388c-0.94809,0.41739 -1.55933,1.35507 -1.55933,2.39105c0,1.03597 0.61123,1.97396 1.55933,2.39105l18.99181,8.37387l-7.98588,4.61061l-22.82766,-9.7513c-1.33333,-0.56775 -2.86449,0.04838 -3.42979,1.37559c-0.56775,1.32843 0.04869,2.86325 1.37559,3.42978l19.22424,8.2125l-16.97375,9.79999l-10.81331,-4.61857c-1.32812,-0.56653 -2.86203,0.05114 -3.42856,1.37681c-0.56775,1.3269 0.04869,2.86203 1.37681,3.42856l7.20837,3.07915l-6.78883,3.91945c-1.25034,0.72209 -1.67784,2.31969 -0.95697,3.57003c0.48476,0.83846 1.36272,1.30669 2.2661,1.30669c0.44281,0 0.89328,-0.11208 1.30393,-0.34971l6.78914,-3.91976l-0.93737,7.78194c-0.17364,1.43285 0.84856,2.73433 2.28142,2.90674c0.10595,0.01286 0.21191,0.01929 0.31633,0.01929c1.30271,0 2.43086,-0.97351 2.5901,-2.30071l1.40682,-11.67351l16.97315,-9.79969l-2.49915,20.75478c-0.17364,1.43286 0.84856,2.73434 2.28142,2.90675c0.10595,0.01286 0.21191,0.01929 0.31633,0.01929c1.30271,0 2.43086,-0.97351 2.5901,-2.30041l2.9686,-24.64605l7.98619,-4.61061l-2.24375,20.63505c-0.11239,1.02832 0.39412,2.02755 1.29137,2.54569c0.8945,0.51416 2.16506,0.4569 3.00198,-0.15434l16.89996,-12.26178l0,11.83459l-20.01187,14.89536c-1.1548,0.8651 -1.46409,2.50343 -0.59776,3.65823c0.8651,1.1548 2.6149,1.39212 3.77215,0.52182l16.83748,-12.5426l0,16.98601l-9.5593,7.05585c-1.1548,0.86511 -1.46409,2.50344 -0.59776,3.65824c0.86633,1.15235 2.61735,1.39212 3.77215,0.52181l6.38491,-4.70309l0,7.83951c0,1.44326 1.17011,2.61306 2.61306,2.61306s2.61307,-1.1701 2.61307,-2.61306l0,-7.83951l6.11971,4.70309c0.47068,0.35339 0.94473,0.52305 1.48951,0.52305c0.79498,0 1.54218,-0.36105 2.05481,-1.04486c0.86663,-1.1548 0.76558,-2.79313 -0.38922,-3.65824l-9.27512,-7.05585l0,-16.98601l16.5726,12.5426c0.47098,0.35339 0.94472,0.52304 1.4895,0.52304c0.79498,0 1.54218,-0.36105 2.05481,-1.04486c0.86663,-1.1548 0.76558,-2.79313 -0.38922,-3.65823l-19.72769,-14.89536l0,-11.83459l16.59679,12.26178c0.45812,0.33441 0.92451,0.50406 1.46807,0.50406c0.45077,0 0.86296,-0.11606 1.26871,-0.34972c0.89726,-0.51814 1.38478,-1.51706 1.27239,-2.54569l-2.25324,-20.63505l10.24402,5.91699l2.96738,24.64636c0.15955,1.3269 1.28647,2.30041 2.58918,2.30041c0.10473,0 0.20977,-0.00643 0.31572,-0.0193c1.43286,-0.1721 2.45475,-1.47358 2.28112,-2.90674l-2.50099,-20.75509l14.71102,8.49331l1.40682,11.67351c0.15955,1.3269 1.28739,2.30071 2.5901,2.30071c0.10473,0 0.21069,-0.00643 0.31633,-0.01929c1.43286,-0.17241 2.45506,-1.47358 2.28142,-2.90674l-0.93767,-7.78194l6.78913,3.91976c0.41219,0.23733 0.86143,0.34941 1.30393,0.34941c0.90338,0 1.78134,-0.46823 2.26611,-1.30669c0.72086,-1.25034 0.29337,-2.84795 -0.95697,-3.57004l-6.78883,-3.91944l7.20867,-3.07915c1.32904,-0.56623 1.94517,-2.10136 1.37742,-3.42826l0,-0.00001zm-104.06606,-25.20032l17.07021,-7.52655l13.03624,7.52655l-13.03654,7.52654l-17.06992,-7.52654l0.00001,0zm33.02361,19.57916l-15.20527,11.02124l2.09247,-18.54655l13.1128,-7.52684l0,15.05215zm0,-24.10556l-13.1128,-7.52715l-2.09247,-18.54655l15.20527,11.02124l0,15.05246zm5.22644,-15.05247l14.9021,-11.02124l-1.9412,18.54655l-12.96121,7.52715l0,-15.05246l0.00031,0zm0,39.15803l0,-15.05215l12.96121,7.52684l1.9412,18.54655l-14.90241,-11.02124zm15.34767,-12.05263l-13.03686,-7.52653l13.03686,-7.52655l17.06991,7.52655l-17.06991,7.52653z"/>
        </g>
       </g>
      </g>
     </g>
    </g>
    <g stroke="null" id="svg_22">
     <rect stroke="null" fill="none" id="svg_14" height="91.24978" width="91.24978" y="167.61872" x="12.13078"/>
    </g>
    <g stroke="null" id="svg_21" transform="matrix(0.20099826868370657,0,0,0.20099826868370657,321.0360348741098,-51.22848146176776) ">
     <title>Layer 1</title>
     <g stroke="null" id="svg_34">
      <g stroke="null" id="svg_33">
       <g stroke="null" id="svg_32">
        <path stroke="null" fill="#ffffff" id="svg_31" d="m-840.12305,1552.66384c-0.5653,-1.32567 -2.0989,-1.94334 -3.42856,-1.37681l-10.81392,4.61857l-14.71071,-8.49392l19.22394,-8.21219c1.32843,-0.56652 1.94456,-2.10135 1.37681,-3.42856c-0.56653,-1.3269 -2.10043,-1.94456 -3.42856,-1.37681l-22.82919,9.75161l-10.24923,-5.9176l18.99181,-8.37388c0.94809,-0.41739 1.55933,-1.35507 1.55933,-2.39105c0,-1.03598 -0.61124,-1.97396 -1.55933,-2.39105l-18.99181,-8.37388l10.24923,-5.9176l22.82919,9.75161c0.33441,0.14301 0.68259,0.21191 1.02465,0.21191c1.01424,0 1.98039,-0.59592 2.40391,-1.58872c0.56775,-1.3269 -0.04869,-2.86203 -1.37681,-3.42856l-19.22394,-8.21219l14.71071,-8.49331l10.81392,4.61827c0.33441,0.14301 0.68259,0.21191 1.02465,0.21191c1.01577,0 1.9804,-0.59592 2.40391,-1.58872c0.56776,-1.3269 -0.04838,-2.86204 -1.37681,-3.42856l-7.20867,-3.07915l6.78883,-3.91946c1.25034,-0.72209 1.67784,-2.3197 0.95697,-3.57004c-0.72362,-1.25034 -2.32368,-1.68029 -3.57034,-0.95697l-6.78914,3.91975l0.93768,-7.78193c0.17363,-1.43285 -0.84857,-2.73433 -2.28142,-2.90674c-1.4304,-0.17486 -2.73433,0.84703 -2.90674,2.28142l-1.40683,11.67352l-14.71101,8.49331l2.50068,-20.75509c0.17363,-1.43285 -0.84857,-2.73434 -2.28142,-2.90674c-1.43683,-0.18007 -2.73433,0.84703 -2.90674,2.28142l-2.96983,24.64636l-10.24862,5.91699l2.24375,-20.63506c0.11239,-1.02831 -0.39412,-2.02755 -1.29137,-2.54569c-0.89818,-0.51538 -1.86066,-0.45812 -2.69881,0.15434l-16.59679,12.26179l0,-9.22122l19.7087,-14.89537c1.1548,-0.8651 1.3122,-2.50343 0.44588,-3.65823c-0.86266,-1.15235 -2.38585,-1.38968 -3.54432,-0.52182l-16.61056,12.5426l0,-19.59846l9.25613,-7.05586c1.15479,-0.8651 1.31219,-2.50344 0.44587,-3.65823c-0.86265,-1.15235 -2.38431,-1.38968 -3.54432,-0.52182l-6.15768,4.70309l0,-7.8395c0,-1.44296 -1.17011,-2.61307 -2.61307,-2.61307s-2.61307,1.17011 -2.61307,2.61307l0,7.8395l-6.42288,-4.70309c-1.15479,-0.86755 -2.86785,-0.63022 -3.73417,0.52182c-0.86633,1.15479 -0.51907,2.79313 0.63573,3.65823l9.52132,7.05586l0,19.59907l-16.87545,-12.5426c-1.15725,-0.86755 -2.86907,-0.63022 -3.73418,0.52182c-0.86632,1.1548 -0.51906,2.79313 0.63574,3.65823l19.97389,14.89537l0,9.22122l-16.89995,-12.26178c-0.8357,-0.61124 -2.02816,-0.66973 -2.92634,-0.15434c-0.89695,0.51813 -1.44112,1.51705 -1.32935,2.54569l2.22508,20.63505l-7.99569,-4.61061l-2.97288,-24.64606c-0.17272,-1.43407 -1.47359,-2.44862 -2.9092,-2.28142c-1.43285,0.17211 -2.45627,1.47359 -2.28233,2.90675l2.49853,20.75478l-16.97375,-9.79969l-1.40682,-11.67351c-0.17088,-1.43285 -1.47879,-2.44098 -2.90675,-2.28142c-1.43285,0.1721 -2.45505,1.47358 -2.28142,2.90673l0.93738,7.78194l-6.78914,-3.91976c-1.25432,-0.72331 -2.84794,-0.29337 -3.57003,0.95697c-0.72087,1.25035 -0.29337,2.84796 0.95697,3.57005l6.78882,3.91945l-7.20775,3.07915c-1.32812,0.56653 -1.94456,2.10166 -1.37681,3.42856c0.42352,0.9928 1.38814,1.58872 2.40391,1.58872c0.34206,0 0.69024,-0.0689 1.02465,-0.21191l10.81331,-4.61826l16.97375,9.79968l-19.22424,8.2125c-1.3269,0.56653 -1.94334,2.10135 -1.37559,3.42978c0.42352,0.99158 1.38815,1.5872 2.40391,1.5872c0.34206,0 0.69025,-0.06891 1.02588,-0.21192l22.82766,-9.7513l7.98588,4.61061l-18.99181,8.37388c-0.94809,0.41739 -1.55933,1.35507 -1.55933,2.39105c0,1.03597 0.61123,1.97396 1.55933,2.39105l18.99181,8.37387l-7.98588,4.61061l-22.82766,-9.7513c-1.33333,-0.56775 -2.86449,0.04838 -3.42979,1.37559c-0.56775,1.32843 0.04869,2.86325 1.37559,3.42978l19.22424,8.2125l-16.97375,9.79999l-10.81331,-4.61857c-1.32812,-0.56653 -2.86203,0.05114 -3.42856,1.37681c-0.56775,1.3269 0.04869,2.86203 1.37681,3.42856l7.20837,3.07915l-6.78883,3.91945c-1.25034,0.72209 -1.67784,2.31969 -0.95697,3.57003c0.48476,0.83846 1.36272,1.30669 2.2661,1.30669c0.44281,0 0.89328,-0.11208 1.30393,-0.34971l6.78914,-3.91976l-0.93737,7.78194c-0.17364,1.43285 0.84856,2.73433 2.28142,2.90674c0.10595,0.01286 0.21191,0.01929 0.31633,0.01929c1.30271,0 2.43086,-0.97351 2.5901,-2.30071l1.40682,-11.67351l16.97315,-9.79969l-2.49915,20.75478c-0.17364,1.43286 0.84856,2.73434 2.28142,2.90675c0.10595,0.01286 0.21191,0.01929 0.31633,0.01929c1.30271,0 2.43086,-0.97351 2.5901,-2.30041l2.9686,-24.64605l7.98619,-4.61061l-2.24375,20.63505c-0.11239,1.02832 0.39412,2.02755 1.29137,2.54569c0.8945,0.51416 2.16506,0.4569 3.00198,-0.15434l16.89996,-12.26178l0,11.83459l-20.01187,14.89537c-1.1548,0.8651 -1.46409,2.50343 -0.59776,3.65823c0.8651,1.15479 2.6149,1.39212 3.77215,0.52182l16.83748,-12.5426l0,16.986l-9.5593,7.05586c-1.1548,0.86511 -1.46409,2.50344 -0.59776,3.65824c0.86633,1.15234 2.61735,1.39212 3.77215,0.52181l6.38491,-4.70309l0,7.83951c0,1.44326 1.17011,2.61305 2.61306,2.61305s2.61307,-1.1701 2.61307,-2.61305l0,-7.83951l6.11971,4.70309c0.47068,0.35339 0.94473,0.52305 1.48951,0.52305c0.79498,0 1.54218,-0.36105 2.05481,-1.04486c0.86663,-1.1548 0.76558,-2.79313 -0.38922,-3.65824l-9.27512,-7.05586l0,-16.986l16.5726,12.5426c0.47098,0.35339 0.94472,0.52304 1.4895,0.52304c0.79498,0 1.54218,-0.36105 2.05481,-1.04486c0.86663,-1.1548 0.76558,-2.79313 -0.38922,-3.65823l-19.72769,-14.89537l0,-11.83459l16.59679,12.26178c0.45812,0.33441 0.92451,0.50406 1.46807,0.50406c0.45077,0 0.86296,-0.11606 1.26871,-0.34972c0.89726,-0.51814 1.38478,-1.51706 1.27239,-2.54569l-2.25324,-20.63505l10.24402,5.91699l2.96738,24.64636c0.15955,1.3269 1.28647,2.30041 2.58918,2.30041c0.10473,0 0.20977,-0.00643 0.31572,-0.0193c1.43286,-0.1721 2.45475,-1.47358 2.28112,-2.90674l-2.50099,-20.75509l14.71102,8.49331l1.40682,11.67351c0.15955,1.3269 1.28739,2.30071 2.5901,2.30071c0.10473,0 0.21069,-0.00643 0.31633,-0.01929c1.43286,-0.17241 2.45506,-1.47358 2.28142,-2.90674l-0.93767,-7.78194l6.78913,3.91976c0.41219,0.23733 0.86143,0.34941 1.30393,0.34941c0.90338,0 1.78134,-0.46823 2.26611,-1.30669c0.72086,-1.25034 0.29337,-2.84795 -0.95697,-3.57004l-6.78883,-3.91944l7.20867,-3.07915c1.32904,-0.56623 1.94517,-2.10136 1.37742,-3.42826zm-104.06606,-25.20033l17.07021,-7.52654l13.03624,7.52654l-13.03654,7.52654l-17.06992,-7.52654l0.00001,0zm33.02361,19.57916l-15.20527,11.02124l2.09247,-18.54655l13.1128,-7.52684l0,15.05215zm0,-24.10556l-13.1128,-7.52715l-2.09247,-18.54655l15.20527,11.02124l0,15.05246zm5.22644,-15.05246l14.9021,-11.02124l-1.9412,18.54655l-12.96121,7.52714l0,-15.05246l0.00031,0l0,0.00001zm0,39.15802l0,-15.05215l12.96121,7.52684l1.9412,18.54655l-14.90241,-11.02124zm15.34767,-12.05263l-13.03686,-7.52653l13.03686,-7.52654l17.06991,7.52654l-17.06991,7.52653z"/>
       </g>
      </g>
     </g>
    </g>
    <g stroke="null" id="svg_122">
     <rect stroke="null" fill="none" id="svg_115" height="202" width="202" y="856.92754" x="-435.63305" transform="matrix(0.20099826868370657,0,0,0.20099826868370657,321.0360348741098,-51.22848146176776) "/>
     <g stroke="null" id="svg_121" transform="matrix(0.20099826868370657,0,0,0.20099826868370657,321.0360348741098,-51.22848146176776) ">
      <title>Layer 1</title>
      <g stroke="null" id="svg_120">
       <g stroke="null" id="svg_119">
        <g stroke="null" id="svg_118">
         <path stroke="null" fill="#ffffff" id="svg_117" d="m-265.90071,979.52139c-0.5653,-1.32566 -2.0989,-1.94334 -3.42856,-1.3768l-10.81392,4.61856l-14.71071,-8.49392l19.22394,-8.21218c1.32843,-0.56652 1.94456,-2.10136 1.37681,-3.42856c-0.56653,-1.3269 -2.10043,-1.94456 -3.42856,-1.37681l-22.82919,9.75161l-10.24923,-5.9176l18.99181,-8.37388c0.94809,-0.41739 1.55933,-1.35507 1.55933,-2.39105c0,-1.03598 -0.61124,-1.97396 -1.55933,-2.39105l-18.99181,-8.37388l10.24923,-5.9176l22.82919,9.75161c0.33441,0.14301 0.68259,0.21191 1.02465,0.21191c1.01424,0 1.98039,-0.59592 2.40391,-1.58872c0.56775,-1.3269 -0.04869,-2.86203 -1.37681,-3.42856l-19.22394,-8.21219l14.71071,-8.49331l10.81392,4.61827c0.33441,0.14301 0.68259,0.21191 1.02465,0.21191c1.01577,0 1.9804,-0.59592 2.40391,-1.58872c0.56776,-1.3269 -0.04838,-2.86204 -1.37681,-3.42856l-7.20867,-3.07915l6.78883,-3.91945c1.25034,-0.72209 1.67784,-2.3197 0.95697,-3.57004c-0.72362,-1.25034 -2.32368,-1.68029 -3.57034,-0.95697l-6.78914,3.91975l0.93768,-7.78193c0.17363,-1.43285 -0.84857,-2.73433 -2.28142,-2.90674c-1.4304,-0.17486 -2.73433,0.84703 -2.90674,2.28142l-1.40683,11.67351l-14.71101,8.49331l2.50068,-20.75509c0.17363,-1.43285 -0.84857,-2.73434 -2.28142,-2.90674c-1.43683,-0.18007 -2.73433,0.84703 -2.90674,2.28142l-2.96983,24.64636l-10.24862,5.91699l2.24375,-20.63505c0.11239,-1.02832 -0.39412,-2.02755 -1.29137,-2.5457c-0.89818,-0.51538 -1.86066,-0.45812 -2.69881,0.15434l-16.59679,12.26179l0,-9.22122l19.7087,-14.89537c1.1548,-0.8651 1.3122,-2.50343 0.44588,-3.65823c-0.86266,-1.15235 -2.38585,-1.38968 -3.54432,-0.52182l-16.61056,12.5426l0,-19.59846l9.25613,-7.05586c1.15479,-0.8651 1.31219,-2.50344 0.44587,-3.65823c-0.86265,-1.15235 -2.38431,-1.38968 -3.54432,-0.52182l-6.15768,4.70309l0,-7.8395c0,-1.44296 -1.17011,-2.61307 -2.61307,-2.61307s-2.61307,1.17011 -2.61307,2.61307l0,7.8395l-6.42288,-4.70309c-1.15479,-0.86755 -2.86785,-0.63022 -3.73417,0.52182c-0.86633,1.15479 -0.51907,2.79313 0.63573,3.65823l9.52132,7.05586l0,19.59907l-16.87545,-12.5426c-1.15725,-0.86755 -2.86907,-0.63022 -3.73418,0.52182c-0.86632,1.1548 -0.51906,2.79313 0.63574,3.65823l19.97389,14.89537l0,9.22122l-16.89995,-12.26178c-0.8357,-0.61124 -2.02816,-0.66973 -2.92634,-0.15434c-0.89695,0.51814 -1.44112,1.51706 -1.32935,2.54569l2.22508,20.63505l-7.99569,-4.61061l-2.97288,-24.64606c-0.17272,-1.43407 -1.47359,-2.44862 -2.9092,-2.28142c-1.43285,0.17211 -2.45627,1.47359 -2.28233,2.90675l2.49853,20.75478l-16.97375,-9.79969l-1.40682,-11.67351c-0.17088,-1.43285 -1.47879,-2.44097 -2.90675,-2.28142c-1.43285,0.1721 -2.45505,1.47358 -2.28142,2.90674l0.93738,7.78194l-6.78914,-3.91976c-1.25432,-0.72331 -2.84794,-0.29337 -3.57003,0.95697c-0.72087,1.25034 -0.29337,2.84795 0.95697,3.57004l6.78882,3.91945l-7.20775,3.07915c-1.32812,0.56653 -1.94456,2.10166 -1.37681,3.42856c0.42352,0.9928 1.38814,1.58872 2.40391,1.58872c0.34206,0 0.69024,-0.0689 1.02465,-0.21191l10.81331,-4.61826l16.97375,9.79968l-19.22424,8.2125c-1.3269,0.56653 -1.94334,2.10135 -1.37559,3.42978c0.42352,0.99158 1.38815,1.5872 2.40391,1.5872c0.34206,0 0.69025,-0.06891 1.02588,-0.21192l22.82766,-9.7513l7.98588,4.61061l-18.99181,8.37388c-0.94809,0.41739 -1.55933,1.35507 -1.55933,2.39105c0,1.03597 0.61123,1.97396 1.55933,2.39105l18.99181,8.37387l-7.98588,4.61061l-22.82766,-9.7513c-1.33333,-0.56775 -2.86449,0.04838 -3.42979,1.37559c-0.56775,1.32843 0.04869,2.86325 1.37559,3.42978l19.22424,8.2125l-16.97375,9.79999l-10.81331,-4.61857c-1.32812,-0.56653 -2.86203,0.05114 -3.42856,1.37681c-0.56775,1.3269 0.04869,2.86203 1.37681,3.42856l7.20837,3.07915l-6.78883,3.91945c-1.25034,0.72209 -1.67784,2.31969 -0.95697,3.57003c0.48476,0.83846 1.36272,1.30669 2.2661,1.30669c0.44281,0 0.89328,-0.11208 1.30393,-0.34971l6.78914,-3.91976l-0.93737,7.78194c-0.17364,1.43285 0.84856,2.73433 2.28142,2.90674c0.10595,0.01286 0.21191,0.01929 0.31633,0.01929c1.30271,0 2.43086,-0.97351 2.5901,-2.30071l1.40682,-11.67351l16.97315,-9.79969l-2.49915,20.75478c-0.17364,1.43286 0.84856,2.73434 2.28142,2.90675c0.10595,0.01286 0.21191,0.01929 0.31633,0.01929c1.30271,0 2.43086,-0.97351 2.5901,-2.30042l2.9686,-24.64604l7.98619,-4.61061l-2.24375,20.63505c-0.11239,1.02832 0.39412,2.02755 1.29137,2.54569c0.8945,0.51416 2.16506,0.4569 3.00198,-0.15434l16.89996,-12.26178l0,11.83459l-20.01187,14.89537c-1.1548,0.8651 -1.46409,2.50343 -0.59776,3.65823c0.8651,1.15479 2.6149,1.39212 3.77215,0.52182l16.83748,-12.5426l0,16.986l-9.5593,7.05586c-1.1548,0.86511 -1.46409,2.50344 -0.59776,3.65824c0.86633,1.15234 2.61735,1.39212 3.77215,0.52181l6.38491,-4.70309l0,7.83951c0,1.44326 1.17011,2.61306 2.61306,2.61306s2.61307,-1.1701 2.61307,-2.61306l0,-7.83951l6.11971,4.70309c0.47068,0.35339 0.94473,0.52305 1.48951,0.52305c0.79498,0 1.54218,-0.36105 2.05481,-1.04486c0.86663,-1.1548 0.76558,-2.79313 -0.38922,-3.65824l-9.27512,-7.05586l0,-16.986l16.5726,12.5426c0.47098,0.35339 0.94472,0.52304 1.4895,0.52304c0.79498,0 1.54218,-0.36105 2.05481,-1.04486c0.86663,-1.1548 0.76558,-2.79313 -0.38922,-3.65823l-19.72769,-14.89537l0,-11.83459l16.59679,12.26178c0.45812,0.33441 0.92451,0.50406 1.46807,0.50406c0.45077,0 0.86296,-0.11606 1.26871,-0.34972c0.89726,-0.51814 1.38478,-1.51706 1.27239,-2.54569l-2.25324,-20.63505l10.24402,5.91699l2.96738,24.64636c0.15955,1.3269 1.28647,2.30041 2.58918,2.30041c0.10473,0 0.20977,-0.00643 0.31572,-0.0193c1.43286,-0.1721 2.45475,-1.47358 2.28112,-2.90674l-2.50099,-20.75509l14.71102,8.49331l1.40682,11.67351c0.15955,1.3269 1.28739,2.30071 2.5901,2.30071c0.10473,0 0.21069,-0.00643 0.31633,-0.01929c1.43286,-0.17241 2.45506,-1.47358 2.28142,-2.90674l-0.93767,-7.78194l6.78913,3.91976c0.41219,0.23733 0.86143,0.34941 1.30393,0.34941c0.90338,0 1.78134,-0.46823 2.26611,-1.30669c0.72086,-1.25034 0.29337,-2.84795 -0.95697,-3.57004l-6.78883,-3.91944l7.20867,-3.07915c1.32904,-0.56623 1.94517,-2.10136 1.37742,-3.42826l0,-0.00001zm-104.06606,-25.20033l17.07021,-7.52653l13.03624,7.52653l-13.03654,7.52654l-17.06992,-7.52654l0.00001,0zm33.02361,19.57916l-15.20527,11.02125l2.09247,-18.54656l13.1128,-7.52684l0,15.05215zm0,-24.10555l-13.1128,-7.52715l-2.09247,-18.54656l15.20527,11.02125l0,15.05246zm5.22644,-15.05246l14.9021,-11.02125l-1.9412,18.54656l-12.96121,7.52715l0,-15.05246l0.00031,0zm0,39.15801l0,-15.05215l12.96121,7.52684l1.9412,18.54656l-14.90241,-11.02125zm15.34767,-12.05263l-13.03686,-7.52653l13.03686,-7.52653l17.06991,7.52653l-17.06991,7.52653z"/>
        </g>
       </g>
      </g>
     </g>
    </g>
    <g stroke="null" id="svg_146">
     <rect stroke="null" fill="none" id="svg_139" height="202" width="202" y="1432.27382" x="138.5895" transform="matrix(0.20099826868370657,0,0,0.20099826868370657,321.0360348741098,-51.22848146176776) "/>
     <g stroke="null" id="svg_145" transform="matrix(0.20099826868370657,0,0,0.20099826868370657,321.0360348741098,-51.22848146176776) ">
      <title>Layer 1</title>
      <g stroke="null" id="svg_144">
       <g stroke="null" id="svg_143">
        <g stroke="null" id="svg_142">
         <path stroke="null" fill="#ffffff" id="svg_141" d="m308.32186,1554.86768c-0.5653,-1.32567 -2.0989,-1.94334 -3.42856,-1.37681l-10.81392,4.61858l-14.71071,-8.49392l19.22394,-8.21219c1.32843,-0.56652 1.94456,-2.10135 1.37681,-3.42856c-0.56653,-1.3269 -2.10043,-1.94456 -3.42856,-1.37681l-22.82919,9.75161l-10.24923,-5.9176l18.99181,-8.37388c0.94809,-0.41739 1.55933,-1.35507 1.55933,-2.39105c0,-1.03598 -0.61124,-1.97396 -1.55933,-2.39105l-18.99181,-8.37388l10.24923,-5.9176l22.82919,9.75161c0.33441,0.14301 0.68259,0.21191 1.02465,0.21191c1.01424,0 1.98039,-0.59592 2.40391,-1.58872c0.56775,-1.3269 -0.04869,-2.86203 -1.37681,-3.42856l-19.22394,-8.21219l14.71071,-8.49331l10.81392,4.61826c0.33441,0.14302 0.68259,0.21191 1.02465,0.21191c1.01577,0 1.9804,-0.59591 2.40391,-1.58871c0.56776,-1.32691 -0.04838,-2.86204 -1.37681,-3.42857l-7.20867,-3.07915l6.78883,-3.91945c1.25034,-0.72209 1.67784,-2.3197 0.95697,-3.57004c-0.72362,-1.25034 -2.32368,-1.68029 -3.57034,-0.95697l-6.78914,3.91975l0.93768,-7.78193c0.17363,-1.43285 -0.84857,-2.73433 -2.28142,-2.90674c-1.4304,-0.17486 -2.73433,0.84703 -2.90674,2.28142l-1.40683,11.67351l-14.71101,8.49332l2.50068,-20.7551c0.17363,-1.43285 -0.84857,-2.73434 -2.28142,-2.90674c-1.43683,-0.18006 -2.73433,0.84703 -2.90674,2.28143l-2.96983,24.64635l-10.24862,5.91699l2.24375,-20.63505c0.11239,-1.02832 -0.39412,-2.02755 -1.29137,-2.5457c-0.89818,-0.51538 -1.86066,-0.45812 -2.69881,0.15434l-16.59679,12.2618l0,-9.22122l19.7087,-14.89537c1.1548,-0.8651 1.3122,-2.50343 0.44588,-3.65823c-0.86266,-1.15235 -2.38585,-1.38968 -3.54432,-0.52182l-16.61056,12.5426l0,-19.59846l9.25613,-7.05586c1.15479,-0.8651 1.31219,-2.50344 0.44587,-3.65823c-0.86265,-1.15235 -2.38431,-1.38968 -3.54432,-0.52182l-6.15768,4.70309l0,-7.8395c0,-1.44296 -1.17011,-2.61307 -2.61307,-2.61307s-2.61307,1.17011 -2.61307,2.61307l0,7.8395l-6.42288,-4.70309c-1.15479,-0.86755 -2.86785,-0.63022 -3.73417,0.52182c-0.86633,1.15479 -0.51907,2.79313 0.63573,3.65823l9.52132,7.05586l0,19.59907l-16.87545,-12.5426c-1.15725,-0.86755 -2.86907,-0.63022 -3.73418,0.52182c-0.86632,1.1548 -0.51906,2.79313 0.63574,3.65823l19.97389,14.89537l0,9.22122l-16.89995,-12.26178c-0.8357,-0.61124 -2.02816,-0.66974 -2.92634,-0.15435c-0.89695,0.51814 -1.44112,1.51706 -1.32935,2.54569l2.22508,20.63505l-7.99569,-4.6106l-2.97288,-24.64607c-0.17272,-1.43407 -1.47359,-2.44861 -2.9092,-2.28142c-1.43285,0.17211 -2.45627,1.4736 -2.28233,2.90676l2.49853,20.75478l-16.97375,-9.7997l-1.40682,-11.67351c-0.17088,-1.43285 -1.47879,-2.44097 -2.90675,-2.28142c-1.43285,0.1721 -2.45505,1.47358 -2.28142,2.90674l0.93738,7.78194l-6.78914,-3.91976c-1.25432,-0.72331 -2.84794,-0.29337 -3.57003,0.95697c-0.72087,1.25034 -0.29337,2.84795 0.95697,3.57004l6.78882,3.91945l-7.20775,3.07916c-1.32812,0.56653 -1.94456,2.10166 -1.37681,3.42856c0.42352,0.9928 1.38814,1.58872 2.40391,1.58872c0.34206,0 0.69024,-0.0689 1.02465,-0.21191l10.81331,-4.61826l16.97375,9.79968l-19.22424,8.2125c-1.3269,0.56653 -1.94334,2.10135 -1.37559,3.42978c0.42352,0.99158 1.38815,1.5872 2.40391,1.5872c0.34206,0 0.69025,-0.06891 1.02588,-0.21192l22.82766,-9.7513l7.98588,4.61061l-18.99181,8.37388c-0.94809,0.41739 -1.55933,1.35507 -1.55933,2.39105c0,1.03597 0.61123,1.97396 1.55933,2.39105l18.99181,8.37387l-7.98588,4.61061l-22.82766,-9.7513c-1.33333,-0.56775 -2.86449,0.04838 -3.42979,1.37559c-0.56775,1.32843 0.04869,2.86325 1.37559,3.42978l19.22424,8.2125l-16.97375,9.79999l-10.81331,-4.61857c-1.32812,-0.56653 -2.86203,0.05114 -3.42856,1.37681c-0.56775,1.3269 0.04869,2.86203 1.37681,3.42856l7.20837,3.07915l-6.78883,3.91945c-1.25034,0.72209 -1.67784,2.31969 -0.95697,3.57003c0.48476,0.83846 1.36272,1.30669 2.2661,1.30669c0.44281,0 0.89328,-0.11208 1.30393,-0.34971l6.78914,-3.91976l-0.93737,7.78194c-0.17364,1.43285 0.84856,2.73433 2.28142,2.90674c0.10595,0.01286 0.21191,0.01929 0.31633,0.01929c1.30271,0 2.43086,-0.97351 2.5901,-2.30071l1.40682,-11.67351l16.97315,-9.79969l-2.49915,20.75478c-0.17364,1.43286 0.84856,2.73434 2.28142,2.90675c0.10595,0.01286 0.21191,0.01929 0.31633,0.01929c1.30271,0 2.43086,-0.97351 2.5901,-2.30041l2.9686,-24.64605l7.98619,-4.61061l-2.24375,20.63505c-0.11239,1.02832 0.39412,2.02755 1.29137,2.54569c0.8945,0.51416 2.16506,0.4569 3.00198,-0.15434l16.89996,-12.26178l0,11.83459l-20.01187,14.89536c-1.1548,0.8651 -1.46409,2.50343 -0.59776,3.65823c0.8651,1.1548 2.6149,1.39212 3.77215,0.52182l16.83748,-12.5426l0,16.98601l-9.5593,7.05585c-1.1548,0.86511 -1.46409,2.50344 -0.59776,3.65824c0.86633,1.15235 2.61735,1.39212 3.77215,0.52181l6.38491,-4.70309l0,7.83951c0,1.44326 1.17011,2.61306 2.61306,2.61306s2.61307,-1.1701 2.61307,-2.61306l0,-7.83951l6.11971,4.70309c0.47068,0.35339 0.94473,0.52305 1.48951,0.52305c0.79498,0 1.54218,-0.36105 2.05481,-1.04486c0.86663,-1.1548 0.76558,-2.79313 -0.38922,-3.65824l-9.27512,-7.05585l0,-16.98601l16.5726,12.5426c0.47098,0.35339 0.94472,0.52304 1.4895,0.52304c0.79498,0 1.54218,-0.36105 2.05481,-1.04486c0.86663,-1.1548 0.76558,-2.79313 -0.38922,-3.65823l-19.72769,-14.89536l0,-11.83459l16.59679,12.26178c0.45812,0.33441 0.92451,0.50406 1.46807,0.50406c0.45077,0 0.86296,-0.11606 1.26871,-0.34972c0.89726,-0.51814 1.38478,-1.51706 1.27239,-2.54569l-2.25324,-20.63505l10.24402,5.91699l2.96738,24.64636c0.15955,1.3269 1.28647,2.30041 2.58918,2.30041c0.10473,0 0.20977,-0.00643 0.31572,-0.0193c1.43286,-0.1721 2.45475,-1.47358 2.28112,-2.90674l-2.50099,-20.75509l14.71102,8.49331l1.40682,11.67351c0.15955,1.3269 1.28739,2.30071 2.5901,2.30071c0.10473,0 0.21069,-0.00643 0.31633,-0.01929c1.43286,-0.17241 2.45506,-1.47358 2.28142,-2.90674l-0.93767,-7.78194l6.78913,3.91976c0.41219,0.23733 0.86143,0.34941 1.30393,0.34941c0.90338,0 1.78134,-0.46823 2.26611,-1.30669c0.72086,-1.25034 0.29337,-2.84795 -0.95697,-3.57004l-6.78883,-3.91944l7.20867,-3.07915c1.32904,-0.56623 1.94517,-2.10136 1.37742,-3.42826l0,-0.00001zm-104.06606,-25.20032l17.07021,-7.52655l13.03624,7.52655l-13.03654,7.52654l-17.06992,-7.52654l0.00001,0zm33.02361,19.57916l-15.20527,11.02124l2.09247,-18.54655l13.1128,-7.52684l0,15.05215zm0,-24.10556l-13.1128,-7.52715l-2.09247,-18.54655l15.20527,11.02124l0,15.05246zm5.22644,-15.05247l14.9021,-11.02124l-1.9412,18.54655l-12.96121,7.52715l0,-15.05246l0.00031,0zm0,39.15803l0,-15.05215l12.96121,7.52684l1.9412,18.54655l-14.90241,-11.02124zm15.34767,-12.05263l-13.03686,-7.52653l13.03686,-7.52655l17.06991,7.52655l-17.06991,7.52653z"/>
        </g>
       </g>
      </g>
     </g>
    </g>
    <g stroke="null" id="svg_154">
     <rect stroke="null" fill="none" id="svg_147" height="202" width="202" y="1728.93675" x="57.68143" transform="matrix(0.20099826868370657,0,0,0.20099826868370657,321.0360348741098,-51.22848146176776) "/>
     <g stroke="null" id="svg_153" transform="matrix(0.20099826868370657,0,0,0.20099826868370657,321.0360348741098,-51.22848146176776) ">
      <title>Layer 1</title>
      <g stroke="null" id="svg_152">
       <g stroke="null" id="svg_151">
        <g stroke="null" id="svg_150">
         <path stroke="null" fill="#ffffff" id="svg_149" d="m227.41378,1851.53061c-0.5653,-1.32567 -2.09889,-1.94334 -3.42855,-1.37681l-10.81393,4.61858l-14.7107,-8.49392l19.22393,-8.21219c1.32844,-0.56652 1.94457,-2.10135 1.37681,-3.42856c-0.56652,-1.3269 -2.10042,-1.94456 -3.42855,-1.37681l-22.8292,9.75161l-10.24923,-5.9176l18.99181,-8.37388c0.94809,-0.4174 1.55933,-1.35508 1.55933,-2.39105c0,-1.03599 -0.61123,-1.97396 -1.55933,-2.39105l-18.99181,-8.37388l10.24923,-5.9176l22.8292,9.75161c0.33441,0.14301 0.68259,0.21191 1.02464,0.21191c1.01424,0 1.9804,-0.59592 2.40391,-1.58872c0.56776,-1.3269 -0.04869,-2.86203 -1.37681,-3.42856l-19.22393,-8.21219l14.7107,-8.49331l10.81393,4.61826c0.33441,0.14301 0.68259,0.21191 1.02464,0.21191c1.01577,0 1.98041,-0.59592 2.40391,-1.58872c0.56776,-1.3269 -0.04837,-2.86203 -1.37681,-3.42856l-7.20866,-3.07915l6.78882,-3.91945c1.25035,-0.72209 1.67784,-2.3197 0.95697,-3.57004c-0.72362,-1.25034 -2.32368,-1.68029 -3.57034,-0.95697l-6.78914,3.91975l0.93768,-7.78193c0.17363,-1.43285 -0.84857,-2.73433 -2.28142,-2.90674c-1.4304,-0.17486 -2.73433,0.84703 -2.90674,2.28142l-1.40683,11.67351l-14.71101,8.49331l2.50068,-20.75509c0.17363,-1.43285 -0.84857,-2.73434 -2.28142,-2.90674c-1.43683,-0.18006 -2.73433,0.84703 -2.90674,2.28142l-2.96983,24.64636l-10.24862,5.91699l2.24375,-20.63505c0.11239,-1.02832 -0.39412,-2.02755 -1.29137,-2.5457c-0.89818,-0.51538 -1.86066,-0.45812 -2.69881,0.15434l-16.59679,12.26179l0,-9.22121l19.7087,-14.89537c1.1548,-0.8651 1.3122,-2.50343 0.44588,-3.65823c-0.86266,-1.15235 -2.38585,-1.38968 -3.54432,-0.52182l-16.61055,12.5426l0,-19.59846l9.25612,-7.05586c1.1548,-0.8651 1.31219,-2.50344 0.44588,-3.65823c-0.86266,-1.15235 -2.38432,-1.38968 -3.54432,-0.52182l-6.15768,4.70309l0,-7.8395c0,-1.44296 -1.17012,-2.61307 -2.61307,-2.61307s-2.61307,1.17011 -2.61307,2.61307l0,7.8395l-6.42288,-4.70309c-1.15479,-0.86755 -2.86785,-0.63022 -3.73417,0.52182c-0.86633,1.15479 -0.51907,2.79313 0.63573,3.65823l9.52132,7.05586l0,19.59907l-16.87545,-12.5426c-1.15725,-0.86755 -2.86907,-0.63022 -3.73419,0.52182c-0.86631,1.1548 -0.51905,2.79313 0.63575,3.65823l19.97389,14.89537l0,9.22122l-16.89995,-12.26179c-0.8357,-0.61123 -2.02816,-0.66973 -2.92634,-0.15434c-0.89695,0.51814 -1.44112,1.51706 -1.32935,2.54569l2.22508,20.63505l-7.99569,-4.61061l-2.97288,-24.64606c-0.17272,-1.43407 -1.47359,-2.44861 -2.9092,-2.28142c-1.43285,0.17211 -2.45627,1.47359 -2.28233,2.90676l2.49853,20.75478l-16.97375,-9.7997l-1.40683,-11.67351c-0.17088,-1.43285 -1.47879,-2.44097 -2.90674,-2.28142c-1.43286,0.1721 -2.45506,1.47358 -2.28143,2.90674l0.93738,7.78194l-6.78914,-3.91976c-1.25432,-0.72331 -2.84794,-0.29337 -3.57003,0.95697c-0.72087,1.25034 -0.29336,2.84795 0.95697,3.57004l6.78882,3.91945l-7.20775,3.07915c-1.32812,0.56654 -1.94456,2.10167 -1.37681,3.42857c0.42352,0.9928 1.38814,1.58872 2.40391,1.58872c0.34206,0 0.69024,-0.0689 1.02465,-0.21191l10.81331,-4.61826l16.97375,9.79968l-19.22424,8.2125c-1.3269,0.56653 -1.94334,2.10135 -1.37559,3.42978c0.42352,0.99158 1.38815,1.5872 2.40391,1.5872c0.34206,0 0.69025,-0.06891 1.02588,-0.21192l22.82766,-9.7513l7.98588,4.61061l-18.99181,8.37388c-0.94809,0.41739 -1.55933,1.35507 -1.55933,2.39105c0,1.03597 0.61123,1.97396 1.55933,2.39105l18.99181,8.37387l-7.98588,4.61061l-22.82766,-9.7513c-1.33333,-0.56775 -2.86449,0.04838 -3.42979,1.37559c-0.56775,1.32843 0.04869,2.86325 1.37559,3.42978l19.22424,8.2125l-16.97375,9.79999l-10.81331,-4.61857c-1.32812,-0.56653 -2.86203,0.05114 -3.42856,1.37681c-0.56775,1.3269 0.04869,2.86203 1.37681,3.42856l7.20837,3.07915l-6.78883,3.91945c-1.25034,0.72209 -1.67784,2.31969 -0.95697,3.57003c0.48476,0.83846 1.36272,1.30669 2.2661,1.30669c0.44281,0 0.89328,-0.11208 1.30394,-0.34971l6.78913,-3.91976l-0.93736,7.78194c-0.17364,1.43285 0.84856,2.73433 2.28142,2.90674c0.10595,0.01286 0.21191,0.01929 0.31633,0.01929c1.30271,0 2.43086,-0.97351 2.5901,-2.30071l1.40682,-11.67351l16.97315,-9.79969l-2.49915,20.75478c-0.17364,1.43286 0.84856,2.73434 2.28142,2.90675c0.10595,0.01286 0.21191,0.01929 0.31633,0.01929c1.30271,0 2.43086,-0.97351 2.5901,-2.30041l2.9686,-24.64605l7.98619,-4.61061l-2.24375,20.63505c-0.11239,1.02832 0.39412,2.02755 1.29137,2.54569c0.8945,0.51416 2.16506,0.4569 3.00198,-0.15434l16.89996,-12.26178l0,11.83458l-20.01187,14.89537c-1.1548,0.8651 -1.46409,2.50343 -0.59776,3.65823c0.8651,1.15479 2.6149,1.39212 3.77215,0.52182l16.83748,-12.5426l0,16.986l-9.5593,7.05586c-1.1548,0.86511 -1.46409,2.50344 -0.59776,3.65824c0.86633,1.15234 2.61735,1.39212 3.77215,0.52181l6.38491,-4.70309l0,7.83951c0,1.44326 1.17011,2.61306 2.61306,2.61306s2.61307,-1.1701 2.61307,-2.61306l0,-7.83951l6.11971,4.70309c0.47068,0.35339 0.94473,0.52305 1.48951,0.52305c0.79498,0 1.54218,-0.36105 2.05481,-1.04486c0.86663,-1.1548 0.76558,-2.79313 -0.38922,-3.65824l-9.27512,-7.05586l0,-16.986l16.5726,12.5426c0.47098,0.35339 0.94472,0.52304 1.4895,0.52304c0.79498,0 1.54218,-0.36105 2.05481,-1.04486c0.86663,-1.1548 0.76558,-2.79313 -0.38922,-3.65823l-19.72769,-14.89537l0,-11.83458l16.59678,12.26178c0.45812,0.33441 0.92452,0.50406 1.46808,0.50406c0.45077,0 0.86296,-0.11606 1.26871,-0.34972c0.89726,-0.51814 1.38478,-1.51706 1.27239,-2.54569l-2.25324,-20.63505l10.24402,5.91699l2.96738,24.64636c0.15955,1.3269 1.28647,2.30041 2.58918,2.30041c0.10473,0 0.20977,-0.00643 0.31572,-0.0193c1.43286,-0.1721 2.45475,-1.47358 2.28112,-2.90674l-2.50099,-20.75509l14.71102,8.49331l1.40682,11.67351c0.15955,1.3269 1.28739,2.30071 2.5901,2.30071c0.10473,0 0.21069,-0.00643 0.31633,-0.01929c1.43286,-0.17241 2.45506,-1.47358 2.28142,-2.90674l-0.93767,-7.78194l6.78913,3.91976c0.41219,0.23733 0.86143,0.34941 1.30393,0.34941c0.90338,0 1.78134,-0.46823 2.26611,-1.30669c0.72086,-1.25034 0.29337,-2.84795 -0.95697,-3.57004l-6.78883,-3.91944l7.20867,-3.07915c1.32904,-0.56623 1.94517,-2.10136 1.37742,-3.42826l-0.00001,0l0,-0.00001zm-104.06606,-25.20032l17.07021,-7.52655l13.03624,7.52655l-13.03653,7.52654l-17.06993,-7.52654l0.00001,0zm33.02361,19.57916l-15.20527,11.02124l2.09247,-18.54655l13.1128,-7.52684l0,15.05215zm0,-24.10556l-13.1128,-7.52715l-2.09247,-18.54655l15.20527,11.02124l0,15.05246zm5.22644,-15.05247l14.9021,-11.02124l-1.9412,18.54655l-12.96121,7.52715l0,-15.05246l0.00031,0zm0,39.15803l0,-15.05215l12.96122,7.52684l1.94119,18.54655l-14.90241,-11.02124zm15.34767,-12.05263l-13.03686,-7.52653l13.03686,-7.52655l17.06992,7.52655l-17.06992,7.52653z"/>
        </g>
       </g>
      </g>
     </g>
    </g>
    <g stroke="null" id="svg_162">
     <rect stroke="null" fill="none" id="svg_155" height="202" width="202" y="1931.20693" x="-153.57853" transform="matrix(0.20099826868370657,0,0,0.20099826868370657,321.0360348741098,-51.22848146176776) "/>
     <g stroke="null" id="svg_161" transform="matrix(0.20099826868370657,0,0,0.20099826868370657,321.0360348741098,-51.22848146176776) ">
      <title>Layer 1</title>
      <g stroke="null" id="svg_160">
       <g stroke="null" id="svg_159">
        <g stroke="null" id="svg_158">
         <path stroke="null" fill="#ffffff" id="svg_157" d="m16.15382,2053.8008c-0.5653,-1.32568 -2.0989,-1.94334 -3.42856,-1.37682l-10.81392,4.61857l-14.71071,-8.49391l19.22394,-8.21219c1.32843,-0.56652 1.94456,-2.10135 1.37681,-3.42856c-0.56653,-1.3269 -2.10043,-1.94456 -3.42856,-1.37681l-22.82919,9.75161l-10.24923,-5.9176l18.99181,-8.37388c0.94809,-0.4174 1.55933,-1.35508 1.55933,-2.39105c0,-1.03599 -0.61124,-1.97396 -1.55933,-2.39105l-18.99181,-8.37388l10.24923,-5.9176l22.82919,9.75161c0.33441,0.14301 0.68259,0.21191 1.02465,0.21191c1.01424,0 1.98039,-0.59592 2.40391,-1.58872c0.56775,-1.3269 -0.04869,-2.86203 -1.37681,-3.42856l-19.22394,-8.21219l14.71071,-8.49331l10.81392,4.61826c0.33441,0.14301 0.68259,0.21191 1.02465,0.21191c1.01577,0 1.9804,-0.59592 2.40391,-1.58872c0.56776,-1.3269 -0.04838,-2.86204 -1.37681,-3.42856l-7.20867,-3.07915l6.78883,-3.91945c1.25034,-0.72209 1.67784,-2.3197 0.95697,-3.57004c-0.72362,-1.25034 -2.32368,-1.68029 -3.57034,-0.95697l-6.78914,3.91975l0.93768,-7.78193c0.17363,-1.43285 -0.84857,-2.73433 -2.28142,-2.90674c-1.4304,-0.17486 -2.73433,0.84703 -2.90674,2.28142l-1.40683,11.67351l-14.71101,8.49331l2.50068,-20.75509c0.17363,-1.43285 -0.84857,-2.73434 -2.28142,-2.90674c-1.43683,-0.18006 -2.73433,0.84703 -2.90674,2.28142l-2.96983,24.64636l-10.24862,5.91699l2.24375,-20.63505c0.11239,-1.02832 -0.39412,-2.02755 -1.29137,-2.5457c-0.89818,-0.51538 -1.86066,-0.45812 -2.69881,0.15434l-16.59679,12.26179l0,-9.22121l19.7087,-14.89537c1.1548,-0.8651 1.3122,-2.50343 0.44588,-3.65823c-0.86266,-1.15235 -2.38585,-1.38968 -3.54432,-0.52182l-16.61056,12.5426l0,-19.59846l9.25613,-7.05586c1.15479,-0.8651 1.31219,-2.50344 0.44587,-3.65823c-0.86265,-1.15235 -2.38431,-1.38968 -3.54432,-0.52182l-6.15768,4.70309l0,-7.8395c0,-1.44296 -1.17011,-2.61307 -2.61307,-2.61307s-2.61307,1.17011 -2.61307,2.61307l0,7.8395l-6.42288,-4.70309c-1.15479,-0.86755 -2.86785,-0.63022 -3.73417,0.52182c-0.86633,1.15479 -0.51907,2.79313 0.63573,3.65823l9.52132,7.05586l0,19.59907l-16.87545,-12.5426c-1.15725,-0.86755 -2.86907,-0.63022 -3.73418,0.52182c-0.86632,1.1548 -0.51906,2.79313 0.63574,3.65823l19.97389,14.89537l0,9.22121l-16.89995,-12.26178c-0.8357,-0.61124 -2.02816,-0.66973 -2.92634,-0.15434c-0.89695,0.51814 -1.44112,1.51706 -1.32935,2.54569l2.22508,20.63505l-7.99569,-4.61061l-2.97288,-24.64606c-0.17272,-1.43407 -1.47359,-2.44861 -2.9092,-2.28142c-1.43285,0.17211 -2.45627,1.47359 -2.28233,2.90676l2.49853,20.75477l-16.97375,-9.79969l-1.40682,-11.67351c-0.17088,-1.43285 -1.47879,-2.44097 -2.90675,-2.28142c-1.43285,0.1721 -2.45505,1.47358 -2.28142,2.90674l0.93738,7.78194l-6.78914,-3.91976c-1.25432,-0.72331 -2.84794,-0.29337 -3.57003,0.95697c-0.72087,1.25034 -0.29337,2.84795 0.95697,3.57004l6.78882,3.91945l-7.20775,3.07915c-1.32812,0.56654 -1.94456,2.10166 -1.37681,3.42857c0.42352,0.9928 1.38814,1.58871 2.40391,1.58871c0.34206,0 0.69024,-0.0689 1.02465,-0.21191l10.81331,-4.61825l16.97375,9.79968l-19.22424,8.2125c-1.3269,0.56653 -1.94334,2.10135 -1.37559,3.42978c0.42352,0.99158 1.38815,1.5872 2.40391,1.5872c0.34206,0 0.69025,-0.06891 1.02588,-0.21192l22.82766,-9.7513l7.98588,4.61061l-18.99181,8.37388c-0.94809,0.41739 -1.55933,1.35507 -1.55933,2.39105c0,1.03597 0.61123,1.97396 1.55933,2.39105l18.99181,8.37387l-7.98588,4.61061l-22.82766,-9.7513c-1.33333,-0.56775 -2.86449,0.04838 -3.42979,1.37559c-0.56775,1.32843 0.04869,2.86325 1.37559,3.42978l19.22424,8.2125l-16.97375,9.79999l-10.81331,-4.61857c-1.32812,-0.56653 -2.86203,0.05114 -3.42856,1.37681c-0.56775,1.3269 0.04869,2.86203 1.37681,3.42856l7.20837,3.07915l-6.78883,3.91945c-1.25034,0.72209 -1.67784,2.31969 -0.95697,3.57003c0.48476,0.83846 1.36272,1.30669 2.2661,1.30669c0.44281,0 0.89328,-0.11208 1.30393,-0.34971l6.78914,-3.91977l-0.93737,7.78194c-0.17364,1.43285 0.84856,2.73433 2.28142,2.90674c0.10595,0.01286 0.21191,0.01929 0.31633,0.01929c1.30271,0 2.43086,-0.97351 2.5901,-2.30071l1.40682,-11.67351l16.97315,-9.79969l-2.49915,20.75479c-0.17364,1.43286 0.84856,2.73434 2.28142,2.90675c0.10595,0.01286 0.21191,0.01929 0.31633,0.01929c1.30271,0 2.43086,-0.97351 2.5901,-2.30041l2.9686,-24.64605l7.98619,-4.61061l-2.24375,20.63505c-0.11239,1.02832 0.39412,2.02755 1.29137,2.54569c0.8945,0.51416 2.16506,0.4569 3.00198,-0.15434l16.89996,-12.26178l0,11.83459l-20.01187,14.89537c-1.1548,0.8651 -1.46409,2.50343 -0.59776,3.65823c0.8651,1.15479 2.6149,1.39212 3.77215,0.52182l16.83748,-12.5426l0,16.986l-9.5593,7.05586c-1.1548,0.86511 -1.46409,2.50344 -0.59776,3.65824c0.86633,1.15234 2.61735,1.39212 3.77215,0.52181l6.38491,-4.70309l0,7.83951c0,1.44326 1.17011,2.61306 2.61306,2.61306s2.61307,-1.1701 2.61307,-2.61306l0,-7.83951l6.11971,4.70309c0.47068,0.35339 0.94473,0.52305 1.48951,0.52305c0.79498,0 1.54218,-0.36105 2.05481,-1.04486c0.86663,-1.1548 0.76558,-2.79313 -0.38922,-3.65824l-9.27512,-7.05586l0,-16.986l16.5726,12.5426c0.47098,0.35339 0.94472,0.52304 1.4895,0.52304c0.79498,0 1.54218,-0.36105 2.05481,-1.04486c0.86663,-1.1548 0.76558,-2.79313 -0.38922,-3.65823l-19.72769,-14.89537l0,-11.83459l16.59679,12.26178c0.45812,0.33441 0.92451,0.50406 1.46807,0.50406c0.45077,0 0.86296,-0.11606 1.26871,-0.34972c0.89726,-0.51814 1.38478,-1.51706 1.27239,-2.54569l-2.25324,-20.63505l10.24402,5.91699l2.96738,24.64636c0.15955,1.3269 1.28647,2.30041 2.58918,2.30041c0.10473,0 0.20977,-0.00643 0.31572,-0.0193c1.43286,-0.1721 2.45475,-1.47358 2.28112,-2.90674l-2.50099,-20.75509l14.71102,8.49331l1.40682,11.67351c0.15955,1.3269 1.28739,2.30071 2.5901,2.30071c0.10473,0 0.21069,-0.00643 0.31633,-0.01929c1.43286,-0.17241 2.45506,-1.47358 2.28142,-2.90674l-0.93767,-7.78194l6.78913,3.91976c0.41219,0.23733 0.86143,0.34941 1.30393,0.34941c0.90338,0 1.78134,-0.46823 2.26611,-1.30669c0.72086,-1.25034 0.29337,-2.84795 -0.95697,-3.57004l-6.78883,-3.91944l7.20867,-3.07915c1.32904,-0.56623 1.94517,-2.10136 1.37742,-3.42826zm-104.06606,-25.20033l17.07021,-7.52654l13.03624,7.52654l-13.03654,7.52654l-17.06992,-7.52654l0.00001,0zm33.02361,19.57916l-15.20527,11.02124l2.09247,-18.54655l13.1128,-7.52684l0,15.05215zm0,-24.10556l-13.1128,-7.52715l-2.09247,-18.54655l15.20527,11.02124l0,15.05246zm5.22644,-15.05246l14.9021,-11.02124l-1.9412,18.54655l-12.96121,7.52715l0,-15.05247l0.00031,0l0,0.00001zm0,39.15802l0,-15.05215l12.96121,7.52684l1.9412,18.54655l-14.90241,-11.02124zm15.34767,-12.05263l-13.03686,-7.52653l13.03686,-7.52654l17.06991,7.52654l-17.06991,7.52653z"/>
        </g>
       </g>
      </g>
     </g>
    </g>
    <g stroke="null" id="svg_170">
     <rect stroke="null" fill="none" id="svg_163" height="202" width="202" y="2007.6201" x="-435.63307" transform="matrix(0.20099826868370657,0,0,0.20099826868370657,321.0360348741098,-51.22848146176776) "/>
     <g stroke="null" id="svg_169" transform="matrix(0.20099826868370657,0,0,0.20099826868370657,321.0360348741098,-51.22848146176776) ">
      <title>Layer 1</title>
      <g stroke="null" id="svg_168">
       <g stroke="null" id="svg_167">
        <g stroke="null" id="svg_166">
         <path stroke="null" fill="#ffffff" id="svg_165" d="m-265.90072,2130.21398c-0.5653,-1.32568 -2.0989,-1.94334 -3.42856,-1.37682l-10.81392,4.61858l-14.71071,-8.49392l19.22394,-8.2122c1.32843,-0.56651 1.94456,-2.10134 1.37681,-3.42855c-0.56653,-1.3269 -2.10043,-1.94456 -3.42856,-1.37682l-22.82919,9.75161l-10.24923,-5.9176l18.99181,-8.37388c0.94809,-0.41739 1.55933,-1.35507 1.55933,-2.39105c0,-1.03598 -0.61124,-1.97396 -1.55933,-2.39105l-18.99181,-8.37388l10.24923,-5.9176l22.82919,9.75161c0.33441,0.14301 0.68259,0.21191 1.02465,0.21191c1.01424,0 1.98039,-0.59592 2.40391,-1.58872c0.56775,-1.3269 -0.04869,-2.86203 -1.37681,-3.42856l-19.22394,-8.21219l14.71071,-8.49331l10.81392,4.61827c0.33441,0.14301 0.68259,0.21191 1.02465,0.21191c1.01577,0 1.9804,-0.59592 2.40391,-1.58872c0.56776,-1.3269 -0.04838,-2.86204 -1.37681,-3.42856l-7.20867,-3.07915l6.78883,-3.91945c1.25034,-0.72209 1.67784,-2.3197 0.95697,-3.57004c-0.72362,-1.25034 -2.32368,-1.68029 -3.57034,-0.95697l-6.78914,3.91975l0.93768,-7.78193c0.17363,-1.43285 -0.84857,-2.73433 -2.28142,-2.90674c-1.4304,-0.17486 -2.73433,0.84703 -2.90674,2.28142l-1.40683,11.67351l-14.71101,8.49331l2.50068,-20.75509c0.17363,-1.43285 -0.84857,-2.73434 -2.28142,-2.90674c-1.43683,-0.18007 -2.73433,0.84703 -2.90674,2.28142l-2.96983,24.64636l-10.24862,5.91699l2.24375,-20.63505c0.11239,-1.02832 -0.39412,-2.02755 -1.29137,-2.5457c-0.89818,-0.51538 -1.86066,-0.45812 -2.69881,0.15434l-16.59679,12.26179l0,-9.22122l19.7087,-14.89537c1.1548,-0.8651 1.3122,-2.50343 0.44588,-3.65823c-0.86266,-1.15235 -2.38585,-1.38968 -3.54432,-0.52182l-16.61056,12.5426l0,-19.59846l9.25613,-7.05586c1.15479,-0.8651 1.31219,-2.50344 0.44587,-3.65823c-0.86265,-1.15235 -2.38431,-1.38968 -3.54432,-0.52182l-6.15768,4.70309l0,-7.8395c0,-1.44296 -1.17011,-2.61307 -2.61307,-2.61307s-2.61307,1.17011 -2.61307,2.61307l0,7.8395l-6.42288,-4.70309c-1.15479,-0.86755 -2.86785,-0.63022 -3.73417,0.52182c-0.86633,1.15479 -0.51907,2.79313 0.63573,3.65823l9.52132,7.05586l0,19.59907l-16.87545,-12.5426c-1.15725,-0.86755 -2.86907,-0.63022 -3.73418,0.52182c-0.86632,1.1548 -0.51906,2.79313 0.63574,3.65823l19.97389,14.89537l0,9.22122l-16.89995,-12.26178c-0.8357,-0.61124 -2.02816,-0.66973 -2.92634,-0.15434c-0.89695,0.51814 -1.44112,1.51706 -1.32935,2.54569l2.22508,20.63505l-7.99569,-4.61061l-2.97288,-24.64606c-0.17272,-1.43407 -1.47359,-2.44862 -2.9092,-2.28142c-1.43285,0.17211 -2.45627,1.47359 -2.28233,2.90675l2.49853,20.75478l-16.97375,-9.79969l-1.40682,-11.67351c-0.17088,-1.43285 -1.47879,-2.44097 -2.90675,-2.28142c-1.43285,0.1721 -2.45505,1.47358 -2.28142,2.90674l0.93738,7.78194l-6.78914,-3.91976c-1.25432,-0.72331 -2.84794,-0.29337 -3.57003,0.95697c-0.72087,1.25034 -0.29337,2.84795 0.95697,3.57004l6.78882,3.91945l-7.20775,3.07915c-1.32812,0.56653 -1.94456,2.10166 -1.37681,3.42856c0.42352,0.9928 1.38814,1.58872 2.40391,1.58872c0.34206,0 0.69024,-0.0689 1.02465,-0.21191l10.81331,-4.61826l16.97375,9.79968l-19.22424,8.2125c-1.3269,0.56653 -1.94334,2.10135 -1.37559,3.42978c0.42352,0.99158 1.38815,1.5872 2.40391,1.5872c0.34206,0 0.69025,-0.06891 1.02588,-0.21192l22.82766,-9.7513l7.98588,4.61061l-18.99181,8.37388c-0.94809,0.41739 -1.55933,1.35507 -1.55933,2.39105c0,1.03597 0.61123,1.97396 1.55933,2.39105l18.99181,8.37387l-7.98588,4.61061l-22.82766,-9.7513c-1.33333,-0.56775 -2.86449,0.04838 -3.42979,1.37559c-0.56775,1.32843 0.04869,2.86325 1.37559,3.42978l19.22424,8.2125l-16.97375,9.79999l-10.81331,-4.61857c-1.32812,-0.56653 -2.86203,0.05114 -3.42856,1.37681c-0.56775,1.3269 0.04869,2.86203 1.37681,3.42856l7.20837,3.07915l-6.78883,3.91945c-1.25034,0.72209 -1.67784,2.31969 -0.95697,3.57003c0.48476,0.83846 1.36272,1.30669 2.2661,1.30669c0.44281,0 0.89328,-0.11208 1.30393,-0.34971l6.78914,-3.91976l-0.93737,7.78194c-0.17364,1.43285 0.84856,2.73433 2.28142,2.90674c0.10595,0.01286 0.21191,0.01929 0.31633,0.01929c1.30271,0 2.43086,-0.97351 2.5901,-2.30071l1.40682,-11.67351l16.97315,-9.79969l-2.49915,20.75478c-0.17364,1.43286 0.84856,2.73434 2.28142,2.90675c0.10595,0.01286 0.21191,0.01929 0.31633,0.01929c1.30271,0 2.43086,-0.97351 2.5901,-2.30041l2.9686,-24.64605l7.98619,-4.61061l-2.24375,20.63505c-0.11239,1.02832 0.39412,2.02755 1.29137,2.54569c0.8945,0.51416 2.16506,0.4569 3.00198,-0.15434l16.89996,-12.26178l0,11.83459l-20.01187,14.89537c-1.1548,0.8651 -1.46409,2.50343 -0.59776,3.65823c0.8651,1.15479 2.6149,1.39212 3.77215,0.52182l16.83748,-12.5426l0,16.986l-9.5593,7.05586c-1.1548,0.86511 -1.46409,2.50344 -0.59776,3.65824c0.86633,1.15234 2.61735,1.39212 3.77215,0.52181l6.38491,-4.70309l0,7.83951c0,1.44326 1.17011,2.61306 2.61306,2.61306s2.61307,-1.1701 2.61307,-2.61306l0,-7.83951l6.11971,4.70309c0.47068,0.35339 0.94473,0.52305 1.48951,0.52305c0.79498,0 1.54218,-0.36105 2.05481,-1.04486c0.86663,-1.1548 0.76558,-2.79313 -0.38922,-3.65824l-9.27512,-7.05586l0,-16.986l16.5726,12.5426c0.47098,0.35339 0.94472,0.52304 1.4895,0.52304c0.79498,0 1.54218,-0.36105 2.05481,-1.04486c0.86663,-1.1548 0.76558,-2.79313 -0.38922,-3.65823l-19.72769,-14.89537l0,-11.83459l16.59679,12.26178c0.45812,0.33441 0.92451,0.50406 1.46807,0.50406c0.45077,0 0.86296,-0.11606 1.26871,-0.34972c0.89726,-0.51814 1.38478,-1.51706 1.27239,-2.54569l-2.25324,-20.63505l10.24402,5.91699l2.96738,24.64636c0.15955,1.3269 1.28647,2.30041 2.58918,2.30041c0.10473,0 0.20977,-0.00643 0.31572,-0.0193c1.43286,-0.1721 2.45475,-1.47358 2.28112,-2.90674l-2.50099,-20.75509l14.71102,8.49331l1.40682,11.67351c0.15955,1.3269 1.28739,2.30071 2.5901,2.30071c0.10473,0 0.21069,-0.00643 0.31633,-0.01929c1.43286,-0.17241 2.45506,-1.47358 2.28142,-2.90674l-0.93767,-7.78194l6.78913,3.91976c0.41219,0.23733 0.86143,0.34941 1.30393,0.34941c0.90338,0 1.78134,-0.46823 2.26611,-1.30669c0.72086,-1.25034 0.29337,-2.84795 -0.95697,-3.57004l-6.78883,-3.91944l7.20867,-3.07915c1.32904,-0.56623 1.94517,-2.10136 1.37742,-3.42826l0,0.00001zm-104.06606,-25.20034l17.07021,-7.52653l13.03624,7.52653l-13.03654,7.52654l-17.06992,-7.52654l0.00001,0zm33.02361,19.57917l-15.20527,11.02124l2.09247,-18.54655l13.1128,-7.52684l0,15.05215zm0,-24.10556l-13.1128,-7.52715l-2.09247,-18.54655l15.20527,11.02124l0,15.05246zm5.22644,-15.05246l14.9021,-11.02124l-1.9412,18.54655l-12.96121,7.52715l0,-15.05246l0.00031,0zm0,39.15802l0,-15.05215l12.96121,7.52684l1.9412,18.54655l-14.90241,-11.02124zm15.34767,-12.05263l-13.03686,-7.52654l13.03686,-7.52653l17.06991,7.52653l-17.06991,7.52654z"/>
        </g>
       </g>
      </g>
     </g>
    </g>
    <g stroke="null" id="svg_178">
     <rect stroke="null" fill="none" id="svg_171" height="202" width="202" y="1931.20693" x="-722.1825" transform="matrix(0.20099826868370657,0,0,0.20099826868370657,321.0360348741098,-51.22848146176776) "/>
     <g stroke="null" id="svg_177" transform="matrix(0.20099826868370657,0,0,0.20099826868370657,321.0360348741098,-51.22848146176776) ">
      <title>Layer 1</title>
      <g stroke="null" id="svg_176">
       <g stroke="null" id="svg_175">
        <g stroke="null" id="svg_174">
         <path stroke="null" fill="#ffffff" id="svg_173" d="m-552.45015,2053.8008c-0.5653,-1.32568 -2.0989,-1.94334 -3.42856,-1.37682l-10.81392,4.61857l-14.71071,-8.49391l19.22394,-8.21219c1.32843,-0.56652 1.94456,-2.10135 1.37681,-3.42856c-0.56653,-1.3269 -2.10043,-1.94456 -3.42856,-1.37681l-22.82919,9.75161l-10.24923,-5.9176l18.99181,-8.37388c0.94809,-0.4174 1.55933,-1.35508 1.55933,-2.39105c0,-1.03599 -0.61124,-1.97396 -1.55933,-2.39105l-18.99181,-8.37388l10.24923,-5.9176l22.82919,9.75161c0.33441,0.14301 0.68259,0.21191 1.02465,0.21191c1.01424,0 1.98039,-0.59592 2.40391,-1.58872c0.56775,-1.3269 -0.04869,-2.86203 -1.37681,-3.42856l-19.22394,-8.21219l14.71071,-8.49331l10.81392,4.61826c0.33441,0.14301 0.68259,0.21191 1.02465,0.21191c1.01577,0 1.9804,-0.59592 2.40391,-1.58872c0.56776,-1.3269 -0.04838,-2.86204 -1.37681,-3.42856l-7.20867,-3.07915l6.78883,-3.91945c1.25034,-0.72209 1.67784,-2.3197 0.95697,-3.57004c-0.72362,-1.25034 -2.32368,-1.68029 -3.57034,-0.95697l-6.78914,3.91975l0.93768,-7.78193c0.17363,-1.43285 -0.84857,-2.73433 -2.28142,-2.90674c-1.4304,-0.17486 -2.73433,0.84703 -2.90674,2.28142l-1.40683,11.67351l-14.71101,8.49331l2.50068,-20.75509c0.17363,-1.43285 -0.84857,-2.73434 -2.28142,-2.90674c-1.43683,-0.18006 -2.73433,0.84703 -2.90674,2.28142l-2.96983,24.64636l-10.24862,5.91699l2.24375,-20.63505c0.11239,-1.02832 -0.39412,-2.02755 -1.29137,-2.5457c-0.89818,-0.51538 -1.86066,-0.45812 -2.69881,0.15434l-16.59679,12.26179l0,-9.22121l19.7087,-14.89537c1.1548,-0.8651 1.3122,-2.50343 0.44588,-3.65823c-0.86266,-1.15235 -2.38585,-1.38968 -3.54432,-0.52182l-16.61056,12.5426l0,-19.59846l9.25613,-7.05586c1.15479,-0.8651 1.31219,-2.50344 0.44587,-3.65823c-0.86265,-1.15235 -2.38431,-1.38968 -3.54432,-0.52182l-6.15768,4.70309l0,-7.8395c0,-1.44296 -1.17011,-2.61307 -2.61307,-2.61307s-2.61307,1.17011 -2.61307,2.61307l0,7.8395l-6.42288,-4.70309c-1.15479,-0.86755 -2.86785,-0.63022 -3.73417,0.52182c-0.86633,1.15479 -0.51907,2.79313 0.63573,3.65823l9.52132,7.05586l0,19.59907l-16.87545,-12.5426c-1.15725,-0.86755 -2.86907,-0.63022 -3.73418,0.52182c-0.86632,1.1548 -0.51906,2.79313 0.63574,3.65823l19.97389,14.89537l0,9.22121l-16.89995,-12.26178c-0.8357,-0.61124 -2.02816,-0.66973 -2.92634,-0.15434c-0.89695,0.51814 -1.44112,1.51706 -1.32935,2.54569l2.22508,20.63505l-7.99569,-4.61061l-2.97288,-24.64606c-0.17272,-1.43407 -1.47359,-2.44861 -2.9092,-2.28142c-1.43285,0.17211 -2.45627,1.47359 -2.28233,2.90676l2.49853,20.75477l-16.97375,-9.79969l-1.40682,-11.67351c-0.17088,-1.43285 -1.47879,-2.44097 -2.90675,-2.28142c-1.43285,0.1721 -2.45505,1.47358 -2.28142,2.90674l0.93738,7.78194l-6.78914,-3.91976c-1.25432,-0.72331 -2.84794,-0.29337 -3.57003,0.95697c-0.72087,1.25034 -0.29337,2.84795 0.95697,3.57004l6.78882,3.91945l-7.20775,3.07915c-1.32812,0.56654 -1.94456,2.10166 -1.37681,3.42857c0.42352,0.9928 1.38814,1.58871 2.40391,1.58871c0.34206,0 0.69024,-0.0689 1.02465,-0.21191l10.81331,-4.61825l16.97375,9.79968l-19.22424,8.2125c-1.3269,0.56653 -1.94334,2.10135 -1.37559,3.42978c0.42352,0.99158 1.38815,1.5872 2.40391,1.5872c0.34206,0 0.69025,-0.06891 1.02588,-0.21192l22.82766,-9.7513l7.98588,4.61061l-18.99181,8.37388c-0.94809,0.41739 -1.55933,1.35507 -1.55933,2.39105c0,1.03597 0.61123,1.97396 1.55933,2.39105l18.99181,8.37387l-7.98588,4.61061l-22.82766,-9.7513c-1.33333,-0.56775 -2.86449,0.04838 -3.42979,1.37559c-0.56775,1.32843 0.04869,2.86325 1.37559,3.42978l19.22424,8.2125l-16.97375,9.79999l-10.81331,-4.61857c-1.32812,-0.56653 -2.86203,0.05114 -3.42856,1.37681c-0.56775,1.3269 0.04869,2.86203 1.37681,3.42856l7.20837,3.07915l-6.78883,3.91945c-1.25034,0.72209 -1.67784,2.31969 -0.95697,3.57003c0.48476,0.83846 1.36272,1.30669 2.2661,1.30669c0.44281,0 0.89328,-0.11208 1.30393,-0.34971l6.78914,-3.91977l-0.93737,7.78194c-0.17364,1.43285 0.84856,2.73433 2.28142,2.90674c0.10595,0.01286 0.21191,0.01929 0.31633,0.01929c1.30271,0 2.43086,-0.97351 2.5901,-2.30071l1.40682,-11.67351l16.97315,-9.79969l-2.49915,20.75479c-0.17364,1.43286 0.84856,2.73434 2.28142,2.90675c0.10595,0.01286 0.21191,0.01929 0.31633,0.01929c1.30271,0 2.43086,-0.97351 2.5901,-2.30041l2.9686,-24.64605l7.98619,-4.61061l-2.24375,20.63505c-0.11239,1.02832 0.39412,2.02755 1.29137,2.54569c0.8945,0.51416 2.16506,0.4569 3.00198,-0.15434l16.89996,-12.26178l0,11.83459l-20.01187,14.89537c-1.1548,0.8651 -1.46409,2.50343 -0.59776,3.65823c0.8651,1.15479 2.6149,1.39212 3.77215,0.52182l16.83748,-12.5426l0,16.986l-9.5593,7.05586c-1.1548,0.86511 -1.46409,2.50344 -0.59776,3.65824c0.86633,1.15234 2.61735,1.39212 3.77215,0.52181l6.38491,-4.70309l0,7.83951c0,1.44326 1.17011,2.61306 2.61306,2.61306s2.61307,-1.1701 2.61307,-2.61306l0,-7.83951l6.11971,4.70309c0.47068,0.35339 0.94473,0.52305 1.48951,0.52305c0.79498,0 1.54218,-0.36105 2.05481,-1.04486c0.86663,-1.1548 0.76558,-2.79313 -0.38922,-3.65824l-9.27512,-7.05586l0,-16.986l16.5726,12.5426c0.47098,0.35339 0.94472,0.52304 1.4895,0.52304c0.79498,0 1.54218,-0.36105 2.05481,-1.04486c0.86663,-1.1548 0.76558,-2.79313 -0.38922,-3.65823l-19.72769,-14.89537l0,-11.83459l16.59679,12.26178c0.45812,0.33441 0.92451,0.50406 1.46807,0.50406c0.45077,0 0.86296,-0.11606 1.26871,-0.34972c0.89726,-0.51814 1.38478,-1.51706 1.27239,-2.54569l-2.25324,-20.63505l10.24402,5.91699l2.96738,24.64636c0.15955,1.3269 1.28647,2.30041 2.58918,2.30041c0.10473,0 0.20977,-0.00643 0.31572,-0.0193c1.43286,-0.1721 2.45475,-1.47358 2.28112,-2.90674l-2.50099,-20.75509l14.71102,8.49331l1.40682,11.67351c0.15955,1.3269 1.28739,2.30071 2.5901,2.30071c0.10473,0 0.21069,-0.00643 0.31633,-0.01929c1.43286,-0.17241 2.45506,-1.47358 2.28142,-2.90674l-0.93767,-7.78194l6.78913,3.91976c0.41219,0.23733 0.86143,0.34941 1.30393,0.34941c0.90338,0 1.78134,-0.46823 2.26611,-1.30669c0.72086,-1.25034 0.29337,-2.84795 -0.95697,-3.57004l-6.78883,-3.91944l7.20867,-3.07915c1.32904,-0.56623 1.94517,-2.10136 1.37742,-3.42826zm-104.06606,-25.20033l17.07021,-7.52654l13.03624,7.52654l-13.03654,7.52654l-17.06992,-7.52654l0.00001,0zm33.02361,19.57916l-15.20527,11.02124l2.09247,-18.54655l13.1128,-7.52684l0,15.05215zm0,-24.10556l-13.1128,-7.52715l-2.09247,-18.54655l15.20527,11.02124l0,15.05246zm5.22644,-15.05246l14.9021,-11.02124l-1.9412,18.54655l-12.96121,7.52715l0,-15.05247l0.00031,0l0,0.00001zm0,39.15802l0,-15.05215l12.96121,7.52684l1.9412,18.54655l-14.90241,-11.02124zm15.34767,-12.05263l-13.03686,-7.52653l13.03686,-7.52654l17.06991,7.52654l-17.06991,7.52653z"/>
        </g>
       </g>
      </g>
     </g>
    </g>
    <g stroke="null" id="svg_186">
     <rect stroke="null" fill="none" id="svg_179" height="202" width="202" y="1728.93675" x="-931.19499" transform="matrix(0.20099826868370657,0,0,0.20099826868370657,321.0360348741098,-51.22848146176776) "/>
     <g stroke="null" id="svg_185" transform="matrix(0.20099826868370657,0,0,0.20099826868370657,321.0360348741098,-51.22848146176776) ">
      <title>Layer 1</title>
      <g stroke="null" id="svg_184">
       <g stroke="null" id="svg_183">
        <g stroke="null" id="svg_182">
         <path stroke="null" fill="#ffffff" id="svg_181" d="m-761.46265,1851.53061c-0.5653,-1.32567 -2.0989,-1.94334 -3.42856,-1.37681l-10.81392,4.61858l-14.71071,-8.49392l19.22394,-8.21219c1.32843,-0.56652 1.94456,-2.10135 1.37681,-3.42856c-0.56653,-1.3269 -2.10043,-1.94456 -3.42856,-1.37681l-22.82919,9.75161l-10.24923,-5.9176l18.99181,-8.37388c0.94809,-0.4174 1.55933,-1.35508 1.55933,-2.39105c0,-1.03599 -0.61124,-1.97396 -1.55933,-2.39105l-18.99181,-8.37388l10.24923,-5.9176l22.82919,9.75161c0.33441,0.14301 0.68259,0.21191 1.02465,0.21191c1.01424,0 1.98039,-0.59592 2.40391,-1.58872c0.56775,-1.3269 -0.04869,-2.86203 -1.37681,-3.42856l-19.22394,-8.21219l14.71071,-8.49331l10.81392,4.61826c0.33441,0.14301 0.68259,0.21191 1.02465,0.21191c1.01577,0 1.9804,-0.59592 2.40391,-1.58872c0.56776,-1.3269 -0.04838,-2.86203 -1.37681,-3.42856l-7.20867,-3.07915l6.78883,-3.91945c1.25034,-0.72209 1.67784,-2.3197 0.95697,-3.57004c-0.72362,-1.25034 -2.32368,-1.68029 -3.57034,-0.95697l-6.78914,3.91975l0.93768,-7.78193c0.17363,-1.43285 -0.84857,-2.73433 -2.28142,-2.90674c-1.4304,-0.17486 -2.73433,0.84703 -2.90674,2.28142l-1.40683,11.67351l-14.71101,8.49331l2.50068,-20.75509c0.17363,-1.43285 -0.84857,-2.73434 -2.28142,-2.90674c-1.43683,-0.18006 -2.73433,0.84703 -2.90674,2.28142l-2.96983,24.64636l-10.24862,5.91699l2.24375,-20.63505c0.11239,-1.02832 -0.39412,-2.02755 -1.29137,-2.5457c-0.89818,-0.51538 -1.86066,-0.45812 -2.69881,0.15434l-16.59679,12.26179l0,-9.22121l19.7087,-14.89537c1.1548,-0.8651 1.3122,-2.50343 0.44588,-3.65823c-0.86266,-1.15235 -2.38585,-1.38968 -3.54432,-0.52182l-16.61056,12.5426l0,-19.59846l9.25613,-7.05586c1.15479,-0.8651 1.31219,-2.50344 0.44587,-3.65823c-0.86265,-1.15235 -2.38431,-1.38968 -3.54432,-0.52182l-6.15768,4.70309l0,-7.8395c0,-1.44296 -1.17011,-2.61307 -2.61307,-2.61307s-2.61307,1.17011 -2.61307,2.61307l0,7.8395l-6.42288,-4.70309c-1.15479,-0.86755 -2.86785,-0.63022 -3.73417,0.52182c-0.86633,1.15479 -0.51907,2.79313 0.63573,3.65823l9.52132,7.05586l0,19.59907l-16.87545,-12.5426c-1.15725,-0.86755 -2.86907,-0.63022 -3.73418,0.52182c-0.86632,1.1548 -0.51906,2.79313 0.63574,3.65823l19.97389,14.89537l0,9.22122l-16.89995,-12.26179c-0.8357,-0.61123 -2.02816,-0.66973 -2.92634,-0.15434c-0.89695,0.51814 -1.44112,1.51706 -1.32935,2.54569l2.22508,20.63505l-7.99569,-4.61061l-2.97288,-24.64606c-0.17272,-1.43407 -1.47359,-2.44861 -2.9092,-2.28142c-1.43285,0.17211 -2.45627,1.47359 -2.28233,2.90676l2.49853,20.75478l-16.97375,-9.7997l-1.40682,-11.67351c-0.17088,-1.43285 -1.47879,-2.44097 -2.90675,-2.28142c-1.43285,0.1721 -2.45505,1.47358 -2.28142,2.90674l0.93738,7.78194l-6.78914,-3.91976c-1.25432,-0.72331 -2.84794,-0.29337 -3.57003,0.95697c-0.72087,1.25034 -0.29337,2.84795 0.95697,3.57004l6.78882,3.91945l-7.20775,3.07915c-1.32812,0.56654 -1.94456,2.10167 -1.37681,3.42857c0.42352,0.9928 1.38814,1.58872 2.40391,1.58872c0.34206,0 0.69024,-0.0689 1.02465,-0.21191l10.81331,-4.61826l16.97375,9.79968l-19.22424,8.2125c-1.3269,0.56653 -1.94334,2.10135 -1.37559,3.42978c0.42352,0.99158 1.38815,1.5872 2.40391,1.5872c0.34206,0 0.69025,-0.06891 1.02588,-0.21192l22.82766,-9.7513l7.98588,4.61061l-18.99181,8.37388c-0.94809,0.41739 -1.55933,1.35507 -1.55933,2.39105c0,1.03597 0.61123,1.97396 1.55933,2.39105l18.99181,8.37387l-7.98588,4.61061l-22.82766,-9.7513c-1.33333,-0.56775 -2.86449,0.04838 -3.42979,1.37559c-0.56775,1.32843 0.04869,2.86325 1.37559,3.42978l19.22424,8.2125l-16.97375,9.79999l-10.81331,-4.61857c-1.32812,-0.56653 -2.86203,0.05114 -3.42856,1.37681c-0.56775,1.3269 0.04869,2.86203 1.37681,3.42856l7.20837,3.07915l-6.78883,3.91945c-1.25034,0.72209 -1.67784,2.31969 -0.95697,3.57003c0.48476,0.83846 1.36272,1.30669 2.2661,1.30669c0.44281,0 0.89328,-0.11208 1.30393,-0.34971l6.78914,-3.91976l-0.93737,7.78194c-0.17364,1.43285 0.84856,2.73433 2.28142,2.90674c0.10595,0.01286 0.21191,0.01929 0.31633,0.01929c1.30271,0 2.43086,-0.97351 2.5901,-2.30071l1.40682,-11.67351l16.97315,-9.79969l-2.49915,20.75478c-0.17364,1.43286 0.84856,2.73434 2.28142,2.90675c0.10595,0.01286 0.21191,0.01929 0.31633,0.01929c1.30271,0 2.43086,-0.97351 2.5901,-2.30041l2.9686,-24.64605l7.98619,-4.61061l-2.24375,20.63505c-0.11239,1.02832 0.39412,2.02755 1.29137,2.54569c0.8945,0.51416 2.16506,0.4569 3.00198,-0.15434l16.89996,-12.26178l0,11.83458l-20.01187,14.89537c-1.1548,0.8651 -1.46409,2.50343 -0.59776,3.65823c0.8651,1.15479 2.6149,1.39212 3.77215,0.52182l16.83748,-12.5426l0,16.986l-9.5593,7.05586c-1.1548,0.86511 -1.46409,2.50344 -0.59776,3.65824c0.86633,1.15234 2.61735,1.39212 3.77215,0.52181l6.38491,-4.70309l0,7.83951c0,1.44326 1.17011,2.61306 2.61306,2.61306s2.61307,-1.1701 2.61307,-2.61306l0,-7.83951l6.11971,4.70309c0.47068,0.35339 0.94473,0.52305 1.48951,0.52305c0.79498,0 1.54218,-0.36105 2.05481,-1.04486c0.86663,-1.1548 0.76558,-2.79313 -0.38922,-3.65824l-9.27512,-7.05586l0,-16.986l16.5726,12.5426c0.47098,0.35339 0.94472,0.52304 1.4895,0.52304c0.79498,0 1.54218,-0.36105 2.05481,-1.04486c0.86663,-1.1548 0.76558,-2.79313 -0.38922,-3.65823l-19.72769,-14.89537l0,-11.83458l16.59679,12.26178c0.45812,0.33441 0.92451,0.50406 1.46807,0.50406c0.45077,0 0.86296,-0.11606 1.26871,-0.34972c0.89726,-0.51814 1.38478,-1.51706 1.27239,-2.54569l-2.25324,-20.63505l10.24402,5.91699l2.96738,24.64636c0.15955,1.3269 1.28647,2.30041 2.58918,2.30041c0.10473,0 0.20977,-0.00643 0.31572,-0.0193c1.43286,-0.1721 2.45475,-1.47358 2.28112,-2.90674l-2.50099,-20.75509l14.71102,8.49331l1.40682,11.67351c0.15955,1.3269 1.28739,2.30071 2.5901,2.30071c0.10473,0 0.21069,-0.00643 0.31633,-0.01929c1.43286,-0.17241 2.45506,-1.47358 2.28142,-2.90674l-0.93767,-7.78194l6.78913,3.91976c0.41219,0.23733 0.86143,0.34941 1.30393,0.34941c0.90338,0 1.78134,-0.46823 2.26611,-1.30669c0.72086,-1.25034 0.29337,-2.84795 -0.95697,-3.57004l-6.78883,-3.91944l7.20867,-3.07915c1.32904,-0.56623 1.94517,-2.10136 1.37742,-3.42826l0,-0.00001zm-104.06606,-25.20032l17.07021,-7.52655l13.03624,7.52655l-13.03654,7.52654l-17.06992,-7.52654l0.00001,0zm33.02361,19.57916l-15.20527,11.02124l2.09247,-18.54655l13.1128,-7.52684l0,15.05215zm0,-24.10556l-13.1128,-7.52715l-2.09247,-18.54655l15.20527,11.02124l0,15.05246zm5.22644,-15.05247l14.9021,-11.02124l-1.9412,18.54655l-12.96121,7.52715l0,-15.05246l0.00031,0zm0,39.15803l0,-15.05215l12.96121,7.52684l1.9412,18.54655l-14.90241,-11.02124zm15.34767,-12.05263l-13.03686,-7.52653l13.03686,-7.52655l17.06991,7.52655l-17.06991,7.52653z"/>
        </g>
       </g>
      </g>
     </g>
    </g>
    <g stroke="null" id="svg_26">
     <rect stroke="null" fill="none" id="svg_13" height="202" width="202" y="1153.59044" x="-931.19501" transform="matrix(0.20099826868370657,0,0,0.20099826868370657,321.0360348741098,-51.22848146176776) "/>
     <g stroke="null" id="svg_25" transform="matrix(0.20099826868370657,0,0,0.20099826868370657,321.0360348741098,-51.22848146176776) ">
      <title>Layer 1</title>
      <g stroke="null" id="svg_24">
       <g stroke="null" id="svg_20">
        <g stroke="null" id="svg_18">
         <path stroke="null" fill="#ffffff" id="svg_17" d="m-761.46266,1276.18429c-0.5653,-1.32567 -2.0989,-1.94334 -3.42856,-1.37681l-10.81392,4.61857l-14.71071,-8.49392l19.22394,-8.21219c1.32843,-0.56652 1.94456,-2.10135 1.37681,-3.42856c-0.56653,-1.3269 -2.10043,-1.94456 -3.42856,-1.37681l-22.82919,9.75161l-10.24923,-5.9176l18.99181,-8.37388c0.94809,-0.41739 1.55933,-1.35507 1.55933,-2.39105c0,-1.03598 -0.61124,-1.97396 -1.55933,-2.39105l-18.99181,-8.37388l10.24923,-5.9176l22.82919,9.75161c0.33441,0.14301 0.68259,0.21191 1.02465,0.21191c1.01424,0 1.98039,-0.59592 2.40391,-1.58872c0.56775,-1.3269 -0.04869,-2.86203 -1.37681,-3.42856l-19.22394,-8.21219l14.71071,-8.49331l10.81392,4.61827c0.33441,0.14301 0.68259,0.21191 1.02465,0.21191c1.01577,0 1.9804,-0.59592 2.40391,-1.58872c0.56776,-1.3269 -0.04838,-2.86204 -1.37681,-3.42856l-7.20867,-3.07915l6.78883,-3.91945c1.25034,-0.72209 1.67784,-2.3197 0.95697,-3.57004c-0.72362,-1.25034 -2.32368,-1.68029 -3.57034,-0.95697l-6.78914,3.91975l0.93768,-7.78193c0.17363,-1.43285 -0.84857,-2.73433 -2.28142,-2.90674c-1.4304,-0.17486 -2.73433,0.84703 -2.90674,2.28142l-1.40683,11.67351l-14.71101,8.49331l2.50068,-20.75509c0.17363,-1.43285 -0.84857,-2.73434 -2.28142,-2.90674c-1.43683,-0.18007 -2.73433,0.84703 -2.90674,2.28142l-2.96983,24.64636l-10.24862,5.91699l2.24375,-20.63505c0.11239,-1.02832 -0.39412,-2.02755 -1.29137,-2.5457c-0.89818,-0.51538 -1.86066,-0.45812 -2.69881,0.15434l-16.59679,12.26179l0,-9.22122l19.7087,-14.89537c1.1548,-0.8651 1.3122,-2.50343 0.44588,-3.65823c-0.86266,-1.15235 -2.38585,-1.38968 -3.54432,-0.52182l-16.61056,12.5426l0,-19.59846l9.25613,-7.05586c1.15479,-0.8651 1.31219,-2.50344 0.44587,-3.65823c-0.86265,-1.15235 -2.38431,-1.38968 -3.54432,-0.52182l-6.15768,4.70309l0,-7.8395c0,-1.44296 -1.17011,-2.61307 -2.61307,-2.61307s-2.61307,1.17011 -2.61307,2.61307l0,7.8395l-6.42288,-4.70309c-1.15479,-0.86755 -2.86785,-0.63022 -3.73417,0.52182c-0.86633,1.15479 -0.51907,2.79313 0.63573,3.65823l9.52132,7.05586l0,19.59907l-16.87545,-12.5426c-1.15725,-0.86755 -2.86907,-0.63022 -3.73418,0.52182c-0.86632,1.1548 -0.51906,2.79313 0.63574,3.65823l19.97389,14.89537l0,9.22122l-16.89995,-12.26178c-0.8357,-0.61124 -2.02816,-0.66973 -2.92634,-0.15434c-0.89695,0.51814 -1.44112,1.51706 -1.32935,2.54569l2.22508,20.63505l-7.99569,-4.61061l-2.97288,-24.64606c-0.17272,-1.43407 -1.47359,-2.44862 -2.9092,-2.28142c-1.43285,0.17211 -2.45627,1.47359 -2.28233,2.90675l2.49853,20.75478l-16.97375,-9.79969l-1.40682,-11.67351c-0.17088,-1.43285 -1.47879,-2.44097 -2.90675,-2.28142c-1.43285,0.1721 -2.45505,1.47358 -2.28142,2.90674l0.93738,7.78194l-6.78914,-3.91976c-1.25432,-0.72331 -2.84794,-0.29337 -3.57003,0.95697c-0.72087,1.25034 -0.29337,2.84795 0.95697,3.57004l6.78882,3.91945l-7.20775,3.07915c-1.32812,0.56653 -1.94456,2.10166 -1.37681,3.42856c0.42352,0.9928 1.38814,1.58872 2.40391,1.58872c0.34206,0 0.69024,-0.0689 1.02465,-0.21191l10.81331,-4.61826l16.97375,9.79968l-19.22424,8.2125c-1.3269,0.56653 -1.94334,2.10135 -1.37559,3.42978c0.42352,0.99158 1.38815,1.5872 2.40391,1.5872c0.34206,0 0.69025,-0.06891 1.02588,-0.21192l22.82766,-9.7513l7.98588,4.61061l-18.99181,8.37388c-0.94809,0.41739 -1.55933,1.35507 -1.55933,2.39105c0,1.03597 0.61123,1.97396 1.55933,2.39105l18.99181,8.37387l-7.98588,4.61061l-22.82766,-9.7513c-1.33333,-0.56775 -2.86449,0.04838 -3.42979,1.37559c-0.56775,1.32843 0.04869,2.86325 1.37559,3.42978l19.22424,8.2125l-16.97375,9.79999l-10.81331,-4.61857c-1.32812,-0.56653 -2.86203,0.05114 -3.42856,1.37681c-0.56775,1.3269 0.04869,2.86203 1.37681,3.42856l7.20837,3.07915l-6.78883,3.91945c-1.25034,0.72209 -1.67784,2.31969 -0.95697,3.57003c0.48476,0.83846 1.36272,1.30669 2.2661,1.30669c0.44281,0 0.89328,-0.11208 1.30393,-0.34971l6.78914,-3.91976l-0.93737,7.78194c-0.17364,1.43285 0.84856,2.73433 2.28142,2.90674c0.10595,0.01286 0.21191,0.01929 0.31633,0.01929c1.30271,0 2.43086,-0.97351 2.5901,-2.30071l1.40682,-11.67351l16.97315,-9.79969l-2.49915,20.75478c-0.17364,1.43286 0.84856,2.73434 2.28142,2.90675c0.10595,0.01286 0.21191,0.01929 0.31633,0.01929c1.30271,0 2.43086,-0.97351 2.5901,-2.30041l2.9686,-24.64605l7.98619,-4.61061l-2.24375,20.63505c-0.11239,1.02832 0.39412,2.02755 1.29137,2.54569c0.8945,0.51416 2.16506,0.4569 3.00198,-0.15434l16.89996,-12.26178l0,11.83459l-20.01187,14.89537c-1.1548,0.8651 -1.46409,2.50343 -0.59776,3.65823c0.8651,1.15479 2.6149,1.39212 3.77215,0.52182l16.83748,-12.5426l0,16.986l-9.5593,7.05586c-1.1548,0.86511 -1.46409,2.50344 -0.59776,3.65824c0.86633,1.15234 2.61735,1.39212 3.77215,0.52181l6.38491,-4.70309l0,7.83951c0,1.44326 1.17011,2.61306 2.61306,2.61306s2.61307,-1.1701 2.61307,-2.61306l0,-7.83951l6.11971,4.70309c0.47068,0.35339 0.94473,0.52305 1.48951,0.52305c0.79498,0 1.54218,-0.36105 2.05481,-1.04486c0.86663,-1.1548 0.76558,-2.79313 -0.38922,-3.65824l-9.27512,-7.05586l0,-16.986l16.5726,12.5426c0.47098,0.35339 0.94472,0.52304 1.4895,0.52304c0.79498,0 1.54218,-0.36105 2.05481,-1.04486c0.86663,-1.1548 0.76558,-2.79313 -0.38922,-3.65823l-19.72769,-14.89537l0,-11.83459l16.59679,12.26178c0.45812,0.33441 0.92451,0.50406 1.46807,0.50406c0.45077,0 0.86296,-0.11606 1.26871,-0.34972c0.89726,-0.51814 1.38478,-1.51706 1.27239,-2.54569l-2.25324,-20.63505l10.24402,5.91699l2.96738,24.64636c0.15955,1.3269 1.28647,2.30041 2.58918,2.30041c0.10473,0 0.20977,-0.00643 0.31572,-0.0193c1.43286,-0.1721 2.45475,-1.47358 2.28112,-2.90674l-2.50099,-20.75509l14.71102,8.49331l1.40682,11.67351c0.15955,1.3269 1.28739,2.30071 2.5901,2.30071c0.10473,0 0.21069,-0.00643 0.31633,-0.01929c1.43286,-0.17241 2.45506,-1.47358 2.28142,-2.90674l-0.93767,-7.78194l6.78913,3.91976c0.41219,0.23733 0.86143,0.34941 1.30393,0.34941c0.90338,0 1.78134,-0.46823 2.26611,-1.30669c0.72086,-1.25034 0.29337,-2.84795 -0.95697,-3.57004l-6.78883,-3.91944l7.20867,-3.07915c1.32904,-0.56623 1.94517,-2.10136 1.37742,-3.42826zm-104.06606,-25.20033l17.07021,-7.52654l13.03624,7.52654l-13.03654,7.52654l-17.06992,-7.52654l0.00001,0zm33.02361,19.57916l-15.20527,11.02124l2.09247,-18.54655l13.1128,-7.52684l0,15.05215zm0,-24.10556l-13.1128,-7.52715l-2.09247,-18.54655l15.20527,11.02124l0,15.05246zm5.22644,-15.05246l14.9021,-11.02124l-1.9412,18.54655l-12.96121,7.52715l0,-15.05246l0.00031,0zm0,39.15802l0,-15.05215l12.96121,7.52684l1.9412,18.54655l-14.90241,-11.02124zm15.34767,-12.05263l-13.03686,-7.52653l13.03686,-7.52654l17.06991,7.52654l-17.06991,7.52653z"/>
        </g>
       </g>
      </g>
     </g>
    </g>
   </g>
  </g>
  <metadata>government icon - symbolgovernmenticonsymbollawparliamentstatecapitolpresidentOpen Clip Art Librarymomo18 09 2005image/svg+xmlen</metadata>
  <defs>
   <style type="text/css">.fil0 {fill:#ffffff}</style>
  </defs>
  <!-- Created with the Wikimedia parliament diagram creator (http://tools.wmflabs.org/parliamentdiagram/parliamentinputform.html) -->
  <g stroke="null" id="svg_227">
   <g stroke="null" id="svg_36" transform="matrix(0.02017087182290248,0,0,-0.02017087182290248,-60840.94833179396,-41093.614434648225) ">
    <g stroke="null" id="svg_12">
     <g stroke="null" id="svg_11" clip-path="url(#svg_218)">
      <g stroke="null" id="svg_5">
       <path stroke="null" fill="#ffffff" fill-rule="nonzero" d="m3031959.14792,-2059892.67967l0,852.991l631.641,0l0,571.734l-631.641,0l0,770.002l-687.003,-108.812l0,-2095.136c0,-156.766 14.554,-299.7 43.804,-428.801c29.176,-129.101 80.686,-239.039 154.459,-329.669c73.772,-90.703 172.11,-161.377 295.09,-212.096c122.904,-50.718 278.158,-76.077 465.684,-76.077c147.545,0 272.035,12.32 373.474,36.885c101.434,24.568 193.651,53.745 276.643,87.605l-96.826,534.849c-64.549,-24.639 -136.016,-43.802 -214.399,-57.635c-78.383,-13.832 -154.459,-20.748 -228.234,-20.748c-153.74,0 -255.895,43.01 -306.615,129.101c-50.717,86.02 -76.077,201.287 -76.077,345.807" id="svg_3"/>
      </g>
      <g stroke="null" id="svg_10">
       <path stroke="null" fill="#ffffff" fill-rule="nonzero" d="m3027020.65183,-2060893.21485c126.652,267.208 251.502,545.295 374.408,834.26c122.906,288.965 239.615,574.832 350.274,857.674c110.658,282.768 212.527,553.074 305.679,810.917c93.151,257.769 175.497,488.594 247.108,692.405l-765.747,0c-60.084,-186.016 -126.723,-385.648 -199.92,-598.895c-73.195,-213.319 -147.688,-425.918 -223.621,-637.724c-75.934,-211.879 -149.562,-414.824 -220.74,-608.836c-71.179,-194.084 -136.81,-361.226 -196.822,-501.42c-63.686,141.132 -130.326,308.703 -199.92,502.788c-69.594,194.085 -142.357,397.029 -218.291,608.908c-75.933,211.808 -150.57,424.405 -223.765,637.726c-73.196,213.248 -139.692,412.447 -199.488,597.453l-793.051,0c67.865,-202.801 148.553,-433.339 241.921,-691.686c93.368,-258.345 195.669,-528.797 307.048,-811.277c111.307,-282.553 228.809,-568.132 352.579,-856.736c123.698,-288.677 249.125,-567.197 376.353,-835.557l685.995,0z" id="svg_9"/>
      </g>
     </g>
    </g>
    <g stroke="null" id="svg_27">
     <path stroke="null" fill="#ffffff" fill-rule="nonzero" d="m3031045.28366,-2057697.9553l-686.989,-108.809l0,-3086.437l687.001,0l0,3195.246l-0.012,0z" id="svg_16"/>
    </g>
    <g stroke="null" id="svg_35">
     <g stroke="null" id="svg_30" clip-path="url(#svg_211)">
      <g stroke="null" id="svg_29">
       <path stroke="null" fill="#ffffff" fill-rule="nonzero" d="m3029542.9614,-2059712.82615c0,-340.375 -275.93,-616.305 -616.305,-616.305c-340.378,0 -616.307,275.93 -616.307,616.305c0,340.375 275.929,616.305 616.307,616.305c340.375,0 616.305,-275.93 616.305,-616.305m623.352,0c0,687.555 -557.375,1244.938 -1244.934,1244.938c-283.448,0 -544.762,-94.743 -754.03,-254.266c-58.25,-155.531 -119.418,-315.219 -183.56,-479.125c-92.588,-236.656 -189.43,-475.438 -290.575,-716.367c97.679,-590.11 610.369,-1040.118 1228.165,-1040.118c687.559,0 1244.934,557.383 1244.934,1244.938" id="svg_28"/>
      </g>
     </g>
    </g>
   </g>
  </g>
  <path stroke="null" transform="rotate(180 255.99999999999997,256) " fill="#ffffff" d="m316.129,255.407421c-0.380944,0.169308 -0.804214,0.296289 -1.227485,0.296289c-1.058177,0 -2.074026,-0.592579 -2.708932,-1.608429l-4.782959,-8.423086c0,0 -0.465598,0.126981 -1.269812,0.169308l3.386165,24.041774c0.423271,1.777737 -0.550252,3.513147 -2.116353,3.978744l-0.380944,0.084654c-1.608429,0.423271 -3.259184,-0.677233 -3.724782,-2.45497l-2.581951,-15.576361l-2.074026,0.380944l1.566101,19.34347c0.253962,1.820064 -0.888868,3.47082 -2.497297,3.724782l-0.169308,-0.042327c-1.608429,0.211635 -3.132203,-1.01585 -3.428492,-2.793586l-2.116353,-19.512778l-2.074026,-0.084654l0.634906,16.295921c0.042327,0.338617 0,0.634906 -0.042327,0.931195c1.312139,8.973338 2.15868,18.62391 2.243335,20.06303c0.677233,3.047549 -1.01585,6.095098 -3.936417,7.195601c-1.608429,0.634906 -3.428492,0.507925 -4.994594,-0.253962c-1.566101,-0.761887 -2.708932,-2.15868 -3.216857,-3.809436c0,-0.084654 -0.042327,-0.169308 -0.042327,-0.211635l-1.650756,-9.015665l1.523774,17.862022c0,0.042327 0,0.042327 0,0.084654c0.211635,3.640128 -2.497297,6.772331 -6.095098,7.110947c-1.820064,0.169308 -3.640128,-0.380944 -5.036921,-1.523774c-1.396793,-1.185158 -2.243335,-2.793586 -2.412643,-4.655977l-1.100504,-9.692898l0.507925,14.687492l0,0.126981c-0.126981,3.724782 -3.089876,6.603022 -6.814658,6.603022l-0.296289,0c-3.724782,0 -6.772331,-3.005222 -6.814658,-6.730004l-1.142831,-17.311771l-0.338617,12.190195c0,0.042327 0,0.126981 0,0.169308c-0.211635,1.820064 -1.100504,3.428492 -2.539624,4.571323c-1.43912,1.142831 -3.216857,1.650756 -4.994594,1.43912l-0.592579,-0.084654c-3.597801,-0.423271 -6.264406,-3.682455 -6.010444,-7.280256l0,-28.486116l-3.513147,7.999816c0,0.042327 -0.042327,0.042327 -0.042327,0.084654c-1.523774,3.089876 -4.994594,4.655977 -8.296105,3.724782c-3.640128,-0.973523 -5.841135,-4.740632 -4.90994,-8.465413l0.126981,-0.592579c0.973523,-3.809436 1.862391,-7.491891 2.708932,-10.497113l1.481447,-11.047365l-2.285662,-0.211635l-4.063398,19.131834c-0.465598,1.73541 -2.285662,2.751259 -4.021071,2.327989l-0.169308,-0.042327c-1.777737,-0.423271 -2.878241,-2.243335 -2.412643,-4.021071l3.47082,-19.04718l-2.243335,-0.634906l-4.275034,15.195417c-0.634906,1.73541 -2.581951,2.581951 -4.275034,1.947045l-0.380944,-0.169308c-1.693083,-0.634906 -2.581951,-2.497297 -1.947045,-4.232707l5.883462,-23.449195c-0.888868,-0.169308 -1.396793,-0.338617 -1.396793,-0.338617l-6.010444,7.745853c-0.677233,0.804214 -1.693083,1.269812 -2.708932,1.269812c-0.592579,0 -1.185158,-0.169308 -1.73541,-0.465598c-1.650756,-0.931195 -2.243335,-3.047549 -1.354466,-4.740632c1.947045,-3.597801 5.036921,-9.438936 6.222079,-11.089692c1.989372,-2.751259 3.936417,-5.079248 6.052771,-6.814658c2.116353,-1.73541 4.402015,-2.878241 7.153274,-3.301511l1.01585,-4.063398c-0.084654,0 -0.169308,-0.042327 -0.211635,-0.084654c-5.798808,-2.15868 -5.6295,-4.317361 -5.417865,-5.206229c0,-0.042327 0.042327,-0.126981 0.042327,-0.169308l6.179752,-23.110579c0.253962,-0.931195 1.100504,-1.566101 2.031699,-1.566101c0.169308,0 0.380944,0 0.550252,0.084654c1.142831,0.296289 1.820064,1.43912 1.481447,2.581951l-5.290883,19.893722c0.761887,0.042327 1.481447,0.126981 2.074026,0.211635c2.962895,0.380944 7.026293,1.185158 11.724598,2.370316c1.73541,0.423271 3.301511,0.846541 4.740632,1.269812l0,-24.25341c0,-1.185158 0.931195,-2.116353 2.116353,-2.116353s2.116353,0.931195 2.116353,2.116353l0,35.851026c0.084654,-0.042327 0.169308,-0.042327 0.253962,-0.084654c0.71956,-0.169308 1.523774,-0.338617 2.497297,-0.550252c0.846541,-0.169308 1.73541,-0.338617 2.751259,-0.507925c2.243335,-0.380944 4.90994,-0.71956 7.872835,-0.973523c0,0 0,0 0,0c4.317361,-0.338617 9.311955,-0.465598 14.729819,0c2.666605,0.211635 5.460192,0.550252 8.338432,1.058177c1.01585,0.169308 2.031699,0.380944 3.047549,0.592579c0.253962,0.042327 0.465598,0.126981 0.71956,0.169308l0,-35.554736c0,-1.185158 0.931195,-2.116353 2.116353,-2.116353c1.185158,0 2.116353,0.931195 2.116353,2.116353l0,22.856616c2.243335,-0.507925 5.121575,-1.01585 8.592395,-1.523774c4.359688,-0.592579 8.08447,-0.931195 10.835729,-0.931195l0.338617,0c0.380944,0 0.846541,0 1.312139,0.042327l-3.005222,-20.105357c-0.169308,-1.142831 0.634906,-2.243335 1.777737,-2.412643c0.126981,0 0.211635,0 0.296289,0c1.01585,0 1.947045,0.761887 2.074026,1.820064l3.513147,23.364541l0,0.084654c0,0.042327 0,0.042327 0,0.084654c0,0.042327 0,0.084654 0,0.126981c0,0.042327 0,0.084654 0,0.126981c0.084654,1.904718 -1.73541,3.386165 -5.460192,4.402015c-0.084654,0.042327 -0.169308,0.042327 -0.296289,0.042327l0.592579,4.148053c2.412643,0.761887 4.402015,2.15868 6.179752,4.148053c1.777737,1.947045 3.343838,4.486669 4.90994,7.491891c0.931195,1.777737 3.259184,7.957489 4.698304,11.766925c0.634906,1.693083 -0.042327,3.682455 -1.650756,4.444342zm-27.554921,39.660462c-0.042327,-0.126981 -0.042327,-0.211635 -0.042327,-0.338617c0,-0.169308 -0.761887,-9.311955 -1.989372,-18.242966l0,0c-0.761887,-5.417865 -1.650756,-10.751075 -2.708932,-13.883278c0,0 0,0 0,0c-0.084654,-0.296289 -0.169308,-0.550252 -0.296289,-0.804214c-0.846541,-2.201007 -1.608429,-3.978744 -2.412643,-5.460192c-1.650756,-3.047549 -3.386165,-4.952267 -6.179752,-7.153274c-0.507925,-0.423271 -1.058177,-0.846541 -1.650756,-1.269812c-0.550252,-0.380944 -0.846541,-1.01585 -0.846541,-1.693083l0,-11.809252c-2.793586,-0.507925 -5.544846,-0.846541 -8.169124,-1.01585c-1.947045,-0.042327 -4.19038,-0.084654 -6.730004,-0.084654c-2.243335,0 -4.275034,0.042327 -6.137425,0.084654c-3.005222,0.211635 -5.714154,0.550252 -7.999816,0.931195l0,11.132019c0,0.846541 -0.507925,1.608429 -1.269812,1.947045c-0.169308,0.084654 -0.380944,0.169308 -0.550252,0.253962c-3.89409,1.777737 -6.730004,4.825286 -9.057992,8.80403c-0.338617,0.592579 -0.677233,1.185158 -1.01585,1.820064c-0.973523,1.904718 -1.904718,4.021071 -2.793586,6.264406c-0.804214,2.074026 -2.497297,8.634722 -3.809436,13.798624c-0.253962,0.931195 -0.465598,1.820064 -0.677233,2.666605l-0.169308,0.592579c-0.380944,1.523774 0.507925,3.005222 1.989372,3.428492c1.312139,0.380944 2.708932,-0.253962 3.343838,-1.481447l5.036921,-11.428308l0,0l0.550252,-1.227485c0.380944,-0.846541 1.269812,-1.354466 2.201007,-1.269812c0,0 0.804214,0.084654 2.074026,-0.042327c1.058177,-0.126981 2.497297,-0.380944 4.021071,-0.973523c1.820064,-0.761887 3.17453,-1.650756 3.216857,-1.650756c0.973523,-0.634906 2.285662,-0.380944 2.920568,0.592579c0.634906,0.973523 0.380944,2.285662 -0.592579,2.920568c-1.523774,1.01585 -3.047549,1.73541 -4.444342,2.243335c-1.01585,0.380944 -2.15868,0.71956 -3.343838,0.931195l-0.042327,32.168571c0,0.042327 0,0.126981 0,0.211635c-0.126981,1.396793 0.888868,2.624278 2.243335,2.793586l0.592579,0.084654c0.677233,0.084654 1.354466,-0.126981 1.904718,-0.550252c0.507925,-0.423271 0.846541,-1.01585 0.931195,-1.650756l0.634906,-22.094729c0,-0.550252 0.253962,-1.100504 0.677233,-1.481447c0.423271,-0.380944 0.973523,-0.592579 1.523774,-0.592579l3.301511,0.084654c1.100504,0.042327 1.989372,0.888868 2.031699,1.989372l1.777737,27.216304c0,0.042327 0,0.084654 0,0.126981c0,1.396793 1.142831,2.581951 2.581951,2.581951l0.253962,0c1.396793,0 2.497297,-1.058177 2.581951,-2.45497l-0.973523,-27.42794c-0.042327,-1.058177 0.71956,-1.989372 1.777737,-2.15868l3.216857,-0.507925c0.550252,-0.084654 1.142831,0.042327 1.608429,0.380944c0.465598,0.338617 0.761887,0.888868 0.804214,1.43912l2.581951,22.771962c0,0.042327 0,0.042327 0,0.084654c0.042327,0.677233 0.380944,1.312139 0.931195,1.777737s1.185158,0.634906 1.904718,0.592579c1.354466,-0.126981 2.370316,-1.312139 2.285662,-2.666605l-2.327989,-27.13165c-0.084654,-0.931195 0.423271,-1.777737 1.269812,-2.116353l3.132203,-1.354466c0.592579,-0.253962 1.269812,-0.211635 1.820064,0.084654c0.550252,0.296289 0.973523,0.846541 1.100504,1.481447l3.513147,18.962526c0.169308,0.507925 0.550252,0.931195 1.01585,1.142831c0.507925,0.253962 1.100504,0.296289 1.650756,0.084654c0.931195,-0.423271 1.481447,-1.43912 1.227485,-2.45497z" id="svg_43"/>
  <use stroke="null" xlink:href="#svg_41" width="293.1" height="296.4" x="118.270031" y="-459.420097" transform="matrix(0.4127850556576201,0,0,-0.4127850556576201,146.72752387887488,127.49171752137514) " id="svg_45" fill="#ffffff"/>
 </g>
</svg>